<svg xmlns="http://www.w3.org/2000/svg" width="58" height="57" viewBox="0 0 58 57">
  <g id="Groupe_1525" data-name="Groupe 1525" transform="translate(0.12 -0.5)">
    <rect id="Rectangle_685" data-name="Rectangle 685" width="58" height="57" transform="translate(-0.12 0.5)" fill="none"/>
    <path id="Tracé_118" data-name="Tracé 118" d="M51.723,52.986a18.844,18.844,0,0,0,8.725,8.685,1.771,1.771,0,0,0,1.749-.132l5.593-3.73a1.787,1.787,0,0,1,1.7-.156l10.464,4.484a1.781,1.781,0,0,1,1.072,1.854,10.725,10.725,0,0,1-10.638,9.366A30.383,30.383,0,0,1,40,42.974a10.725,10.725,0,0,1,9.365-10.638,1.781,1.781,0,0,1,1.854,1.072l4.488,10.473a1.787,1.787,0,0,1-.147,1.683l-3.717,5.679a1.771,1.771,0,0,0-.12,1.744Z" transform="translate(-31.064 -24.793)" fill="none" stroke="#ff8557" stroke-linecap="round" stroke-linejoin="round" stroke-width="2"/>
  </g>
</svg>
