<svg xmlns="http://www.w3.org/2000/svg" width="86.654" height="93.328" viewBox="0 0 86.654 93.328">
  <g id="Groupe_1704" data-name="Groupe 1704" transform="translate(0)">
    <g id="Groupe_1705" data-name="Groupe 1705" transform="translate(0 0)">
      <path id="Tracé_130" data-name="Tracé 130" d="M185.733,433.619H174.878a1.7,1.7,0,1,1,0-3.4h10.854a1.7,1.7,0,1,1,0,3.4" transform="translate(-136.979 -340.29)" fill="#47b900"/>
      <path id="Tracé_131" data-name="Tracé 131" d="M358.076,199.856H345.3c.034.573.053,1.15.053,1.729s-.017,1.124-.046,1.668h12.769a1.7,1.7,0,0,0,0-3.4" transform="translate(-273.121 -158.079)" fill="#47b900"/>
      <path id="Tracé_132" data-name="Tracé 132" d="M14.474,199.856H1.7a1.7,1.7,0,1,0,0,3.4H14.467c-.029-.544-.046-1.1-.046-1.668s.019-1.155.052-1.729" transform="translate(0 -158.079)" fill="#47b900"/>
      <path id="Tracé_133" data-name="Tracé 133" d="M67.709,300.527l-8.889,8.889a1.7,1.7,0,0,0,2.4,2.4l8.558-8.558c-.374-.507-.778-1.04-1.221-1.618-.276-.36-.56-.732-.85-1.115" transform="translate(-46.131 -237.706)" fill="#47b900"/>
      <path id="Tracé_134" data-name="Tracé 134" d="M301.461,70.987l9.047-9.047a1.7,1.7,0,1,0-2.4-2.4l-9.049,9.049q.64.569,1.253,1.179.6.6,1.151,1.221" transform="translate(-236.544 -46.699)" fill="#47b900"/>
      <path id="Tracé_135" data-name="Tracé 135" d="M202.534,14.65V1.7a1.7,1.7,0,0,0-3.4,0V14.65c.564-.032,1.131-.051,1.7-.051s1.134.018,1.7.051" transform="translate(-157.51 0.001)" fill="#47b900"/>
      <path id="Tracé_136" data-name="Tracé 136" d="M301.4,303.271l8.556,8.557a1.7,1.7,0,1,0,2.4-2.4l-8.888-8.888c-.289.382-.573.754-.848,1.113-.443.579-.848,1.113-1.223,1.621" transform="translate(-238.397 -237.715)" fill="#47b900"/>
      <path id="Tracé_137" data-name="Tracé 137" d="M70.27,68.586l-9.049-9.049a1.7,1.7,0,1,0-2.4,2.4l9.047,9.047q.557-.624,1.152-1.222.611-.611,1.252-1.179" transform="translate(-46.13 -46.698)" fill="#47b900"/>
      <path id="Tracé_138" data-name="Tracé 138" d="M172.881,377.8H152.791a1.7,1.7,0,1,1,0-3.4h20.089a1.7,1.7,0,0,1,0,3.4" transform="translate(-119.509 -296.143)" fill="#47b900"/>
      <path id="Tracé_139" data-name="Tracé 139" d="M172.881,405.711H152.791a1.7,1.7,0,1,1,0-3.4h20.089a1.7,1.7,0,0,1,0,3.4" transform="translate(-119.509 -318.216)" fill="#47b900"/>
      <path id="Tracé_140" data-name="Tracé 140" d="M126.815,149.949H106.726a1.7,1.7,0,0,1-1.7-1.7v-1.621c0-4.82-2.408-7.964-5.2-11.6-3.271-4.272-6.979-9.113-6.979-17.4a23.917,23.917,0,0,1,47.835,0c0,8.284-3.708,13.126-6.979,17.4-2.788,3.64-5.2,6.785-5.2,11.6v1.621a1.7,1.7,0,0,1-1.7,1.7m-18.391-3.4h16.693c.026-5.928,3.009-9.824,5.9-13.593,3.087-4.031,6.279-8.2,6.279-15.332a20.52,20.52,0,0,0-41.041,0c0,7.132,3.192,11.3,6.279,15.332,2.886,3.769,5.869,7.665,5.9,13.593" transform="translate(-73.443 -74.121)" fill="#47b900"/>
      <rect id="Rectangle_692" data-name="Rectangle 692" width="5.226" height="20.973" rx="1.417" transform="translate(40.714 34.489)" fill="#47b900"/>
      <path id="Tracé_141" data-name="Tracé 141" d="M198.59,281.775a3.118,3.118,0,1,1-3.118-3.118,3.119,3.119,0,0,1,3.118,3.118" transform="translate(-152.145 -220.408)" fill="#47b900"/>
    </g>
  </g>
</svg>
