<svg id="Groupe_1698" data-name="Groupe 1698" xmlns="http://www.w3.org/2000/svg" width="47.833" height="73.736" viewBox="0 0 47.833 73.736">
  <g id="Groupe_1702" data-name="Groupe 1702" transform="translate(0 0)">
    <path id="Tracé_124" data-name="Tracé 124" d="M80.027,284.094H59.938a1.7,1.7,0,0,1,0-3.4H80.027a1.7,1.7,0,1,1,0,3.4" transform="translate(-46.066 -222.024)" fill="#d30000"/>
    <path id="Tracé_125" data-name="Tracé 125" d="M80.027,312H59.938a1.7,1.7,0,1,1,0-3.4H80.027a1.7,1.7,0,1,1,0,3.4" transform="translate(-46.066 -244.098)" fill="#d30000"/>
    <path id="Tracé_126" data-name="Tracé 126" d="M33.96,56.236H13.872a1.7,1.7,0,0,1-1.7-1.7V52.917c0-4.82-2.408-7.964-5.2-11.6C3.707,37.041,0,32.2,0,23.916a23.916,23.916,0,0,1,47.832,0c0,8.283-3.707,13.125-6.978,17.4-2.788,3.64-5.2,6.784-5.2,11.6v1.621a1.7,1.7,0,0,1-1.7,1.7m-18.39-3.4H32.262c.026-5.927,3.009-9.824,5.9-13.592,3.087-4.031,6.279-8.2,6.279-15.331a20.52,20.52,0,0,0-41.039,0c0,7.132,3.192,11.3,6.279,15.331,2.886,3.769,5.869,7.665,5.9,13.592" transform="translate(0 0)" fill="#d30000"/>
    <path id="Tracé_127" data-name="Tracé 127" d="M92.879,339.909H82.025a1.7,1.7,0,1,1,0-3.4H92.879a1.7,1.7,0,0,1,0,3.4" transform="translate(-63.537 -266.172)" fill="#d30000"/>
    <path id="Tracé_128" data-name="Tracé 128" d="M105.737,188.065a3.118,3.118,0,1,1-3.118-3.118,3.118,3.118,0,0,1,3.118,3.118" transform="translate(-78.703 -146.288)" fill="#d30000"/>
    <path id="Tracé_129" data-name="Tracé 129" d="M78.673,58.782a9.457,9.457,0,0,0-9.446,9.446.3.3,0,0,0,.3.3h4.633a.3.3,0,0,0,.3-.3,4.22,4.22,0,0,1,8.441,0c0,1.793-.951,2.84-2.634,4.537-1.871,1.888-4.2,4.237-4.2,8.359v.946a.3.3,0,0,0,.3.3H80.99a.3.3,0,0,0,.3-.3v-.946c0-1.88.97-2.95,2.685-4.681,1.848-1.864,4.148-4.184,4.148-8.216a9.457,9.457,0,0,0-9.446-9.446" transform="translate(-54.757 -46.495)" fill="#d30000"/>
  </g>
</svg>
