<svg xmlns="http://www.w3.org/2000/svg" width="40" height="40" viewBox="0 0 40 40">
  <g id="Groupe_1853" data-name="Groupe 1853" transform="translate(-1420 -7125)">
    <g id="Groupe_3" data-name="Groupe 3" transform="translate(1428.988 7135.215)">
      <path id="Tracé_83" data-name="Tracé 83" d="M1762.608,841.137h-8.151a6.544,6.544,0,0,0-6.544,6.545v8.151a6.544,6.544,0,0,0,6.544,6.543h8.151a6.543,6.543,0,0,0,6.544-6.543v-8.151A6.544,6.544,0,0,0,1762.608,841.137Zm4.505,13.913a5.288,5.288,0,0,1-5.287,5.288h-6.587a5.287,5.287,0,0,1-5.288-5.288v-6.587a5.289,5.289,0,0,1,5.288-5.288h6.587a5.289,5.289,0,0,1,5.287,5.288Z" transform="translate(-1747.912 -841.137)" fill="#595e64"/>
      <path id="Tracé_84" data-name="Tracé 84" d="M1786.674,872.761a5.594,5.594,0,1,0,5.594,5.594A5.594,5.594,0,0,0,1786.674,872.761Zm0,8.96a3.366,3.366,0,1,1,3.365-3.366A3.366,3.366,0,0,1,1786.674,881.721Z" transform="translate(-1775.769 -867.698)" fill="#595e64"/>
      <path id="Tracé_85" data-name="Tracé 85" d="M1842.516,864.746a1.423,1.423,0,1,1-1.423-1.424A1.424,1.424,0,0,1,1842.516,864.746Z" transform="translate(-1824.981 -859.771)" fill="#595e64"/>
    </g>
    <g id="Ellipse_8" data-name="Ellipse 8" transform="translate(1420 7125)" fill="none" stroke="#595e64" stroke-width="1">
      <circle cx="20" cy="20" r="20" stroke="none"/>
      <circle cx="20" cy="20" r="19.5" fill="none"/>
    </g>
  </g>
</svg>
