<svg xmlns="http://www.w3.org/2000/svg" width="36.515" height="48.557" viewBox="0 0 36.515 48.557">
  <g id="Groupe_1527" data-name="Groupe 1527" transform="translate(0.25 0.25)">
    <path id="Tracé_122" data-name="Tracé 122" d="M18.007,0A18.045,18.045,0,0,0,0,18.04c0,14.9,16.808,29.2,17.524,29.8a.746.746,0,0,0,.96.006c.716-.591,17.53-14.649,17.53-29.808A18.045,18.045,0,0,0,18.007,0Zm0,46.276C15.248,43.807,1.5,30.881,1.5,18.04a16.507,16.507,0,1,1,33.014,0C34.514,31.1,20.781,43.84,18.01,46.276Z" fill="#ff8557" stroke="#ff8557" stroke-width="0.5"/>
    <path id="Tracé_123" data-name="Tracé 123" d="M15,6a9,9,0,1,0,9,9A9.013,9.013,0,0,0,15,6Zm0,16.507a7.5,7.5,0,1,1,7.5-7.5A7.512,7.512,0,0,1,15,22.507Z" transform="translate(3.004 3.004)" fill="#ff8557" stroke="#ff8557" stroke-width="0.5"/>
  </g>
</svg>
