<svg xmlns="http://www.w3.org/2000/svg" xmlns:xlink="http://www.w3.org/1999/xlink" width="350" height="189.335" viewBox="0 0 350 189.335">
  <defs>
    <linearGradient id="linear-gradient" x1="0.108" y1="0.759" x2="0.902" y2="0.753" gradientUnits="objectBoundingBox">
      <stop offset="0" stop-color="#ff8557"/>
      <stop offset="0.089" stop-color="#ffa55f"/>
      <stop offset="1" stop-color="#ffd26b"/>
    </linearGradient>
    <clipPath id="clip-path">
      <rect id="Rectangle_641" data-name="Rectangle 641" width="350" height="189.334" fill="none"/>
    </clipPath>
    <clipPath id="clip-path-2">
      <path id="Tracé_12" data-name="Tracé 12" d="M343.148,34.972a26.631,26.631,0,0,1-1.591,2.78,51.249,51.249,0,0,1-7.519,9.5,78.642,78.642,0,0,1-14.864,11.49,190.407,190.407,0,0,1-21.81,11.014c-8.252,3.068-17.953,4.7-28.137,5.2a210.077,210.077,0,0,1-32.16-1.355,332.808,332.808,0,0,1-34.033-5.684c-5.736-1.247-11.539-2.606-17.272-4.1-5.736-1.522-11.438-3.294-17.126-5.142C157.261,55,145.9,51.069,134.454,47.987c-11.421-3.1-22.786-5.646-33.852-7.727-5.538-1.032-10.986-1.987-16.375-2.721a129.951,129.951,0,0,0-16-.5A89.043,89.043,0,0,0,39.568,42.4,65.242,65.242,0,0,0,18.519,55.138,63.7,63.7,0,0,0,6.49,69.773,61.811,61.811,0,0,0,1.254,80.766,33.692,33.692,0,0,0,0,84.887a33.487,33.487,0,0,1,1.359-4.079A61.179,61.179,0,0,1,6.862,70,63.323,63.323,0,0,1,19.134,55.836,67.225,67.225,0,0,1,40.072,43.766a87.391,87.391,0,0,1,28.21-4.83,128.42,128.42,0,0,1,15.649.712c5.309.823,10.747,1.762,16.247,2.828,11,2.123,22.3,4.715,33.633,7.852,11.334,3.11,22.616,7.074,34.026,10.816,5.716,1.845,11.473,3.593,17.282,5.108,5.823,1.484,11.612,2.807,17.4,4.041a333.68,333.68,0,0,0,34.3,5.549c22.345,2.39,43.988,1.876,61.145-4.757a168.744,168.744,0,0,0,21.705-11.549,79.343,79.343,0,0,0,14.676-11.984,51.28,51.28,0,0,0,7.3-9.743,26.365,26.365,0,0,0,1.522-2.825c.313-.653.473-.994.473-.994s-.17.334-.5.98" transform="translate(0 -33.992)" fill="url(#linear-gradient)"/>
    </clipPath>
    <clipPath id="clip-path-3">
      <path id="Tracé_13" data-name="Tracé 13" d="M65.8,30.981a86.684,86.684,0,0,0-27.734,5.893A64.344,64.344,0,0,0,6.319,64.017,61.763,61.763,0,0,0,1.281,74.733a32.722,32.722,0,0,0-1.213,4,33.3,33.3,0,0,1,1.313-3.968,62.131,62.131,0,0,1,5.3-10.531A64.063,64.063,0,0,1,18.459,50.331,66.113,66.113,0,0,1,38.594,38.208,85.291,85.291,0,0,1,65.886,32.83a119.7,119.7,0,0,1,15.264.424c5.108.379,10.434,1.543,15.778,2.45,10.709,2,21.716,4.4,32.761,7.345,11.073,2.87,22.07,6.56,33.126,10.271a309.324,309.324,0,0,0,33.557,9.468c11.212,2.536,22.355,4.614,33.227,6.042a237.378,237.378,0,0,0,31.531,2.192,115.978,115.978,0,0,0,28.192-3.106,68.074,68.074,0,0,0,11.869-4.35,105.318,105.318,0,0,0,10.146-5.125A75.067,75.067,0,0,0,326.111,47.4a83.984,83.984,0,0,0,7.912-8.818c1.633-2.192,2.5-3.363,2.5-3.363l-.049-.035s-.9,1.14-2.6,3.276a82.782,82.782,0,0,1-8.144,8.53,74.069,74.069,0,0,1-14.94,10.458c-3.11,1.664-6.518,3.263-10.153,4.823a67.267,67.267,0,0,1-11.7,4.09c-8.4,2.033-17.849,2.745-27.8,2.637A264.337,264.337,0,0,1,229.9,66.554c-10.782-1.47-21.841-3.589-32.984-6.171a329.966,329.966,0,0,1-33.3-9.506c-11.042-3.652-22.168-7.324-33.317-10.156-11.132-2.9-22.2-5.267-32.977-7.224-5.417-.9-10.632-2.008-16.018-2.321-2.894-.257-5.764-.351-8.6-.351-2.331,0-4.639.066-6.911.156" transform="translate(-0.068 -30.825)" fill="url(#linear-gradient)"/>
    </clipPath>
    <clipPath id="clip-path-4">
      <path id="Tracé_14" data-name="Tracé 14" d="M337.379,36.01a59.082,59.082,0,0,1-7.568,9.166,74.146,74.146,0,0,1-14.683,11.115c-3.065,1.821-6.442,3.558-10.041,5.306a96.081,96.081,0,0,1-11.532,4.951,97.9,97.9,0,0,1-27.685,5c-5.017.247-10.16.09-15.493.049-5.267-.017-10.653-.288-16.118-.771a290.671,290.671,0,0,1-33.446-5.048c-11.285-2.324-22.6-5.438-33.8-8.905-11.233-3.367-22.414-7.168-33.741-9.84-11.282-2.766-22.5-4.913-33.4-6.723-5.469-.876-10.778-1.748-16.146-2.314a131.338,131.338,0,0,0-15.646-.434,91.877,91.877,0,0,0-28.165,5.052A66.216,66.216,0,0,0,18.98,54.637,62.141,62.141,0,0,0,6.777,68.66a58.334,58.334,0,0,0-5.4,10.653A32.122,32.122,0,0,0,.068,83.33a32.067,32.067,0,0,1,1.411-3.978,58.11,58.11,0,0,1,5.66-10.458A61.481,61.481,0,0,1,19.571,55.349,68.2,68.2,0,0,1,40.4,43.984,90.019,90.019,0,0,1,68.124,39.44a129,129,0,0,1,15.406.66c5.167.643,10.563,1.532,15.972,2.425,10.837,1.855,22,4.048,33.185,6.848,11.205,2.7,22.3,6.529,33.564,9.975A320.506,320.506,0,0,0,234.067,73.1c5.521.452,10.969.712,16.309.691,5.271-.038,10.521.038,15.594-.285a100.024,100.024,0,0,0,28.085-5.511A128.37,128.37,0,0,0,315.667,57.17a74.52,74.52,0,0,0,14.51-11.636,58.981,58.981,0,0,0,7.352-9.426c1.428-2.359,2.123-3.659,2.123-3.659l-.052-.028s-.733,1.279-2.22,3.589" transform="translate(-0.068 -32.421)" fill="url(#linear-gradient)"/>
    </clipPath>
  </defs>
  <g id="Groupe_1097" data-name="Groupe 1097" transform="translate(-806.22 -416.859)">
    <g id="Groupe_1079" data-name="Groupe 1079" transform="translate(806.22 416.859)">
      <path id="Tracé_1" data-name="Tracé 1" d="M3.862,0V66.475H7.979V33.335H56.71V30.2H7.979V3.235H64.847V0Z" transform="translate(9.556 0)" fill="#074193"/>
      <rect id="Rectangle_640" data-name="Rectangle 640" width="4.218" height="66.475" transform="translate(80.286 0.001)" fill="#074193"/>
      <g id="Groupe_1070" data-name="Groupe 1070" transform="translate(0 0.001)">
        <g id="Groupe_1069" data-name="Groupe 1069" clip-path="url(#clip-path)">
          <path id="Tracé_2" data-name="Tracé 2" d="M69.671,66.478H27.9V0H71.339Q82.32,0,89.771,3.238q10.3,4.409,10.3,13.922,0,10.392-16.667,14.51,19.607,3.044,19.61,16.667,0,10.3-12.355,14.906-8.526,3.231-20.983,3.235M86.929,5.785A43.506,43.506,0,0,0,71.044,3.238H32.122V30.2H70.947a44.543,44.543,0,0,0,15.59-2.453q9.313-3.528,9.315-11.077,0-7.453-8.923-10.886m1.765,30.4q-7.26-2.741-18.04-2.745H32.122V63.243h39.12A48.813,48.813,0,0,0,88.5,60.5q10.392-3.825,10.4-12.064,0-8.427-10.2-12.255" transform="translate(69.049 -0.001)" fill="#074193"/>
          <path id="Tracé_3" data-name="Tracé 3" d="M52.68,66.475V0h65.79V3.235H56.8V30.2H111.41v3.138H56.8V63.24h62.354v3.235Z" transform="translate(130.357 0)" fill="#074193"/>
          <path id="Tracé_4" data-name="Tracé 4" d="M129.356,34.12q15.781,3.435,15.785,15.785v16.57h-4.315V50.2q0-14.119-25.882-14.12H78.371v30.4H74.153V0h41.965q30.3,0,30.3,17.157,0,12.941-17.06,16.963M116.414,3.235H78.371V32.747h35.885q10.392,0,17.55-2.745Q142.2,26.083,142.2,17.453q0-14.218-25.784-14.218" transform="translate(183.494 -0.001)" fill="#074193"/>
          <path id="Tracé_5" data-name="Tracé 5" d="M16.183,34.872l-11.866-11v11H3.57V23.093h.9q1.98,1.928,5.941,5.49,4.05,3.669,5.941,5.49V23.093H17.1V34.872Z" transform="translate(8.834 57.144)" fill="#074193" stroke="#074193" stroke-width="0.5"/>
          <path id="Tracé_6" data-name="Tracé 6" d="M18.16,34.872V23.093H29.817v.573H18.889v4.777h9.677V29H18.889v5.3H29.938v.573Z" transform="translate(44.937 57.145)" fill="#074193" stroke="#074193" stroke-width="0.5"/>
          <path id="Tracé_7" data-name="Tracé 7" d="M38.44,23.667V34.872h-.747V23.667h-6.1v-.573H44.52v.573Z" transform="translate(78.183 57.144)" fill="#074193" stroke="#074193" stroke-width="0.5"/>
          <path id="Tracé_8" data-name="Tracé 8" d="M61.183,34.872h-.678L56.6,28.131,52.81,34.872h-.678L45.339,23.093h.782L52.48,34.108l3.683-6.688-2.45-4.326h.782l6.358,11.014L67,23.093h.782Z" transform="translate(112.194 57.145)" fill="#074193" stroke="#074193" stroke-width="0.5"/>
          <path id="Tracé_9" data-name="Tracé 9" d="M75.8,33.671a10.783,10.783,0,0,1-5.559,1.286A10.742,10.742,0,0,1,64.7,33.671a5.127,5.127,0,0,1-2.658-4.725,5.005,5.005,0,0,1,2.675-4.639,11.159,11.159,0,0,1,5.525-1.2,11.222,11.222,0,0,1,5.524,1.2,5,5,0,0,1,2.693,4.639A5.152,5.152,0,0,1,75.8,33.671m-.486-8.877a10.118,10.118,0,0,0-5.073-1.112,10.126,10.126,0,0,0-5,1.094A4.46,4.46,0,0,0,62.8,28.945a4.618,4.618,0,0,0,2.363,4.222,9.6,9.6,0,0,0,5.073,1.216,9.785,9.785,0,0,0,5.038-1.164,4.616,4.616,0,0,0,2.432-4.274,4.461,4.461,0,0,0-2.4-4.152" transform="translate(153.517 57.181)" fill="#074193" stroke="#074193" stroke-width="0.5"/>
          <path id="Tracé_10" data-name="Tracé 10" d="M87.08,29.139q2.8.61,2.8,2.8v2.936h-.764V31.988q0-2.5-4.586-2.5h-6.48v5.386H77.3V23.093h7.436q5.368,0,5.368,3.04,0,2.293-3.023,3.005m-2.293-5.472H78.046V28.9H84.4a8.747,8.747,0,0,0,3.11-.486,2.365,2.365,0,0,0,1.842-2.224q0-2.517-4.569-2.519" transform="translate(191.279 57.144)" fill="#074193" stroke="#074193" stroke-width="0.5"/>
          <path id="Tracé_11" data-name="Tracé 11" d="M101.4,34.872,95.271,29.99,92.4,31.519v3.353H91.64V23.093H92.4v7.731l8.339-4.517,1.477.017-6.324,3.3,6.584,5.247Z" transform="translate(226.765 57.145)" fill="#074193" stroke="#074193" stroke-width="0.5"/>
        </g>
      </g>
      <g id="Groupe_1072" data-name="Groupe 1072" transform="translate(0 118.107)">
        <g id="Groupe_1071" data-name="Groupe 1071" clip-path="url(#clip-path-2)">
          <rect id="Rectangle_642" data-name="Rectangle 642" width="343.645" height="50.895" transform="translate(0 0.001)" fill="url(#linear-gradient)"/>
        </g>
      </g>
      <g id="Groupe_1074" data-name="Groupe 1074" transform="translate(0.236 107.103)">
        <g id="Groupe_1073" data-name="Groupe 1073" clip-path="url(#clip-path-3)">
          <rect id="Rectangle_643" data-name="Rectangle 643" width="336.456" height="47.91" transform="translate(0 0.001)" fill="url(#linear-gradient)"/>
        </g>
      </g>
      <g id="Groupe_1076" data-name="Groupe 1076" transform="translate(0.236 112.648)">
        <g id="Groupe_1075" data-name="Groupe 1075" clip-path="url(#clip-path-4)">
          <rect id="Rectangle_644" data-name="Rectangle 644" width="339.583" height="50.909" transform="translate(0 0.001)" fill="url(#linear-gradient)"/>
        </g>
      </g>
      <g id="Groupe_1078" data-name="Groupe 1078" transform="translate(0 0.001)">
        <g id="Groupe_1077" data-name="Groupe 1077" clip-path="url(#clip-path)">
          <path id="Tracé_15" data-name="Tracé 15" d="M0,39.86V53.813S24.047,34.092,60.377,39.86c0,0,23.536,1.16,74.192,27.258s87.492,41.444,123.308,41.955,48.286-6.96,81-26.358c0,0,2.87-2.491,7.213,5.98L350,61.874,320.939,73.962s12.512,1.98,9.5,3.808c-17.793,10.8-30.673,21.094-68.594,22.154-45.263,2.554-84.424-18.867-113.975-31.146,0,0-72.791-31.445-84.806-33C51.934,33.473,25.965,27.824,0,39.86" transform="translate(0 80.237)" fill="#074193"/>
        </g>
      </g>
    </g>
  </g>
</svg>
