<svg xmlns="http://www.w3.org/2000/svg" xmlns:xlink="http://www.w3.org/1999/xlink" width="179" height="96.832" viewBox="0 0 179 96.832">
  <defs>
    <linearGradient id="linear-gradient" x1="0.108" y1="0.759" x2="0.902" y2="0.753" gradientUnits="objectBoundingBox">
      <stop offset="0" stop-color="#ff8557"/>
      <stop offset="0.089" stop-color="#ffa55f"/>
      <stop offset="1" stop-color="#ffd26b"/>
    </linearGradient>
    <clipPath id="clip-path">
      <rect id="Rectangle_641" data-name="Rectangle 641" width="179" height="96.831" fill="none"/>
    </clipPath>
    <clipPath id="clip-path-2">
      <path id="Tracé_12" data-name="Tracé 12" d="M175.5,34.493a13.62,13.62,0,0,1-.814,1.422,26.21,26.21,0,0,1-3.845,4.856,40.219,40.219,0,0,1-7.6,5.876,97.378,97.378,0,0,1-11.154,5.633,48.738,48.738,0,0,1-14.39,2.66,107.44,107.44,0,0,1-16.448-.693,170.208,170.208,0,0,1-17.405-2.907c-2.934-.638-5.9-1.333-8.833-2.1s-5.85-1.685-8.759-2.63c-5.818-1.876-11.63-3.888-17.482-5.464S57.11,38.262,51.451,37.2c-2.832-.528-5.619-1.016-8.375-1.391a66.462,66.462,0,0,0-8.181-.254,45.539,45.539,0,0,0-14.658,2.738A33.367,33.367,0,0,0,9.471,44.807a32.579,32.579,0,0,0-6.152,7.485A31.612,31.612,0,0,0,.641,57.914,17.231,17.231,0,0,0,0,60.021a17.126,17.126,0,0,1,.695-2.086A31.289,31.289,0,0,1,3.51,52.407a32.385,32.385,0,0,1,6.276-7.243,34.381,34.381,0,0,1,10.708-6.173,44.694,44.694,0,0,1,14.427-2.47,65.678,65.678,0,0,1,8,.364c2.715.421,5.5.9,8.309,1.446,5.628,1.086,11.4,2.411,17.2,4.016S80,45.965,85.837,47.879c2.923.944,5.868,1.837,8.839,2.612,2.978.759,5.939,1.436,8.9,2.067A170.653,170.653,0,0,0,121.119,55.4c11.428,1.223,22.5.96,31.271-2.433a86.3,86.3,0,0,0,11.1-5.907A40.578,40.578,0,0,0,171,40.928a26.226,26.226,0,0,0,3.733-4.983,13.485,13.485,0,0,0,.778-1.445c.16-.334.242-.508.242-.508s-.087.171-.254.5" transform="translate(0 -33.992)" fill="url(#linear-gradient)"/>
    </clipPath>
    <clipPath id="clip-path-3">
      <path id="Tracé_13" data-name="Tracé 13" d="M33.685,30.9A44.333,44.333,0,0,0,19.5,33.919,32.907,32.907,0,0,0,3.265,47.8a31.588,31.588,0,0,0-2.577,5.48,16.735,16.735,0,0,0-.62,2.047A17.029,17.029,0,0,1,.74,53.3a31.776,31.776,0,0,1,2.71-5.386A32.764,32.764,0,0,1,9.474,40.8a33.812,33.812,0,0,1,10.3-6.2A43.62,43.62,0,0,1,33.729,31.85a61.215,61.215,0,0,1,7.806.217c2.612.194,5.336.789,8.069,1.253,5.477,1.022,11.106,2.251,16.755,3.757,5.663,1.468,11.287,3.355,16.942,5.253a158.2,158.2,0,0,0,17.162,4.842c5.734,1.3,11.433,2.36,16.993,3.09a121.4,121.4,0,0,0,16.126,1.121A59.315,59.315,0,0,0,148,49.794a34.815,34.815,0,0,0,6.07-2.225,53.864,53.864,0,0,0,5.189-2.621,38.392,38.392,0,0,0,7.556-5.645,42.951,42.951,0,0,0,4.046-4.51c.835-1.121,1.279-1.72,1.279-1.72l-.025-.018s-.462.583-1.331,1.676a42.337,42.337,0,0,1-4.165,4.362,37.881,37.881,0,0,1-7.641,5.349c-1.59.851-3.334,1.669-5.192,2.466A34.4,34.4,0,0,1,147.8,49a58.526,58.526,0,0,1-14.216,1.349A135.189,135.189,0,0,1,117.613,49.1c-5.514-.752-11.17-1.836-16.869-3.156A168.753,168.753,0,0,1,83.714,41.08c-5.647-1.868-11.337-3.746-17.039-5.194-5.693-1.486-11.355-2.694-16.865-3.694A77.036,77.036,0,0,0,41.617,31c-1.48-.132-2.948-.179-4.4-.179-1.192,0-2.372.034-3.534.08" transform="translate(-0.068 -30.825)" fill="url(#linear-gradient)"/>
    </clipPath>
    <clipPath id="clip-path-4">
      <path id="Tracé_14" data-name="Tracé 14" d="M172.579,34.257a30.217,30.217,0,0,1-3.87,4.688,37.921,37.921,0,0,1-7.509,5.685c-1.567.931-3.295,1.82-5.135,2.713a49.139,49.139,0,0,1-5.9,2.532,50.071,50.071,0,0,1-14.159,2.557c-2.566.126-5.2.046-7.924.025-2.694-.009-5.448-.147-8.243-.394a148.657,148.657,0,0,1-17.105-2.582c-5.772-1.189-11.557-2.781-17.288-4.554C79.7,43.2,73.983,41.26,68.19,39.893c-5.77-1.414-11.508-2.513-17.08-3.438-2.8-.448-5.512-.894-8.258-1.183a67.17,67.17,0,0,0-8-.222,46.988,46.988,0,0,0-14.4,2.584A33.864,33.864,0,0,0,9.74,43.783,31.781,31.781,0,0,0,3.5,50.955,29.834,29.834,0,0,0,.736,56.4a16.428,16.428,0,0,0-.668,2.054,16.4,16.4,0,0,1,.721-2.035,29.719,29.719,0,0,1,2.895-5.349,31.443,31.443,0,0,1,6.358-6.927,34.878,34.878,0,0,1,10.651-5.812,46.038,46.038,0,0,1,14.18-2.324,65.971,65.971,0,0,1,7.879.338c2.642.329,5.4.784,8.169,1.24,5.542.949,11.25,2.07,16.972,3.5,5.731,1.381,11.4,3.339,17.166,5.1a163.916,163.916,0,0,0,34.683,7.031c2.824.231,5.61.364,8.341.354,2.7-.02,5.381.02,7.975-.146a51.155,51.155,0,0,0,14.363-2.818,65.652,65.652,0,0,0,11.053-5.535,38.111,38.111,0,0,0,7.421-5.951,30.165,30.165,0,0,0,3.76-4.821c.73-1.207,1.086-1.871,1.086-1.871l-.027-.014s-.375.654-1.135,1.836" transform="translate(-0.068 -32.421)" fill="url(#linear-gradient)"/>
    </clipPath>
  </defs>
  <g id="Groupe_1530" data-name="Groupe 1530" transform="translate(-806.22 -416.859)">
    <g id="Groupe_1079" data-name="Groupe 1079" transform="translate(806.22 416.859)">
      <path id="Tracé_1" data-name="Tracé 1" d="M3.862,0V34H5.968V17.048H30.89v-1.6H5.968V1.654H35.051V0Z" transform="translate(3.001 0)" fill="#074193"/>
      <rect id="Rectangle_640" data-name="Rectangle 640" width="2.157" height="33.997" transform="translate(41.061 0.001)" fill="#074193"/>
      <g id="Groupe_1070" data-name="Groupe 1070" transform="translate(0 0.001)">
        <g id="Groupe_1069" data-name="Groupe 1069" clip-path="url(#clip-path)">
          <path id="Tracé_2" data-name="Tracé 2" d="M49.265,34H27.9V0H50.118a23.682,23.682,0,0,1,9.427,1.656q5.267,2.255,5.265,7.12,0,5.315-8.524,7.421,10.027,1.557,10.029,8.524,0,5.267-6.319,7.623A30.444,30.444,0,0,1,49.265,34m8.826-31.04a22.25,22.25,0,0,0-8.124-1.3H30.061V15.445H49.917a22.78,22.78,0,0,0,7.973-1.255q4.763-1.8,4.764-5.665,0-3.812-4.563-5.567m.9,15.545a26.3,26.3,0,0,0-9.226-1.4H30.061V32.344H50.068a24.964,24.964,0,0,0,8.824-1.4q5.315-1.956,5.317-6.17,0-4.31-5.215-6.267" transform="translate(21.681 0)" fill="#074193"/>
          <path id="Tracé_3" data-name="Tracé 3" d="M52.68,34V0H86.327V1.655H54.787V15.444H82.716v1.6H54.787V32.343h31.89V34Z" transform="translate(40.931 0)" fill="#074193"/>
          <path id="Tracé_4" data-name="Tracé 4" d="M102.386,17.45q8.071,1.757,8.073,8.073V34h-2.207V25.674q0-7.221-13.237-7.222H76.31V34H74.153V0H95.615q15.5,0,15.5,8.775,0,6.618-8.725,8.675m-6.619-15.8H76.31V16.748H94.663a25.2,25.2,0,0,0,8.975-1.4q5.315-2,5.315-6.418,0-7.271-13.187-7.271" transform="translate(57.615 0)" fill="#074193"/>
          <path id="Tracé_5" data-name="Tracé 5" d="M10.02,29.117,3.952,23.493v5.624H3.57V23.093h.462q1.013.986,3.039,2.808,2.071,1.876,3.039,2.808V23.093h.382v6.024Z" transform="translate(2.774 17.942)" fill="#074193" stroke="#074193" stroke-width="0.5"/>
          <path id="Tracé_6" data-name="Tracé 6" d="M18.16,29.117V23.093h5.962v.293H18.533V25.83h4.949v.284H18.533v2.71h5.651v.293Z" transform="translate(14.11 17.943)" fill="#074193" stroke="#074193" stroke-width="0.5"/>
          <path id="Tracé_7" data-name="Tracé 7" d="M35.1,23.387v5.731h-.382V23.387H31.595v-.293h6.61v.293Z" transform="translate(24.548 17.943)" fill="#074193" stroke="#074193" stroke-width="0.5"/>
          <path id="Tracé_8" data-name="Tracé 8" d="M53.442,29.117H53.1l-2-3.447L49.16,29.117h-.347l-3.474-6.024h.4l3.252,5.633,1.884-3.421-1.253-2.212h.4l3.252,5.633,3.145-5.633h.4Z" transform="translate(35.228 17.943)" fill="#074193" stroke="#074193" stroke-width="0.5"/>
          <path id="Tracé_9" data-name="Tracé 9" d="M69.076,28.51a6.457,6.457,0,0,1-5.677,0,2.622,2.622,0,0,1-1.359-2.417,2.56,2.56,0,0,1,1.368-2.372,6.817,6.817,0,0,1,5.651,0,2.558,2.558,0,0,1,1.377,2.372,2.635,2.635,0,0,1-1.359,2.417m-.249-4.54a6.166,6.166,0,0,0-5.153-.009,2.281,2.281,0,0,0-1.244,2.132,2.362,2.362,0,0,0,1.208,2.159,4.908,4.908,0,0,0,2.594.622,5,5,0,0,0,2.577-.6,2.361,2.361,0,0,0,1.244-2.186,2.281,2.281,0,0,0-1.226-2.123" transform="translate(48.203 17.954)" fill="#074193" stroke="#074193" stroke-width="0.5"/>
          <path id="Tracé_10" data-name="Tracé 10" d="M82.3,26.185q1.431.312,1.43,1.43v1.5h-.391V27.642q0-1.279-2.346-1.279H77.681v2.754H77.3V23.093h3.8q2.745,0,2.745,1.555,0,1.173-1.546,1.537m-1.173-2.8H77.681v2.674h3.252a4.474,4.474,0,0,0,1.59-.249,1.21,1.21,0,0,0,.942-1.137q0-1.287-2.337-1.288" transform="translate(60.059 17.942)" fill="#074193" stroke="#074193" stroke-width="0.5"/>
          <path id="Tracé_11" data-name="Tracé 11" d="M96.633,29.117l-3.136-2.5-1.466.782v1.715H91.64V23.093h.391v3.954l4.265-2.31.755.009-3.234,1.688,3.367,2.683Z" transform="translate(71.202 17.943)" fill="#074193" stroke="#074193" stroke-width="0.5"/>
        </g>
      </g>
      <g id="Groupe_1072" data-name="Groupe 1072" transform="translate(0 60.403)">
        <g id="Groupe_1071" data-name="Groupe 1071" clip-path="url(#clip-path-2)">
          <rect id="Rectangle_642" data-name="Rectangle 642" width="175.75" height="26.029" transform="translate(0 0)" fill="url(#linear-gradient)"/>
        </g>
      </g>
      <g id="Groupe_1074" data-name="Groupe 1074" transform="translate(0.121 54.775)">
        <g id="Groupe_1073" data-name="Groupe 1073" clip-path="url(#clip-path-3)">
          <rect id="Rectangle_643" data-name="Rectangle 643" width="172.073" height="24.503" transform="translate(0 0)" fill="url(#linear-gradient)"/>
        </g>
      </g>
      <g id="Groupe_1076" data-name="Groupe 1076" transform="translate(0.121 57.611)">
        <g id="Groupe_1075" data-name="Groupe 1075" clip-path="url(#clip-path-4)">
          <rect id="Rectangle_644" data-name="Rectangle 644" width="173.673" height="26.036" transform="translate(0 0)" fill="url(#linear-gradient)"/>
        </g>
      </g>
      <g id="Groupe_1078" data-name="Groupe 1078" transform="translate(0 0.001)">
        <g id="Groupe_1077" data-name="Groupe 1077" clip-path="url(#clip-path)">
          <path id="Tracé_15" data-name="Tracé 15" d="M0,36.227v7.136a41.2,41.2,0,0,1,30.878-7.136s12.037.594,37.944,13.94,44.746,21.2,63.063,21.457,24.695-3.559,41.427-13.48c0,0,1.468-1.274,3.689,3.058l2-13.716-14.863,6.182s6.4,1.013,4.858,1.948c-9.1,5.521-15.687,10.788-35.081,11.33-23.149,1.306-43.177-9.649-58.29-15.929,0,0-37.228-16.082-43.372-16.878C26.56,32.961,13.279,30.072,0,36.227" transform="translate(0 25.193)" fill="#074193"/>
        </g>
      </g>
    </g>
  </g>
</svg>
