<svg xmlns="http://www.w3.org/2000/svg" width="57.191" height="41.04" viewBox="0 0 57.191 41.04">
  <g id="Groupe_1526" data-name="Groupe 1526" transform="translate(-1.58 -10.18)">
    <path id="Tracé_121" data-name="Tracé 121" d="M4.078,47.956a1.409,1.409,0,0,1-.939-2.46L20.417,30.087a1.41,1.41,0,1,1,1.878,2.1L5.017,47.6a1.371,1.371,0,0,1-.939.357Zm52.266,0a1.371,1.371,0,0,1-.939-.357L38.128,32.19a1.41,1.41,0,0,1,1.878-2.1L57.274,45.5a1.409,1.409,0,0,1-.939,2.46Z" transform="translate(-0.036 -1.161)" fill="#ff8557" stroke="#f8f9fa" stroke-width="1"/>
    <path id="Tracé_120" data-name="Tracé 120" d="M30.225,36.733a7.991,7.991,0,0,1-4.817-1.606L3.481,18.544a1.409,1.409,0,1,1,1.7-2.244L27.107,32.9a5.212,5.212,0,0,0,6.235,0L55.268,16.3a1.409,1.409,0,1,1,1.7,2.244L35.042,35.127a7.991,7.991,0,0,1-4.817,1.606Z" transform="translate(-0.049 -0.323)" fill="#ff8557" stroke="#f8f9fa" stroke-width="1"/>
    <path id="Tracé_119" data-name="Tracé 119" d="M50.29,50.72H10.062A7.991,7.991,0,0,1,2.08,42.738V18.662a7.991,7.991,0,0,1,7.982-7.982H50.29a7.991,7.991,0,0,1,7.982,7.982V42.738A7.991,7.991,0,0,1,50.29,50.72ZM10.062,13.5A5.165,5.165,0,0,0,4.9,18.662V42.738A5.165,5.165,0,0,0,10.062,47.9H50.29a5.165,5.165,0,0,0,5.165-5.165V18.662A5.165,5.165,0,0,0,50.29,13.5Z" fill="#ff8557" stroke="#f8f9fa" stroke-width="1"/>
  </g>
</svg>
