<svg xmlns="http://www.w3.org/2000/svg" width="40" height="40" viewBox="0 0 40 40">
  <g id="Groupe_1852" data-name="Groupe 1852" transform="translate(-1370 -7125)">
    <path id="Tracé_89" data-name="Tracé 89" d="M1521.213,878.045a14.523,14.523,0,0,0,14.622-14.623c0-.222,0-.444-.015-.664a10.43,10.43,0,0,0,2.563-2.661,10.3,10.3,0,0,1-2.95.809,5.169,5.169,0,0,0,2.26-2.843,10.345,10.345,0,0,1-3.264,1.249,5.14,5.14,0,0,0-8.889,3.513,5.262,5.262,0,0,0,.132,1.174,14.6,14.6,0,0,1-10.593-5.37,5.143,5.143,0,0,0,1.592,6.86,5.1,5.1,0,0,1-2.328-.644c0,.023,0,.044,0,.066a5.141,5.141,0,0,0,4.121,5.038,5.14,5.14,0,0,1-1.353.182,5.087,5.087,0,0,1-.966-.1,5.146,5.146,0,0,0,4.8,3.571,10.3,10.3,0,0,1-6.382,2.2,10.451,10.451,0,0,1-1.225-.072,14.532,14.532,0,0,0,7.878,2.31" transform="translate(-134.799 6277.968)" fill="#595e64"/>
    <g id="Ellipse_7" data-name="Ellipse 7" transform="translate(1370 7125)" fill="none" stroke="#595e64" stroke-width="1">
      <circle cx="20" cy="20" r="20" stroke="none"/>
      <circle cx="20" cy="20" r="19.5" fill="none"/>
    </g>
  </g>
</svg>
