<svg xmlns="http://www.w3.org/2000/svg" xmlns:xlink="http://www.w3.org/1999/xlink" width="48.501" height="48.499" viewBox="0 0 48.501 48.499">
  <defs>
    <linearGradient id="linear-gradient" x1="0.5" x2="0.5" y2="1" gradientUnits="objectBoundingBox">
      <stop offset="0" stop-color="#ff8557"/>
      <stop offset="1" stop-color="#ffd26b"/>
    </linearGradient>
    <clipPath id="clip-path">
      <rect id="Rectangle_662" data-name="Rectangle 662" width="48.501" height="48.499" transform="translate(0 0)" fill="url(#linear-gradient)"/>
    </clipPath>
    <linearGradient id="linear-gradient-2" y1="-1.121" y2="1.361" xlink:href="#linear-gradient"/>
  </defs>
  <g id="Groupe_1096" data-name="Groupe 1096" transform="translate(0 0)">
    <g id="Groupe_1095" data-name="Groupe 1095" clip-path="url(#clip-path)">
      <path id="Tracé_57" data-name="Tracé 57" d="M26.668,45.876a13.384,13.384,0,0,1-6.89-3.083c-.206-.219-1.013-1.078-2.186-2.361A13.5,13.5,0,0,1,32.25,19.52l.066.023a1.049,1.049,0,0,0,.119.043,13.587,13.587,0,0,1,9.4,10.821.508.508,0,0,0,.572.416.5.5,0,0,0,.416-.572,14.592,14.592,0,0,0-10.069-11.61c-.009,0-.015-.01-.024-.013-.157-.049-15.8-5.113-22.792-18.362a.5.5,0,0,0-.884.466C14.047,10.189,23.309,15.577,28.552,18A14.479,14.479,0,0,0,14.877,37.422C10.153,32.111,3.407,24.132.946,19.273a.5.5,0,1,0-.892.452c3.082,6.087,12.411,16.6,16.773,21.36a14.43,14.43,0,0,0,2.182,2.368c.037.033.067.058.091.078l0,.005.006.005.04.031a14.361,14.361,0,0,0,7.382,3.294.4.4,0,0,0,.069,0,.5.5,0,0,0,.066-.995" fill="url(#linear-gradient-2)"/>
      <path id="Tracé_58" data-name="Tracé 58" d="M25.993,27.6a9.5,9.5,0,0,1,11.98.935l.075.075a9.574,9.574,0,0,1,1.166,1.379.5.5,0,0,0,.822-.571,10.585,10.585,0,0,0-1.2-1.428.163.163,0,0,0-.011-.017L38.75,27.9c-.03-.029-.058-.059-.087-.087L35.74,24.892A10.5,10.5,0,0,0,21.08,39.927l2.9,2.9c.21.21.429.411.654.6a.5.5,0,1,0,.646-.764c-.2-.172-.4-.354-.593-.544a9.636,9.636,0,0,1-1.081-1.3A9.512,9.512,0,0,1,25.993,27.6M21.538,38.952A9.492,9.492,0,0,1,28.29,22.913a9.35,9.35,0,0,1,6.67,2.622,10.672,10.672,0,0,0-1.684-.46A10.49,10.49,0,0,0,21.538,38.952" fill="url(#linear-gradient-2)"/>
      <path id="Tracé_59" data-name="Tracé 59" d="M33.5,44.5a1.984,1.984,0,0,0-1.314.5c-2.21-1.618-6.1-4.939-7.2-8.969a.5.5,0,0,0-.965.266c1.206,4.384,5.291,7.862,7.6,9.539A1.995,1.995,0,1,0,33.5,44.5" fill="url(#linear-gradient-2)"/>
      <path id="Tracé_60" data-name="Tracé 60" d="M34.5,38.5a1.979,1.979,0,0,0-1.192.4,24.131,24.131,0,0,1-5.941-7.7.5.5,0,0,0-.9.436,25.134,25.134,0,0,0,6.213,8.045A2,2,0,1,0,34.5,38.5" fill="url(#linear-gradient-2)"/>
      <path id="Tracé_61" data-name="Tracé 61" d="M40.5,37.5a1.985,1.985,0,0,0-1.525.721c-2.193-1.165-5.862-3.549-7.105-6.974a.5.5,0,1,0-.94.341c1.375,3.79,5.288,6.322,7.608,7.54A2,2,0,1,0,40.5,37.5" fill="url(#linear-gradient-2)"/>
      <path id="Tracé_62" data-name="Tracé 62" d="M40.5,43.5a1.99,1.99,0,0,0-1.418.591,8.208,8.208,0,0,1-1.13-1.014.5.5,0,0,0-.737.678,9.222,9.222,0,0,0,1.366,1.213,1.957,1.957,0,0,0-.081.532,2,2,0,1,0,2-2" fill="url(#linear-gradient-2)"/>
      <path id="Tracé_63" data-name="Tracé 63" d="M45.5,39.5a2,2,0,1,0,2,2,2,2,0,0,0-2-2" fill="url(#linear-gradient-2)"/>
      <path id="Tracé_64" data-name="Tracé 64" d="M46.5,34.5a2,2,0,0,0-1.832,1.2c-2.175-.543-5.986-2.089-9.788-6.526a.5.5,0,0,0-.76.65c4.055,4.731,8.085,6.337,10.4,6.886A2,2,0,1,0,46.5,34.5" fill="url(#linear-gradient-2)"/>
    </g>
  </g>
</svg>
