<svg id="Groupe_1517" data-name="Groupe 1517" xmlns="http://www.w3.org/2000/svg" xmlns:xlink="http://www.w3.org/1999/xlink" width="48.53" height="47.385" viewBox="0 0 48.53 47.385">
  <defs>
    <clipPath id="clip-path">
      <rect id="Rectangle_680" data-name="Rectangle 680" width="48.53" height="47.385" fill="none" stroke="#ffd26b" stroke-width="1"/>
    </clipPath>
  </defs>
  <g id="Groupe_1516" data-name="Groupe 1516" clip-path="url(#clip-path)">
    <path id="Tracé_104" data-name="Tracé 104" d="M18.509,128.571a5.165,5.165,0,1,0,5.165-5.167A5.165,5.165,0,0,0,18.509,128.571Z" transform="translate(-13.018 -86.795)" fill="none" stroke="#ffd26b" stroke-linecap="round" stroke-linejoin="round" stroke-width="1"/>
    <path id="Tracé_105" data-name="Tracé 105" d="M32.232,135.578a1.555,1.555,0,1,1-1.555,1.556A1.557,1.557,0,0,1,32.232,135.578Z" transform="translate(-21.576 -95.358)" fill="none" stroke="#ffd26b" stroke-linecap="round" stroke-linejoin="round" stroke-width="1"/>
    <path id="Tracé_106" data-name="Tracé 106" d="M108.413,128.512a5.166,5.166,0,1,0,5.165-5.166A5.164,5.164,0,0,0,108.413,128.512Z" transform="translate(-76.252 -86.755)" fill="none" stroke="#ffd26b" stroke-linecap="round" stroke-linejoin="round" stroke-width="1"/>
    <path id="Tracé_107" data-name="Tracé 107" d="M122.139,135.515a1.555,1.555,0,1,1,0,3.11,1.554,1.554,0,0,1-1.554-1.554A1.556,1.556,0,0,1,122.139,135.515Z" transform="translate(-84.813 -95.314)" fill="none" stroke="#ffd26b" stroke-linecap="round" stroke-linejoin="round" stroke-width="1"/>
    <path id="Tracé_108" data-name="Tracé 108" d="M30.473,72.96H2.447c-.577,0-.947.25-.947.916v5.9a1.926,1.926,0,0,0,1.73,1.976H6.639m36.841,0h3.927a1.928,1.928,0,0,0,1.733-1.976v-8.95a6.971,6.971,0,0,0-.53-2.633c-1.237-2.719-4.514-9.469-4.8-10.139a3.855,3.855,0,0,0-3.823-2.382H33.769a3.2,3.2,0,0,0-3.3,3.444V81.752m-13.7,0H33.284M48.213,67.33H36.444a1.438,1.438,0,0,1-1.61-1.359v-10.3" transform="translate(-1.055 -39.156)" fill="none" stroke="#ffd26b" stroke-linecap="round" stroke-linejoin="round" stroke-width="1"/>
    <path id="Tracé_109" data-name="Tracé 109" d="M35.907,1.5H24.354a.97.97,0,0,0-.973.969V7.417a6.031,6.031,0,0,0,.2,1.606,37.9,37.9,0,0,0,1.581,4.056c.207.5.467.9,1,.9h7.922c.537,0,.8-.4,1-.9a37.177,37.177,0,0,0,1.582-4.056,6.019,6.019,0,0,0,.2-1.606V2.469A.97.97,0,0,0,35.907,1.5Zm.974,5.917h-13.5M32.24,1.5V7.417m-4.219,0V1.5" transform="translate(-16.445 -1.055)" fill="none" stroke="#ffd26b" stroke-linecap="round" stroke-linejoin="round" stroke-width="1"/>
    <path id="Tracé_110" data-name="Tracé 110" d="M13.873,93.271A2.887,2.887,0,1,1,11.51,89.94,2.888,2.888,0,0,1,13.873,93.271Z" transform="translate(-5.724 -63.229)" fill="none" stroke="#ffd26b" stroke-linecap="round" stroke-linejoin="round" stroke-width="1"/>
    <path id="Tracé_111" data-name="Tracé 111" d="M79.186,79.764A2.178,2.178,0,1,1,77.4,77.251,2.179,2.179,0,0,1,79.186,79.764Z" transform="translate(-52.652 -54.312)" fill="none" stroke="#ffd26b" stroke-linecap="round" stroke-linejoin="round" stroke-width="1"/>
    <line id="Ligne_15" data-name="Ligne 15" y1="4.884" x2="17.596" transform="translate(6.596 27.254)" fill="none" stroke="#ffd26b" stroke-linecap="round" stroke-linejoin="round" stroke-width="1"/>
    <path id="Tracé_112" data-name="Tracé 112" d="M24.864,43.559,34.869,55.107l-17,2.2" transform="translate(-12.571 -30.637)" fill="none" stroke="#ffd26b" stroke-linecap="round" stroke-linejoin="round" stroke-width="1"/>
    <line id="Ligne_16" data-name="Ligne 16" x1="10.124" y1="10.21" transform="translate(15.223 12.922)" fill="none" stroke="#ffd26b" stroke-linecap="round" stroke-linejoin="round" stroke-width="1"/>
  </g>
</svg>
