<svg id="Groupe_1519" data-name="Groupe 1519" xmlns="http://www.w3.org/2000/svg" xmlns:xlink="http://www.w3.org/1999/xlink" width="40.626" height="48.462" viewBox="0 0 40.626 48.462">
  <defs>
    <clipPath id="clip-path">
      <rect id="Rectangle_681" data-name="Rectangle 681" width="40.626" height="48.462" fill="none" stroke="#ffd26b" stroke-width="1"/>
    </clipPath>
  </defs>
  <g id="Groupe_1518" data-name="Groupe 1518" clip-path="url(#clip-path)">
    <path id="Tracé_113" data-name="Tracé 113" d="M87.8,31.248c-1-3.2-4.121-1.876-3.869-5.533h0a4.2,4.2,0,0,0-4.065-5.273c-.5,0-.535-.768-.535-.768L81.8,17.083,78.63,14.048l3.042-3.172L78.5,7.838,81.539,4.67,79.365,2.592a16.435,16.435,0,0,0-3.632,1.279c-.337,2.71-1.27,16.549-1.272,18.107,0,2.928.729,4.623,2.24,5.784a5.416,5.416,0,0,0,3.16,1.095c.873,0,1.42.136,1.957,2.393,1.177,4.953,2.8,12.676,3.581,16.489.61,2.973,7.344,2.551,6.686-.259C90.565,41,89.184,35.692,87.8,31.248Zm-7.939-4.89a1.708,1.708,0,1,1,1.707-1.709A1.708,1.708,0,0,1,79.861,26.358Z" transform="translate(-51.958 -1.809)" fill="none" stroke="#ffd26b" stroke-linecap="round" stroke-linejoin="round" stroke-width="1"/>
    <path id="Tracé_114" data-name="Tracé 114" d="M60.185,83.918c-.889,1.09-3.419,1.818-4.123,4.078-1.384,4.445-2.765,9.748-4.285,16.231-.659,2.81,6.075,3.232,6.686.259.783-3.812,2.4-11.536,3.581-16.489.12-.5.955-2.163,1.079-2.477" transform="translate(-36.098 -58.557)" fill="none" stroke="#ffd26b" stroke-linecap="round" stroke-linejoin="round" stroke-width="1"/>
    <path id="Tracé_115" data-name="Tracé 115" d="M95.279,26.7c1.046-.514,1.4-2.486,1.346-3.536-.282-5.308-1.228-16.88-1.573-19.121a8.75,8.75,0,0,0-4.363-1.454" transform="translate(-63.281 -1.808)" fill="none" stroke="#ffd26b" stroke-linecap="round" stroke-linejoin="round" stroke-width="1"/>
    <path id="Tracé_116" data-name="Tracé 116" d="M14.126,22.793c0-2.608-.026-10.759-.026-11.074,0-1.4.872-2.759,1.316-4.187a2.373,2.373,0,0,0-.075-1.488c-.478-1.585-.827-2.732-1.259-4.188-.074-.253-.183-.358-.5-.358H11.953c-.315,0-.424.1-.5.358-.432,1.455-.782,2.6-1.258,4.188a2.371,2.371,0,0,0-.075,1.488c.445,1.429,1.315,2.79,1.315,4.187,0,.315-.027,8.466-.027,11.074" transform="translate(-7.002 -1.046)" fill="none" stroke="#ffd26b" stroke-linecap="round" stroke-linejoin="round" stroke-width="1"/>
    <path id="Tracé_117" data-name="Tracé 117" d="M12.127,85.18c0-5.078-2.687-5.57-2.687-10.386a1.334,1.334,0,0,0,1.5-1.438,1.363,1.363,0,0,0-1.221-1.4H3.911a1.363,1.363,0,0,0-1.223,1.4,1.335,1.335,0,0,0,1.5,1.438C4.188,79.61,1.5,80.1,1.5,85.18c0,3.188,0,7.757,0,8.834,0,3.525,3.5,4.2,5.313,4.2s5.316-.679,5.316-4.2C12.129,92.937,12.127,88.369,12.127,85.18ZM3.959,84.3v9.663m2.855,0V84.3m2.854,9.663V84.3" transform="translate(-1.047 -50.21)" fill="none" stroke="#ffd26b" stroke-linecap="round" stroke-linejoin="round" stroke-width="1"/>
    <line id="Ligne_17" data-name="Ligne 17" x2="5.253" transform="translate(3.141 24.584)" fill="none" stroke="#ffd26b" stroke-linecap="round" stroke-linejoin="round" stroke-width="1"/>
  </g>
</svg>
