<svg id="Groupe_1846" data-name="Groupe 1846" xmlns="http://www.w3.org/2000/svg" xmlns:xlink="http://www.w3.org/1999/xlink" width="326.088" height="165.904" viewBox="0 0 326.088 165.904">
  <defs>
    <clipPath id="clip-path">
      <rect id="Rectangle_723" data-name="Rectangle 723" width="217.075" height="141.927" fill="none"/>
    </clipPath>
    <clipPath id="clip-path-2">
      <rect id="Rectangle_869" data-name="Rectangle 869" width="326.088" height="165.904" fill="none"/>
    </clipPath>
    <clipPath id="clip-path-4">
      <path id="Tracé_729" data-name="Tracé 729" d="M336.8,0c-.623,0-1.258.012-1.892.03C291.449,1.275,291.088,27,271.332,35.779c-9.791,4.351-29.086,24.251-35.459,55.682s34.939,50.466,34.939,50.466l152.164-1.136c9.925-7.27,20.39-13.206,25.572-25.241,4.277-9.934,4.538-21.6,2.492-31.889-4.488-22.569-22.07-39.127-43.153-44.645C396.984,36.163,379.029.129,337.248,0Z" transform="translate(-235.204 -0.001)" fill="none"/>
    </clipPath>
    <clipPath id="clip-path-5">
      <rect id="Rectangle_803" data-name="Rectangle 803" width="75.984" height="45.399" fill="none"/>
    </clipPath>
    <clipPath id="clip-path-6">
      <rect id="Rectangle_805" data-name="Rectangle 805" width="30.915" height="18.472" fill="none"/>
    </clipPath>
    <clipPath id="clip-path-7">
      <rect id="Rectangle_806" data-name="Rectangle 806" width="120.987" height="37.645" fill="none"/>
    </clipPath>
    <clipPath id="clip-path-8">
      <rect id="Rectangle_812" data-name="Rectangle 812" width="30.915" height="8.051" fill="none"/>
    </clipPath>
    <clipPath id="clip-path-9">
      <rect id="Rectangle_830" data-name="Rectangle 830" width="0.963" height="0.824" fill="none"/>
    </clipPath>
    <clipPath id="clip-path-12">
      <rect id="Rectangle_836" data-name="Rectangle 836" width="0.963" height="0.826" fill="none"/>
    </clipPath>
    <clipPath id="clip-path-16">
      <rect id="Rectangle_863" data-name="Rectangle 863" width="14.724" height="37.852" fill="none"/>
    </clipPath>
    <clipPath id="clip-path-17">
      <rect id="Rectangle_864" data-name="Rectangle 864" width="7.221" height="37.356" fill="none"/>
    </clipPath>
    <clipPath id="clip-path-18">
      <rect id="Rectangle_865" data-name="Rectangle 865" width="13.315" height="29.321" fill="none"/>
    </clipPath>
    <clipPath id="clip-path-19">
      <rect id="Rectangle_866" data-name="Rectangle 866" width="8.447" height="5.074" fill="none"/>
    </clipPath>
    <clipPath id="clip-path-20">
      <rect id="Rectangle_867" data-name="Rectangle 867" width="6.775" height="4.506" fill="none"/>
    </clipPath>
  </defs>
  <g id="Groupe_1792" data-name="Groupe 1792" transform="translate(109.013 1.512)" opacity="0.236" style="mix-blend-mode: luminosity;isolation: isolate">
    <g id="Groupe_1740" data-name="Groupe 1740" transform="translate(0)" clip-path="url(#clip-path)">
      <path id="Tracé_330" data-name="Tracé 330" d="M98.479,54.45c.229,6.965-9.2,9.886-14.559,11.055-7.925,1.729-17.32,1.287-24-3.765-3.7-2.8-4.061-9.156-.306-12.115,2.5-1.97,6.072.438,5.845,1.49a16.257,16.257,0,0,1,2.457-6.381c2.059-2.758,5.69-3.483,8.915-2.693a14.779,14.779,0,0,1,7.7,5.246,11.1,11.1,0,0,0,1.168-.375c5.426-1.574,12.57,1.127,12.781,7.538" transform="translate(-30.565 -22.395)" fill="#e1f1ff"/>
      <path id="Tracé_331" data-name="Tracé 331" d="M35.607,141.927S-5.7,122.892.668,91.46,32.644,55.706,42.436,51.355C62.191,42.577,56.245,1.275,99.7.031s61.876,36.08,72.981,38.986c21.083,5.518,38.664,22.076,43.153,44.645,2.046,10.289,1.785,21.955-2.492,31.889-5.182,12.035-15.647,17.971-25.572,25.24Z" transform="translate(0 0)" fill="#e1f1ff"/>
      <path id="Tracé_332" data-name="Tracé 332" d="M127.91,15.559c.229,6.965-9.2,9.886-14.559,11.055-7.925,1.729-17.32,1.287-24-3.765-3.7-2.8-4.061-9.156-.306-12.114,2.5-1.97,6.072.437,5.845,1.489a16.252,16.252,0,0,1,2.457-6.38c2.059-2.759,5.69-3.483,8.915-2.693a14.773,14.773,0,0,1,7.7,5.245,11.066,11.066,0,0,0,1.168-.375c5.426-1.574,12.57,1.127,12.781,7.538" transform="translate(-46.355 -1.529)" fill="#e1f1ff"/>
    </g>
  </g>
  <g id="Groupe_1845" data-name="Groupe 1845" transform="translate(0)">
    <g id="Groupe_1844" data-name="Groupe 1844" clip-path="url(#clip-path-2)">
      <g id="Groupe_1794" data-name="Groupe 1794">
        <g id="Groupe_1793" data-name="Groupe 1793" clip-path="url(#clip-path-2)">
          <path id="Tracé_670" data-name="Tracé 670" d="M489.612,262.245a6.02,6.02,0,0,1-1.563,1.371,7.9,7.9,0,0,1-6.451.513,2.064,2.064,0,0,0-.953-.183,1.969,1.969,0,0,0-.664.322,5.433,5.433,0,0,1-6.405-.65c-1.243,1.355-3.345,1.552-5.135,1.129a6.1,6.1,0,0,1-4.009-2.716c-.864-1.548-.62-4.355,1.158-5.185a5.212,5.212,0,0,1-1.973-4.985,3.924,3.924,0,0,1,4.093-3.1,4.956,4.956,0,0,1,1.559-5.444q.17-.134.352-.25a4.937,4.937,0,0,1,5.97.66,3.856,3.856,0,0,1,6.683,1.117,4.36,4.36,0,0,1,5.813,4.848,3.62,3.62,0,0,1,1.858,4.917A6.381,6.381,0,0,1,491,257.94a6.522,6.522,0,0,1-1.383,4.305" transform="translate(-248.69 -129.97)" fill="#aeb83c"/>
          <path id="Tracé_671" data-name="Tracé 671" d="M488.724,251.092a5.706,5.706,0,0,0,.634,1.936,3.712,3.712,0,0,0,1.3,1.4,2.918,2.918,0,0,0,1.761.4,2.315,2.315,0,0,0,1.554-.741l.755-.872-.042,1.139a2.541,2.541,0,0,0,1.375,2.2,3.449,3.449,0,0,0,1.4.391,4.851,4.851,0,0,0,1.531-.151,3.776,3.776,0,0,1-1.523.507,3.456,3.456,0,0,1-1.655-.212,3.143,3.143,0,0,1-1.364-1.061,2.831,2.831,0,0,1-.574-1.687l.714.267a2.747,2.747,0,0,1-.963.736,3.3,3.3,0,0,1-1.151.281,3.42,3.42,0,0,1-2.208-.628,3.881,3.881,0,0,1-1.314-1.791,4.4,4.4,0,0,1-.232-2.119" transform="translate(-262.188 -134.716)" fill="#9ea836"/>
          <path id="Tracé_672" data-name="Tracé 672" d="M482.317,268.87a2.783,2.783,0,0,0,.962.508,4.861,4.861,0,0,0,.985.205,5.506,5.506,0,0,0,1.017.011,8.659,8.659,0,0,0,1.117-.172,1.962,1.962,0,0,1-.955.8,2.574,2.574,0,0,1-1.265.181,2.5,2.5,0,0,1-1.2-.456,1.469,1.469,0,0,1-.656-1.075" transform="translate(-258.773 -144.254)" fill="#9ea836"/>
          <path id="Tracé_673" data-name="Tracé 673" d="M498.013,272.325a2.9,2.9,0,0,0,1.4.637,8.328,8.328,0,0,0,1.51.166,8.963,8.963,0,0,0,1.524-.107,14.215,14.215,0,0,0,1.577-.351,3.5,3.5,0,0,1-1.4.974,4.441,4.441,0,0,1-1.712.307,4.363,4.363,0,0,1-1.7-.379,2.7,2.7,0,0,1-.743-.495,1.532,1.532,0,0,1-.448-.752" transform="translate(-267.194 -146.108)" fill="#9ea836"/>
          <path id="Tracé_674" data-name="Tracé 674" d="M488.048,264.853a7.9,7.9,0,0,1-6.451.513,2.071,2.071,0,0,0-.954-.183,1.96,1.96,0,0,0-.664.322,5.431,5.431,0,0,1-6.4-.65c-1.244,1.355-3.346,1.552-5.136,1.129a6.1,6.1,0,0,1-4.009-2.716c-.864-1.548-.62-4.354,1.158-5.185a5.211,5.211,0,0,1-1.973-4.985,3.923,3.923,0,0,1,4.093-3.1,4.957,4.957,0,0,1,1.56-5.444c-.7,2.263-.93,4.7.8,6.6a2.2,2.2,0,0,0-2.257.229,3.5,3.5,0,0,0-1.268,1.973,4.038,4.038,0,0,0,.256,2.906,2.91,2.91,0,0,0,2.374,1.58,3.71,3.71,0,0,0,.192,4.6,3.067,3.067,0,0,0,4.415-.073,4.178,4.178,0,0,0,6.5.256,6.627,6.627,0,0,0,4.085,2.316,10.192,10.192,0,0,0,3.68-.082" transform="translate(-248.69 -131.208)" fill="#9ea836"/>
          <path id="Tracé_675" data-name="Tracé 675" d="M644.21,248.765h-6.023l.022-.552,1.23-32.823.538-14.36h2.445l.554,14.816.258,6.822Z" transform="translate(-342.4 -107.857)" fill="#b16f2b"/>
          <path id="Tracé_676" data-name="Tracé 676" d="M643.259,239.049a7.656,7.656,0,0,0-2.426,4.407,40.043,40.043,0,0,0-.73,8.71q0,5.553.406,11.1c-.765.417-1.545.845-2.275,1.331l1.23-32.823a4.257,4.257,0,0,1,2.876.083,2.967,2.967,0,0,1,.661.373Z" transform="translate(-342.426 -124.238)" fill="#9d580b"/>
          <path id="Tracé_677" data-name="Tracé 677" d="M637.576,107.777a13.508,13.508,0,0,1,.958,9.448,12.306,12.306,0,0,1-9.522,8.433,10.646,10.646,0,0,1-7.431,6.871,10.632,10.632,0,0,1-9.764-2.681,10.682,10.682,0,0,1-9.223,2.527c-4.544-.95-9.258-5.873-8.63-10.743-.074.568-3.455-1.191-3.716-1.394a12.808,12.808,0,0,1-4.276-8.318c-.178-1.811.341-8.134,2.53-8.915-3.8-4.383-5.318-11.13-2.728-16.476.178-.365,2.8-4.75,3.019-4.44a13.611,13.611,0,0,1,1.863-17.362,10.649,10.649,0,0,1,.406-10.161,11.43,11.43,0,0,1,7.719-4.931c-.738.146.376-4.945.538-5.326a16.126,16.126,0,0,1,3.059-4.635,12.9,12.9,0,0,1,9.012-4.423,11.019,11.019,0,0,1,8.139,3.943c1.916,2.179,4.152,6.111,3.595,9.163a6.072,6.072,0,0,1,5.911.977,9.715,9.715,0,0,1,3.243,5.25c.8,2.994.326,6.69-2.259,8.405,3.636.389,6.46,3.877,6.765,7.521s-1.531,7.228-4.2,9.731c4.328,1.57,7.049,6.263,7.088,10.867s-2.255,9-5.452,12.308c.741-.768,3.115,3.861,3.353,4.363" transform="translate(-313.588 -18.912)" fill="#aeb83c"/>
          <path id="Tracé_678" data-name="Tracé 678" d="M655.587,65.965a5.234,5.234,0,0,0-2.834.927,6.566,6.566,0,0,0-1.1.973,8.017,8.017,0,0,0-.9,1.177,12.417,12.417,0,0,0-1.9,5.725,6.923,6.923,0,0,1-.014-3.18,8.828,8.828,0,0,1,1.219-2.992,7.95,7.95,0,0,1,1.035-1.272,5.845,5.845,0,0,1,1.33-.98,4.54,4.54,0,0,1,1.566-.506,3.977,3.977,0,0,1,1.6.127" transform="translate(-348.019 -35.308)" fill="#9ea836"/>
          <path id="Tracé_679" data-name="Tracé 679" d="M661.558,97.08a18.583,18.583,0,0,0-1.974.918,13.536,13.536,0,0,0-1.769,1.149,13.721,13.721,0,0,0-1.568,1.41,18.913,18.913,0,0,0-1.4,1.668,5.676,5.676,0,0,1,.895-2.073,7.257,7.257,0,0,1,3.582-2.745,5.712,5.712,0,0,1,2.234-.327" transform="translate(-351.339 -52.079)" fill="#9ea836"/>
          <path id="Tracé_680" data-name="Tracé 680" d="M616.3,104.518a6.336,6.336,0,0,1,2.656-.124,7.974,7.974,0,0,1,4.68,2.521,6.31,6.31,0,0,1,1.356,2.288,14.773,14.773,0,0,0-1.8-1.826,12.441,12.441,0,0,0-4.372-2.358,14.671,14.671,0,0,0-2.517-.5" transform="translate(-330.658 -55.964)" fill="#9ea836"/>
          <path id="Tracé_681" data-name="Tracé 681" d="M627.272,70.356a6.375,6.375,0,0,1,2.358.626,8.029,8.029,0,0,1,3.553,3.341,6.346,6.346,0,0,1,.768,2.316,19.167,19.167,0,0,0-1.31-1.962,14.266,14.266,0,0,0-3.329-3.133,18.935,18.935,0,0,0-2.039-1.187" transform="translate(-336.544 -37.747)" fill="#9ea836"/>
          <path id="Tracé_682" data-name="Tracé 682" d="M647.358,134.656c.787.281,1.55.545,2.322.761a21.039,21.039,0,0,0,2.332.5,21.274,21.274,0,0,0,2.375.227c.8.029,1.607.009,2.443-.019a7.505,7.505,0,0,1-2.418.661,9.585,9.585,0,0,1-4.95-.77,7.541,7.541,0,0,1-2.1-1.362" transform="translate(-347.321 -72.246)" fill="#9ea836"/>
          <path id="Tracé_683" data-name="Tracé 683" d="M625.63,138.012a4.566,4.566,0,0,1,1.8.15,5.979,5.979,0,0,1,3.01,1.97,4.547,4.547,0,0,1,.856,1.589c-.456-.4-.875-.781-1.315-1.133a16.635,16.635,0,0,0-1.345-.984,16.244,16.244,0,0,0-1.439-.84c-.5-.264-1.017-.495-1.565-.752" transform="translate(-335.663 -74.028)" fill="#9ea836"/>
          <path id="Tracé_684" data-name="Tracé 684" d="M654.225,167.415a6.462,6.462,0,0,0,.8,1.689,6.279,6.279,0,0,0,1.233,1.335,8.842,8.842,0,0,0,1.527.987,12.645,12.645,0,0,0,1.689.73c.578.217,1.174.395,1.777.554s1.212.3,1.825.444c1.229.27,2.476.493,3.725.776a23.089,23.089,0,0,1-3.833-.143c-.639-.069-1.272-.189-1.9-.32a16.726,16.726,0,0,1-1.87-.538,11.985,11.985,0,0,1-1.784-.822,7.759,7.759,0,0,1-1.582-1.194,5.647,5.647,0,0,1-1.154-1.612,4.908,4.908,0,0,1-.453-1.886" transform="translate(-351.005 -89.822)" fill="#9ea836"/>
          <path id="Tracé_685" data-name="Tracé 685" d="M634.406,206.684a23.892,23.892,0,0,0,2.083-1.8,17.748,17.748,0,0,0,3.205-4.3,24.058,24.058,0,0,0,1.128-2.509,8.088,8.088,0,0,1-.542,2.772,10.127,10.127,0,0,1-3.375,4.527,8.132,8.132,0,0,1-2.5,1.313" transform="translate(-340.372 -106.27)" fill="#9ea836"/>
          <path id="Tracé_686" data-name="Tracé 686" d="M655.749,210.911a17,17,0,0,0,1.6,1.895,13.533,13.533,0,0,0,3.938,2.747,17.247,17.247,0,0,0,2.329.846,6.378,6.378,0,0,1-2.552-.244,8.079,8.079,0,0,1-4.2-2.934,6.4,6.4,0,0,1-1.11-2.31" transform="translate(-351.823 -113.158)" fill="#9ea836"/>
          <path id="Tracé_687" data-name="Tracé 687" d="M625.723,167.064c.542-.29,1.047-.564,1.522-.877a12.085,12.085,0,0,0,1.345-1.01,12.258,12.258,0,0,0,1.192-1.187c.378-.425.723-.885,1.088-1.379a4.228,4.228,0,0,1-.558,1.752,5.535,5.535,0,0,1-2.776,2.4,4.241,4.241,0,0,1-1.813.3" transform="translate(-335.713 -87.244)" fill="#9ea836"/>
          <path id="Tracé_688" data-name="Tracé 688" d="M626.018,135.287a10.4,10.4,0,0,1-4.437,2.363,10.631,10.631,0,0,1-9.764-2.681,10.678,10.678,0,0,1-9.223,2.527c-4.544-.95-9.259-5.872-8.63-10.743-.074.568-3.455-1.191-3.716-1.394a12.807,12.807,0,0,1-4.275-8.318c-.178-1.811.34-8.134,2.53-8.916-3.8-4.382-5.318-11.13-2.728-16.476.178-.365,2.8-4.75,3.019-4.44a13.61,13.61,0,0,1,1.863-17.362,10.649,10.649,0,0,1,.406-10.162,11.425,11.425,0,0,1,7.719-4.931c-.738.146.376-4.945.538-5.326a16.132,16.132,0,0,1,3.06-4.635,15.952,15.952,0,0,0-1.207,4.72c-.038.48.3,5.628.615,5.628-3.367,1.287-6.534,3.509-8.1,6.753s-1.128,7.593,1.643,9.9a10.564,10.564,0,0,0,1.51,16.421c-2.522,2.772-4.682,6.13-4.907,9.87s2.036,7.813,5.7,8.6a16.429,16.429,0,0,0-2,12.318c1.133,4.116,4.659,7.673,8.9,8.136a5.141,5.141,0,0,0,7.892,5.365,13.685,13.685,0,0,0,13.584,2.783" transform="translate(-313.588 -24.032)" fill="#9ea836"/>
          <path id="Tracé_689" data-name="Tracé 689" d="M600.862,273.837a5.825,5.825,0,0,1-1.515,1.328,7.653,7.653,0,0,1-6.252.5,2.013,2.013,0,0,0-.925-.177,1.9,1.9,0,0,0-.643.312,5.264,5.264,0,0,1-6.208-.629,5.153,5.153,0,0,1-4.977,1.093,5.914,5.914,0,0,1-3.885-2.632c-.838-1.5-.6-4.22,1.123-5.026a5.049,5.049,0,0,1-1.912-4.831,3.8,3.8,0,0,1,3.966-3.006,4.8,4.8,0,0,1,1.512-5.276,4.148,4.148,0,0,1,.341-.242,4.784,4.784,0,0,1,5.786.639,3.737,3.737,0,0,1,6.477,1.082,4.226,4.226,0,0,1,5.634,4.7,3.508,3.508,0,0,1,1.8,4.766,6.189,6.189,0,0,1,1.019,3.231,6.325,6.325,0,0,1-1.34,4.173" transform="translate(-308.809 -136.521)" fill="#aeb83c"/>
          <path id="Tracé_690" data-name="Tracé 690" d="M600,263.028a5.555,5.555,0,0,0,.621,1.874,3.592,3.592,0,0,0,1.26,1.35,2.822,2.822,0,0,0,1.7.388,2.236,2.236,0,0,0,1.5-.714l.757-.872-.043,1.139a2.455,2.455,0,0,0,1.324,2.125,3.346,3.346,0,0,0,1.354.381,4.744,4.744,0,0,0,1.484-.14,3.652,3.652,0,0,1-1.476.5,3.349,3.349,0,0,1-1.608-.2,3.049,3.049,0,0,1-1.327-1.03,2.751,2.751,0,0,1-.559-1.641l.714.267a2.675,2.675,0,0,1-.938.717,3.21,3.21,0,0,1-1.12.273,3.323,3.323,0,0,1-2.148-.612,3.766,3.766,0,0,1-1.273-1.742,4.255,4.255,0,0,1-.218-2.056" transform="translate(-321.888 -141.12)" fill="#9ea836"/>
          <path id="Tracé_691" data-name="Tracé 691" d="M593.791,280.258a2.731,2.731,0,0,0,.937.483,4.836,4.836,0,0,0,.951.2,5.537,5.537,0,0,0,.982.013,8.664,8.664,0,0,0,1.085-.157,1.888,1.888,0,0,1-.923.783,2.482,2.482,0,0,1-1.23.178,2.407,2.407,0,0,1-1.171-.446,1.419,1.419,0,0,1-.631-1.051" transform="translate(-318.581 -150.364)" fill="#9ea836"/>
          <path id="Tracé_692" data-name="Tracé 692" d="M609,283.606a2.827,2.827,0,0,0,1.36.608,8.237,8.237,0,0,0,1.461.159,8.892,8.892,0,0,0,1.474-.1,14.549,14.549,0,0,0,1.531-.33,3.368,3.368,0,0,1-1.358.953,4.282,4.282,0,0,1-1.662.3,4.2,4.2,0,0,1-1.655-.371,2.6,2.6,0,0,1-.72-.483,1.479,1.479,0,0,1-.431-.735" transform="translate(-326.743 -152.16)" fill="#9ea836"/>
          <path id="Tracé_693" data-name="Tracé 693" d="M599.347,276.365a7.654,7.654,0,0,1-6.252.5,2,2,0,0,0-.924-.177,1.9,1.9,0,0,0-.643.312,5.265,5.265,0,0,1-6.207-.63,5.153,5.153,0,0,1-4.977,1.094,5.914,5.914,0,0,1-3.886-2.632c-.837-1.5-.6-4.22,1.123-5.026a5.05,5.05,0,0,1-1.912-4.831,3.8,3.8,0,0,1,3.966-3.006,4.8,4.8,0,0,1,1.511-5.276c-.682,2.193-.9,4.554.778,6.392a2.136,2.136,0,0,0-2.187.222,3.4,3.4,0,0,0-1.229,1.912,3.915,3.915,0,0,0,.248,2.817,2.821,2.821,0,0,0,2.3,1.531,3.6,3.6,0,0,0,.187,4.457,2.972,2.972,0,0,0,4.278-.071,4.049,4.049,0,0,0,6.3.248,6.42,6.42,0,0,0,3.959,2.245,9.87,9.87,0,0,0,3.566-.079" transform="translate(-308.809 -137.72)" fill="#9ea836"/>
          <path id="Tracé_694" data-name="Tracé 694" d="M442.587,309.439c-.384,15.194-141.233,7.84-151.079,5.732s1.177-6.918,10.971-11.676-22.156-5.332-35.707-10.057a5.759,5.759,0,0,1-1.158-.521c-7.058-4.456,61.367-7.719,87.1-7.911,0,0,5.546-.041,13.888.016,25.254.167,88.1,1.235,88.167,7.086,1.054,5.779-29.127,4.314-28.789,8.134s16.2,2.431,16.607,9.2" transform="translate(-142.235 -152.904)" fill="#c1cb44"/>
          <path id="Tracé_695" data-name="Tracé 695" d="M372.3,287.617c0,3.567-30.372,6.462-67.841,6.462-14.45,0-27.845-.431-38.846-1.163-7.058-4.456,61.367-7.719,87.1-7.912,0,0,5.546-.041,13.888.017,3.666.793,5.7,1.671,5.7,2.6" transform="translate(-142.235 -152.903)" fill="#b2bd2e"/>
          <path id="Tracé_696" data-name="Tracé 696" d="M498.515,331.887c0,2.018-15.377,3.654-34.345,3.654s-34.345-1.636-34.345-3.654,15.376-3.654,34.345-3.654,34.345,1.636,34.345,3.654" transform="translate(-230.61 -176.104)" fill="#7c403c"/>
        </g>
      </g>
      <g id="Groupe_1826" data-name="Groupe 1826" transform="translate(109.012 0)">
        <g id="Groupe_1825" data-name="Groupe 1825" clip-path="url(#clip-path-4)">
          <path id="Tracé_697" data-name="Tracé 697" d="M515.274,252.456a1.55,1.55,0,0,0-1.972-1.249,1.994,1.994,0,0,0-.04-3.789,2.119,2.119,0,0,0-.521-3.308,2.183,2.183,0,0,0-1.247-3.573,2.113,2.113,0,0,0-1.283-3.782,1.9,1.9,0,0,0-.634-3.535,1.475,1.475,0,0,0-.517-2.722c.671-.138.734-1.123.384-1.713s-.939-1.054-1.1-1.721c-.1-.438,0-.9-.1-1.345s-.681-1.294-1.092-1.108c-.587.381-.542,1.369-.393,2.241a1.408,1.408,0,0,0-.889,1.158,1.434,1.434,0,0,0-.9,1.339,1.453,1.453,0,0,0,.425,1.03,1.416,1.416,0,0,0-.387,2.522.781.781,0,0,0-.7.729,13.56,13.56,0,0,0,.2,1.356c0,.054-.02.1-.024.155a1.414,1.414,0,0,0-1.288,1.419,1.433,1.433,0,0,0,.225.737,1.453,1.453,0,0,0-.431,1.034,1.437,1.437,0,0,0,.2.7.958.958,0,0,0,.5.578c-.546-.107-1.036.456-1.071,1.011a2.965,2.965,0,0,0,.509,1.563,1.109,1.109,0,0,0-1.541.227,1.724,1.724,0,0,0-.147,1.663,4.083,4.083,0,0,0,1.041,1.387.785.785,0,0,0-.862,1.311,1.624,1.624,0,0,0-1.372,1.252,1.686,1.686,0,0,0,.725,1.685,1.034,1.034,0,0,0-.24,1.906,1.3,1.3,0,0,0-1.173,2.2,2.92,2.92,0,0,0,.453.382H514.4a.776.776,0,0,0-.312-.165,1.559,1.559,0,0,0,1.183-1.573" transform="translate(-376.84 -120.495)" fill="#156836"/>
          <path id="Tracé_698" data-name="Tracé 698" d="M512.99,267.328a1.24,1.24,0,0,0,.216-.17,1.218,1.218,0,0,0,.115-1.489,1.057,1.057,0,0,0-1.432-.243,1.633,1.633,0,0,0-.724-3.162,1.416,1.416,0,1,0-.673-2.751,1.776,1.776,0,0,0-.449-3.289,1.286,1.286,0,0,0-.3-2.4,1.591,1.591,0,0,0-.384-2.777,2.52,2.52,0,0,0,.226-1.2.863.863,0,0,0-.8-.783c-.48.024-.762.58-.752,1.06s.206.941.221,1.421a1.605,1.605,0,0,0-.95,1.735,4.686,4.686,0,0,0,.863,1.943c-.723-.072-1.317.674-1.359,1.4a4.094,4.094,0,0,0,.636,2.057,1.233,1.233,0,0,0-1.056,2.18,1.545,1.545,0,0,0-.971,2.645,1.42,1.42,0,0,0-1.034,2.61c-.591,0-.869.6-.757,1.169Z" transform="translate(-379.204 -133.629)" fill="#258946"/>
          <path id="Tracé_699" data-name="Tracé 699" d="M475.528,252.456a1.55,1.55,0,0,0-1.971-1.249,1.994,1.994,0,0,0-.041-3.789A2.119,2.119,0,0,0,473,244.11a2.184,2.184,0,0,0-1.247-3.573,2.113,2.113,0,0,0-1.283-3.782,1.9,1.9,0,0,0-.633-3.535,1.475,1.475,0,0,0-.517-2.722c.672-.138.734-1.123.385-1.713s-.94-1.054-1.1-1.721c-.1-.438-.005-.9-.1-1.345s-.682-1.294-1.092-1.108c-.587.381-.542,1.369-.393,2.241a1.41,1.41,0,0,0-.89,1.158,1.434,1.434,0,0,0-.9,1.339,1.453,1.453,0,0,0,.426,1.03,1.416,1.416,0,0,0-.387,2.522.781.781,0,0,0-.7.729c-.031.457.184.9.2,1.356,0,.054-.02.1-.023.155a1.414,1.414,0,0,0-1.288,1.419,1.432,1.432,0,0,0,.225.737,1.451,1.451,0,0,0-.432,1.034,1.433,1.433,0,0,0,.2.7.956.956,0,0,0,.5.578c-.546-.107-1.035.456-1.07,1.011a2.966,2.966,0,0,0,.51,1.563,1.109,1.109,0,0,0-1.541.227,1.722,1.722,0,0,0-.147,1.663,4.084,4.084,0,0,0,1.04,1.387.785.785,0,0,0-.862,1.311,1.624,1.624,0,0,0-1.372,1.252,1.685,1.685,0,0,0,.725,1.685,1.034,1.034,0,0,0-.24,1.906,1.3,1.3,0,0,0-1.173,2.2,2.9,2.9,0,0,0,.453.382h14.384a.777.777,0,0,0-.312-.165,1.558,1.558,0,0,0,1.182-1.573" transform="translate(-355.516 -120.495)" fill="#156836"/>
          <path id="Tracé_700" data-name="Tracé 700" d="M473.244,267.328a1.233,1.233,0,0,0,.216-.17,1.218,1.218,0,0,0,.115-1.489,1.056,1.056,0,0,0-1.431-.243,1.633,1.633,0,0,0-.724-3.162,1.416,1.416,0,1,0-.673-2.751,1.776,1.776,0,0,0-.449-3.289,1.286,1.286,0,0,0-.3-2.4,1.592,1.592,0,0,0-.384-2.777,2.52,2.52,0,0,0,.226-1.2.863.863,0,0,0-.8-.783c-.48.024-.762.58-.752,1.06s.206.941.22,1.421a1.606,1.606,0,0,0-.949,1.735,4.686,4.686,0,0,0,.863,1.943c-.724-.072-1.317.674-1.359,1.4a4.089,4.089,0,0,0,.636,2.057,1.233,1.233,0,0,0-1.056,2.18,1.544,1.544,0,0,0-.971,2.645,1.42,1.42,0,0,0-1.034,2.61c-.591,0-.869.6-.757,1.169Z" transform="translate(-357.879 -133.629)" fill="#258946"/>
          <rect id="Rectangle_799" data-name="Rectangle 799" width="1.237" height="6.461" transform="translate(70.253 38.172)" fill="#5e312b"/>
          <rect id="Rectangle_800" data-name="Rectangle 800" width="1.237" height="6.461" transform="translate(59.805 38.172)" fill="#5e312b"/>
          <rect id="Rectangle_801" data-name="Rectangle 801" width="16.084" height="23.714" transform="translate(57.606 42.228)" fill="#a33c2b"/>
          <rect id="Rectangle_802" data-name="Rectangle 802" width="16.084" height="2.131" transform="translate(57.606 36.798)" fill="#5e312b"/>
          <path id="Tracé_701" data-name="Tracé 701" d="M454.234,201.573v32.466H425.661c.066-5.609.363-31.443.462-42.661.033-1.584.033-2.87.033-3.762.033-.825.033-1.32.033-1.419Z" transform="translate(-337.388 -99.899)" fill="#f7c896"/>
          <g id="Groupe_1797" data-name="Groupe 1797" transform="translate(40.862 61.818)" opacity="0.85" style="mix-blend-mode: multiply;isolation: isolate">
            <g id="Groupe_1796" data-name="Groupe 1796">
              <g id="Groupe_1795" data-name="Groupe 1795" clip-path="url(#clip-path-5)">
                <path id="Tracé_702" data-name="Tracé 702" d="M399.351,174.983v3.794L371.24,163.039l-47.873-26.791,1.617-2.87,46.29,25.9Z" transform="translate(-323.367 -133.378)" fill="#b7b7b7"/>
              </g>
            </g>
          </g>
          <rect id="Rectangle_804" data-name="Rectangle 804" width="3.299" height="91.832" transform="translate(40.853 61.671) rotate(-60.781)" fill="#ba543f"/>
          <path id="Tracé_703" data-name="Tracé 703" d="M291.517,113.112v64.9H170.53v-64.9l58.86-31.344,1.221.627,8.446,4.256Z" transform="translate(-200.505 -43.871)" fill="#f7ebc1"/>
          <path id="Tracé_704" data-name="Tracé 704" d="M229.35,129.819V203.79H198.435v-58.7Z" transform="translate(-215.477 -69.651)" fill="#f3bbaa"/>
          <path id="Tracé_705" data-name="Tracé 705" d="M229.35,129.819V203.79H198.435v-58.7Z" transform="translate(-215.477 -69.651)" fill="#f7c896"/>
          <g id="Groupe_1800" data-name="Groupe 1800" transform="translate(-17.042 60.168)" opacity="0.85" style="mix-blend-mode: multiply;isolation: isolate">
            <g id="Groupe_1799" data-name="Groupe 1799">
              <g id="Groupe_1798" data-name="Groupe 1798" clip-path="url(#clip-path-6)">
                <path id="Tracé_706" data-name="Tracé 706" d="M198.435,145.1v3.2l30.915-15.276v-3.2Z" transform="translate(-198.435 -129.819)" fill="#b7b7b7"/>
              </g>
            </g>
          </g>
          <path id="Tracé_707" data-name="Tracé 707" d="M227.187,77.915,223.821,79.8l-65.129,36.425-1.617-2.9,63.347-35.4,3.4-1.914Z" transform="translate(-193.287 -40.777)" fill="#ba543f"/>
          <path id="Tracé_708" data-name="Tracé 708" d="M363.865,113.317l-1.617,2.9L297.152,79.8l-3.4-1.88,3.4-1.914,3.365,1.914Z" transform="translate(-266.617 -40.777)" fill="#ba543f"/>
          <g id="Groupe_1803" data-name="Groupe 1803" transform="translate(-29.975 38.26)" opacity="0.85" style="mix-blend-mode: multiply;isolation: isolate">
            <g id="Groupe_1802" data-name="Groupe 1802">
              <g id="Groupe_1801" data-name="Groupe 1801" clip-path="url(#clip-path-7)">
                <path id="Tracé_709" data-name="Tracé 709" d="M291.517,116.369V120.2L231.04,86.346,170.53,120.2v-3.827l57.112-31.9,2.969-1.65.429-.264,3.366,1.914,4.652,2.607Z" transform="translate(-170.53 -82.551)" fill="#b7b7b7"/>
              </g>
            </g>
          </g>
          <path id="Tracé_710" data-name="Tracé 710" d="M227.187,77.915,223.821,79.8l-65.129,36.425-1.617-2.9,63.347-35.4,3.4-1.914Z" transform="translate(-193.287 -40.777)" fill="#ba543f"/>
          <path id="Tracé_711" data-name="Tracé 711" d="M363.865,113.317l-1.617,2.9L297.152,79.8l-3.4-1.88,3.4-1.914,3.365,1.914Z" transform="translate(-266.617 -40.777)" fill="#ba543f"/>
          <rect id="Rectangle_807" data-name="Rectangle 807" width="35.88" height="3.712" transform="translate(-19.525 94.811)" fill="#ba543f"/>
          <rect id="Rectangle_808" data-name="Rectangle 808" width="20.209" height="32.845" transform="translate(-11.689 100.733)" fill="#efb078"/>
          <rect id="Rectangle_809" data-name="Rectangle 809" width="15.688" height="30.153" transform="translate(-9.429 103.425)" fill="#db8f52"/>
          <rect id="Rectangle_810" data-name="Rectangle 810" width="11.701" height="27.632" transform="translate(-7.435 106.084)" fill="#7a352c"/>
          <path id="Tracé_712" data-name="Tracé 712" d="M220.193,229.814h10.67v-.928h-11.7v27.632h1.031Z" transform="translate(-226.597 -122.803)" fill="#682a26"/>
          <g id="Groupe_1806" data-name="Groupe 1806" transform="translate(-17.042 98.11)" style="mix-blend-mode: multiply;isolation: isolate">
            <g id="Groupe_1805" data-name="Groupe 1805">
              <g id="Groupe_1804" data-name="Groupe 1804" clip-path="url(#clip-path-8)">
                <rect id="Rectangle_811" data-name="Rectangle 811" width="30.915" height="8.05" transform="translate(0 0)" fill="#ba948e"/>
              </g>
            </g>
          </g>
          <rect id="Rectangle_813" data-name="Rectangle 813" width="24.126" height="2.165" transform="translate(-13.948 127.855)" fill="#efdb9e"/>
          <rect id="Rectangle_814" data-name="Rectangle 814" width="26.261" height="2.165" transform="translate(-15.016 129.917)" fill="#efdfb1"/>
          <rect id="Rectangle_815" data-name="Rectangle 815" width="28.357" height="2.165" transform="translate(-16.064 131.974)" fill="#f7ebc1"/>
          <rect id="Rectangle_816" data-name="Rectangle 816" width="3.101" height="11.977" transform="translate(-1.04 107.315)" fill="#648d93"/>
          <path id="Tracé_713" data-name="Tracé 713" d="M236.062,231.544v4.421l-3.1,3.134v-4.652l2.9-2.9Z" transform="translate(-234 -124.229)" fill="#7db3b7"/>
          <path id="Tracé_714" data-name="Tracé 714" d="M233.361,231.944h2.705v-.388h-3.093v11.96h.388Z" transform="translate(-234.007 -124.235)" fill="#3b7175"/>
          <rect id="Rectangle_817" data-name="Rectangle 817" width="14.022" height="21.308" transform="translate(-8.595 74.327)" fill="#7a352c"/>
          <rect id="Rectangle_818" data-name="Rectangle 818" width="11.845" height="20.126" transform="translate(-7.507 75.51)" fill="#648d93"/>
          <path id="Tracé_715" data-name="Tracé 715" d="M230.852,162.92v2.309l-11.845,11.845v-4.652l9.5-9.5Z" transform="translate(-226.514 -87.411)" fill="#7db3b7"/>
          <path id="Tracé_716" data-name="Tracé 716" d="M219.856,163.441h11v-.55H219.031v20.14h.825Z" transform="translate(-226.527 -87.394)" fill="#3b7175"/>
          <path id="Tracé_717" data-name="Tracé 717" d="M217.621,161.332h13.06v-.962H216.659v21.308h.962Z" transform="translate(-225.254 -86.042)" fill="#682a26"/>
          <rect id="Rectangle_819" data-name="Rectangle 819" width="35.88" height="3.712" transform="translate(-19.525 94.811)" fill="#ba543f"/>
          <rect id="Rectangle_820" data-name="Rectangle 820" width="12.785" height="19.796" transform="translate(97.301 106.462)" fill="#7a352c"/>
          <rect id="Rectangle_821" data-name="Rectangle 821" width="11.053" height="18.476" transform="translate(98.171 107.118)" fill="#648d93"/>
          <path id="Tracé_718" data-name="Tracé 718" d="M458.07,231.117v8.512l-9.964,9.964h-1.089v-8.248l10.228-10.228Z" transform="translate(-348.846 -123.999)" fill="#7db3b7"/>
          <path id="Tracé_719" data-name="Tracé 719" d="M447.612,231.833H458.06v-.722H446.994V249.6h.619Z" transform="translate(-348.833 -123.996)" fill="#3b7175"/>
          <rect id="Rectangle_822" data-name="Rectangle 822" width="0.567" height="19.281" transform="translate(103.384 106.822)" fill="#7a352c"/>
          <path id="Tracé_720" data-name="Tracé 720" d="M446.068,230.527h11.857V229.7H445.14v19.8h.928Z" transform="translate(-347.839 -123.24)" fill="#682a26"/>
          <rect id="Rectangle_823" data-name="Rectangle 823" width="12.785" height="19.796" transform="translate(57.915 69.894)" fill="#7c403c"/>
          <rect id="Rectangle_824" data-name="Rectangle 824" width="11.053" height="18.476" transform="translate(58.785 70.55)" fill="#74b6b7"/>
          <path id="Tracé_721" data-name="Tracé 721" d="M373.091,152.219v8.512l-9.964,9.964h-1.089v-8.248l10.228-10.228Z" transform="translate(-303.253 -81.669)" fill="#81d3d3"/>
          <path id="Tracé_722" data-name="Tracé 722" d="M362.634,152.935h10.448v-.722H362.015V170.7h.619Z" transform="translate(-303.241 -81.666)" fill="#648d93"/>
          <rect id="Rectangle_825" data-name="Rectangle 825" width="0.567" height="19.28" transform="translate(63.998 70.255)" fill="#7c403c"/>
          <rect id="Rectangle_826" data-name="Rectangle 826" width="0.963" height="7.631" transform="translate(2.253 87.799)" fill="#f7ebc1"/>
          <rect id="Rectangle_827" data-name="Rectangle 827" width="0.963" height="7.631" transform="translate(6.573 87.799)" fill="#f7ebc1"/>
          <rect id="Rectangle_828" data-name="Rectangle 828" width="0.963" height="7.631" transform="translate(10.89 87.799)" fill="#f7ebc1"/>
          <g id="Groupe_1809" data-name="Groupe 1809" transform="translate(2.253 88.121)" opacity="0.85" style="mix-blend-mode: multiply;isolation: isolate">
            <g id="Groupe_1808" data-name="Groupe 1808">
              <g id="Groupe_1807" data-name="Groupe 1807" clip-path="url(#clip-path-9)">
                <rect id="Rectangle_829" data-name="Rectangle 829" width="0.963" height="0.824" transform="translate(0 0)" fill="#b7b7b7"/>
              </g>
            </g>
          </g>
          <g id="Groupe_1812" data-name="Groupe 1812" transform="translate(6.573 88.121)" opacity="0.85" style="mix-blend-mode: multiply;isolation: isolate">
            <g id="Groupe_1811" data-name="Groupe 1811">
              <g id="Groupe_1810" data-name="Groupe 1810" clip-path="url(#clip-path-9)">
                <rect id="Rectangle_831" data-name="Rectangle 831" width="0.963" height="0.824" transform="translate(0 0)" fill="#b7b7b7"/>
              </g>
            </g>
          </g>
          <g id="Groupe_1815" data-name="Groupe 1815" transform="translate(10.89 88.121)" opacity="0.85" style="mix-blend-mode: multiply;isolation: isolate">
            <g id="Groupe_1814" data-name="Groupe 1814">
              <g id="Groupe_1813" data-name="Groupe 1813" clip-path="url(#clip-path-9)">
                <rect id="Rectangle_833" data-name="Rectangle 833" width="0.963" height="0.824" transform="translate(0 0)" fill="#b7b7b7"/>
              </g>
            </g>
          </g>
          <g id="Groupe_1818" data-name="Groupe 1818" transform="translate(2.253 90.719)" opacity="0.85" style="mix-blend-mode: multiply;isolation: isolate">
            <g id="Groupe_1817" data-name="Groupe 1817">
              <g id="Groupe_1816" data-name="Groupe 1816" clip-path="url(#clip-path-12)">
                <rect id="Rectangle_835" data-name="Rectangle 835" width="0.963" height="0.826" fill="#b7b7b7"/>
              </g>
            </g>
          </g>
          <g id="Groupe_1821" data-name="Groupe 1821" transform="translate(6.573 90.719)" opacity="0.85" style="mix-blend-mode: multiply;isolation: isolate">
            <g id="Groupe_1820" data-name="Groupe 1820">
              <g id="Groupe_1819" data-name="Groupe 1819" clip-path="url(#clip-path-12)">
                <rect id="Rectangle_837" data-name="Rectangle 837" width="0.963" height="0.826" fill="#b7b7b7"/>
              </g>
            </g>
          </g>
          <g id="Groupe_1824" data-name="Groupe 1824" transform="translate(10.89 90.719)" opacity="0.85" style="mix-blend-mode: multiply;isolation: isolate">
            <g id="Groupe_1823" data-name="Groupe 1823">
              <g id="Groupe_1822" data-name="Groupe 1822" clip-path="url(#clip-path-12)">
                <rect id="Rectangle_839" data-name="Rectangle 839" width="0.963" height="0.826" transform="translate(0)" fill="#b7b7b7"/>
              </g>
            </g>
          </g>
          <rect id="Rectangle_841" data-name="Rectangle 841" width="33.406" height="0.825" transform="translate(-17.97 90.068)" fill="#f7ebc1"/>
          <rect id="Rectangle_842" data-name="Rectangle 842" width="33.406" height="0.825" transform="translate(-17.97 87.387)" fill="#f7ebc1"/>
          <rect id="Rectangle_843" data-name="Rectangle 843" width="61.038" height="24.47" transform="translate(21.726 101.96)" fill="#7c403c"/>
          <rect id="Rectangle_844" data-name="Rectangle 844" width="57.738" height="21.149" transform="translate(23.375 103.62)" fill="#74b6b7"/>
          <path id="Tracé_723" data-name="Tracé 723" d="M320.552,223.571,299.436,244.72h-10.1l21.116-21.149Z" transform="translate(-264.249 -119.951)" fill="#81d3d3"/>
          <path id="Tracé_724" data-name="Tracé 724" d="M374.122,223.571v.1l-21.05,21.049H342.943l21.149-21.149Z" transform="translate(-293.008 -119.951)" fill="#81d3d3"/>
          <path id="Tracé_725" data-name="Tracé 725" d="M286.669,224.474h56.707v-.928H285.638v21.172h1.031Z" transform="translate(-262.263 -119.938)" fill="#648d93"/>
          <rect id="Rectangle_845" data-name="Rectangle 845" width="0.928" height="23.301" transform="translate(33.686 102.647)" fill="#7c403c"/>
          <rect id="Rectangle_846" data-name="Rectangle 846" width="0.928" height="23.301" transform="translate(46.093 102.647)" fill="#7c403c"/>
          <rect id="Rectangle_847" data-name="Rectangle 847" width="0.928" height="23.301" transform="translate(58.499 102.647)" fill="#7c403c"/>
          <rect id="Rectangle_848" data-name="Rectangle 848" width="0.928" height="23.301" transform="translate(70.906 102.647)" fill="#7c403c"/>
          <rect id="Rectangle_849" data-name="Rectangle 849" width="17.734" height="41.242" transform="translate(25.643 55.631)" fill="#7c403c"/>
          <rect id="Rectangle_850" data-name="Rectangle 850" width="14.418" height="37.942" transform="translate(27.302 57.298)" fill="#74b6b7"/>
          <path id="Tracé_726" data-name="Tracé 726" d="M308.528,123.626v7.391L294.11,145.434v-8.744l13.065-13.065Z" transform="translate(-266.808 -66.328)" fill="#81d3d3"/>
          <path id="Tracé_727" data-name="Tracé 727" d="M308.528,165.27v4.256l-14.352,14.385h-.066v-4.223Z" transform="translate(-266.808 -88.671)" fill="#81d3d3"/>
          <path id="Tracé_728" data-name="Tracé 728" d="M295.191,124.828h13.335v-1.237H294.091v37.942h1.1Z" transform="translate(-266.798 -66.309)" fill="#648d93"/>
          <rect id="Rectangle_851" data-name="Rectangle 851" width="0.962" height="40.554" transform="translate(34.03 55.906)" fill="#7c403c"/>
          <rect id="Rectangle_852" data-name="Rectangle 852" width="17.191" height="0.962" transform="translate(26.228 64.017)" fill="#7c403c"/>
          <rect id="Rectangle_853" data-name="Rectangle 853" width="17.191" height="0.962" transform="translate(26.193 71.853)" fill="#7c403c"/>
          <rect id="Rectangle_854" data-name="Rectangle 854" width="17.191" height="0.962" transform="translate(26.159 79.689)" fill="#7c403c"/>
          <rect id="Rectangle_855" data-name="Rectangle 855" width="17.191" height="0.962" transform="translate(26.124 87.525)" fill="#7c403c"/>
          <rect id="Rectangle_856" data-name="Rectangle 856" width="5.146" height="1.829" transform="translate(60.623 43.534)" fill="#b74839"/>
          <rect id="Rectangle_857" data-name="Rectangle 857" width="5.146" height="1.829" transform="translate(66.283 43.534)" fill="#b74839"/>
          <rect id="Rectangle_858" data-name="Rectangle 858" width="5.146" height="1.829" transform="translate(66.283 47.822)" fill="#b74839"/>
          <rect id="Rectangle_859" data-name="Rectangle 859" width="5.146" height="1.829" transform="translate(66.283 52.221)" fill="#b74839"/>
          <rect id="Rectangle_860" data-name="Rectangle 860" width="5.146" height="1.829" transform="translate(60.578 47.822)" fill="#b74839"/>
          <rect id="Rectangle_861" data-name="Rectangle 861" width="5.146" height="1.829" transform="translate(63.339 45.678)" fill="#b74839"/>
          <rect id="Rectangle_862" data-name="Rectangle 862" width="5.146" height="1.829" transform="translate(63.339 50.009)" fill="#b74839"/>
        </g>
      </g>
      <g id="Groupe_1843" data-name="Groupe 1843">
        <g id="Groupe_1842" data-name="Groupe 1842" clip-path="url(#clip-path-2)">
          <path id="Tracé_730" data-name="Tracé 730" d="M406.255,316.669c-26.158-.115-38.077-2.8-45.651-4.537-11.5-2.64-13.617-4.659-14.421-6.563-.581-1.375,2.246-3.487.22-4.638-.612-.477-2.383-1.483-7.329-2.747-4.793-1.225-11.1-2.334-17.193-3.35l.024-1.774c18.514,3.085,27.552,3.42,29.208,7.748a3.3,3.3,0,0,1-.182,2.563c-.958,1.8,3.513,2.165,11.46,3.938,7.306,1.629,27.466,2.92,43.866,2.053Z" transform="translate(-172.695 -157.233)" fill="#7c403c"/>
          <path id="Tracé_731" data-name="Tracé 731" d="M300.6,262.449a7.237,7.237,0,0,0-1.191-3.78,4.1,4.1,0,0,0-2.107-5.576,4.945,4.945,0,0,0-6.593-5.5,4.372,4.372,0,0,0-7.577-1.266,5.6,5.6,0,0,0-6.771-.749,6.192,6.192,0,0,0-2.278,6.835,4.04,4.04,0,0,0-4.531,3.14,5.911,5.911,0,0,0,2.237,5.652c-2.016.941-2.295,4.126-1.315,5.879a6.918,6.918,0,0,0,4.547,3.08c2.03.48,4.414.257,5.825-1.28a6.158,6.158,0,0,0,7.264.738,2.214,2.214,0,0,1,.753-.365,2.335,2.335,0,0,1,1.081.206c3.179,1.014,6.877.609,9.089-2.134a7.4,7.4,0,0,0,1.567-4.883" transform="translate(-144.565 -131.262)" fill="#e4f150"/>
          <path id="Tracé_732" data-name="Tracé 732" d="M297.088,268.3a6.819,6.819,0,0,1-1.773,1.555,8.954,8.954,0,0,1-7.315.581,2.347,2.347,0,0,0-1.082-.207,2.23,2.23,0,0,0-.752.365,6.16,6.16,0,0,1-7.264-.736c-1.41,1.536-3.794,1.759-5.824,1.28a6.92,6.92,0,0,1-4.547-3.08c-.98-1.755-.7-4.938,1.314-5.88a5.909,5.909,0,0,1-2.237-5.653,4.448,4.448,0,0,1,4.641-3.517,5.622,5.622,0,0,1,1.768-6.174q.193-.152.4-.284a5.6,5.6,0,0,1,6.77.748,4.373,4.373,0,0,1,7.579,1.266,4.945,4.945,0,0,1,6.593,5.5,4.105,4.105,0,0,1,2.107,5.576,7.238,7.238,0,0,1,1.192,3.781,7.4,7.4,0,0,1-1.568,4.882" transform="translate(-143.521 -131.783)" fill="#aeb83c"/>
          <path id="Tracé_733" data-name="Tracé 733" d="M296.092,255.655a6.365,6.365,0,0,0,.691,2.208,4.223,4.223,0,0,0,1.476,1.613,3.347,3.347,0,0,0,2.027.473,2.886,2.886,0,0,0,1-.263,2.314,2.314,0,0,0,.8-.594l.73-.85-.022,1.115a2.626,2.626,0,0,0,.432,1.457,3.188,3.188,0,0,0,1.168,1.076,3.917,3.917,0,0,0,1.606.431,5.411,5.411,0,0,0,1.736-.194,4.345,4.345,0,0,1-1.728.55,3.919,3.919,0,0,1-1.859-.253,3.542,3.542,0,0,1-1.523-1.195,3.138,3.138,0,0,1-.633-1.884l.707.264a3.093,3.093,0,0,1-1.071.823,3.7,3.7,0,0,1-1.286.316,3.845,3.845,0,0,1-2.475-.7,4.394,4.394,0,0,1-1.489-2.005,5.059,5.059,0,0,1-.29-2.391" transform="translate(-158.839 -137.164)" fill="#9ea836"/>
          <path id="Tracé_734" data-name="Tracé 734" d="M288.815,275.816a2.992,2.992,0,0,0,1.071.614,5.065,5.065,0,0,0,1.131.25,5.678,5.678,0,0,0,1.17,0,8.261,8.261,0,0,0,1.256-.236,2.3,2.3,0,0,1-1.094.863,2.963,2.963,0,0,1-1.418.193,2.87,2.87,0,0,1-1.351-.5,1.693,1.693,0,0,1-.765-1.181" transform="translate(-154.955 -147.981)" fill="#9ea836"/>
          <path id="Tracé_735" data-name="Tracé 735" d="M306.615,279.734a3.177,3.177,0,0,0,1.573.763,8.837,8.837,0,0,0,1.726.2,9.439,9.439,0,0,0,1.74-.135,13.627,13.627,0,0,0,1.776-.439,4.147,4.147,0,0,1-1.6,1.063,5.15,5.15,0,0,1-1.929.334,5.044,5.044,0,0,1-1.92-.416,3.165,3.165,0,0,1-.842-.542,1.763,1.763,0,0,1-.523-.831" transform="translate(-164.505 -150.083)" fill="#9ea836"/>
          <path id="Tracé_736" data-name="Tracé 736" d="M295.315,271.26a8.955,8.955,0,0,1-7.316.581,2.345,2.345,0,0,0-1.081-.207,2.226,2.226,0,0,0-.752.365,6.16,6.16,0,0,1-7.264-.737c-1.41,1.536-3.794,1.759-5.824,1.28a6.919,6.919,0,0,1-4.546-3.08c-.98-1.755-.7-4.938,1.314-5.88a5.909,5.909,0,0,1-2.237-5.653,4.448,4.448,0,0,1,4.641-3.517,5.622,5.622,0,0,1,1.769-6.174c-.8,2.566-1.054,5.329.91,7.48a2.5,2.5,0,0,0-2.559.259,3.968,3.968,0,0,0-1.437,2.237,4.576,4.576,0,0,0,.291,3.3,3.3,3.3,0,0,0,2.692,1.791,4.207,4.207,0,0,0,.218,5.216,3.478,3.478,0,0,0,5.006-.083,4.738,4.738,0,0,0,7.372.291,7.513,7.513,0,0,0,4.632,2.627,11.55,11.55,0,0,0,4.173-.092" transform="translate(-143.521 -133.185)" fill="#9ea836"/>
          <path id="Tracé_737" data-name="Tracé 737" d="M496.389,332.4c0,1.935-18.866,3.5-42.138,3.5s-42.138-1.569-42.138-3.5,18.866-3.5,42.138-3.5,42.138,1.569,42.138,3.5" transform="translate(-221.107 -176.46)" fill="#7c403c"/>
          <path id="Tracé_738" data-name="Tracé 738" d="M597.977,335.681c0,1.935-10.429,3.5-23.294,3.5s-23.294-1.569-23.294-3.5,10.429-3.5,23.294-3.5,23.294,1.569,23.294,3.5" transform="translate(-295.831 -178.22)" fill="#7c403c"/>
          <path id="Tracé_739" data-name="Tracé 739" d="M454.473,319.041a16.416,16.416,0,0,1-.022-5.476c.5-3,1.806-12.219,1.806-12.219l2.285.463-1.651,11.156s-.951,5.643-2.417,6.076" transform="translate(-243.707 -161.678)" fill="#3c6c8c"/>
          <path id="Tracé_740" data-name="Tracé 740" d="M460.539,259.676a4.248,4.248,0,0,0-2.2-.618.521.521,0,0,1-.463-.621l4.561-37.343,5.793,1.174-6.34,36.634a.929.929,0,0,1-1.349.774" transform="translate(-245.656 -118.621)" fill="#1a3445"/>
          <path id="Tracé_741" data-name="Tracé 741" d="M460.7,255.773l-2.405,19.7a10.118,10.118,0,0,1,2.425.442c.781.3,2.831-14.855,3.284-18.365a.939.939,0,0,0-.485-.981,9.318,9.318,0,0,0-2.819-.792" transform="translate(-245.884 -137.227)" fill="#274e68"/>
          <path id="Tracé_742" data-name="Tracé 742" d="M463.938,235.036s-.855,5.974-1,6.744-.14,1.84,1.561,2.223c1.337.3,3.393.45,4.579-.279.715-.439,2.1-7.416,2.1-7.416Z" transform="translate(-248.344 -126.102)" fill="#274e68"/>
          <path id="Tracé_743" data-name="Tracé 743" d="M464.256,236.737s-.675,4.218-.855,5.886c-.151,1.4,2.913,1.95,4.487,1.693.941-.154,1.484-6.558,1.484-6.558s-3.265.294-5.116-1.021" transform="translate(-248.621 -127.014)" fill="#34688a"/>
          <path id="Tracé_744" data-name="Tracé 744" d="M456.206,304.515,454.7,314.73s-.459,2.332.2,2.106c.5-.171.779-.815,1.385-4.076.657-3.536,1.407-7.964,1.407-7.964s-1.033-.53-1.48-.281" transform="translate(-243.87 -163.343)" fill="#8aa7ba"/>
          <path id="Tracé_745" data-name="Tracé 745" d="M474.529,173.192s-.444,6.968-1.413,9.237-7.349,5.137-6.728,6.487,4.531,2.749,4.531,2.749,5.063-2.608,6.478-4.847c1.23-1.944-2.868-13.627-2.868-13.627" transform="translate(-250.204 -92.921)" fill="#f79c7c"/>
          <path id="Tracé_746" data-name="Tracé 746" d="M483.56,165.977s-2.475.835-2.681,5.169.153,5.509.153,5.509,1.516,1.4,2.528,0,0-10.678,0-10.678" transform="translate(-257.967 -89.05)" fill="#99c6e4"/>
          <path id="Tracé_747" data-name="Tracé 747" d="M480.545,186.5a8.36,8.36,0,0,1-.352-2.25c.024-1.037,1.07-.649,2.106-.287s1.6,2.178.9,2.881-2.449.512-2.658-.344" transform="translate(-257.633 -98.495)" fill="#cce3f2"/>
          <path id="Tracé_748" data-name="Tracé 748" d="M457.27,209.448c-.116-.024-5.074-.919-6-.919a1.523,1.523,0,0,0-1.035,2.608c.761.513,6.193,1.092,6.193,1.092Z" transform="translate(-241.319 -111.88)" fill="#34688a"/>
          <path id="Tracé_749" data-name="Tracé 749" d="M453.017,206.64s.4-2.73,2.028-3.328,3.068-.542,6.427-2.751c.947-.623,3.24,2.494,3.093,3.863s-6.237,2.611-6.968,4.042-1.632,1.2-1.779.7-.487.1-1.023-.268a1.491,1.491,0,0,0-1.072-.314c-.365-.029-.912-1.164-.706-1.946" transform="translate(-243.029 -107.561)" fill="#c2ddef"/>
          <path id="Tracé_750" data-name="Tracé 750" d="M455.368,204.928s.01-.747,2.076-1.314a19.713,19.713,0,0,0,4.438-1.858c.52-.322,2.379.492,2.7,1.29s-.78.742-1.486.941-2.826,1.711-3.606,1.882a1.251,1.251,0,0,1-1.34-.371c-.219-.228-.609.228-1.023.029s-.311-.428-.679-.4-1.2.081-1.075-.2" transform="translate(-244.308 -108.207)" fill="#e2e9ee"/>
          <path id="Tracé_751" data-name="Tracé 751" d="M484.659,222.588c-.39,4.608.179,6.3-2.736,15.381a28.77,28.77,0,0,0-1.237,15.777c1.041,6.036.472,17.145,2.229,19.271s3.272-3.526,5.494-6.842-.031-13.256,1.112-19.88c.846-4.9,5.814-10,3.948-18-1.158-4.968-8.81-5.7-8.81-5.7" transform="translate(-257.598 -119.423)" fill="#2d5169"/>
          <path id="Tracé_752" data-name="Tracé 752" d="M504.781,215.264s2.867,7,2.3,13.154-1.07,7.058,0,12.189,3.232,9.6,3.883,11.486a13.286,13.286,0,0,1,.256,4.877l-6.883,2.036-3.021-6.909a110.2,110.2,0,0,1-5.767-15.637c-2.387-8.861-3.784-9.222-4.885-14.924-1.114-5.775,1.53-5.461,4.527-5.417a94.306,94.306,0,0,0,9.593-.855" transform="translate(-263.11 -115.494)" fill="#3c6c8c"/>
          <path id="Tracé_753" data-name="Tracé 753" d="M494.549,151.7a12.394,12.394,0,0,0,3.247,1.73c2.106.793,5.3,2.177,6.118,7.489s-3.54,11.31-2.318,18.616-12.3,9.582-13.844,6.187c-1.605-3.537-2.1-12.246-2.361-16.077s-1.361-10.844,3-14.035a34.329,34.329,0,0,1,6.163-3.91" transform="translate(-260.254 -81.391)" fill="#66aad7"/>
          <g id="Groupe_1829" data-name="Groupe 1829" transform="translate(228.6 72.355)" opacity="0.44">
            <g id="Groupe_1828" data-name="Groupe 1828">
              <g id="Groupe_1827" data-name="Groupe 1827" clip-path="url(#clip-path-16)">
                <path id="Tracé_754" data-name="Tracé 754" d="M502.017,156.165a2.289,2.289,0,0,0-2.005.474c-.9.966-3.19,1.922-5.206,6.752-1.137,2.724-2.7,6.844-.389,18.154.926,4.534,2.428,10.3,3.44,11.594,2.049,2.622,8.49-1.751,9.758-2.835s-1.454-9.569-1.806-11.305.88-5.57-1.349-6.176-2.911-1.114-3.57-6.143c-.546-4.168.089-8.562,4.306-9.277,0,0-.6-.681-3.179-1.238" transform="translate(-493.225 -156.112)" fill="#152e3f"/>
              </g>
            </g>
          </g>
          <path id="Tracé_755" data-name="Tracé 755" d="M492.321,160.617a14.045,14.045,0,0,0,.707,4.666,23.477,23.477,0,0,1,3-4.666c1.522-1.624-3.464-.941-3.712,0" transform="translate(-264.14 -85.649)" fill="#fcded3"/>
          <g id="Groupe_1832" data-name="Groupe 1832" transform="translate(224.082 73.113)" opacity="0.44">
            <g id="Groupe_1831" data-name="Groupe 1831">
              <g id="Groupe_1830" data-name="Groupe 1830" clip-path="url(#clip-path-17)">
                <path id="Tracé_756" data-name="Tracé 756" d="M489.333,157.749s-2.587,1.312-2.515,5.419c.1,5.63,1.955,7.9,2.245,10.383.248,2.12,2.38,9.134,1.361,11.71s-1.3,3.592-1.931,5.3-1.4,6.614-3.681,3.562c-.877-1.175.368-6.609.295-13.506-.043-3.991-1.4-9.5-1.6-12.292-.271-3.836,1.413-9.522,5.829-10.578" transform="translate(-483.477 -157.749)" fill="#152e3f"/>
              </g>
            </g>
          </g>
          <path id="Tracé_757" data-name="Tracé 757" d="M488.25,157.749s-2.637,1.6-2.511,5.7,1.994,7.051,2.284,9.532c.248,2.12,2.337,9.7,1.318,12.277s-1.3,3.592-1.931,5.3-1.4,6.614-3.681,3.562c-.877-1.175.368-6.609.295-13.506-.043-3.991-1.4-9.5-1.6-12.292-.272-3.836,1.413-9.522,5.829-10.578" transform="translate(-258.814 -84.636)" fill="#f7931e"/>
          <path id="Tracé_758" data-name="Tracé 758" d="M500.178,143.8s-2.483-4.974-1.548-8.818l-5.229,4.406a12.793,12.793,0,0,1-.949,7.418c-.418.9.222,1.977,1.088,1.824,1.116-.2,3.1-1.358,6.638-4.83" transform="translate(-264.14 -72.423)" fill="#f79c7c"/>
          <path id="Tracé_759" data-name="Tracé 759" d="M496.581,143.47a6.748,6.748,0,0,1-3.034,6.781,7.033,7.033,0,0,0,.46-2.493Z" transform="translate(-264.798 -76.975)" fill="#f47b50"/>
          <path id="Tracé_760" data-name="Tracé 760" d="M479.107,129.572s.1,7.425,3.615,10.686c3.05,2.83,6.27-3.929,7.163-7.636a22.16,22.16,0,0,0,.839-5.058,28.64,28.64,0,0,0-11.618,2.008" transform="translate(-257.051 -68.431)" fill="#f79c7c"/>
          <path id="Tracé_761" data-name="Tracé 761" d="M468.027,220.072a14.219,14.219,0,0,1-4.093-.57,5.1,5.1,0,0,1-3.668-5.288l2.847-8.457a1.244,1.244,0,0,1,1.4-1.155l6.233,1.263a2.958,2.958,0,0,1,2.311,2.975l-1.838,8.8c-.265,1.792-1.637,2.275-3.193,2.434" transform="translate(-246.928 -109.762)" fill="#b5441b"/>
          <path id="Tracé_762" data-name="Tracé 762" d="M465.9,218.173l-3.6-.73a3.1,3.1,0,0,1-2.168-3.6l.94-6.349a3.1,3.1,0,0,1,3.485-2.874l3.132.635a3.247,3.247,0,0,1,2.268,3.766l-.98,6.615a2.733,2.733,0,0,1-3.077,2.537" transform="translate(-246.851 -109.755)" fill="#f15a24"/>
          <path id="Tracé_763" data-name="Tracé 763" d="M510.909,316.323s-.852-3.361,1.462-4.561,3.553-1.627,3.133-3.428c-.716-3.072-2.24-7.732-2.24-7.732s6.885-1.909,9.5-.029c0,0,.774,7.2,1.671,9.116,1.086,2.315.757,6.361.757,6.361s-11.834.3-14.284.273" transform="translate(-274.031 -160.819)" fill="#f7931e"/>
          <path id="Tracé_764" data-name="Tracé 764" d="M465.964,316.186s-.167-3.776,2.162-4.818c3.758-1.682,5.489-.394,5.448-1.682-.088-2.738-.684-8.027-.684-8.027s6.919-2.441,9.344-.525c0,0-.041,7.685.326,9.519a20.317,20.317,0,0,1,.216,5.719s-14.379.129-16.812-.187" transform="translate(-249.998 -161.171)" fill="#f7931e"/>
          <path id="Tracé_765" data-name="Tracé 765" d="M499.28,128.257s-.37,5.121-1.385,6.3c-.665.772-1.479-2.353-1.669-3.268s-.826-1.281-1.346-.715a2.4,2.4,0,0,0-.447,2.022c.065.81-1.17.807-1.053-.38s-1.559-1.157-1.583-2.882,7.483-1.078,7.483-1.078" transform="translate(-263.859 -68.749)" fill="#534741"/>
          <path id="Tracé_766" data-name="Tracé 766" d="M493.746,129.3s5.631,3.4,6.172,3.424c.371.015.424-.615.421-1.013a.534.534,0,0,0-.235-.454c-.773-.478-3.658-1.558-4.226-1.85a4.656,4.656,0,0,0-2.131-.107" transform="translate(-264.905 -69.327)" fill="#ccc"/>
          <path id="Tracé_767" data-name="Tracé 767" d="M486.823,111.257s-7.6-2.907-8.383,8.229a27.1,27.1,0,0,0,13.674,0s1.419-7.371-5.29-8.229" transform="translate(-256.693 -59.508)" fill="#fbb03b"/>
          <path id="Tracé_768" data-name="Tracé 768" d="M484.633,119.317s.914-5.59,4.379-6.395A5.533,5.533,0,0,1,495.561,119s-6.7,1.485-10.928.317" transform="translate(-260.015 -60.516)" fill="#fcee21"/>
          <path id="Tracé_769" data-name="Tracé 769" d="M488.077,118.24s.43-2.927,2.748-4.02a3.953,3.953,0,0,1,4.1.4s-3.185-.645-6.848,3.619" transform="translate(-261.863 -61.067)" fill="#fef8a6"/>
          <path id="Tracé_770" data-name="Tracé 770" d="M479.643,118.139a4.357,4.357,0,0,1,1.742.038s.467-6.418,5-7.332a5.353,5.353,0,0,1,5.783,2.9s-1.257-3.6-4.785-3.995c-3.418-.377-6.81.917-7.743,8.389" transform="translate(-257.338 -58.852)" fill="#fcee21"/>
          <path id="Tracé_771" data-name="Tracé 771" d="M468.025,130.636l4.567-2.915s4.8-.845,5.793,1.535a56.064,56.064,0,0,1-7.394,2.359c-3.554.522-2.965-.979-2.965-.979" transform="translate(-251.085 -68.447)" fill="#fcee21"/>
          <path id="Tracé_772" data-name="Tracé 772" d="M472.928,127.737s-3.733,2.444-4.246,2.7,2.042.977,4.8-.219c1.716-.746,3.712-1.346,3.9-1.64s-2.408-1.334-4.447-.838" transform="translate(-251.422 -68.463)" fill="#fef8a6"/>
          <path id="Tracé_773" data-name="Tracé 773" d="M479.9,117.085a5.483,5.483,0,0,1,1.076,0c.468.063.321-4.189,3.078-6.049s4.8-1.169,4.8-1.169-2.169-1.762-6.082.953c-2.523,1.75-2.873,6.264-2.873,6.264" transform="translate(-257.477 -58.645)" fill="#fef8a6"/>
          <path id="Tracé_774" data-name="Tracé 774" d="M479.643,135.285s.351,6.553,3.865,8.96c1.933,1.324,3.365-2.618,2.828-4.2s-1.3-2.881-1.31-4.175-1.344-2.532-5.383-.583" transform="translate(-257.338 -72.039)" fill="#f9b096"/>
          <path id="Tracé_775" data-name="Tracé 775" d="M502.721,154.618a2.289,2.289,0,0,0-2.005.474,18.214,18.214,0,0,0-5.068,7.145c-1.138,2.659-3.308,6.446-1,17.756.927,4.533,2.9,10.305,3.911,11.6,2.049,2.623,8.491-1.751,9.758-2.835s-1.454-9.569-1.806-11.305.88-5.57-1.349-6.176-3.751-.743-4.41-5.774c-.546-4.168.066-8.5,4.282-9.212,0,0,.265-1.116-2.314-1.673" transform="translate(-264.841 -82.927)" fill="#f7931e"/>
          <path id="Tracé_776" data-name="Tracé 776" d="M505.611,154.679s-5.949,5.093-6.468,11.712a40.375,40.375,0,0,0,.7,11.579l1.546-.855s-4.517-14.4,5.509-22.022a3.486,3.486,0,0,0-1.285-.413" transform="translate(-267.731 -82.988)" fill="#fcded3"/>
          <path id="Tracé_777" data-name="Tracé 777" d="M487.571,160.874s-3.28,3.634-1.717,10.906c1.552,7.223,1.985,11.067,1.985,11.067l-.879.92a51.852,51.852,0,0,0-1.316-9.106c-.964-3.117-2.052-10.773,1.928-13.787" transform="translate(-260.073 -86.312)" fill="#fcded3"/>
          <path id="Tracé_778" data-name="Tracé 778" d="M508.443,203.085s-7.837,2.547-11.155,3.369l.533,2.276a55.353,55.353,0,0,0,11.111-3.467Z" transform="translate(-266.805 -108.959)" fill="#fcded3"/>
          <path id="Tracé_779" data-name="Tracé 779" d="M510.739,213.772s-5.57,3.718-11.447,4.081l.718,2.086s7.035-1.257,11.194-4.181Z" transform="translate(-267.88 -114.693)" fill="#fcded3"/>
          <g id="Groupe_1835" data-name="Groupe 1835" transform="translate(231.149 75.154)" opacity="0.21">
            <g id="Groupe_1834" data-name="Groupe 1834">
              <g id="Groupe_1833" data-name="Groupe 1833" clip-path="url(#clip-path-18)">
                <path id="Tracé_780" data-name="Tracé 780" d="M501.587,180.3c1.656-2.735,4.909-4.724,4.594-5.613-1.842-5.2-1.9-9.969-.466-11.577,2.665-2.994,5.129,1.565,6.324,6.528a13.824,13.824,0,0,1-3.614,6.585c-.353.365,1.451,7.726,1.451,7.726-6.459,2.775-8.007,11.231-10.969,5.675-.976-1.829,2.259-8.629,2.68-9.324" transform="translate(-498.725 -162.151)"/>
              </g>
            </g>
          </g>
          <path id="Tracé_781" data-name="Tracé 781" d="M508.556,169.186s2.33,5.939,1.87,9.785-6.841,5.649-9.558,8.2-7.722,1.39-7.722,1.39,1.734-1.986,8.342-8.713c1.163-1.184,2.9-2.332,2.69-3.52-.425-2.357-2.363-4.349-1.35-7.678.924-3.037,4.291-4.251,5.726.539" transform="translate(-264.583 -89.05)" fill="#f79c7c"/>
          <path id="Tracé_782" data-name="Tracé 782" d="M513.324,171.463s-2.888-6.472-.222-9.465,5.119.8,6.314,5.759c0,0-.789,1.653-6.091,3.706" transform="translate(-274.683 -86.346)" fill="#99c6e4"/>
          <path id="Tracé_783" data-name="Tracé 783" d="M514.974,179.44a.723.723,0,0,1-.711-.325c-.31-.447-.7-1.2-.247-1.666.641-.659,3.795-.887,5.922-3.608a.559.559,0,0,1,.919,0,1.811,1.811,0,0,1,.14,2.381,13.293,13.293,0,0,1-6.022,3.216" transform="translate(-275.669 -93.141)" fill="#cce3f2"/>
          <path id="Tracé_784" data-name="Tracé 784" d="M494.6,214.274l-9.006-1.826s-1.056-.166-1.4,1.211a1.459,1.459,0,0,0,.957,1.792l9.291,1.883Z" transform="translate(-259.749 -113.98)" fill="#1a3445"/>
          <path id="Tracé_785" data-name="Tracé 785" d="M506.511,217.907a1.329,1.329,0,1,1-1.313-1.536,1.438,1.438,0,0,1,1.313,1.536" transform="translate(-270.345 -116.087)" fill="#34688a"/>
          <path id="Tracé_786" data-name="Tracé 786" d="M497.1,160.321a9.452,9.452,0,0,0-1.566,3.869l2.674-3.142s-.678-.977-1.108-.727" transform="translate(-265.862 -85.993)" fill="#083654"/>
          <path id="Tracé_787" data-name="Tracé 787" d="M503.131,150.878a15.741,15.741,0,0,1-4.222,4.3s.584-.041.946,2.6c.129.94,2.262-3.217,4.632-5.236,0,0-.929-2.516-1.356-1.668" transform="translate(-267.675 -80.855)" fill="#99c6e4"/>
          <path id="Tracé_788" data-name="Tracé 788" d="M487.94,163.239s.617-.888,1.1-.7,1.11,1.43,1.11,1.43a14.088,14.088,0,0,0-.445-3.068c-.26-.209-1.673.838-1.77,2.339" transform="translate(-261.79 -86.312)" fill="#083654"/>
          <path id="Tracé_789" data-name="Tracé 789" d="M490.689,157.144a12.28,12.28,0,0,0-.537,4.823s-.7-2.3-1.172-2.389-1.043,1.66-1.043,1.66a3.925,3.925,0,0,1,1.1-2.786c1.2-1.206,1.649-1.307,1.649-1.307" transform="translate(-261.787 -84.311)" fill="#66aad7"/>
          <path id="Tracé_790" data-name="Tracé 790" d="M509.245,191.467a19.02,19.02,0,0,1,3.786-3.706,6.5,6.5,0,0,1,2.85-.086,2.352,2.352,0,0,0-1.876-.646c-.938.061-.78-1.378-.78-1.378a13.167,13.167,0,0,0,3.319-1.2c.628-.457,1.6,2.627.774,4.053s-5.458,4.56-5.458,4.56a3.612,3.612,0,0,0-2.616-1.6" transform="translate(-273.22 -98.937)" fill="#f9b096"/>
          <path id="Tracé_791" data-name="Tracé 791" d="M465.216,207.139a.95.95,0,0,0-1.052.922c-.16,1.2-.4,3.023-.49,3.659-.133.979.2,2.624,2.588,2.76a2.365,2.365,0,0,0,2.74-2.233c.135-.772.287-2.176.385-3.149a1.109,1.109,0,0,0-.75-1.24Z" transform="translate(-248.757 -111.126)" fill="#f47b50"/>
          <path id="Tracé_792" data-name="Tracé 792" d="M481.149,235.036s-.776,4.178,1.608,15.581,11.284,17.6,18.895,11.435c7.772-6.3,13.9,3.351,15.459,7.562,3.308,8.926,14.032,10,14.032,10l-6.254-.46s-3.726.556-8.186-6.461c-2.13-3.351-4.513-10.338-10.073-9.793-3.714.364-5.608,4.1-10.785,4.258-4.15.125-10.6-2.364-13.282-10.607a58.734,58.734,0,0,1-2.99-20.447Z" transform="translate(-257.273 -126.102)" fill="#1a3445"/>
          <path id="Tracé_793" data-name="Tracé 793" d="M625.245,279.52l-5.609,27.755h-3.461l6.211-27.755Z" transform="translate(-330.59 -149.968)" fill="#c7b299"/>
          <path id="Tracé_794" data-name="Tracé 794" d="M627.125,279.52l-5.609,27.755h-3.461l6.211-27.755Z" transform="translate(-331.599 -149.968)" fill="#998675"/>
          <path id="Tracé_795" data-name="Tracé 795" d="M510.882,328.534s-1.392-4.48,3.654-5.747c4.8-1.2,8.972,1.587,9.054,5.519Z" transform="translate(-274.004 -173.03)" fill="#fbb03b"/>
          <path id="Tracé_796" data-name="Tracé 796" d="M466.252,328.01s-.641-4.621,3.6-5.315a5.336,5.336,0,0,1,6.454,5.315Z" transform="translate(-250.135 -173.083)" fill="#fbb03b"/>
          <path id="Tracé_797" data-name="Tracé 797" d="M495.837,170.135a20.012,20.012,0,0,0-2.2,8.356,34.841,34.841,0,0,0,.6,7.771,4.5,4.5,0,0,0,.773-3.429,25.78,25.78,0,0,1,.825-12.7" transform="translate(-264.832 -91.281)" fill="#f9a94b"/>
          <path id="Tracé_798" data-name="Tracé 798" d="M493.4,186.763a60.918,60.918,0,0,0,.707,9.176l-.356.371s-1.209-5.681-.351-9.547" transform="translate(-264.552 -100.202)" fill="#b5441b"/>
          <path id="Tracé_799" data-name="Tracé 799" d="M487.592,209.341a5.148,5.148,0,0,1,1.15-4.385c1.754-1.939,3.21-1.563,5.06-3.259s5.63-.111,6.507,1.371-.949,1.787-1.764,2.472-.641,1.763-2.047,2.309-1.644-.428-2.037,1.548a1.419,1.419,0,0,1-2.144.855c-.78-.4-.877.793-1.9.2s-1.175.087-2.217-.254a.987.987,0,0,1-.608-.854" transform="translate(-261.549 -107.821)" fill="#cedae2"/>
          <path id="Tracé_800" data-name="Tracé 800" d="M494.433,203.387a32.663,32.663,0,0,0-3.606,1.8c-.609.485.214.912.765.77s.418.332,1.423.423c.467.042.824-.215,1.32-.2.792.032.517.406,1.355.589a2.326,2.326,0,0,0,2.231-.91c.634-.713.922-1.58,1.872-1.922s1.147-.922,0-1.407a6.086,6.086,0,0,0-3.1-.428,4.22,4.22,0,0,0-1.469.812,4.637,4.637,0,0,1,.513-.049,3,3,0,0,1,1.774.387c-2.653-.266-2.932.081-3.084.133" transform="translate(-263.224 -108.406)" fill="#e2e9ee"/>
          <path id="Tracé_801" data-name="Tracé 801" d="M628.843,279.52l6.443,27.755h3.461L631.7,279.52Z" transform="translate(-337.387 -149.968)" fill="#c7b299"/>
          <path id="Tracé_802" data-name="Tracé 802" d="M630.551,279.52l6.443,27.755h3.461l-7.045-27.755Z" transform="translate(-338.304 -149.968)" fill="#d2c1ad"/>
          <path id="Tracé_803" data-name="Tracé 803" d="M568.812,279.52,563.2,307.275h-3.461l6.211-27.755Z" transform="translate(-300.313 -149.968)" fill="#c7b299"/>
          <path id="Tracé_804" data-name="Tracé 804" d="M570.692,279.52l-5.609,27.755h-3.461l6.211-27.755Z" transform="translate(-301.322 -149.968)" fill="#998675"/>
          <path id="Tracé_805" data-name="Tracé 805" d="M572.411,279.52l6.443,27.755h3.461L575.27,279.52Z" transform="translate(-307.11 -149.968)" fill="#c7b299"/>
          <path id="Tracé_806" data-name="Tracé 806" d="M574.119,279.52l6.443,27.755h3.461l-7.045-27.755Z" transform="translate(-308.027 -149.968)" fill="#d2c1ad"/>
          <path id="Tracé_807" data-name="Tracé 807" d="M574.918,263.288c0,2.154-1.326,3.9-2.963,3.9s-2.963-1.746-2.963-3.9,1.326-3.9,2.963-3.9,2.963,1.746,2.963,3.9" transform="translate(-305.276 -139.167)" fill="#c7b299"/>
          <path id="Tracé_808" data-name="Tracé 808" d="M575.551,262.673c0,2.023-1.245,3.662-2.782,3.662s-2.782-1.639-2.782-3.662,1.245-3.662,2.782-3.662,2.782,1.639,2.782,3.662" transform="translate(-305.81 -138.965)" fill="#ddd1c2"/>
          <path id="Tracé_809" data-name="Tracé 809" d="M575.994,263.655a1.99,1.99,0,1,1-1.917-2.523,2.284,2.284,0,0,1,1.917,2.523" transform="translate(-306.975 -140.103)" fill="#f15a24"/>
          <path id="Tracé_810" data-name="Tracé 810" d="M576.1,263.108a1.254,1.254,0,1,1-1.253-1.213,1.234,1.234,0,0,1,1.253,1.213" transform="translate(-307.744 -140.512)" fill="#f7931e"/>
          <path id="Tracé_811" data-name="Tracé 811" d="M631.885,263.288c0,2.154-1.326,3.9-2.963,3.9s-2.963-1.746-2.963-3.9,1.326-3.9,2.963-3.9,2.963,1.746,2.963,3.9" transform="translate(-335.84 -139.167)" fill="#c7b299"/>
          <path id="Tracé_812" data-name="Tracé 812" d="M632.519,262.673c0,2.023-1.245,3.662-2.782,3.662s-2.782-1.639-2.782-3.662,1.245-3.662,2.782-3.662,2.782,1.639,2.782,3.662" transform="translate(-336.374 -138.965)" fill="#ddd1c2"/>
          <path id="Tracé_813" data-name="Tracé 813" d="M632.961,263.655a1.99,1.99,0,1,1-1.917-2.523,2.284,2.284,0,0,1,1.917,2.523" transform="translate(-337.539 -140.103)" fill="#f15a24"/>
          <path id="Tracé_814" data-name="Tracé 814" d="M633.065,263.108a1.254,1.254,0,1,1-1.253-1.213,1.234,1.234,0,0,1,1.253,1.213" transform="translate(-338.308 -140.512)" fill="#f7931e"/>
          <path id="Tracé_815" data-name="Tracé 815" d="M567.32,277.973l35.6,3.625-.592,1.35-33.689.07Z" transform="translate(-304.379 -149.138)" fill="#ddd1c2"/>
          <path id="Tracé_816" data-name="Tracé 816" d="M569.371,275.233h33.37l1.281,4.895-33.33.153Z" transform="translate(-305.479 -147.668)" fill="#f4f0eb"/>
          <path id="Tracé_817" data-name="Tracé 817" d="M595.251,280.206H590.9l2.917-4.973h4.353Z" transform="translate(-317.029 -147.668)" fill="#f15a24"/>
          <path id="Tracé_818" data-name="Tracé 818" d="M577.59,280.252l-4.369.027,2.96-5.046h4.354Z" transform="translate(-307.545 -147.668)" fill="#f15a24"/>
          <path id="Tracé_819" data-name="Tracé 819" d="M612.786,280.206h-4.353l2.917-4.973H615.7Z" transform="translate(-326.436 -147.668)" fill="#f15a24"/>
          <path id="Tracé_820" data-name="Tracé 820" d="M629.773,280.206H625.42l2.917-4.973h4.353Z" transform="translate(-335.55 -147.668)" fill="#f15a24"/>
          <path id="Tracé_821" data-name="Tracé 821" d="M568.27,275.233l-.951,1.27,1.32,5.045.951-1.267Z" transform="translate(-304.379 -147.668)" fill="#c7b299"/>
          <path id="Tracé_822" data-name="Tracé 822" d="M573.513,305.389l35.6,3.625-.592,1.35-33.689.07Z" transform="translate(-307.701 -163.847)" fill="#ddd1c2"/>
          <path id="Tracé_823" data-name="Tracé 823" d="M575.564,302.649h33.37l1.281,4.895-33.33.153Z" transform="translate(-308.802 -162.378)" fill="#f4f0eb"/>
          <path id="Tracé_824" data-name="Tracé 824" d="M574.463,302.649l-.951,1.27,1.32,5.045.951-1.267Z" transform="translate(-307.701 -162.378)" fill="#c7b299"/>
          <path id="Tracé_825" data-name="Tracé 825" d="M600.472,307.625h-4.353l2.917-4.973h4.354Z" transform="translate(-319.83 -162.379)" fill="#f15a24"/>
          <path id="Tracé_826" data-name="Tracé 826" d="M582.81,307.671l-4.369.027,2.96-5.046h4.353Z" transform="translate(-310.346 -162.379)" fill="#f15a24"/>
          <path id="Tracé_827" data-name="Tracé 827" d="M618.006,307.625h-4.353l2.917-4.973h4.353Z" transform="translate(-329.237 -162.379)" fill="#f15a24"/>
          <path id="Tracé_828" data-name="Tracé 828" d="M634.994,307.625H630.64l2.917-4.973h4.353Z" transform="translate(-338.351 -162.379)" fill="#f15a24"/>
          <path id="Tracé_829" data-name="Tracé 829" d="M474.71,197.611s1.385.277,1.764,1.207,2.75-1.485,2.663-2.335-.965-1.669-1.6-1.227a28.048,28.048,0,0,1-2.83,2.354" transform="translate(-254.692 -104.693)" fill="#f9b096"/>
          <path id="Tracé_830" data-name="Tracé 830" d="M505.435,234.011s1.253,10.832,1.471,13.518-.627,2.747-2.018,2.524-.218,1.4,1.228,1.488,3.1,7.546,3.1,7.546a3.5,3.5,0,0,1-3.1,1.671c-2.019-.179-5.205-9.985-6.275-14.187s-3.726-10.823-4.154-12.389c-.348-1.273.346-3.185.692-3.107.712.16,1.726,3.994,2.972,4.263,2.978.643,6.084-1.327,6.084-1.327" transform="translate(-265.895 -123.975)" fill="#6389a3"/>
          <g id="Groupe_1838" data-name="Groupe 1838" transform="translate(221.379 61.349)" opacity="0.6">
            <g id="Groupe_1837" data-name="Groupe 1837">
              <g id="Groupe_1836" data-name="Groupe 1836" clip-path="url(#clip-path-19)">
                <path id="Tracé_831" data-name="Tracé 831" d="M477.656,134.646s.183,2.457,1.412,2.734,1.558-.432,1.778-1.138c.182-.585.674.141,1.3.585s2.647-.153,2.749-1.358c.122-1.432.484-1.766.484-1.766s1.162-1.092.523-1.044-2.109-.561-3.418-.146c-1.09.346-5.069.888-4.827,2.134" transform="translate(-477.645 -132.366)" fill="#d8e2e8"/>
              </g>
            </g>
          </g>
          <path id="Tracé_832" data-name="Tracé 832" d="M480.683,136.6s-.1.272.218.038c.148-.111.261-.361.61-.228s.412-.151.229-.3a.549.549,0,0,0-.588-.061.84.84,0,0,0-.47.549" transform="translate(-257.889 -72.962)" fill="#534741"/>
          <path id="Tracé_833" data-name="Tracé 833" d="M487.6,135.117s.195.186-.177.154c-.176-.015-.377-.171-.629.139s-.424.1-.324-.136a.633.633,0,0,1,.494-.381.69.69,0,0,1,.636.223" transform="translate(-260.984 -72.368)" fill="#534741"/>
          <path id="Tracé_834" data-name="Tracé 834" d="M482.392,139.215c.1.393.009.775-.209.853s-.477-.179-.579-.572-.009-.775.209-.853.477.179.579.572" transform="translate(-258.368 -74.377)" fill="#534741"/>
          <path id="Tracé_835" data-name="Tracé 835" d="M487.812,137.749c.073.4-.049.774-.271.829s-.462-.227-.535-.629.049-.774.272-.829.462.227.535.629" transform="translate(-261.277 -73.564)" fill="#534741"/>
          <g id="Groupe_1841" data-name="Groupe 1841" transform="translate(221.403 61.738)" opacity="0.61">
            <g id="Groupe_1840" data-name="Groupe 1840">
              <g id="Groupe_1839" data-name="Groupe 1839" clip-path="url(#clip-path-20)">
                <path id="Tracé_836" data-name="Tracé 836" d="M477.708,135.32s.317,2.286,1.283,2.384a1.526,1.526,0,0,0,1.689-1.3c.028-.627.645-.4.921.032a1.481,1.481,0,0,0,1.992.562,2.292,2.292,0,0,0,.639-2.869c-.433-.844-.895-1.133-2.23-.763s-3.162.852-3.478,1-.916.439-.816.959" transform="translate(-477.697 -133.206)" fill="#eff3f6"/>
              </g>
            </g>
          </g>
          <path id="Tracé_837" data-name="Tracé 837" d="M484.177,140.633a15.886,15.886,0,0,0-.472,1.586c-.11.557.476.771.806.685a1.4,1.4,0,0,0,.586-.364s-.191-.206-.8-.163.1-1.249-.123-1.745" transform="translate(-259.51 -75.452)" fill="#f47b50"/>
          <path id="Tracé_838" data-name="Tracé 838" d="M494.02,132.583s-1,3.711.921,5.083,3.563-1.2,3.65-3.4-.139-2.836-1.393-2.961-2.923.146-3.178,1.274" transform="translate(-264.912 -70.435)" fill="#b96e16"/>
          <path id="Tracé_839" data-name="Tracé 839" d="M495.365,132.319s-.909,3.369.836,4.615,3.235-1.092,3.314-3.084-.127-2.575-1.265-2.688-2.654.132-2.885,1.156" transform="translate(-265.647 -70.358)" fill="#fbb03b"/>
          <path id="Tracé_840" data-name="Tracé 840" d="M496.718,132.773s-.785,2.792.7,3.816,2.76-.918,2.834-2.566-.1-2.131-1.07-2.219-2.262.121-2.462.97" transform="translate(-266.388 -70.705)" fill="#fcee21"/>
          <path id="Tracé_841" data-name="Tracé 841" d="M489.413,127.986a14.425,14.425,0,0,0,5.057-.127l3.555-.514s.306-.108.376.3.039,1.125-.536,1.259a39.119,39.119,0,0,1-7.585.261,2.249,2.249,0,0,0-.868-1.176" transform="translate(-262.58 -68.316)" fill="#fcee21"/>
          <path id="Tracé_842" data-name="Tracé 842" d="M500.355,127.917s-4.728.587-6,.662.294.382,2.475.293,4.187-.395,3.524-.956" transform="translate(-264.987 -68.63)" fill="#fef8a6"/>
          <path id="Tracé_843" data-name="Tracé 843" d="M497.711,135.862s-1.01-3.327.958-3.406c1.4-.057,1.707.323,1.77.629a4.849,4.849,0,0,0-1.679.1c-.622.216-1.074.928-1.049,2.682" transform="translate(-266.893 -71.062)" fill="#fef8a6"/>
          <path id="Tracé_844" data-name="Tracé 844" d="M499.962,136.442a4.877,4.877,0,0,1,1.3-.024c.187.112.307.36-.142.375s-1.766-.045-1.162-.351" transform="translate(-268.156 -73.168)" fill="#fbb03b"/>
          <path id="Tracé_845" data-name="Tracé 845" d="M499.5,138.216a4.877,4.877,0,0,1,1.3-.024c.187.112.307.36-.142.375s-1.766-.045-1.162-.351" transform="translate(-267.907 -74.119)" fill="#fbb03b"/>
          <path id="Tracé_846" data-name="Tracé 846" d="M486.022,148.147a3.5,3.5,0,0,1,.989-.482c.439-.1.563.08.3.16a8.228,8.228,0,0,0-1.168.547c-.138.1-.318-.1-.124-.225" transform="translate(-260.715 -79.21)" fill="#f47b50"/>
          <path id="Tracé_847" data-name="Tracé 847" d="M518.265,306.176s1.481,4.474,1.2,5.966c-.1.537,2.566-.956,6.037.75,0,0-1.484-8.153-1.731-8.514s-4,1.567-5.5,1.8" transform="translate(-278.06 -163.281)" fill="#fbb03b"/>
          <path id="Tracé_848" data-name="Tracé 848" d="M481.809,302.992s1.117,5.171.556,8.086c-.1.537.9-.308,4.368,1.4,0,0,.536-9.91.288-10.271s-3.05-.539-5.213.786" transform="translate(-258.5 -162)" fill="#fbb03b"/>
          <path id="Tracé_849" data-name="Tracé 849" d="M513.9,162.439a4.867,4.867,0,0,0-1.51,3.812c.088,2.5.855,4.5,1.51,4.128s2.132-.7,2.939-1.669-1.493-7.72-2.939-6.271" transform="translate(-274.904 -87.043)" fill="#c2ddef"/>
          <path id="Tracé_850" data-name="Tracé 850" d="M519.535,177.467a14.924,14.924,0,0,1-3.381,1.685c-.8.3-1.222.573-.977,1.243.295.81,1.777.2,3.121-.525s1.879-1.157,2.168-1.784-.289-1.27-.93-.619" transform="translate(-276.366 -95.069)" fill="#ebf4fa"/>
          <path id="Tracé_851" data-name="Tracé 851" d="M464.786,238l-.711,5.24a3.63,3.63,0,0,0,3.409.723l1.048-5.095s-2.938.1-3.747-.868" transform="translate(-248.986 -127.694)" fill="#5d86a1"/>
          <path id="Tracé_852" data-name="Tracé 852" d="M477.661,235.6s-.373-1.119.1-1.232c2.316-.556,2.731-1.614,2.731-1.614s.033,1.791.033,2.331c0,1.34-2.585,2.272-2.863.515" transform="translate(-256.2 -124.876)" fill="#5d86a1"/>
          <path id="Tracé_853" data-name="Tracé 853" d="M480.52,234.547a2.761,2.761,0,0,1-1.631.782c-.533.056-.406.7-.238,1.4s1.117.472,1.5.215.368-2.4.368-2.4" transform="translate(-256.728 -125.839)" fill="#85a4b9"/>
          <path id="Tracé_854" data-name="Tracé 854" d="M469.373,224.118a3.534,3.534,0,0,1-2.875.772A4.088,4.088,0,0,1,463.4,223a2.963,2.963,0,0,0,2.544,2.519c2.261.273,3.314-.756,3.433-1.4" transform="translate(-248.621 -119.643)" fill="#b5441b"/>
          <path id="Tracé_855" data-name="Tracé 855" d="M461.089,258.114l-2.208,17.438s.573.579.63,0,2.5-17.231,2.5-17.231a.793.793,0,0,0-.925-.207" transform="translate(-246.199 -138.448)" fill="#527186"/>
          <path id="Tracé_856" data-name="Tracé 856" d="M456.491,305.336l-1.323,9.162s.284.568.513-.707c.2-1.143,1.291-8.455,1.291-8.455a.678.678,0,0,0-.481,0" transform="translate(-244.207 -163.796)" fill="#adcce1"/>
          <path id="Tracé_857" data-name="Tracé 857" d="M415.715,315.6s-1.428-2.78.66-4.157,3.077,0,3.077,0-3.077-3.733,0-5.962,5.481.32,6.47,1.671,1.195-.289-.082-2.507c-1.14-1.979,2.184-2.178,3.393,4.539.654,3.634,2.973,8.782,3.07,9.465s-15.453.317-17.064-.533.477-2.517.477-2.517" transform="translate(-222.456 -162.804)" fill="#ddd1c2"/>
          <path id="Tracé_858" data-name="Tracé 858" d="M459.653,326.819s1.4-6.435,3.9-8.043,3-.324,2.6.353-4.025,1.925-4.9,4.837,4.108-4.606,9.481-3.74,1.325,2.354-.077,3.982,3.035.753,3.232,2.611-9.071-.83-14.248,0" transform="translate(-246.613 -170.614)" fill="#ddd1c2"/>
          <path id="Tracé_859" data-name="Tracé 859" d="M487.81,240.275s2.318,4.926,2.483,7.772-.453,3.471-1.01,5.352-.969.241-1.586,0,.742,1.35,1.03,1.881a36.069,36.069,0,0,1,.477,5.063,39.827,39.827,0,0,1-3.445-11.428s-.216-2.151,2.051-8.639" transform="translate(-260.616 -128.912)" fill="#3c6c8c"/>
          <path id="Tracé_860" data-name="Tracé 860" d="M485.491,222.656s.993,1.073,3.808.882l.621-1.758s-2.864.083-3.96-1.389c0,0-.278,1.208-.469,2.265" transform="translate(-260.476 -118.244)" fill="#fcded3"/>
          <path id="Tracé_861" data-name="Tracé 861" d="M428.964,300.038s-2.542-3.2-5.142-2.272c-1.059.378-1.755-.406-.678-1.443,1.255-1.209,4.149.382,5.82,3.715" transform="translate(-226.736 -158.767)" fill="#ddd1c2"/>
          <path id="Tracé_862" data-name="Tracé 862" d="M481.629,112.921s-3.006,1.509-3.189,6.867l.451-.133s-.142-4.28,2.737-6.735" transform="translate(-256.693 -60.584)" fill="#fcee21"/>
          <path id="Tracé_863" data-name="Tracé 863" d="M480.792,274.813a44.492,44.492,0,0,0,.811,7.717,19.84,19.84,0,0,1,.434,4.142,16.143,16.143,0,0,1,4.505-.906s-5.438-5.881-5.749-10.953" transform="translate(-257.955 -147.443)" fill="#3c6c8c"/>
          <path id="Tracé_864" data-name="Tracé 864" d="M427.787,324.487c0,.255-.289.461-.646.461s-.646-.206-.646-.461.289-.461.646-.461.646.206.646.461" transform="translate(-228.823 -173.847)" fill="#7c403c"/>
          <path id="Tracé_865" data-name="Tracé 865" d="M439.265,331.453c0,.255-.289.461-.646.461s-.646-.206-.646-.461.289-.461.646-.461.646.206.646.461" transform="translate(-234.981 -177.584)" fill="#7c403c"/>
          <path id="Tracé_866" data-name="Tracé 866" d="M428.251,334.505c0,.255-.289.461-.646.461s-.646-.206-.646-.461.289-.461.646-.461.646.206.646.461" transform="translate(-229.072 -179.221)" fill="#7c403c"/>
          <path id="Tracé_867" data-name="Tracé 867" d="M443.216,334.637c0,.255-.289.461-.646.461s-.646-.206-.646-.461.289-.461.646-.461.646.206.646.461" transform="translate(-237.101 -179.292)" fill="#7c403c"/>
          <path id="Tracé_868" data-name="Tracé 868" d="M444.4,331.711a.683.683,0,1,1-.016-.793.577.577,0,0,1,.016.793" transform="translate(-237.936 -177.377)" fill="#7c403c"/>
          <path id="Tracé_869" data-name="Tracé 869" d="M449.724,330.208a.683.683,0,1,1-.016-.793.577.577,0,0,1,.016.793" transform="translate(-240.792 -176.571)" fill="#7c403c"/>
          <path id="Tracé_870" data-name="Tracé 870" d="M447.073,334.052a.683.683,0,1,1-.016-.794.577.577,0,0,1,.016.794" transform="translate(-239.37 -178.633)" fill="#7c403c"/>
          <path id="Tracé_871" data-name="Tracé 871" d="M445.482,327.911a.683.683,0,1,1-.016-.793.577.577,0,0,1,.016.793" transform="translate(-238.517 -175.338)" fill="#7c403c"/>
          <path id="Tracé_872" data-name="Tracé 872" d="M435.1,331.622a.683.683,0,1,1-.016-.793.577.577,0,0,1,.016.793" transform="translate(-232.946 -177.329)" fill="#7c403c"/>
          <path id="Tracé_873" data-name="Tracé 873" d="M434.9,316.733c.038.252-.218.5-.571.551s-.669-.109-.706-.362.218-.5.571-.551.669.109.706.362" transform="translate(-232.646 -169.734)" fill="#7c403c"/>
          <path id="Tracé_874" data-name="Tracé 874" d="M467.816,333.268c-.221.128-.544-.02-.723-.329a.578.578,0,0,1,.077-.79c.221-.127.544.019.722.329a.577.577,0,0,1-.076.79" transform="translate(-250.544 -178.181)" fill="#7c403c"/>
          <path id="Tracé_875" data-name="Tracé 875" d="M472.459,326.507c-.221.127-.544-.02-.723-.329a.578.578,0,0,1,.077-.79c.221-.127.544.02.722.329a.577.577,0,0,1-.076.79" transform="translate(-253.035 -174.553)" fill="#7c403c"/>
          <path id="Tracé_876" data-name="Tracé 876" d="M447.617,323.249c-.221.127-.544-.02-.723-.329a.578.578,0,0,1,.077-.79c.221-.127.544.02.722.329a.577.577,0,0,1-.076.79" transform="translate(-239.707 -172.805)" fill="#7c403c"/>
          <path id="Tracé_877" data-name="Tracé 877" d="M442.766,325.782c0,.255-.289.461-.646.461s-.646-.206-.646-.461.289-.461.646-.461.646.206.646.461" transform="translate(-236.86 -174.541)" fill="#7c403c"/>
          <path id="Tracé_878" data-name="Tracé 878" d="M442.582,316.194c0,.255-.289.461-.646.461s-.646-.206-.646-.461.289-.461.646-.461.646.206.646.461" transform="translate(-236.761 -169.397)" fill="#7c403c"/>
          <path id="Tracé_879" data-name="Tracé 879" d="M448.175,335.209c0,.255-.289.461-.646.461s-.646-.206-.646-.461.289-.461.646-.461.646.206.646.461" transform="translate(-239.762 -179.599)" fill="#7c403c"/>
          <path id="Tracé_880" data-name="Tracé 880" d="M449.336,332.3c0,.255-.289.461-.646.461s-.646-.206-.646-.461.289-.461.646-.461.646.206.646.461" transform="translate(-240.385 -178.038)" fill="#7c403c"/>
          <path id="Tracé_881" data-name="Tracé 881" d="M452.087,335.543c0,.255-.289.461-.646.461s-.646-.206-.646-.461.289-.461.646-.461.646.206.646.461" transform="translate(-241.861 -179.778)" fill="#7c403c"/>
          <path id="Tracé_882" data-name="Tracé 882" d="M463.924,334.4c0,.255-.289.461-.646.461s-.646-.206-.646-.461.289-.461.646-.461.646.206.646.461" transform="translate(-248.212 -179.166)" fill="#7c403c"/>
          <path id="Tracé_883" data-name="Tracé 883" d="M459.629,335.776c0,.255-.289.461-.646.461s-.646-.206-.646-.461.289-.461.646-.461.646.206.646.461" transform="translate(-245.907 -179.903)" fill="#7c403c"/>
          <path id="Tracé_884" data-name="Tracé 884" d="M469.031,335.831c0,.255-.289.461-.646.461s-.646-.206-.646-.461.289-.461.646-.461.646.206.646.461" transform="translate(-250.951 -179.933)" fill="#7c403c"/>
          <path id="Tracé_885" data-name="Tracé 885" d="M469.031,330.675c0,.255-.289.461-.646.461s-.646-.206-.646-.461.289-.461.646-.461.646.206.646.461" transform="translate(-250.951 -177.166)" fill="#7c403c"/>
          <path id="Tracé_886" data-name="Tracé 886" d="M474.03,329.75c0,.255-.289.461-.646.461s-.646-.206-.646-.461.289-.461.646-.461.646.206.646.461" transform="translate(-253.634 -176.67)" fill="#7c403c"/>
          <path id="Tracé_887" data-name="Tracé 887" d="M472.929,333.442c0,.255-.289.461-.646.461s-.646-.206-.646-.461.289-.461.646-.461.646.206.646.461" transform="translate(-253.043 -178.651)" fill="#7c403c"/>
          <path id="Tracé_888" data-name="Tracé 888" d="M483.588,336.163c0,.255-.289.461-.646.461s-.646-.206-.646-.461.289-.461.646-.461.646.206.646.461" transform="translate(-258.762 -180.111)" fill="#7c403c"/>
        </g>
      </g>
    </g>
  </g>
</svg>
