<svg id="Groupe_1848" data-name="Groupe 1848" xmlns="http://www.w3.org/2000/svg" xmlns:xlink="http://www.w3.org/1999/xlink" width="225.215" height="158.891" viewBox="0 0 225.215 158.891">
  <defs>
    <clipPath id="clip-path">
      <rect id="Rectangle_796" data-name="Rectangle 796" width="225.215" height="158.891" fill="none"/>
    </clipPath>
    <clipPath id="clip-path-3">
      <rect id="Rectangle_793" data-name="Rectangle 793" width="58.468" height="2.161" fill="none"/>
    </clipPath>
    <clipPath id="clip-path-4">
      <rect id="Rectangle_794" data-name="Rectangle 794" width="183.264" height="3.117" fill="none"/>
    </clipPath>
    <clipPath id="clip-path-5">
      <rect id="Rectangle_797" data-name="Rectangle 797" width="132.494" height="114.048" fill="none"/>
    </clipPath>
  </defs>
  <g id="Groupe_1789" data-name="Groupe 1789" transform="translate(0)" opacity="0.501" style="mix-blend-mode: luminosity;isolation: isolate">
    <g id="Groupe_1788" data-name="Groupe 1788" clip-path="url(#clip-path)">
      <g id="Groupe_1787" data-name="Groupe 1787">
        <g id="Groupe_1786" data-name="Groupe 1786" clip-path="url(#clip-path)">
          <path id="Tracé_573" data-name="Tracé 573" d="M27.413,151.843C18.99,147.71,11,142.165,5.718,134.409s-7.491-18-4.1-26.746C6.119,96.047,18.266,92.627,24.7,82.886c6.072-9.194,3.147-21.3.62-31.153-2.722-10.614-4.9-23.071,2.049-31.541,3.731-4.546,9.5-6.978,15.263-8.135a31.1,31.1,0,0,1,12.506-.217c8.5,1.8,15.29,8.12,23.343,11.384,11.337,4.593,24.354,2.755,35.821-1.5,14.257-5.294,27.386-13.282,41.684-18.7,14.633-5.542,28.023-3.743,39.325,7.688a33.224,33.224,0,0,1,9.8,21.723c.343,9.062-3.766,17.821-5.991,26.441-1.218,4.717-2.883,10.437-1.709,15.4,2.14,9.05,10.467,4.537,16.747,7.254,4.456,1.928,7.622,6.3,9.271,10.734,4.815,12.957-.618,27.95-10.015,38.087s-22.2,16.282-34.707,22.171Z" transform="translate(0 0)" fill="#ffd26b"/>
          <path id="Tracé_574" data-name="Tracé 574" d="M6.847,335.923c0,3.341,47.5,6.048,106.1,6.048s106.1-2.708,106.1-6.048-47.5-6.048-106.1-6.048-106.1,2.708-106.1,6.048" transform="translate(-3.8 -183.081)" fill="#ffd26b"/>
          <g id="Groupe_1782" data-name="Groupe 1782" transform="translate(52.065 154.901)" style="mix-blend-mode: multiply;isolation: isolate">
            <g id="Groupe_1781" data-name="Groupe 1781">
              <g id="Groupe_1780" data-name="Groupe 1780" clip-path="url(#clip-path-3)">
                <path id="Tracé_575" data-name="Tracé 575" d="M117,349.173c0,.6,13.089,1.08,29.234,1.08s29.235-.484,29.235-1.08-13.089-1.08-29.235-1.08S117,348.577,117,349.173" transform="translate(-116.999 -348.093)" fill="#ffd26b"/>
              </g>
            </g>
          </g>
          <g id="Groupe_1785" data-name="Groupe 1785" transform="translate(16.829 149.726)" style="mix-blend-mode: multiply;isolation: isolate">
            <g id="Groupe_1784" data-name="Groupe 1784">
              <g id="Groupe_1783" data-name="Groupe 1783" clip-path="url(#clip-path-4)">
                <path id="Tracé_576" data-name="Tracé 576" d="M37.818,338.021c0,.861,41.025,1.558,91.632,1.558s91.632-.7,91.632-1.558-41.025-1.558-91.632-1.558-91.632.7-91.632,1.558" transform="translate(-37.818 -336.463)" fill="#ffd26b"/>
              </g>
            </g>
          </g>
        </g>
      </g>
    </g>
  </g>
  <g id="Groupe_1791" data-name="Groupe 1791" transform="translate(43.209 35.333)">
    <g id="Groupe_1790" data-name="Groupe 1790" clip-path="url(#clip-path-5)">
      <path id="Tracé_577" data-name="Tracé 577" d="M119.878,31.98h-30.4V31.4h30.4a.549.549,0,0,0,.461-.2.636.636,0,0,0,.051-.575l-9.2-29.1a1.428,1.428,0,0,0-1.24-.949H71.8a.549.549,0,0,0-.461.2.635.635,0,0,0-.051.576l7.439,23.537-.552.174L70.735,1.528A1.212,1.212,0,0,1,70.871.436,1.112,1.112,0,0,1,71.8,0h38.155a1.994,1.994,0,0,1,1.791,1.354l9.2,29.1a1.209,1.209,0,0,1-.136,1.091,1.111,1.111,0,0,1-.928.436" transform="translate(-40.845 0)" fill="#66605c"/>
      <path id="Tracé_578" data-name="Tracé 578" d="M128.286,29.238c-.691,4.208-5.181,5.981-10.028,3.96s-8.216-7.071-7.525-11.28,5.181-5.981,10.028-3.96,8.216,7.072,7.525,11.28" transform="translate(-63.952 -9.897)" fill="#2da540"/>
      <path id="Tracé_579" data-name="Tracé 579" d="M119.267,33.094a13.277,13.277,0,0,1-5.078-1.081c-6.243-2.6-10.594-9.15-9.7-14.593a7.188,7.188,0,0,1,3.625-5.248c2.572-1.427,6.023-1.421,9.467.015,6.243,2.6,10.594,9.15,9.7,14.593a7.185,7.185,0,0,1-3.625,5.248,8.993,8.993,0,0,1-4.389,1.066M112.5,11.684a8.419,8.419,0,0,0-4.109.994,6.534,6.534,0,0,0-3.334,4.836c-.853,5.195,3.342,11.46,9.352,13.966,3.28,1.368,6.547,1.384,8.964.043a6.535,6.535,0,0,0,3.334-4.836l.285.047-.285-.047c.853-5.194-3.342-11.459-9.352-13.966a12.7,12.7,0,0,0-4.855-1.037" transform="translate(-60.328 -6.419)" fill="#66605c"/>
      <path id="Tracé_580" data-name="Tracé 580" d="M30.133,39.025l-.374-1.095.547-.187.374,1.095Zm-.749-2.19-.374-1.095.548-.187.374,1.095Zm-.749-2.19-.374-1.095.547-.187.375,1.095Zm-.749-2.19-.374-1.095.548-.187.374,1.1Zm-.749-2.189-.374-1.1.547-.187.374,1.095Zm-.749-2.19-.374-1.1.547-.187.374,1.095Zm-.749-2.19-.472-1.379h.509v.254l.17-.058.341,1Zm20.864-.8H45.348v-.579H46.5Zm-2.314,0H43.034v-.579h1.157Zm-2.314,0H40.72v-.579h1.157Zm-2.314,0H38.405v-.579h1.157Zm-2.314,0H36.091v-.579h1.157Zm-2.314,0H33.777v-.579h1.157Zm-2.314,0H31.463v-.579H32.62Zm-2.314,0H29.149v-.579h1.157Zm-2.314,0H26.835v-.579h1.157Z" transform="translate(-14.548 -14.166)" fill="#66605c"/>
      <path id="Tracé_581" data-name="Tracé 581" d="M23.562,22.761a1.489,1.489,0,0,1,2.162,1.98,1.489,1.489,0,0,1-2.162-1.98" transform="translate(-13.456 -12.953)" fill="#66605c"/>
      <path id="Tracé_582" data-name="Tracé 582" d="M52.961,175.969l-.349-.946.543-.2.349.946Zm-.75-2.031-.4-1.085.543-.2.4,1.085Zm-.8-2.17-.4-1.085.542-.2.4,1.085Zm-.8-2.171-.4-1.085.543-.2.4,1.085Zm-.8-2.171-.4-1.085.543-.2.4,1.085Zm-.8-2.17-.4-1.085.543-.2.4,1.086Zm-.8-2.171L47.8,162l.543-.2.4,1.085Zm-.8-2.171-.4-1.085.543-.2.4,1.085Zm-.8-2.171-.4-1.085.543-.2.4,1.085Zm-.8-2.171-.4-1.085.543-.2.4,1.085Z" transform="translate(-26.239 -89.756)" fill="#66605c"/>
      <path id="Tracé_583" data-name="Tracé 583" d="M109.772,224.673h-1.157v-.579h1.157Zm-2.314,0H106.3v-.579h1.157Zm-2.314,0h-1.157v-.579h1.157Zm-2.314,0h-1.157v-.579h1.157Z" transform="translate(-58.767 -129.527)" fill="#66605c"/>
      <path id="Tracé_584" data-name="Tracé 584" d="M65.413,221.3H42.638a1.908,1.908,0,0,1-1.683-1.236L35.6,204.8a1.111,1.111,0,0,1,.1-1.02,1.008,1.008,0,0,1,.854-.407H59.329a1.906,1.906,0,0,1,1.682,1.236l5.353,15.266a1.111,1.111,0,0,1-.1,1.02,1.009,1.009,0,0,1-.853.407m-28.858-17.35a.452.452,0,0,0-.381.163.547.547,0,0,0-.024.494L41.5,219.876a1.334,1.334,0,0,0,1.137.849H65.413a.452.452,0,0,0,.381-.163.547.547,0,0,0,.024-.495L60.465,204.8a1.334,1.334,0,0,0-1.136-.848Z" transform="translate(-20.533 -117.552)" fill="#66605c"/>
      <path id="Tracé_585" data-name="Tracé 585" d="M61.452,218.012a2.69,2.69,0,0,1-2.434-1.866,1.631,1.631,0,0,1,.2-1.455,1.5,1.5,0,0,1,1.243-.578,2.69,2.69,0,0,1,2.434,1.867,1.63,1.63,0,0,1-.2,1.455,1.5,1.5,0,0,1-1.243.578m-.993-3.321a.936.936,0,0,0-.779.345,1.048,1.048,0,0,0-.108.944,2.144,2.144,0,0,0,1.88,1.454.935.935,0,0,0,.779-.345,1.048,1.048,0,0,0,.108-.944,2.144,2.144,0,0,0-1.88-1.454" transform="translate(-34.064 -123.758)" fill="#66605c"/>
      <path id="Tracé_586" data-name="Tracé 586" d="M79.382,229.04a2.689,2.689,0,0,1-2.434-1.867,1.63,1.63,0,0,1,.2-1.455,1.5,1.5,0,0,1,1.243-.578,2.69,2.69,0,0,1,2.434,1.867h0a1.63,1.63,0,0,1-.2,1.455,1.5,1.5,0,0,1-1.243.578m-.993-3.321a.935.935,0,0,0-.779.345,1.048,1.048,0,0,0-.108.944,2.144,2.144,0,0,0,1.88,1.454.935.935,0,0,0,.779-.345,1.048,1.048,0,0,0,.108-.944,2.144,2.144,0,0,0-1.88-1.454" transform="translate(-44.428 -130.132)" fill="#66605c"/>
      <path id="Tracé_587" data-name="Tracé 587" d="M65.5,221.945a.286.286,0,0,1-.159-.048.289.289,0,0,1-.083-.4l5.6-8.5a.289.289,0,0,1,.483.318l-5.6,8.5a.289.289,0,0,1-.242.13" transform="translate(-37.691 -123.037)" fill="#66605c"/>
      <path id="Tracé_588" data-name="Tracé 588" d="M144.16,220.01H121.435a1.954,1.954,0,0,1-1.724-1.266L107.8,184.782a1.135,1.135,0,0,1,.1-1.043,1.031,1.031,0,0,1,.872-.415H131.5a1.954,1.954,0,0,1,1.724,1.266l11.909,33.963a1.135,1.135,0,0,1-.1,1.042,1.03,1.03,0,0,1-.872.415M108.774,183.9a.469.469,0,0,0-.4.171.569.569,0,0,0-.026.516l11.909,33.963a1.382,1.382,0,0,0,1.178.879H144.16a.469.469,0,0,0,.4-.171.572.572,0,0,0,.026-.516l-11.909-33.963a1.383,1.383,0,0,0-1.178-.879Z" transform="translate(-62.264 -105.962)" fill="#66605c"/>
      <path id="Tracé_589" data-name="Tracé 589" d="M127.147,202.2h-6.532l-2.274-6.486h6.532Zm-6.122-.579h5.307l-1.869-5.329h-5.307Z" transform="translate(-68.401 -113.125)" fill="#66605c"/>
      <path id="Tracé_590" data-name="Tracé 590" d="M135.611,226.341h-6.533l-2.274-6.486h6.533Zm-6.123-.579H134.8l-1.869-5.329H127.62Z" transform="translate(-73.293 -127.077)" fill="#66605c"/>
      <path id="Tracé_591" data-name="Tracé 591" d="M144.076,250.48h-6.533l-2.274-6.486H141.8Zm-6.123-.579h5.307l-1.869-5.329h-5.307Z" transform="translate(-78.186 -141.03)" fill="#66605c"/>
      <path id="Tracé_592" data-name="Tracé 592" d="M149.779,199.75h-9.4a.76.76,0,0,1-.66-.488.335.335,0,0,1,.318-.488h9.4a.759.759,0,0,1,.66.488.334.334,0,0,1-.318.488" transform="translate(-80.741 -114.892)" fill="#66605c"/>
      <path id="Tracé_593" data-name="Tracé 593" d="M152.553,206.087h-6.417a.76.76,0,0,1-.66-.488.335.335,0,0,1,.318-.488h6.417a.759.759,0,0,1,.66.488.334.334,0,0,1-.318.488" transform="translate(-84.069 -118.555)" fill="#66605c"/>
      <path id="Tracé_594" data-name="Tracé 594" d="M158.088,223.443h-9.4a.759.759,0,0,1-.66-.488.334.334,0,0,1,.318-.488h9.4a.759.759,0,0,1,.66.488.334.334,0,0,1-.318.488" transform="translate(-85.543 -128.587)" fill="#66605c"/>
      <path id="Tracé_595" data-name="Tracé 595" d="M160.861,229.78h-6.417a.76.76,0,0,1-.66-.488.335.335,0,0,1,.318-.488h6.417a.759.759,0,0,1,.66.488.334.334,0,0,1-.318.488" transform="translate(-88.871 -132.25)" fill="#66605c"/>
      <path id="Tracé_596" data-name="Tracé 596" d="M166.649,247.862h-9.4a.76.76,0,0,1-.66-.488.335.335,0,0,1,.318-.488h9.4a.759.759,0,0,1,.66.488.334.334,0,0,1-.318.488" transform="translate(-90.492 -142.701)" fill="#66605c"/>
      <path id="Tracé_597" data-name="Tracé 597" d="M169.424,254.2h-6.417a.76.76,0,0,1-.66-.488.335.335,0,0,1,.318-.488h6.417a.759.759,0,0,1,.66.488.334.334,0,0,1-.318.488" transform="translate(-93.82 -146.364)" fill="#66605c"/>
      <path id="Tracé_598" data-name="Tracé 598" d="M122.249,198.623c.908.646,1.754,1.354,2.609,2.065a.255.255,0,0,0,.43-.178,5.7,5.7,0,0,1,.629-2.775,13.321,13.321,0,0,1,.675-1.174,7.8,7.8,0,0,0,.693-1.139c.054-.131-.127-.192-.211-.123a5.289,5.289,0,0,0-.895,1.067,8.6,8.6,0,0,0-.762,1.261,5.962,5.962,0,0,0-.633,2.883l.43-.178a22.846,22.846,0,0,0-2.829-1.943c-.152-.091-.276.135-.137.234" transform="translate(-70.625 -112.867)" fill="#675dc9"/>
      <path id="Tracé_599" data-name="Tracé 599" d="M130.661,222.612c.908.646,1.754,1.354,2.609,2.065a.255.255,0,0,0,.43-.178,5.7,5.7,0,0,1,.629-2.775,13.322,13.322,0,0,1,.675-1.174,7.8,7.8,0,0,0,.693-1.139c.054-.131-.127-.192-.211-.123a5.289,5.289,0,0,0-.895,1.067,8.606,8.606,0,0,0-.762,1.261,5.961,5.961,0,0,0-.633,2.883l.43-.178a22.848,22.848,0,0,0-2.829-1.943c-.152-.091-.276.135-.137.234" transform="translate(-75.487 -126.733)" fill="#675dc9"/>
      <path id="Tracé_600" data-name="Tracé 600" d="M138.782,245.771c.908.646,1.754,1.354,2.609,2.065a.255.255,0,0,0,.43-.178,5.7,5.7,0,0,1,.629-2.775,13.322,13.322,0,0,1,.675-1.174,7.8,7.8,0,0,0,.693-1.139c.054-.131-.127-.192-.211-.123a5.289,5.289,0,0,0-.895,1.067,8.646,8.646,0,0,0-.763,1.261,5.966,5.966,0,0,0-.632,2.883l.43-.178a22.844,22.844,0,0,0-2.829-1.943c-.152-.091-.276.135-.137.234" transform="translate(-80.181 -140.119)" fill="#675dc9"/>
      <path id="Tracé_601" data-name="Tracé 601" d="M37.393,116.477l-1.017-.552c.271-.5.552-1,.835-1.51A39.678,39.678,0,0,0,40.18,108.3c.165-.477.328-1.056.5-1.67.752-2.675,1.78-6.337,4.682-7.023,2.756-.652,5.725,1.624,7.718,3.393,1.823,1.616,3.508,2.9,5.694,2.29,3.824-1.075,5.487-5.86,6.822-9.705.128-.369.253-.727.375-1.07l1.09.389c-.122.34-.244.7-.372,1.061-1.349,3.883-3.2,9.2-7.6,10.439-2.743.771-4.85-.832-6.775-2.538-1.8-1.6-4.452-3.661-6.685-3.132s-3.123,3.679-3.834,6.209c-.177.63-.344,1.226-.521,1.736a40.519,40.519,0,0,1-3.051,6.3c-.281.5-.559,1-.829,1.5" transform="translate(-21.025 -54.632)" fill="#66605c"/>
      <path id="Tracé_602" data-name="Tracé 602" d="M106.615,89.139c.657,1.988.049,3.6-1.358,3.6s-3.081-1.611-3.738-3.6-.049-3.6,1.358-3.6,3.081,1.611,3.738,3.6" transform="translate(-58.525 -49.442)" fill="#66605c"/>
      <path id="Tracé_603" data-name="Tracé 603" d="M107.6,88.313c.638,1.93.048,3.495-1.319,3.495s-2.992-1.565-3.63-3.495-.048-3.495,1.319-3.495,2.991,1.564,3.629,3.495" transform="translate(-59.186 -49.025)" fill="#66605c"/>
      <path id="Tracé_604" data-name="Tracé 604" d="M61.175,103.111H23.212a.289.289,0,0,1-.275-.2l-10.2-31.161a.289.289,0,1,1,.55-.18l10.136,30.962H61.175a.289.289,0,0,1,0,.579" transform="translate(-7.353 -41.253)" fill="#66605c"/>
      <path id="Tracé_605" data-name="Tracé 605" d="M43.416,106.95a.072.072,0,0,1-.069-.05L34.14,78.483a.072.072,0,1,1,.138-.044l9.208,28.417a.072.072,0,0,1-.046.091.084.084,0,0,1-.022,0" transform="translate(-19.731 -45.309)" fill="#66605c"/>
      <path id="Tracé_606" data-name="Tracé 606" d="M63.055,106.95a.073.073,0,0,1-.069-.05L53.779,78.483a.072.072,0,1,1,.138-.044l9.208,28.417a.072.072,0,0,1-.046.091.084.084,0,0,1-.022,0" transform="translate(-31.083 -45.309)" fill="#66605c"/>
      <path id="Tracé_607" data-name="Tracé 607" d="M82.694,106.951a.073.073,0,0,1-.069-.05L73.417,78.484a.073.073,0,0,1,.138-.045l9.207,28.417a.073.073,0,0,1-.046.091.085.085,0,0,1-.022,0" transform="translate(-42.434 -45.309)" fill="#66605c"/>
      <path id="Tracé_608" data-name="Tracé 608" d="M102.333,106.951a.073.073,0,0,1-.069-.05L93.056,78.484a.073.073,0,0,1,.047-.091.072.072,0,0,1,.091.046l9.207,28.417a.073.073,0,0,1-.046.091.082.082,0,0,1-.022,0" transform="translate(-53.785 -45.309)" fill="#66605c"/>
      <path id="Tracé_609" data-name="Tracé 609" d="M12.5,68.1a.864.864,0,0,1-1.021.946,1.4,1.4,0,0,1-1.221-1.184.864.864,0,0,1,1.021-.946A1.4,1.4,0,0,1,12.5,68.1" transform="translate(-5.925 -38.673)" fill="#66605c"/>
      <path id="Tracé_610" data-name="Tracé 610" d="M127.118,144.55a.864.864,0,0,1-1.021.946,1.4,1.4,0,0,1-1.221-1.184.864.864,0,0,1,1.021-.946,1.4,1.4,0,0,1,1.221,1.184" transform="translate(-72.177 -82.863)" fill="#66605c"/>
      <path id="Tracé_611" data-name="Tracé 611" d="M58.011,99.735H14.261A1.658,1.658,0,0,1,12.685,98.6L.086,60.687A1.659,1.659,0,0,1,1.661,58.5h43.75a1.659,1.659,0,0,1,1.576,1.136l12.6,37.911a1.66,1.66,0,0,1-1.575,2.183M1.661,59.082A1.082,1.082,0,0,0,.635,60.5l12.6,37.911a1.08,1.08,0,0,0,1.026.74h43.75a1.082,1.082,0,0,0,1.026-1.423l-12.6-37.911a1.079,1.079,0,0,0-1.026-.741Z" transform="translate(0 -33.816)" fill="#66605c"/>
      <path id="Tracé_612" data-name="Tracé 612" d="M52.582,91.911H19.816a.072.072,0,0,1,0-.145H52.582a.072.072,0,0,1,0,.145" transform="translate(-11.412 -53.041)" fill="#66605c"/>
      <path id="Tracé_613" data-name="Tracé 613" d="M35.079,110.287h-9.05a.072.072,0,0,1,0-.145h9.05a.072.072,0,0,1,0,.145" transform="translate(-15.003 -63.663)" fill="#66605c"/>
      <path id="Tracé_614" data-name="Tracé 614" d="M84.716,110.287h-9.05a.072.072,0,0,1,0-.145h9.05a.072.072,0,0,1,0,.145" transform="translate(-43.694 -63.663)" fill="#66605c"/>
      <path id="Tracé_615" data-name="Tracé 615" d="M83.221,126.668H60.232a.072.072,0,0,1,0-.145H83.221a.072.072,0,0,1,0,.145" transform="translate(-34.773 -73.131)" fill="#66605c"/>
      <path id="Tracé_616" data-name="Tracé 616" d="M242.471,234.608l3.787,15.012-37.9-.064,5.117-14.948Z" transform="translate(-120.43 -135.604)" fill="#675dc9"/>
      <path id="Tracé_617" data-name="Tracé 617" d="M248.32,265.176a4.131,4.131,0,0,1-2.175-.328,4.131,4.131,0,0,1,2.175.328" transform="translate(-142.273 -153.066)" fill="#463f8d"/>
      <path id="Tracé_618" data-name="Tracé 618" d="M255.383,264.187a5.207,5.207,0,0,1,1.856-.261,2.173,2.173,0,0,1-1.856.261" transform="translate(-147.613 -152.548)" fill="#463f8d"/>
      <path id="Tracé_619" data-name="Tracé 619" d="M289.2,234.608a100.532,100.532,0,0,1,3.787,15.012,100.516,100.516,0,0,1-3.787-15.012" transform="translate(-167.158 -135.604)" fill="#a39ee9"/>
      <path id="Tracé_620" data-name="Tracé 620" d="M243.826,259.327c1.082.449,2.122.976,3.154,1.522a2.445,2.445,0,0,1,.74.548,14.037,14.037,0,0,1,1.082,2.425c-.47-.711-.818-1.561-1.291-2.248a2.275,2.275,0,0,0-.668-.471c-1.025-.554-2.042-1.127-3.016-1.777" transform="translate(-140.933 -149.892)" fill="#463f8d"/>
      <path id="Tracé_621" data-name="Tracé 621" d="M278.6,243.847c.9,3.132,2.261,7.446,6.051,7.817l-.135.128a14.213,14.213,0,0,0-.722-3.107q-.45-1.558-.861-3.127.535,1.532,1.036,3.074a11,11,0,0,1,.807,3.3c-4.014-.169-5.531-4.767-6.176-8.084" transform="translate(-161.032 -140.945)" fill="#463f8d"/>
      <path id="Tracé_622" data-name="Tracé 622" d="M218.224,241.384c-.771,2.245-1.1,4.785-2.773,6.615a2.943,2.943,0,0,1-2.369,1.091c.014-.034.608-1.682.64-1.771.584-1.588,1.181-3.173,1.812-4.743-.5,1.618-1.031,3.224-1.577,4.827L213.4,249l-.128-.181a2.819,2.819,0,0,0,1.973-1.009c1.65-1.776,2.019-4.259,2.975-6.427" transform="translate(-123.163 -139.521)" fill="#463f8d"/>
      <path id="Tracé_623" data-name="Tracé 623" d="M244.417,235.184c.09,1.607.2,3.209.371,4.8.055.361,0,.79.279,1.057a7.665,7.665,0,0,0,3.1,1.652l-.167.116c.231-2.148.486-4.295.8-6.433-.131,2.157-.319,4.31-.531,6.46l-.015.155-.152-.038a7.357,7.357,0,0,1-2.243-.972c-.476-.357-1.185-.7-1.255-1.368a44.246,44.246,0,0,1-.181-5.434" transform="translate(-141.264 -135.937)" fill="#463f8d"/>
      <path id="Tracé_624" data-name="Tracé 624" d="M115.308,86.249c-.82-1.252-1.631-2.51-2.462-3.756a2.174,2.174,0,0,0-1.355-1.067,18.153,18.153,0,0,0-2.3-.8,7.538,7.538,0,0,0-3.319-.215c-.389.094-.761.246-1.146.354a.839.839,0,0,0-.646.5,5.355,5.355,0,0,1-1.02,1.159c.14.29.53.342.851.315a7.054,7.054,0,0,1,1.2-.2,10.1,10.1,0,0,1,1.321.353,1.629,1.629,0,0,1,.5.258,12.019,12.019,0,0,1,3.143,2.879c.465.656,1.207,1.632.744,2.471a3,3,0,0,1-1.211,1.031.559.559,0,0,1-.6.057l-1.227-.409a3.008,3.008,0,0,0-2.1-.014,1.371,1.371,0,0,0-.8.675.2.2,0,0,0-.023.082c0,.111.144.151.255.167a5.9,5.9,0,0,1,2.352,1.218,2.592,2.592,0,0,0,1.141.594,23.143,23.143,0,0,1,3.514,1.027c1.209.33,2.378.021,3.489.739a.179.179,0,0,0,.113.041.176.176,0,0,0,.091-.053l.257-.229,2.722-2.762a.08.08,0,0,0-.081-.081,51.348,51.348,0,0,1-3.4-4.33" transform="translate(-59.566 -46.415)" fill="#f7caba"/>
      <path id="Tracé_625" data-name="Tracé 625" d="M167.443,105.616l-13.327,8s-7.909-4.938-10.9-6.5-10.526-6.695-10.526-6.695l-3.769,4.876s14.3,15.2,16.634,17.154a17.657,17.657,0,0,0,5.069,2.859s13.342.719,17.648-3.959-.831-15.741-.831-15.741" transform="translate(-74.518 -58.047)" fill="#23aad3"/>
      <path id="Tracé_626" data-name="Tracé 626" d="M185.226,133.505a15.731,15.731,0,0,0-1.856,4.372,6.159,6.159,0,0,1,1.856-4.372" transform="translate(-105.989 -77.166)" fill="#0e7591"/>
      <path id="Tracé_627" data-name="Tracé 627" d="M244.976,154.6c.353,1.568,1.507,2.6.836,4.055-2.618,5.672-29.528,1.892-30.789.584-1.136-1.174.316-4.226.668-7.573.038-.384.064-.769.069-1.157.018-1.288-.144-3.66-.4-6.451-.5-5.386-1.371-12.334-1.961-16.031a42.339,42.339,0,0,1,2.621-21.35l3.821-2.233c2.36,0,3.795-.966,6.1-1.458a16.67,16.67,0,0,1,10.954.417l4.993,1.5a8.024,8.024,0,0,1,2.7,1.192c1.5,1.171,1.964,3.211,2.2,5.094a40.1,40.1,0,0,1-.827,14.33c-.22.911-.475,1.814-.726,2.716a41.288,41.288,0,0,0-1.137,4.81,34.847,34.847,0,0,0-.321,5.629c0,.53.009,1.056.015,1.585.029,2.169.061,4.353.182,6.52.061,1.079.144,2.152.26,3.225a40.6,40.6,0,0,0,.746,4.6" transform="translate(-123.092 -59.11)" fill="#23aad3"/>
      <path id="Tracé_628" data-name="Tracé 628" d="M228.319,233.819a54.629,54.629,0,0,0,21.265,1.308l1.516-.232,1.509-.28c-.5.121-.994.243-1.494.356a45.41,45.41,0,0,1-22.8-1.152" transform="translate(-131.969 -135.148)" fill="#0e7591"/>
      <path id="Tracé_629" data-name="Tracé 629" d="M222.386,164.052c2.223.288,4.427.7,6.646.932,1.335.112,2.659.046,4.008.044,1.8.035,3.567.164,5.36.059a25.624,25.624,0,0,0,5.214-1.1,32.339,32.339,0,0,1-3.826,1.347,31.037,31.037,0,0,1-6.75.276c-.89-.008-1.79.017-2.7-.016a40.749,40.749,0,0,1-7.955-1.538" transform="translate(-128.54 -94.783)" fill="#0e7591"/>
      <path id="Tracé_630" data-name="Tracé 630" d="M282.443,154.943a34.851,34.851,0,0,0-.321,5.629,24.3,24.3,0,0,1-2.661-10.04,35.615,35.615,0,0,1,.2-8.49c.113-.6.414-2.161,1.342-1.851.717.24,1.149,2.936,1.313,3.541a45.481,45.481,0,0,1,1.261,6.4,41.119,41.119,0,0,0-1.137,4.81" transform="translate(-161.441 -81.008)" fill="#1084a4"/>
      <path id="Tracé_631" data-name="Tracé 631" d="M282.245,132.32a71.391,71.391,0,0,0,1.439,15.556l.239,1.017-.314-1a45.36,45.36,0,0,1-1.365-15.575" transform="translate(-163.059 -76.482)" fill="#4e4a8a"/>
      <path id="Tracé_632" data-name="Tracé 632" d="M215.419,122.619a80.374,80.374,0,0,0-1.817,13.527c-.011.3-.027.608-.044.912a43.159,43.159,0,0,1,1.861-14.439" transform="translate(-123.416 -70.874)" fill="#0e7591"/>
      <path id="Tracé_633" data-name="Tracé 633" d="M279.015,127.907c.375,2.478.9,5.139,1.5,7.573a19.711,19.711,0,0,1-1.5-7.573" transform="translate(-161.272 -73.931)" fill="#0e7591"/>
      <path id="Tracé_634" data-name="Tracé 634" d="M228.956,109.581c.86,4.939,2.792,9.627,4.65,14.258l-.238-.032c1.866-2.394,3.7-4.82,5.447-7.3a65.63,65.63,0,0,0,4.867-7.695,55.827,55.827,0,0,1-4.673,7.83q-2.6,3.752-5.422,7.341l-.148.186-.09-.218c-.955-2.324-1.848-4.67-2.624-7.059a37.641,37.641,0,0,1-1.769-7.309" transform="translate(-132.338 -62.892)" fill="#0e7591"/>
      <path id="Tracé_635" data-name="Tracé 635" d="M232.51,115.482l2.606,8.031c1.873-3.69,5.476-6.478,6.517-10.484a5.615,5.615,0,0,1-3.541-.032c-1.155-.33-2.252-.845-3.408-1.172-.839-.238-2.809-.529-3.214.579-.288.787.8,2.334,1.041,3.079" transform="translate(-133.762 -64.507)" fill="#fff"/>
      <path id="Tracé_636" data-name="Tracé 636" d="M247.513,205.383a.641.641,0,0,0-.058.043,14.179,14.179,0,0,1-5.329,2.2,48.146,48.146,0,0,1-20.168.374,10.618,10.618,0,0,1-2.986-.95c.04-.383.065-.77.07-1.156.019-1.288-.144-3.661-.4-6.451.175-.049.349-.092.521-.129a52.813,52.813,0,0,1,15.179-1.1,1.256,1.256,0,0,1,.619.156,1.578,1.578,0,0,1,.451.727,5.7,5.7,0,0,0,3.774,2.793,15.632,15.632,0,0,0,8.069.27c.062,1.079.144,2.152.261,3.225" transform="translate(-126.374 -114.487)" fill="#1084a4"/>
      <path id="Tracé_637" data-name="Tracé 637" d="M265.343,116.591c0,.09,0,.173,0,.25a91.234,91.234,0,0,0,.527,14.045c.382,2.747.921,5.469,1.524,8.175.295,1.325.606,2.646.921,3.966.193.809.417,1.8.417,1.8s-5.292,2.3-7.825,3.451l-7.977,3.612a9.179,9.179,0,0,1,1.371,5.31l10.621-1.6a35.1,35.1,0,0,0,7.007-1.553,12.013,12.013,0,0,0,5.777-4.176,4.2,4.2,0,0,0,.676-1.368,5.489,5.489,0,0,0,.112-1.268,89.63,89.63,0,0,0-.242-9.572,55.081,55.081,0,0,0-3.019-13.02,67.214,67.214,0,0,0-3.357-8.229c-.877-1.716-1.849-3.9-3.576-4.923-2.793-1.657-2.924,3.159-2.954,5.1" transform="translate(-146.193 -64.246)" fill="#23aad3"/>
      <path id="Tracé_638" data-name="Tracé 638" d="M256.176,215.956c2.937-.561,5.89-1.018,8.844-1.48A55.142,55.142,0,0,0,273.8,212.8a39,39,0,0,1-8.741,1.96c-2.958.43-5.915.864-8.887,1.194" transform="translate(-148.071 -123.001)" fill="#0e7591"/>
      <path id="Tracé_639" data-name="Tracé 639" d="M298.756,150.339a3.8,3.8,0,0,0,.709-2.38l-.042-2.552a58.372,58.372,0,0,0-3.313-19.962A73.04,73.04,0,0,0,292.321,116a9.469,9.469,0,0,0-2.97-4.039,9.26,9.26,0,0,1,3.223,3.911c.4.752.8,1.5,1.177,2.273a65.993,65.993,0,0,1,5.445,17.04,55.449,55.449,0,0,1,.509,10.224l-.087,2.554a3.747,3.747,0,0,1-.861,2.377" transform="translate(-167.246 -64.713)" fill="#58cdf2"/>
      <path id="Tracé_640" data-name="Tracé 640" d="M291.725,190.213a6.693,6.693,0,0,1,6.067.937,10.661,10.661,0,0,0-6.067-.937" transform="translate(-168.618 -109.742)" fill="#0e7591"/>
      <path id="Tracé_641" data-name="Tracé 641" d="M229.232,99.666c.043.6.236,1.18.333,1.775a5.541,5.541,0,0,1-.334,2.958,2.787,2.787,0,0,1,2.661.4,7.5,7.5,0,0,1,1.98,2.024,7.291,7.291,0,0,1,2.981-1.668,3.277,3.277,0,0,1,3.3.947,4.151,4.151,0,0,1,.573-1.2c1.175-1.821,2.94-3.373,3.367-5.5a4.653,4.653,0,0,0-.508-3.205,4.318,4.318,0,0,0-2.545-2,7.109,7.109,0,0,0-1.8-.2,15.734,15.734,0,0,0-7.545,1.52,5.407,5.407,0,0,0-1.576,1.15,4.059,4.059,0,0,0-.887,3" transform="translate(-132.49 -54.33)" fill="#f5e3d8"/>
      <path id="Tracé_642" data-name="Tracé 642" d="M244.46,88.741c-2.324,3.869-4.878,7.953-8.964,9.869a17.92,17.92,0,0,1-3.422-7.156.972.972,0,0,1-.027-.457.523.523,0,0,1,.073-.16,1.762,1.762,0,0,1,.264-.3,5.639,5.639,0,0,0,1.634-4.491l7.282-6.264a11.915,11.915,0,0,0,.122,2.879,11.231,11.231,0,0,0,3.038,6.08" transform="translate(-134.113 -46.114)" fill="#f7caba"/>
      <path id="Tracé_643" data-name="Tracé 643" d="M241.547,82.661a11.032,11.032,0,0,1-1.812,4.427,8.975,8.975,0,0,1-6.172,3.771,5.132,5.132,0,0,1-1.318-.022,1.76,1.76,0,0,1,.264-.3,5.639,5.639,0,0,0,1.634-4.491l7.282-6.264a11.937,11.937,0,0,0,.123,2.879" transform="translate(-134.239 -46.114)" fill="#e4a793"/>
      <path id="Tracé_644" data-name="Tracé 644" d="M218.552,47.9a6.579,6.579,0,0,0-.657,3.974c.127,1.359.448,2.7.5,4.064.048,1.266-.138,2.536-.044,3.8a12.544,12.544,0,0,0,1.82,5.257c.96,1.663,2.659,3.965,4.84,3.577a7.035,7.035,0,0,0,2.406-1.073q1.5-.93,2.938-1.96a7.536,7.536,0,0,0,2-1.878c1.17-1.783,1.412-4.245,1.61-6.312.089-.927.17-1.855.238-2.784a14.786,14.786,0,0,0-.029-3.374,5.5,5.5,0,0,0-1.394-3.022,6.973,6.973,0,0,0-3.765-1.7,19.374,19.374,0,0,0-8.317.195,2.882,2.882,0,0,0-1.79,1Z" transform="translate(-125.916 -26.649)" fill="#f7caba"/>
      <path id="Tracé_645" data-name="Tracé 645" d="M238.824,61.267a12.973,12.973,0,0,0-2.995-.625c-.371.006-2.207.246-1.5-.616.495-.606,1.6-.369,2.205-.177a5.51,5.51,0,0,1,1.257.577,10.923,10.923,0,0,1,1.036.841" transform="translate(-135.349 -34.471)" fill="#492c2c"/>
      <path id="Tracé_646" data-name="Tracé 646" d="M218.067,61.955a7.54,7.54,0,0,1,2.151-.754c.266-.01,1.587.149,1.079-.681-.358-.584-1.149-.3-1.586-.081a3.872,3.872,0,0,0-.9.631,9.923,9.923,0,0,0-.742.884" transform="translate(-126.044 -34.781)" fill="#492c2c"/>
      <path id="Tracé_647" data-name="Tracé 647" d="M237.671,66.853c.049.277-.066.529-.256.563s-.384-.164-.433-.441.066-.529.256-.563.384.164.433.441" transform="translate(-136.97 -38.384)" fill="#2c1919"/>
      <path id="Tracé_648" data-name="Tracé 648" d="M223.32,66.845c.057.276-.05.531-.239.57s-.389-.152-.446-.428.049-.53.239-.57.389.152.446.427" transform="translate(-128.675 -38.387)" fill="#2c1919"/>
      <path id="Tracé_649" data-name="Tracé 649" d="M224.764,74.947a2.53,2.53,0,0,0,3.32.585,1.993,1.993,0,0,1-3.32-.585" transform="translate(-129.915 -43.32)" fill="#dca18e"/>
      <path id="Tracé_650" data-name="Tracé 650" d="M220.076,41.95a4.892,4.892,0,0,0,1.695-1.839l-4.3,1.533a4.291,4.291,0,0,1,1.313-2.395,6.1,6.1,0,0,0-3.767,2.392,3.079,3.079,0,0,1,.6-2.123,13.62,13.62,0,0,0-2.261,2.589,4.584,4.584,0,0,0-.7,3.289,19.257,19.257,0,0,1-1.289-6.616,8.4,8.4,0,0,1,.651-3.765,7.994,7.994,0,0,1,2.113-2.56,12.544,12.544,0,0,1,6.8-3.055,8.939,8.939,0,0,1,6.989,2.252,5.212,5.212,0,0,0-.59-1.177c.335.5,1.245.714,1.343,1.462a4.523,4.523,0,0,1,1.779-.882l-.971.889a10.794,10.794,0,0,1,4.731,10.97l-.539-1.068a10.843,10.843,0,0,1-1.493,5c-.822,1.554-1.8,3.028-2.492,4.646.572-2.332,1.093-4.266.509-6.689l-.959,2.7c-.39-.141-.412-.04-.3-.441a8.8,8.8,0,0,0,.3-2.731,2.171,2.171,0,0,0-1.117-1.674,3.41,3.41,0,0,0-.027-1.9,3.414,3.414,0,0,0-.419,1.09,3.667,3.667,0,0,0-.6-2.532c-.341-.5-2.468.982-3.016,1.228a25.3,25.3,0,0,1-3.985,1.407" transform="translate(-122.168 -16.967)" fill="#5e3b3a"/>
      <path id="Tracé_651" data-name="Tracé 651" d="M234.47,34.149a9.2,9.2,0,0,0-10.325-.928,9.36,9.36,0,0,0-1.319.882,7.9,7.9,0,0,1,1.245-1,8.389,8.389,0,0,1,10.4,1.05" transform="translate(-128.794 -18.36)" fill="#865655"/>
      <path id="Tracé_652" data-name="Tracé 652" d="M231.571,38.978a12.205,12.205,0,0,0-10.955,3.07,12.557,12.557,0,0,0-1.159,1.245,10.326,10.326,0,0,1,1.059-1.345,10.9,10.9,0,0,1,11.055-2.97" transform="translate(-126.847 -22.258)" fill="#865655"/>
      <path id="Tracé_653" data-name="Tracé 653" d="M238.464,43.148a19.03,19.03,0,0,1-6.435,3.2L232,46.232c.283-.042.565-.089.849-.123-.273.088-.549.162-.823.242l-.033-.117a56.984,56.984,0,0,0,6.474-3.086" transform="translate(-134.091 -24.94)" fill="#865655"/>
      <path id="Tracé_654" data-name="Tracé 654" d="M242.031,46.539a9.1,9.1,0,0,1-3.146,2.575,30.192,30.192,0,0,1,3.146-2.575" transform="translate(-138.077 -26.9)" fill="#865655"/>
      <path id="Tracé_655" data-name="Tracé 655" d="M251.827,47.266a5.844,5.844,0,0,1,2.2,4.335,12.727,12.727,0,0,0-2.2-4.335" transform="translate(-145.557 -27.32)" fill="#865655"/>
      <path id="Tracé_656" data-name="Tracé 656" d="M254.316,42.309a5.151,5.151,0,0,1,3.5,4.865,7.024,7.024,0,0,0-3.5-4.865" transform="translate(-146.996 -24.455)" fill="#865655"/>
      <path id="Tracé_657" data-name="Tracé 657" d="M255.635,63.6a.373.373,0,0,1,.287-.107.352.352,0,0,1,.192.151,3.19,3.19,0,0,1,.516,1.781,6.63,6.63,0,0,1-1.2,4.245.934.934,0,0,1-.749.476.69.69,0,0,1-.552-.543,2.253,2.253,0,0,1,0-.82c.244-2.077-.39-3.727,1.5-5.183" transform="translate(-146.867 -36.694)" fill="#f7caba"/>
      <path id="Tracé_658" data-name="Tracé 658" d="M256.654,65.767a.436.436,0,0,1,.311-.181.31.31,0,0,1,.251.185.835.835,0,0,1,.066.319,6.817,6.817,0,0,1-.7,3.47c-.048.1-.138.209-.24.171.005-.06.011-.121.017-.182a.511.511,0,0,0-.041-.325c-.06-.094-.216-.13-.279-.038a.33.33,0,0,1,.3-.415.137.137,0,0,0,.083-.013.11.11,0,0,0,.035-.064,1,1,0,0,0,.022-.512.544.544,0,0,0-.321-.381c-.03-.011-.065-.022-.076-.052a.092.092,0,0,1,0-.054,2.153,2.153,0,0,1,.5-.765.56.56,0,0,0,.148-.424,1.24,1.24,0,0,1-.517.412.072.072,0,0,1-.045.013.062.062,0,0,1-.03-.016c-.265-.24.361-.979.512-1.147" transform="translate(-147.982 -37.909)" fill="#e4a793"/>
      <path id="Tracé_659" data-name="Tracé 659" d="M223.666,74.04a8.165,8.165,0,0,1,1.9.58,7.154,7.154,0,0,0,4.018.306,4.479,4.479,0,0,0,1.9-.841,7.776,7.776,0,0,0,1.915-3.365c.064-.161.224-.354.369-.259q0,2.162-.118,4.321a11,11,0,0,1-.227,1.9c-.44,1.871-2.057,3.24-3.59,4.254-1.67,1.105-3.6,2.253-5.667,1.59-2.758-.885-4.361-3.814-4.9-6.495a13.262,13.262,0,0,1-.223-2.234c-.024-.769.119-2.926.119-2.926a6.792,6.792,0,0,0,.368,2.459c1.444,2.717,1.631.4,4.142.707" transform="translate(-126.602 -40.712)" fill="#5e3b3a"/>
      <path id="Tracé_660" data-name="Tracé 660" d="M229.6,82.968a6.2,6.2,0,0,1-.939,1.408,2.165,2.165,0,0,1-1.49.717,2.018,2.018,0,0,1-1.742-.7,7.929,7.929,0,0,1-.872-1.555,12.209,12.209,0,0,0,2.935.295c.436-.009.861.027,1.3,0,.171-.009.708.019.809-.17" transform="translate(-129.798 -47.881)" fill="#fff"/>
      <path id="Tracé_661" data-name="Tracé 661" d="M221.645,175.134l-23.755,5.933-11.037-17.336a.273.273,0,0,1,.159-.444l22.993-5.743a.6.6,0,0,1,.6.254Z" transform="translate(-107.967 -91.053)" fill="#7873b6"/>
      <path id="Tracé_662" data-name="Tracé 662" d="M220.355,175.509,196.605,181.4l-11.037-17.336a.273.273,0,0,1,.158-.444l22.993-5.743a.6.6,0,0,1,.6.254Z" transform="translate(-107.225 -91.248)" fill="#44416b"/>
      <path id="Tracé_663" data-name="Tracé 663" d="M263.516,194.494l-19.671,4.913a1.074,1.074,0,0,1-1.3-.782l-.013-.051,21.556-5.384.063.251a.869.869,0,0,1-.633,1.053" transform="translate(-140.183 -111.665)" fill="#7873b6"/>
      <path id="Tracé_664" data-name="Tracé 664" d="M234.91,200.887l-21.776,5.439a1.127,1.127,0,0,1-1.367-.821l23.755-5.933.052.209a.912.912,0,0,1-.664,1.106" transform="translate(-122.402 -115.353)" fill="#44416b"/>
      <path id="Tracé_665" data-name="Tracé 665" d="M219.629,175.672a1.5,1.5,0,0,1-1.2,2.2,2.863,2.863,0,0,1-2.7-1.864,1.5,1.5,0,0,1,1.2-2.2,2.865,2.865,0,0,1,2.7,1.864" transform="translate(-124.612 -100.458)" fill="#d3d2f6"/>
      <path id="Tracé_666" data-name="Tracé 666" d="M219.417,210.194l-4.132,1.065-.122-.307,4.122-1.062Z" transform="translate(-124.365 -121.317)" fill="#7873b6"/>
      <path id="Tracé_667" data-name="Tracé 667" d="M258.957,200.287l-4.132,1.065-.122-.307,4.122-1.062Z" transform="translate(-147.219 -115.591)" fill="#7873b6"/>
      <path id="Tracé_668" data-name="Tracé 668" d="M226.171,203.839q-.268-.536-.508-1.085a1.228,1.228,0,0,1-.147-.78c.068-.261.4-.463.617-.307a1.308,1.308,0,0,1-.324-.443.449.449,0,0,1,.108-.5c.216-.165.524-.012.749.141a.646.646,0,0,1-.374-.815.789.789,0,0,1,.8-.481,1.02,1.02,0,0,1,.787.552.864.864,0,0,1-.272-.322.3.3,0,0,1,.113-.371.4.4,0,0,1,.174-.026c1.056.021,1.571.819,2.258,1.471,1.314,1.246,2.611,2.543,4.519,2.554a1.027,1.027,0,0,0,.294-.028.879.879,0,0,0,.265-.145,8.939,8.939,0,0,0,1.212-1.307c.341-.379,1.566-1.326,2.114-.863.487.411-.477,1.362-.646,1.726a1.459,1.459,0,0,0,.095,1.687c.636,1.017,1.815,2.384.292,3.348a7.1,7.1,0,0,1-4.006.675c-2.918-.094-6.224-1.181-7.695-3.865q-.22-.4-.424-.811" transform="translate(-130.337 -115.252)" fill="#f7caba"/>
      <path id="Tracé_669" data-name="Tracé 669" d="M130.242,33.735a3.517,3.517,0,0,1-2.292.7,6.2,6.2,0,0,1-3.957-1.51A8.052,8.052,0,0,1,121.78,30h-1.052l-.288-.848h.967l-.087-.254c-.087-.255-.156-.509-.22-.747h-1l-.288-.848h1.12a3.971,3.971,0,0,1,.418-2.867,3.1,3.1,0,0,1,2.865-1.409,6.074,6.074,0,0,1,2.458.543l.041,1.12a5,5,0,0,0-2.062-.475,2.139,2.139,0,0,0-1.945.917,3.256,3.256,0,0,0-.264,2.172h4.734l.288.848h-4.887a5.418,5.418,0,0,0,.208.713l.1.289h4.92l.288.848h-4.8a6.1,6.1,0,0,0,1.688,2.223,4.371,4.371,0,0,0,2.727.984,3.206,3.206,0,0,0,1.88-.56Z" transform="translate(-69.252 -13.31)" fill="#fff"/>
    </g>
  </g>
</svg>
