<svg id="Groupe_1847" data-name="Groupe 1847" xmlns="http://www.w3.org/2000/svg" xmlns:xlink="http://www.w3.org/1999/xlink" width="326.087" height="165.904" viewBox="0 0 326.087 165.904">
  <defs>
    <clipPath id="clip-path">
      <rect id="Rectangle_723" data-name="Rectangle 723" width="217.075" height="141.927" fill="none"/>
    </clipPath>
    <clipPath id="clip-path-2">
      <rect id="Rectangle_792" data-name="Rectangle 792" width="326.087" height="165.904" fill="none"/>
    </clipPath>
    <clipPath id="clip-path-4">
      <path id="Tracé_392" data-name="Tracé 392" d="M336.8,0c-.623,0-1.258.012-1.892.03C291.449,1.275,291.088,27,271.332,35.779c-9.791,4.351-29.086,24.251-35.459,55.682s34.939,50.466,34.939,50.466l152.164-1.136c9.925-7.27,20.39-13.206,25.572-25.241,4.277-9.934,4.538-21.6,2.492-31.889-4.488-22.569-22.07-39.127-43.153-44.645C396.983,36.163,379.029.129,337.248,0Z" transform="translate(-235.204 -0.001)" fill="none"/>
    </clipPath>
    <clipPath id="clip-path-5">
      <rect id="Rectangle_729" data-name="Rectangle 729" width="75.984" height="45.399" fill="none"/>
    </clipPath>
    <clipPath id="clip-path-6">
      <rect id="Rectangle_731" data-name="Rectangle 731" width="30.915" height="18.472" fill="none"/>
    </clipPath>
    <clipPath id="clip-path-7">
      <rect id="Rectangle_732" data-name="Rectangle 732" width="120.987" height="37.645" fill="none"/>
    </clipPath>
    <clipPath id="clip-path-8">
      <rect id="Rectangle_738" data-name="Rectangle 738" width="30.915" height="8.051" fill="none"/>
    </clipPath>
    <clipPath id="clip-path-9">
      <rect id="Rectangle_756" data-name="Rectangle 756" width="0.963" height="0.824" fill="none"/>
    </clipPath>
    <clipPath id="clip-path-12">
      <rect id="Rectangle_762" data-name="Rectangle 762" width="0.963" height="0.826" fill="none"/>
    </clipPath>
  </defs>
  <g id="Groupe_1741" data-name="Groupe 1741" transform="translate(109.013 1.512)" opacity="0.236" style="mix-blend-mode: luminosity;isolation: isolate">
    <g id="Groupe_1740" data-name="Groupe 1740" transform="translate(0)" clip-path="url(#clip-path)">
      <path id="Tracé_330" data-name="Tracé 330" d="M98.479,54.45c.229,6.965-9.2,9.886-14.559,11.055-7.925,1.729-17.32,1.287-24-3.765-3.7-2.8-4.061-9.156-.306-12.115,2.5-1.97,6.072.438,5.845,1.49a16.257,16.257,0,0,1,2.457-6.381c2.059-2.758,5.69-3.483,8.915-2.693a14.779,14.779,0,0,1,7.7,5.246,11.1,11.1,0,0,0,1.168-.375c5.426-1.574,12.57,1.127,12.781,7.538" transform="translate(-30.565 -22.395)" fill="#e1f1ff"/>
      <path id="Tracé_331" data-name="Tracé 331" d="M35.607,141.927S-5.7,122.892.668,91.46,32.644,55.706,42.436,51.355C62.191,42.577,56.245,1.275,99.7.031s61.876,36.08,72.981,38.986c21.083,5.518,38.664,22.076,43.153,44.645,2.046,10.289,1.785,21.955-2.492,31.889-5.182,12.035-15.647,17.971-25.572,25.24Z" transform="translate(0 0)" fill="#e1f1ff"/>
      <path id="Tracé_332" data-name="Tracé 332" d="M127.91,15.559c.229,6.965-9.2,9.886-14.559,11.055-7.925,1.729-17.32,1.287-24-3.765-3.7-2.8-4.061-9.156-.306-12.114,2.5-1.97,6.072.437,5.845,1.489a16.252,16.252,0,0,1,2.457-6.38c2.059-2.759,5.69-3.483,8.915-2.693a14.773,14.773,0,0,1,7.7,5.245,11.066,11.066,0,0,0,1.168-.375c5.426-1.574,12.57,1.127,12.781,7.538" transform="translate(-46.355 -1.529)" fill="#e1f1ff"/>
    </g>
  </g>
  <g id="Groupe_1779" data-name="Groupe 1779" transform="translate(0)">
    <g id="Groupe_1778" data-name="Groupe 1778" clip-path="url(#clip-path-2)">
      <g id="Groupe_1743" data-name="Groupe 1743">
        <g id="Groupe_1742" data-name="Groupe 1742" clip-path="url(#clip-path-2)">
          <path id="Tracé_333" data-name="Tracé 333" d="M489.612,262.245a6.021,6.021,0,0,1-1.563,1.371,7.9,7.9,0,0,1-6.451.513,2.065,2.065,0,0,0-.953-.183,1.968,1.968,0,0,0-.664.322,5.433,5.433,0,0,1-6.405-.65c-1.244,1.355-3.345,1.552-5.135,1.129a6.1,6.1,0,0,1-4.009-2.716c-.864-1.548-.62-4.355,1.158-5.185a5.212,5.212,0,0,1-1.973-4.985,3.924,3.924,0,0,1,4.093-3.1,4.956,4.956,0,0,1,1.559-5.444q.17-.134.352-.25a4.937,4.937,0,0,1,5.97.66,3.856,3.856,0,0,1,6.683,1.117,4.36,4.36,0,0,1,5.813,4.848,3.62,3.62,0,0,1,1.858,4.917A6.381,6.381,0,0,1,491,257.939a6.522,6.522,0,0,1-1.383,4.305" transform="translate(-248.69 -129.97)" fill="#aeb83c"/>
          <path id="Tracé_334" data-name="Tracé 334" d="M488.724,251.092a5.706,5.706,0,0,0,.634,1.936,3.712,3.712,0,0,0,1.3,1.4,2.918,2.918,0,0,0,1.761.4,2.314,2.314,0,0,0,1.554-.741l.755-.872-.042,1.139a2.541,2.541,0,0,0,1.375,2.2,3.448,3.448,0,0,0,1.4.391,4.853,4.853,0,0,0,1.531-.151,3.778,3.778,0,0,1-1.523.507,3.456,3.456,0,0,1-1.655-.212,3.143,3.143,0,0,1-1.364-1.061,2.832,2.832,0,0,1-.574-1.687l.714.267a2.747,2.747,0,0,1-.963.736,3.3,3.3,0,0,1-1.151.281,3.42,3.42,0,0,1-2.208-.628,3.881,3.881,0,0,1-1.314-1.791,4.4,4.4,0,0,1-.232-2.119" transform="translate(-262.188 -134.716)" fill="#9ea836"/>
          <path id="Tracé_335" data-name="Tracé 335" d="M482.317,268.87a2.783,2.783,0,0,0,.962.507,4.861,4.861,0,0,0,.985.205,5.5,5.5,0,0,0,1.017.011,8.663,8.663,0,0,0,1.117-.171,1.961,1.961,0,0,1-.955.8,2.574,2.574,0,0,1-1.265.181,2.5,2.5,0,0,1-1.2-.456,1.469,1.469,0,0,1-.656-1.075" transform="translate(-258.773 -144.254)" fill="#9ea836"/>
          <path id="Tracé_336" data-name="Tracé 336" d="M498.013,272.325a2.9,2.9,0,0,0,1.4.637,8.325,8.325,0,0,0,1.511.166,8.963,8.963,0,0,0,1.524-.107,14.219,14.219,0,0,0,1.577-.351,3.5,3.5,0,0,1-1.4.974,4.44,4.44,0,0,1-1.712.307,4.362,4.362,0,0,1-1.7-.379,2.7,2.7,0,0,1-.743-.495,1.532,1.532,0,0,1-.448-.752" transform="translate(-267.194 -146.108)" fill="#9ea836"/>
          <path id="Tracé_337" data-name="Tracé 337" d="M488.049,264.853a7.9,7.9,0,0,1-6.451.513,2.071,2.071,0,0,0-.954-.183,1.96,1.96,0,0,0-.664.322,5.431,5.431,0,0,1-6.4-.65c-1.244,1.355-3.346,1.552-5.136,1.129a6.1,6.1,0,0,1-4.009-2.716c-.864-1.548-.62-4.354,1.158-5.185a5.21,5.21,0,0,1-1.973-4.985,3.923,3.923,0,0,1,4.093-3.1,4.957,4.957,0,0,1,1.56-5.444c-.7,2.263-.93,4.7.8,6.6a2.2,2.2,0,0,0-2.257.229,3.5,3.5,0,0,0-1.268,1.973,4.038,4.038,0,0,0,.256,2.906,2.91,2.91,0,0,0,2.374,1.58,3.71,3.71,0,0,0,.192,4.6,3.067,3.067,0,0,0,4.415-.073,4.178,4.178,0,0,0,6.5.256,6.627,6.627,0,0,0,4.085,2.316,10.192,10.192,0,0,0,3.68-.082" transform="translate(-248.69 -131.208)" fill="#9ea836"/>
          <path id="Tracé_338" data-name="Tracé 338" d="M644.21,248.765h-6.023l.022-.552,1.23-32.823.538-14.36h2.445l.554,14.816.258,6.822Z" transform="translate(-342.4 -107.857)" fill="#b16f2b"/>
          <path id="Tracé_339" data-name="Tracé 339" d="M643.259,239.049a7.656,7.656,0,0,0-2.426,4.407,40.039,40.039,0,0,0-.73,8.71q0,5.553.406,11.1c-.765.417-1.545.845-2.275,1.331l1.23-32.823a4.258,4.258,0,0,1,2.876.082,2.969,2.969,0,0,1,.661.373Z" transform="translate(-342.426 -124.238)" fill="#9d580b"/>
          <path id="Tracé_340" data-name="Tracé 340" d="M637.576,107.777a13.508,13.508,0,0,1,.958,9.448,12.306,12.306,0,0,1-9.522,8.433,10.646,10.646,0,0,1-7.431,6.871,10.633,10.633,0,0,1-9.764-2.681,10.682,10.682,0,0,1-9.223,2.527c-4.544-.95-9.258-5.873-8.63-10.743-.074.568-3.455-1.191-3.716-1.394a12.807,12.807,0,0,1-4.276-8.318c-.178-1.811.341-8.134,2.53-8.916-3.8-4.383-5.318-11.13-2.728-16.476.178-.365,2.8-4.75,3.019-4.44a13.611,13.611,0,0,1,1.863-17.362,10.649,10.649,0,0,1,.406-10.161,11.429,11.429,0,0,1,7.719-4.931c-.738.146.376-4.945.538-5.326a16.128,16.128,0,0,1,3.06-4.635,12.9,12.9,0,0,1,9.012-4.423,11.019,11.019,0,0,1,8.139,3.943c1.916,2.179,4.152,6.111,3.595,9.163a6.072,6.072,0,0,1,5.911.977,9.715,9.715,0,0,1,3.243,5.25c.8,2.994.326,6.69-2.259,8.405,3.636.389,6.46,3.877,6.765,7.521s-1.531,7.228-4.2,9.731c4.328,1.57,7.049,6.263,7.088,10.867s-2.255,9-5.452,12.308c.741-.768,3.115,3.861,3.353,4.363" transform="translate(-313.588 -18.912)" fill="#aeb83c"/>
          <path id="Tracé_341" data-name="Tracé 341" d="M655.587,65.965a5.234,5.234,0,0,0-2.834.927,6.569,6.569,0,0,0-1.1.973,8.02,8.02,0,0,0-.9,1.177,12.417,12.417,0,0,0-1.9,5.725,6.922,6.922,0,0,1-.014-3.18,8.827,8.827,0,0,1,1.219-2.992,7.947,7.947,0,0,1,1.035-1.272,5.843,5.843,0,0,1,1.33-.98,4.54,4.54,0,0,1,1.566-.506,3.977,3.977,0,0,1,1.6.127" transform="translate(-348.02 -35.308)" fill="#9ea836"/>
          <path id="Tracé_342" data-name="Tracé 342" d="M661.558,97.08a18.582,18.582,0,0,0-1.974.918,13.539,13.539,0,0,0-1.769,1.149,13.73,13.73,0,0,0-1.568,1.41,18.922,18.922,0,0,0-1.4,1.668,5.678,5.678,0,0,1,.895-2.073,7.256,7.256,0,0,1,3.582-2.745,5.712,5.712,0,0,1,2.234-.327" transform="translate(-351.339 -52.079)" fill="#9ea836"/>
          <path id="Tracé_343" data-name="Tracé 343" d="M616.3,104.518a6.336,6.336,0,0,1,2.656-.124,7.974,7.974,0,0,1,4.68,2.521,6.311,6.311,0,0,1,1.356,2.288,14.778,14.778,0,0,0-1.8-1.826,12.441,12.441,0,0,0-4.372-2.358,14.672,14.672,0,0,0-2.517-.5" transform="translate(-330.658 -55.964)" fill="#9ea836"/>
          <path id="Tracé_344" data-name="Tracé 344" d="M627.272,70.356a6.376,6.376,0,0,1,2.358.626,8.029,8.029,0,0,1,3.552,3.341,6.344,6.344,0,0,1,.768,2.316,19.166,19.166,0,0,0-1.31-1.962,14.267,14.267,0,0,0-3.329-3.133,18.929,18.929,0,0,0-2.039-1.187" transform="translate(-336.544 -37.747)" fill="#9ea836"/>
          <path id="Tracé_345" data-name="Tracé 345" d="M647.358,134.656c.787.281,1.55.545,2.322.761a21.049,21.049,0,0,0,2.332.5,21.275,21.275,0,0,0,2.375.227c.8.029,1.607.009,2.443-.019a7.505,7.505,0,0,1-2.418.661,9.585,9.585,0,0,1-4.95-.77,7.541,7.541,0,0,1-2.1-1.362" transform="translate(-347.321 -72.246)" fill="#9ea836"/>
          <path id="Tracé_346" data-name="Tracé 346" d="M625.63,138.012a4.566,4.566,0,0,1,1.8.15,5.979,5.979,0,0,1,3.01,1.97,4.546,4.546,0,0,1,.856,1.589c-.456-.4-.875-.781-1.315-1.133a16.617,16.617,0,0,0-1.345-.984,16.248,16.248,0,0,0-1.439-.84c-.5-.264-1.017-.495-1.565-.752" transform="translate(-335.663 -74.028)" fill="#9ea836"/>
          <path id="Tracé_347" data-name="Tracé 347" d="M654.225,167.415a6.462,6.462,0,0,0,.8,1.689,6.28,6.28,0,0,0,1.233,1.335,8.841,8.841,0,0,0,1.527.987,12.647,12.647,0,0,0,1.689.73c.578.217,1.174.395,1.777.554s1.212.3,1.825.444c1.229.27,2.476.493,3.726.776a23.086,23.086,0,0,1-3.833-.143c-.639-.069-1.272-.189-1.9-.32a16.729,16.729,0,0,1-1.87-.538,11.994,11.994,0,0,1-1.784-.822,7.762,7.762,0,0,1-1.582-1.194,5.647,5.647,0,0,1-1.154-1.612,4.907,4.907,0,0,1-.453-1.886" transform="translate(-351.005 -89.822)" fill="#9ea836"/>
          <path id="Tracé_348" data-name="Tracé 348" d="M634.406,206.684a23.892,23.892,0,0,0,2.083-1.8,17.749,17.749,0,0,0,3.205-4.3,24.058,24.058,0,0,0,1.128-2.509,8.088,8.088,0,0,1-.542,2.772,10.126,10.126,0,0,1-3.375,4.527,8.128,8.128,0,0,1-2.5,1.313" transform="translate(-340.372 -106.27)" fill="#9ea836"/>
          <path id="Tracé_349" data-name="Tracé 349" d="M655.749,210.911a17.011,17.011,0,0,0,1.6,1.895,13.536,13.536,0,0,0,3.938,2.747,17.246,17.246,0,0,0,2.329.846,6.379,6.379,0,0,1-2.552-.244,8.078,8.078,0,0,1-4.2-2.934,6.4,6.4,0,0,1-1.111-2.31" transform="translate(-351.823 -113.158)" fill="#9ea836"/>
          <path id="Tracé_350" data-name="Tracé 350" d="M625.723,167.064c.542-.29,1.047-.564,1.522-.877a12.086,12.086,0,0,0,1.345-1.01,12.257,12.257,0,0,0,1.192-1.187c.378-.425.723-.885,1.088-1.379a4.229,4.229,0,0,1-.558,1.752,5.536,5.536,0,0,1-2.776,2.4,4.241,4.241,0,0,1-1.813.3" transform="translate(-335.713 -87.244)" fill="#9ea836"/>
          <path id="Tracé_351" data-name="Tracé 351" d="M626.018,135.287a10.4,10.4,0,0,1-4.437,2.363,10.632,10.632,0,0,1-9.764-2.681,10.678,10.678,0,0,1-9.223,2.527c-4.544-.95-9.259-5.872-8.63-10.743-.074.568-3.455-1.191-3.716-1.394a12.807,12.807,0,0,1-4.275-8.318c-.178-1.811.34-8.134,2.53-8.916-3.8-4.382-5.318-11.13-2.728-16.476.178-.365,2.8-4.75,3.019-4.44a13.61,13.61,0,0,1,1.863-17.362,10.65,10.65,0,0,1,.406-10.162,11.425,11.425,0,0,1,7.719-4.931c-.738.146.376-4.945.538-5.326a16.134,16.134,0,0,1,3.06-4.635,15.952,15.952,0,0,0-1.207,4.72c-.038.48.3,5.628.615,5.628-3.367,1.287-6.534,3.509-8.1,6.753s-1.128,7.593,1.643,9.9a10.563,10.563,0,0,0,1.51,16.421c-2.522,2.772-4.682,6.13-4.907,9.87s2.037,7.813,5.7,8.6a16.429,16.429,0,0,0-2,12.318c1.133,4.116,4.659,7.673,8.9,8.136a5.141,5.141,0,0,0,7.892,5.365,13.685,13.685,0,0,0,13.584,2.783" transform="translate(-313.588 -24.032)" fill="#9ea836"/>
          <path id="Tracé_352" data-name="Tracé 352" d="M600.862,273.837a5.823,5.823,0,0,1-1.515,1.328,7.653,7.653,0,0,1-6.252.5,2.013,2.013,0,0,0-.925-.177,1.894,1.894,0,0,0-.643.312,5.264,5.264,0,0,1-6.208-.629,5.153,5.153,0,0,1-4.977,1.093,5.914,5.914,0,0,1-3.885-2.632c-.837-1.5-.6-4.22,1.123-5.026a5.049,5.049,0,0,1-1.912-4.831,3.8,3.8,0,0,1,3.966-3.006,4.8,4.8,0,0,1,1.512-5.276,4.155,4.155,0,0,1,.341-.242,4.784,4.784,0,0,1,5.786.639,3.737,3.737,0,0,1,6.477,1.082,4.226,4.226,0,0,1,5.634,4.7,3.508,3.508,0,0,1,1.8,4.765,6.189,6.189,0,0,1,1.019,3.231,6.325,6.325,0,0,1-1.34,4.173" transform="translate(-308.809 -136.521)" fill="#aeb83c"/>
          <path id="Tracé_353" data-name="Tracé 353" d="M600,263.028a5.555,5.555,0,0,0,.621,1.874,3.592,3.592,0,0,0,1.26,1.35,2.821,2.821,0,0,0,1.7.388,2.236,2.236,0,0,0,1.5-.714l.757-.872-.043,1.139a2.455,2.455,0,0,0,1.324,2.125,3.348,3.348,0,0,0,1.354.381,4.744,4.744,0,0,0,1.484-.14,3.651,3.651,0,0,1-1.476.5,3.349,3.349,0,0,1-1.608-.2,3.048,3.048,0,0,1-1.327-1.03,2.752,2.752,0,0,1-.559-1.641l.714.267a2.675,2.675,0,0,1-.938.717,3.209,3.209,0,0,1-1.12.273,3.323,3.323,0,0,1-2.148-.612,3.766,3.766,0,0,1-1.273-1.742,4.254,4.254,0,0,1-.218-2.056" transform="translate(-321.888 -141.12)" fill="#9ea836"/>
          <path id="Tracé_354" data-name="Tracé 354" d="M593.791,280.258a2.732,2.732,0,0,0,.937.483,4.84,4.84,0,0,0,.951.2,5.539,5.539,0,0,0,.982.013,8.67,8.67,0,0,0,1.085-.157,1.888,1.888,0,0,1-.923.783,2.482,2.482,0,0,1-1.23.178,2.407,2.407,0,0,1-1.171-.446,1.419,1.419,0,0,1-.631-1.051" transform="translate(-318.581 -150.364)" fill="#9ea836"/>
          <path id="Tracé_355" data-name="Tracé 355" d="M609,283.606a2.827,2.827,0,0,0,1.36.608,8.242,8.242,0,0,0,1.461.159,8.9,8.9,0,0,0,1.474-.1,14.534,14.534,0,0,0,1.531-.33,3.368,3.368,0,0,1-1.358.953,4.281,4.281,0,0,1-1.662.3,4.2,4.2,0,0,1-1.655-.371,2.6,2.6,0,0,1-.72-.483,1.479,1.479,0,0,1-.431-.735" transform="translate(-326.743 -152.16)" fill="#9ea836"/>
          <path id="Tracé_356" data-name="Tracé 356" d="M599.347,276.365a7.655,7.655,0,0,1-6.252.5,2,2,0,0,0-.924-.177,1.9,1.9,0,0,0-.643.312,5.265,5.265,0,0,1-6.207-.63,5.153,5.153,0,0,1-4.977,1.094,5.914,5.914,0,0,1-3.886-2.632c-.837-1.5-.6-4.22,1.123-5.026a5.05,5.05,0,0,1-1.912-4.831,3.8,3.8,0,0,1,3.966-3.006,4.8,4.8,0,0,1,1.511-5.276c-.682,2.193-.9,4.554.778,6.392a2.136,2.136,0,0,0-2.187.222,3.4,3.4,0,0,0-1.229,1.912,3.915,3.915,0,0,0,.248,2.817,2.821,2.821,0,0,0,2.3,1.531,3.6,3.6,0,0,0,.187,4.457,2.972,2.972,0,0,0,4.278-.071,4.049,4.049,0,0,0,6.3.248,6.42,6.42,0,0,0,3.959,2.245,9.869,9.869,0,0,0,3.566-.079" transform="translate(-308.81 -137.72)" fill="#9ea836"/>
          <path id="Tracé_357" data-name="Tracé 357" d="M442.587,309.439c-.384,15.194-141.233,7.84-151.078,5.732s1.177-6.918,10.971-11.676-22.156-5.332-35.707-10.057a5.759,5.759,0,0,1-1.158-.521c-7.058-4.456,61.367-7.719,87.1-7.911,0,0,5.546-.041,13.888.016,25.254.167,88.1,1.235,88.167,7.086,1.054,5.779-29.127,4.314-28.789,8.134s16.2,2.431,16.607,9.2" transform="translate(-142.235 -152.903)" fill="#c1cb44"/>
          <path id="Tracé_358" data-name="Tracé 358" d="M372.3,287.617c0,3.567-30.372,6.462-67.841,6.462-14.45,0-27.845-.431-38.846-1.163-7.058-4.456,61.367-7.719,87.1-7.912,0,0,5.546-.041,13.888.017,3.666.793,5.7,1.671,5.7,2.6" transform="translate(-142.235 -152.903)" fill="#b2bd2e"/>
          <path id="Tracé_359" data-name="Tracé 359" d="M498.514,331.887c0,2.018-15.377,3.654-34.345,3.654s-34.345-1.636-34.345-3.654,15.376-3.654,34.345-3.654,34.345,1.636,34.345,3.654" transform="translate(-230.61 -176.104)" fill="#b2bd2e"/>
        </g>
      </g>
      <g id="Groupe_1775" data-name="Groupe 1775" transform="translate(109.012 0)">
        <g id="Groupe_1774" data-name="Groupe 1774" clip-path="url(#clip-path-4)">
          <path id="Tracé_360" data-name="Tracé 360" d="M515.274,252.456a1.55,1.55,0,0,0-1.972-1.249,1.994,1.994,0,0,0-.04-3.789,2.119,2.119,0,0,0-.521-3.308,2.183,2.183,0,0,0-1.247-3.573,2.113,2.113,0,0,0-1.283-3.782,1.9,1.9,0,0,0-.634-3.535,1.475,1.475,0,0,0-.517-2.722c.671-.138.734-1.123.384-1.713s-.939-1.054-1.1-1.721c-.1-.438,0-.9-.1-1.345s-.681-1.294-1.092-1.108c-.587.381-.542,1.369-.393,2.241a1.408,1.408,0,0,0-.889,1.158,1.434,1.434,0,0,0-.9,1.339,1.453,1.453,0,0,0,.425,1.03,1.416,1.416,0,0,0-.387,2.522.781.781,0,0,0-.7.729,13.586,13.586,0,0,0,.2,1.356c0,.054-.02.1-.024.155a1.414,1.414,0,0,0-1.288,1.419,1.432,1.432,0,0,0,.225.737,1.453,1.453,0,0,0-.431,1.034,1.437,1.437,0,0,0,.2.7.957.957,0,0,0,.5.578c-.546-.107-1.036.456-1.071,1.011a2.965,2.965,0,0,0,.509,1.563,1.109,1.109,0,0,0-1.541.227,1.724,1.724,0,0,0-.147,1.663,4.084,4.084,0,0,0,1.04,1.387.785.785,0,0,0-.862,1.311,1.624,1.624,0,0,0-1.372,1.252,1.686,1.686,0,0,0,.725,1.685,1.034,1.034,0,0,0-.24,1.906,1.3,1.3,0,0,0-1.173,2.2,2.923,2.923,0,0,0,.453.382H514.4a.777.777,0,0,0-.312-.165,1.559,1.559,0,0,0,1.183-1.573" transform="translate(-376.84 -120.495)" fill="#156836"/>
          <path id="Tracé_361" data-name="Tracé 361" d="M512.99,267.328a1.239,1.239,0,0,0,.216-.17,1.218,1.218,0,0,0,.115-1.489,1.057,1.057,0,0,0-1.432-.243,1.633,1.633,0,0,0-.724-3.162,1.416,1.416,0,1,0-.673-2.751,1.776,1.776,0,0,0-.449-3.289,1.286,1.286,0,0,0-.3-2.4,1.591,1.591,0,0,0-.384-2.777,2.52,2.52,0,0,0,.226-1.2.863.863,0,0,0-.8-.783c-.48.024-.762.58-.752,1.06s.206.941.221,1.421a1.605,1.605,0,0,0-.95,1.735,4.685,4.685,0,0,0,.863,1.943c-.723-.072-1.317.674-1.359,1.4a4.094,4.094,0,0,0,.636,2.057,1.233,1.233,0,0,0-1.056,2.18,1.545,1.545,0,0,0-.971,2.645,1.42,1.42,0,0,0-1.034,2.61c-.591,0-.869.6-.757,1.169Z" transform="translate(-379.204 -133.629)" fill="#258946"/>
          <path id="Tracé_362" data-name="Tracé 362" d="M475.528,252.456a1.55,1.55,0,0,0-1.971-1.249,1.994,1.994,0,0,0-.041-3.789A2.119,2.119,0,0,0,473,244.11a2.184,2.184,0,0,0-1.247-3.573,2.113,2.113,0,0,0-1.283-3.782,1.9,1.9,0,0,0-.633-3.535,1.475,1.475,0,0,0-.517-2.722c.672-.138.734-1.123.385-1.713s-.94-1.054-1.1-1.721c-.1-.438-.005-.9-.1-1.345s-.682-1.294-1.092-1.108c-.587.381-.542,1.369-.393,2.241a1.41,1.41,0,0,0-.89,1.158,1.434,1.434,0,0,0-.9,1.339,1.453,1.453,0,0,0,.426,1.03,1.416,1.416,0,0,0-.387,2.522.781.781,0,0,0-.7.729c-.031.457.184.9.2,1.356,0,.054-.02.1-.023.155a1.414,1.414,0,0,0-1.288,1.419,1.433,1.433,0,0,0,.225.737,1.451,1.451,0,0,0-.431,1.034,1.433,1.433,0,0,0,.2.7.956.956,0,0,0,.5.578c-.546-.107-1.035.456-1.07,1.011a2.966,2.966,0,0,0,.51,1.563,1.109,1.109,0,0,0-1.541.227,1.722,1.722,0,0,0-.147,1.663,4.083,4.083,0,0,0,1.041,1.387.785.785,0,0,0-.862,1.311,1.624,1.624,0,0,0-1.372,1.252,1.685,1.685,0,0,0,.725,1.685,1.034,1.034,0,0,0-.24,1.906,1.3,1.3,0,0,0-1.173,2.2,2.9,2.9,0,0,0,.453.382h14.384a.777.777,0,0,0-.312-.165,1.558,1.558,0,0,0,1.182-1.573" transform="translate(-355.516 -120.495)" fill="#156836"/>
          <path id="Tracé_363" data-name="Tracé 363" d="M473.244,267.328a1.239,1.239,0,0,0,.216-.17,1.218,1.218,0,0,0,.115-1.489,1.056,1.056,0,0,0-1.431-.243,1.633,1.633,0,0,0-.724-3.162,1.416,1.416,0,1,0-.673-2.751,1.776,1.776,0,0,0-.449-3.289,1.286,1.286,0,0,0-.3-2.4,1.592,1.592,0,0,0-.384-2.777,2.519,2.519,0,0,0,.226-1.2.863.863,0,0,0-.8-.783c-.48.024-.762.58-.752,1.06s.206.941.22,1.421a1.606,1.606,0,0,0-.949,1.735,4.686,4.686,0,0,0,.863,1.943c-.723-.072-1.317.674-1.359,1.4a4.09,4.09,0,0,0,.636,2.057,1.233,1.233,0,0,0-1.056,2.18,1.544,1.544,0,0,0-.971,2.645,1.42,1.42,0,0,0-1.034,2.61c-.591,0-.869.6-.757,1.169Z" transform="translate(-357.879 -133.629)" fill="#258946"/>
          <rect id="Rectangle_725" data-name="Rectangle 725" width="1.237" height="6.461" transform="translate(70.253 38.172)" fill="#5e312b"/>
          <rect id="Rectangle_726" data-name="Rectangle 726" width="1.237" height="6.461" transform="translate(59.805 38.172)" fill="#5e312b"/>
          <rect id="Rectangle_727" data-name="Rectangle 727" width="16.084" height="23.714" transform="translate(57.606 42.228)" fill="#a33c2b"/>
          <rect id="Rectangle_728" data-name="Rectangle 728" width="16.084" height="2.131" transform="translate(57.606 36.798)" fill="#5e312b"/>
          <path id="Tracé_364" data-name="Tracé 364" d="M454.234,201.573v32.466H425.661c.066-5.609.363-31.443.462-42.661.033-1.584.033-2.87.033-3.762.033-.825.033-1.32.033-1.419Z" transform="translate(-337.388 -99.899)" fill="#f7c896"/>
          <g id="Groupe_1746" data-name="Groupe 1746" transform="translate(40.862 61.818)" opacity="0.85" style="mix-blend-mode: multiply;isolation: isolate">
            <g id="Groupe_1745" data-name="Groupe 1745">
              <g id="Groupe_1744" data-name="Groupe 1744" clip-path="url(#clip-path-5)">
                <path id="Tracé_365" data-name="Tracé 365" d="M399.351,174.983v3.795L371.24,163.039l-47.873-26.791,1.617-2.87,46.29,25.9Z" transform="translate(-323.367 -133.378)" fill="#b7b7b7"/>
              </g>
            </g>
          </g>
          <rect id="Rectangle_730" data-name="Rectangle 730" width="3.299" height="91.832" transform="translate(40.853 61.671) rotate(-60.781)" fill="#ba543f"/>
          <path id="Tracé_366" data-name="Tracé 366" d="M291.517,113.112v64.9H170.53v-64.9l58.86-31.344,1.221.627,8.446,4.256Z" transform="translate(-200.505 -43.871)" fill="#f7ebc1"/>
          <path id="Tracé_367" data-name="Tracé 367" d="M229.35,129.819V203.79H198.435v-58.7Z" transform="translate(-215.477 -69.651)" fill="#f3bbaa"/>
          <path id="Tracé_368" data-name="Tracé 368" d="M229.35,129.819V203.79H198.435v-58.7Z" transform="translate(-215.477 -69.651)" fill="#f7c896"/>
          <g id="Groupe_1749" data-name="Groupe 1749" transform="translate(-17.042 60.168)" opacity="0.85" style="mix-blend-mode: multiply;isolation: isolate">
            <g id="Groupe_1748" data-name="Groupe 1748">
              <g id="Groupe_1747" data-name="Groupe 1747" clip-path="url(#clip-path-6)">
                <path id="Tracé_369" data-name="Tracé 369" d="M198.435,145.1v3.2l30.915-15.276v-3.2Z" transform="translate(-198.435 -129.819)" fill="#b7b7b7"/>
              </g>
            </g>
          </g>
          <path id="Tracé_370" data-name="Tracé 370" d="M227.187,77.915,223.821,79.8l-65.129,36.425-1.617-2.9,63.347-35.4,3.4-1.914Z" transform="translate(-193.287 -40.777)" fill="#ba543f"/>
          <path id="Tracé_371" data-name="Tracé 371" d="M363.865,113.317l-1.617,2.9L297.152,79.8l-3.4-1.88,3.4-1.914,3.365,1.914Z" transform="translate(-266.617 -40.777)" fill="#ba543f"/>
          <g id="Groupe_1752" data-name="Groupe 1752" transform="translate(-29.975 38.26)" opacity="0.85" style="mix-blend-mode: multiply;isolation: isolate">
            <g id="Groupe_1751" data-name="Groupe 1751">
              <g id="Groupe_1750" data-name="Groupe 1750" clip-path="url(#clip-path-7)">
                <path id="Tracé_372" data-name="Tracé 372" d="M291.517,116.369V120.2L231.04,86.346,170.53,120.2v-3.827l57.112-31.9,2.969-1.65.429-.264,3.366,1.914,4.652,2.607Z" transform="translate(-170.53 -82.551)" fill="#b7b7b7"/>
              </g>
            </g>
          </g>
          <path id="Tracé_373" data-name="Tracé 373" d="M227.187,77.915,223.821,79.8l-65.129,36.425-1.617-2.9,63.347-35.4,3.4-1.914Z" transform="translate(-193.287 -40.777)" fill="#ba543f"/>
          <path id="Tracé_374" data-name="Tracé 374" d="M363.865,113.317l-1.617,2.9L297.152,79.8l-3.4-1.88,3.4-1.914,3.365,1.914Z" transform="translate(-266.617 -40.777)" fill="#ba543f"/>
          <rect id="Rectangle_733" data-name="Rectangle 733" width="35.88" height="3.712" transform="translate(-19.525 94.811)" fill="#ba543f"/>
          <rect id="Rectangle_734" data-name="Rectangle 734" width="20.209" height="32.845" transform="translate(-11.689 100.733)" fill="#efb078"/>
          <rect id="Rectangle_735" data-name="Rectangle 735" width="15.688" height="30.153" transform="translate(-9.429 103.425)" fill="#db8f52"/>
          <rect id="Rectangle_736" data-name="Rectangle 736" width="11.701" height="27.632" transform="translate(-7.435 106.084)" fill="#7a352c"/>
          <path id="Tracé_375" data-name="Tracé 375" d="M220.193,229.814h10.67v-.928h-11.7v27.632h1.031Z" transform="translate(-226.597 -122.803)" fill="#682a26"/>
          <g id="Groupe_1755" data-name="Groupe 1755" transform="translate(-17.042 98.11)" style="mix-blend-mode: multiply;isolation: isolate">
            <g id="Groupe_1754" data-name="Groupe 1754">
              <g id="Groupe_1753" data-name="Groupe 1753" clip-path="url(#clip-path-8)">
                <rect id="Rectangle_737" data-name="Rectangle 737" width="30.915" height="8.05" transform="translate(0 0)" fill="#ba948e"/>
              </g>
            </g>
          </g>
          <rect id="Rectangle_739" data-name="Rectangle 739" width="24.126" height="2.165" transform="translate(-13.948 127.855)" fill="#efdb9e"/>
          <rect id="Rectangle_740" data-name="Rectangle 740" width="26.261" height="2.165" transform="translate(-15.016 129.917)" fill="#efdfb1"/>
          <rect id="Rectangle_741" data-name="Rectangle 741" width="28.357" height="2.165" transform="translate(-16.064 131.974)" fill="#f7ebc1"/>
          <rect id="Rectangle_742" data-name="Rectangle 742" width="3.101" height="11.977" transform="translate(-1.04 107.315)" fill="#648d93"/>
          <path id="Tracé_376" data-name="Tracé 376" d="M236.062,231.544v4.421l-3.1,3.134v-4.652l2.9-2.9Z" transform="translate(-234 -124.229)" fill="#7db3b7"/>
          <path id="Tracé_377" data-name="Tracé 377" d="M233.361,231.944h2.705v-.388h-3.093v11.96h.388Z" transform="translate(-234.007 -124.235)" fill="#3b7175"/>
          <rect id="Rectangle_743" data-name="Rectangle 743" width="14.022" height="21.308" transform="translate(-8.595 74.327)" fill="#7a352c"/>
          <rect id="Rectangle_744" data-name="Rectangle 744" width="11.845" height="20.126" transform="translate(-7.507 75.51)" fill="#648d93"/>
          <path id="Tracé_378" data-name="Tracé 378" d="M230.852,162.92v2.31l-11.845,11.845v-4.652l9.5-9.5Z" transform="translate(-226.514 -87.411)" fill="#7db3b7"/>
          <path id="Tracé_379" data-name="Tracé 379" d="M219.856,163.441h11v-.55H219.031v20.14h.825Z" transform="translate(-226.527 -87.394)" fill="#3b7175"/>
          <path id="Tracé_380" data-name="Tracé 380" d="M217.621,161.332h13.06v-.962H216.659v21.308h.962Z" transform="translate(-225.254 -86.042)" fill="#682a26"/>
          <rect id="Rectangle_745" data-name="Rectangle 745" width="35.88" height="3.712" transform="translate(-19.525 94.811)" fill="#ba543f"/>
          <rect id="Rectangle_746" data-name="Rectangle 746" width="12.785" height="19.796" transform="translate(97.301 106.462)" fill="#7a352c"/>
          <rect id="Rectangle_747" data-name="Rectangle 747" width="11.053" height="18.476" transform="translate(98.171 107.118)" fill="#648d93"/>
          <path id="Tracé_381" data-name="Tracé 381" d="M458.07,231.117v8.512l-9.964,9.964h-1.089v-8.248l10.228-10.228Z" transform="translate(-348.846 -123.999)" fill="#7db3b7"/>
          <path id="Tracé_382" data-name="Tracé 382" d="M447.612,231.833H458.06v-.722H446.994V249.6h.619Z" transform="translate(-348.834 -123.996)" fill="#3b7175"/>
          <rect id="Rectangle_748" data-name="Rectangle 748" width="0.567" height="19.281" transform="translate(103.384 106.822)" fill="#7a352c"/>
          <path id="Tracé_383" data-name="Tracé 383" d="M446.068,230.527h11.857V229.7H445.14v19.8h.928Z" transform="translate(-347.839 -123.24)" fill="#682a26"/>
          <rect id="Rectangle_749" data-name="Rectangle 749" width="12.785" height="19.796" transform="translate(57.915 69.894)" fill="#7c403c"/>
          <rect id="Rectangle_750" data-name="Rectangle 750" width="11.053" height="18.476" transform="translate(58.785 70.55)" fill="#74b6b7"/>
          <path id="Tracé_384" data-name="Tracé 384" d="M373.091,152.219v8.512l-9.964,9.964h-1.089v-8.248l10.228-10.228Z" transform="translate(-303.253 -81.669)" fill="#81d3d3"/>
          <path id="Tracé_385" data-name="Tracé 385" d="M362.634,152.935h10.448v-.722H362.015V170.7h.619Z" transform="translate(-303.241 -81.666)" fill="#648d93"/>
          <rect id="Rectangle_751" data-name="Rectangle 751" width="0.567" height="19.28" transform="translate(63.998 70.255)" fill="#7c403c"/>
          <rect id="Rectangle_752" data-name="Rectangle 752" width="0.963" height="7.631" transform="translate(2.253 87.799)" fill="#f7ebc1"/>
          <rect id="Rectangle_753" data-name="Rectangle 753" width="0.963" height="7.631" transform="translate(6.573 87.799)" fill="#f7ebc1"/>
          <rect id="Rectangle_754" data-name="Rectangle 754" width="0.963" height="7.631" transform="translate(10.89 87.799)" fill="#f7ebc1"/>
          <g id="Groupe_1758" data-name="Groupe 1758" transform="translate(2.253 88.121)" opacity="0.85" style="mix-blend-mode: multiply;isolation: isolate">
            <g id="Groupe_1757" data-name="Groupe 1757">
              <g id="Groupe_1756" data-name="Groupe 1756" clip-path="url(#clip-path-9)">
                <rect id="Rectangle_755" data-name="Rectangle 755" width="0.963" height="0.824" transform="translate(0 0)" fill="#b7b7b7"/>
              </g>
            </g>
          </g>
          <g id="Groupe_1761" data-name="Groupe 1761" transform="translate(6.573 88.121)" opacity="0.85" style="mix-blend-mode: multiply;isolation: isolate">
            <g id="Groupe_1760" data-name="Groupe 1760">
              <g id="Groupe_1759" data-name="Groupe 1759" clip-path="url(#clip-path-9)">
                <rect id="Rectangle_757" data-name="Rectangle 757" width="0.963" height="0.824" transform="translate(0 0)" fill="#b7b7b7"/>
              </g>
            </g>
          </g>
          <g id="Groupe_1764" data-name="Groupe 1764" transform="translate(10.89 88.121)" opacity="0.85" style="mix-blend-mode: multiply;isolation: isolate">
            <g id="Groupe_1763" data-name="Groupe 1763">
              <g id="Groupe_1762" data-name="Groupe 1762" clip-path="url(#clip-path-9)">
                <rect id="Rectangle_759" data-name="Rectangle 759" width="0.963" height="0.824" transform="translate(0 0)" fill="#b7b7b7"/>
              </g>
            </g>
          </g>
          <g id="Groupe_1767" data-name="Groupe 1767" transform="translate(2.253 90.719)" opacity="0.85" style="mix-blend-mode: multiply;isolation: isolate">
            <g id="Groupe_1766" data-name="Groupe 1766">
              <g id="Groupe_1765" data-name="Groupe 1765" clip-path="url(#clip-path-12)">
                <rect id="Rectangle_761" data-name="Rectangle 761" width="0.963" height="0.826" fill="#b7b7b7"/>
              </g>
            </g>
          </g>
          <g id="Groupe_1770" data-name="Groupe 1770" transform="translate(6.573 90.719)" opacity="0.85" style="mix-blend-mode: multiply;isolation: isolate">
            <g id="Groupe_1769" data-name="Groupe 1769">
              <g id="Groupe_1768" data-name="Groupe 1768" clip-path="url(#clip-path-12)">
                <rect id="Rectangle_763" data-name="Rectangle 763" width="0.963" height="0.826" fill="#b7b7b7"/>
              </g>
            </g>
          </g>
          <g id="Groupe_1773" data-name="Groupe 1773" transform="translate(10.89 90.719)" opacity="0.85" style="mix-blend-mode: multiply;isolation: isolate">
            <g id="Groupe_1772" data-name="Groupe 1772">
              <g id="Groupe_1771" data-name="Groupe 1771" clip-path="url(#clip-path-12)">
                <rect id="Rectangle_765" data-name="Rectangle 765" width="0.963" height="0.826" transform="translate(0)" fill="#b7b7b7"/>
              </g>
            </g>
          </g>
          <rect id="Rectangle_767" data-name="Rectangle 767" width="33.406" height="0.825" transform="translate(-17.97 90.068)" fill="#f7ebc1"/>
          <rect id="Rectangle_768" data-name="Rectangle 768" width="33.406" height="0.825" transform="translate(-17.97 87.387)" fill="#f7ebc1"/>
          <rect id="Rectangle_769" data-name="Rectangle 769" width="61.038" height="24.47" transform="translate(21.726 101.959)" fill="#7c403c"/>
          <rect id="Rectangle_770" data-name="Rectangle 770" width="57.738" height="21.149" transform="translate(23.375 103.62)" fill="#74b6b7"/>
          <path id="Tracé_386" data-name="Tracé 386" d="M320.552,223.571,299.436,244.72h-10.1l21.116-21.149Z" transform="translate(-264.249 -119.951)" fill="#81d3d3"/>
          <path id="Tracé_387" data-name="Tracé 387" d="M374.122,223.571v.1l-21.05,21.049H342.943l21.149-21.149Z" transform="translate(-293.008 -119.951)" fill="#81d3d3"/>
          <path id="Tracé_388" data-name="Tracé 388" d="M286.669,224.474h56.707v-.928H285.638v21.172h1.031Z" transform="translate(-262.263 -119.938)" fill="#648d93"/>
          <rect id="Rectangle_771" data-name="Rectangle 771" width="0.928" height="23.301" transform="translate(33.686 102.647)" fill="#7c403c"/>
          <rect id="Rectangle_772" data-name="Rectangle 772" width="0.928" height="23.301" transform="translate(46.092 102.647)" fill="#7c403c"/>
          <rect id="Rectangle_773" data-name="Rectangle 773" width="0.928" height="23.301" transform="translate(58.499 102.647)" fill="#7c403c"/>
          <rect id="Rectangle_774" data-name="Rectangle 774" width="0.928" height="23.301" transform="translate(70.906 102.647)" fill="#7c403c"/>
          <rect id="Rectangle_775" data-name="Rectangle 775" width="17.734" height="41.242" transform="translate(25.643 55.631)" fill="#7c403c"/>
          <rect id="Rectangle_776" data-name="Rectangle 776" width="14.418" height="37.942" transform="translate(27.302 57.298)" fill="#74b6b7"/>
          <path id="Tracé_389" data-name="Tracé 389" d="M308.528,123.626v7.391L294.11,145.434v-8.744l13.065-13.065Z" transform="translate(-266.808 -66.328)" fill="#81d3d3"/>
          <path id="Tracé_390" data-name="Tracé 390" d="M308.528,165.27v4.256l-14.352,14.385h-.066v-4.223Z" transform="translate(-266.808 -88.671)" fill="#81d3d3"/>
          <path id="Tracé_391" data-name="Tracé 391" d="M295.191,124.828h13.335v-1.237H294.091v37.942h1.1Z" transform="translate(-266.798 -66.309)" fill="#648d93"/>
          <rect id="Rectangle_777" data-name="Rectangle 777" width="0.962" height="40.554" transform="translate(34.03 55.906)" fill="#7c403c"/>
          <rect id="Rectangle_778" data-name="Rectangle 778" width="17.191" height="0.962" transform="translate(26.228 64.017)" fill="#7c403c"/>
          <rect id="Rectangle_779" data-name="Rectangle 779" width="17.191" height="0.962" transform="translate(26.193 71.853)" fill="#7c403c"/>
          <rect id="Rectangle_780" data-name="Rectangle 780" width="17.191" height="0.962" transform="translate(26.159 79.689)" fill="#7c403c"/>
          <rect id="Rectangle_781" data-name="Rectangle 781" width="17.191" height="0.962" transform="translate(26.124 87.525)" fill="#7c403c"/>
          <rect id="Rectangle_782" data-name="Rectangle 782" width="5.146" height="1.829" transform="translate(60.623 43.534)" fill="#b74839"/>
          <rect id="Rectangle_783" data-name="Rectangle 783" width="5.146" height="1.829" transform="translate(66.283 43.534)" fill="#b74839"/>
          <rect id="Rectangle_784" data-name="Rectangle 784" width="5.146" height="1.829" transform="translate(66.283 47.822)" fill="#b74839"/>
          <rect id="Rectangle_785" data-name="Rectangle 785" width="5.146" height="1.829" transform="translate(66.283 52.221)" fill="#b74839"/>
          <rect id="Rectangle_786" data-name="Rectangle 786" width="5.146" height="1.829" transform="translate(60.578 47.822)" fill="#b74839"/>
          <rect id="Rectangle_787" data-name="Rectangle 787" width="5.146" height="1.829" transform="translate(63.339 45.678)" fill="#b74839"/>
          <rect id="Rectangle_788" data-name="Rectangle 788" width="5.146" height="1.829" transform="translate(63.339 50.009)" fill="#b74839"/>
        </g>
      </g>
      <g id="Groupe_1777" data-name="Groupe 1777">
        <g id="Groupe_1776" data-name="Groupe 1776" clip-path="url(#clip-path-2)">
          <path id="Tracé_393" data-name="Tracé 393" d="M300.6,262.449a7.238,7.238,0,0,0-1.191-3.78,4.1,4.1,0,0,0-2.107-5.576,4.945,4.945,0,0,0-6.593-5.5,4.372,4.372,0,0,0-7.577-1.266,5.6,5.6,0,0,0-6.771-.749,6.192,6.192,0,0,0-2.278,6.835,4.04,4.04,0,0,0-4.531,3.14,5.911,5.911,0,0,0,2.237,5.652c-2.016.941-2.295,4.126-1.315,5.879a6.918,6.918,0,0,0,4.547,3.08c2.03.48,4.414.257,5.825-1.28a6.158,6.158,0,0,0,7.264.738,2.214,2.214,0,0,1,.753-.365,2.335,2.335,0,0,1,1.081.206c3.179,1.014,6.877.609,9.089-2.134a7.4,7.4,0,0,0,1.567-4.883" transform="translate(-144.565 -131.262)" fill="#e4f150"/>
          <path id="Tracé_394" data-name="Tracé 394" d="M297.088,268.3a6.82,6.82,0,0,1-1.773,1.554,8.954,8.954,0,0,1-7.315.581,2.347,2.347,0,0,0-1.082-.207,2.229,2.229,0,0,0-.752.365,6.16,6.16,0,0,1-7.264-.736c-1.41,1.536-3.794,1.759-5.824,1.28a6.92,6.92,0,0,1-4.547-3.08c-.98-1.755-.7-4.938,1.314-5.88a5.909,5.909,0,0,1-2.237-5.653,4.448,4.448,0,0,1,4.641-3.517,5.622,5.622,0,0,1,1.768-6.174q.193-.152.4-.284a5.6,5.6,0,0,1,6.77.748,4.373,4.373,0,0,1,7.579,1.266,4.945,4.945,0,0,1,6.593,5.5,4.105,4.105,0,0,1,2.107,5.576,7.238,7.238,0,0,1,1.192,3.781,7.4,7.4,0,0,1-1.568,4.882" transform="translate(-143.521 -131.783)" fill="#aeb83c"/>
          <path id="Tracé_395" data-name="Tracé 395" d="M296.092,255.655a6.366,6.366,0,0,0,.691,2.208,4.224,4.224,0,0,0,1.476,1.613,3.347,3.347,0,0,0,2.027.473,2.886,2.886,0,0,0,1-.263,2.314,2.314,0,0,0,.8-.594l.73-.85-.022,1.115a2.626,2.626,0,0,0,.432,1.457,3.189,3.189,0,0,0,1.168,1.076,3.917,3.917,0,0,0,1.606.431,5.411,5.411,0,0,0,1.736-.194,4.344,4.344,0,0,1-1.728.55,3.919,3.919,0,0,1-1.859-.253,3.542,3.542,0,0,1-1.523-1.195,3.138,3.138,0,0,1-.633-1.884l.707.264a3.093,3.093,0,0,1-1.071.823,3.7,3.7,0,0,1-1.286.316,3.845,3.845,0,0,1-2.475-.7,4.394,4.394,0,0,1-1.489-2.005,5.058,5.058,0,0,1-.29-2.391" transform="translate(-158.839 -137.164)" fill="#9ea836"/>
          <path id="Tracé_396" data-name="Tracé 396" d="M288.815,275.816a2.992,2.992,0,0,0,1.071.614,5.063,5.063,0,0,0,1.131.25,5.674,5.674,0,0,0,1.17,0,8.256,8.256,0,0,0,1.256-.236,2.3,2.3,0,0,1-1.094.863,2.963,2.963,0,0,1-1.418.193,2.87,2.87,0,0,1-1.351-.5,1.693,1.693,0,0,1-.765-1.181" transform="translate(-154.955 -147.981)" fill="#9ea836"/>
          <path id="Tracé_397" data-name="Tracé 397" d="M306.615,279.734a3.177,3.177,0,0,0,1.573.763,8.838,8.838,0,0,0,1.726.2,9.436,9.436,0,0,0,1.74-.135,13.625,13.625,0,0,0,1.776-.439,4.146,4.146,0,0,1-1.6,1.063,5.15,5.15,0,0,1-1.929.334,5.044,5.044,0,0,1-1.92-.416,3.165,3.165,0,0,1-.842-.542,1.763,1.763,0,0,1-.523-.831" transform="translate(-164.505 -150.083)" fill="#9ea836"/>
          <path id="Tracé_398" data-name="Tracé 398" d="M295.315,271.26a8.955,8.955,0,0,1-7.316.581,2.345,2.345,0,0,0-1.081-.207,2.225,2.225,0,0,0-.752.365,6.16,6.16,0,0,1-7.264-.736c-1.41,1.536-3.794,1.759-5.824,1.28a6.92,6.92,0,0,1-4.546-3.08c-.98-1.755-.7-4.938,1.314-5.88a5.909,5.909,0,0,1-2.237-5.653,4.448,4.448,0,0,1,4.641-3.517,5.622,5.622,0,0,1,1.769-6.174c-.8,2.566-1.054,5.329.91,7.48a2.5,2.5,0,0,0-2.559.259,3.968,3.968,0,0,0-1.437,2.237,4.576,4.576,0,0,0,.291,3.3,3.3,3.3,0,0,0,2.692,1.791,4.207,4.207,0,0,0,.218,5.216,3.478,3.478,0,0,0,5.006-.083,4.738,4.738,0,0,0,7.372.291,7.513,7.513,0,0,0,4.632,2.627,11.55,11.55,0,0,0,4.173-.092" transform="translate(-143.521 -133.185)" fill="#9ea836"/>
          <path id="Tracé_399" data-name="Tracé 399" d="M494.824,305.893v11.391l18.794-3.507v-9.362Z" transform="translate(-265.483 -163.325)" fill="#ff6355"/>
          <path id="Tracé_400" data-name="Tracé 400" d="M475.308,316.156l9.045,2.188V306.953l-9.045-.563Z" transform="translate(-255.013 -164.384)" fill="#ff6355"/>
          <path id="Tracé_401" data-name="Tracé 401" d="M496.214,303.655l6.934.352-18.794,1.478-9.045-.563Z" transform="translate(-255.013 -162.917)" fill="#ff6355"/>
          <path id="Tracé_402" data-name="Tracé 402" d="M485.814,305.342a.13.13,0,0,1-.008-.259l18.771-1.149a.13.13,0,1,1,.016.259l-18.771,1.149h-.008" transform="translate(-260.58 -163.066)" fill="#fff"/>
          <path id="Tracé_403" data-name="Tracé 403" d="M484.2,305.465H484.2l-9.045-.564a.13.13,0,0,1,0-.259l20.906-1.267h.014l6.933.352a.13.13,0,0,1,0,.259l-18.794,1.478h-.01m-6.931-.691,6.93.432,16.788-1.32-4.925-.25Z" transform="translate(-254.862 -162.767)" fill="#fff"/>
          <path id="Tracé_404" data-name="Tracé 404" d="M478.681,301.939a.431.431,0,0,1-.417-.545l1.2-4.432a2.417,2.417,0,0,1,2.268-1.776l16.46-.357a1.779,1.779,0,0,1,1.778,2.151l-.435,2.03a.432.432,0,0,1-.845-.181l.435-2.03a.915.915,0,0,0-.915-1.106l-16.46.357a1.548,1.548,0,0,0-1.453,1.137l-1.2,4.432a.432.432,0,0,1-.417.319" transform="translate(-256.59 -158.182)" fill="#142241"/>
          <path id="Tracé_405" data-name="Tracé 405" d="M486.492,302.671a.432.432,0,0,1-.393-.252l-2.29-4.991a1.259,1.259,0,0,1,1.119-1.773l16.727-.407a3.106,3.106,0,0,1,2.487,1.151l2.13,2.638a.432.432,0,1,1-.672.543l-2.13-2.637a2.25,2.25,0,0,0-1.741-.832h-.053l-16.727.407a.4.4,0,0,0-.352.555l2.287,4.985a.432.432,0,0,1-.393.612" transform="translate(-259.515 -158.406)" fill="#142241"/>
          <path id="Tracé_406" data-name="Tracé 406" d="M484.178,317.638l-.023,0c-.061-.011-6.114-1.108-9.063-1.56a.13.13,0,1,1,.039-.256c2.866.439,8.655,1.486,9.049,1.557.683-.1,16.905-2.44,18.776-2.66a.13.13,0,1,1,.031.257c-1.9.224-18.622,2.639-18.791,2.663h-.018" transform="translate(-254.837 -168.851)" fill="#fff"/>
          <path id="Tracé_407" data-name="Tracé 407" d="M484.2,311.9h-.017c-.061-.008-6.1-.821-9.048-1.274a.129.129,0,1,1,.039-.256c2.878.441,8.69,1.225,9.028,1.27.588-.058,16.9-1.66,18.776-1.881a.13.13,0,1,1,.031.257c-1.9.224-18.628,1.867-18.8,1.884H484.2" transform="translate(-254.863 -166.189)" fill="#fff"/>
          <path id="Tracé_408" data-name="Tracé 408" d="M494.674,319.048a.13.13,0,0,1-.13-.13V307.966a.13.13,0,0,1,.26,0v10.952a.13.13,0,0,1-.13.13" transform="translate(-265.333 -165.161)" fill="#fff"/>
          <path id="Tracé_409" data-name="Tracé 409" d="M535.12,124.072c-.026.344-2.677,17.387-2.741,18.139-.028.325-1.254,13.234-1.432,15.691a1.862,1.862,0,0,1-.217.745l-1.841,3.424a.934.934,0,0,0,.011.906l1.211,2.128a.417.417,0,0,0,.557.164l1.43-.749a.468.468,0,0,0-.325-.87l-.818.195.027-.86s2.338-.94,2.553-3.036c.134-4.058,3.037-15.99,3.037-15.99l3.5-17.392Z" transform="translate(-283.7 -66.567)" fill="#ffcaab"/>
          <path id="Tracé_410" data-name="Tracé 410" d="M533.446,205.874l-15.492-.289a4.627,4.627,0,0,0-3.725,7.38l1.553,2.755,1.738,37.644h9.845l3.33-37.065,5.357-6.225Zm-15.492,2.183.462.051,3.85.422,3.507.385,3.04,2.606-.288,2.35h-9.561c-1.193,0-3.171-2.46-3.171-3.654a2.161,2.161,0,0,1,2.161-2.161" transform="translate(-275.407 -110.301)" fill="#c8cac9"/>
          <path id="Tracé_411" data-name="Tracé 411" d="M532.67,304.144a1.064,1.064,0,0,1-1.064,1.064H525.8a1.063,1.063,0,0,1-1.064-1.064Z" transform="translate(-281.531 -163.179)"/>
          <path id="Tracé_412" data-name="Tracé 412" d="M524.734,302.362h2.353l-2.353-1.539Z" transform="translate(-281.531 -161.398)"/>
          <path id="Tracé_413" data-name="Tracé 413" d="M525.814,238.792h5.774a1.061,1.061,0,0,1,.888.48l.193-.126v-9.037h-7.936v9.037l.193.126a1.062,1.062,0,0,1,.888-.48" transform="translate(-281.53 -123.458)"/>
          <path id="Tracé_414" data-name="Tracé 414" d="M531.334,302.459l1.694-1.109H529.64Z" transform="translate(-284.163 -161.681)" fill="#ffd00d"/>
          <path id="Tracé_415" data-name="Tracé 415" d="M539.132,302.362v-1.539l-2.353,1.539Z" transform="translate(-287.993 -161.398)"/>
          <path id="Tracé_416" data-name="Tracé 416" d="M541.615,250.316v.543l.017-.011v-1.243l-.193.127a1.056,1.056,0,0,1,.176.584" transform="translate(-290.493 -133.919)"/>
          <path id="Tracé_417" data-name="Tracé 417" d="M524.751,250.316a1.056,1.056,0,0,1,.176-.584l-.193-.127v1.243l.017.011Z" transform="translate(-281.531 -133.919)"/>
          <path id="Tracé_418" data-name="Tracé 418" d="M541.819,288.533l.017-.011v-1.243l-.017.011Z" transform="translate(-290.697 -154.131)"/>
          <path id="Tracé_419" data-name="Tracé 419" d="M524.751,287.29l-.017-.011v1.243l.017.011Z" transform="translate(-281.531 -154.131)"/>
          <path id="Tracé_420" data-name="Tracé 420" d="M532.653,298.566a1.064,1.064,0,0,1-1.064,1.064H530.4l-1.695,1.109-1.694-1.109h-1.193a1.064,1.064,0,0,1-1.064-1.064v-.413l-.017-.011v1.243l2.353,1.539h3.23l2.353-1.539v-1.243l-.017.011Z" transform="translate(-281.531 -159.959)"/>
          <path id="Tracé_421" data-name="Tracé 421" d="M525.834,274.5h5.775a1.064,1.064,0,0,0,1.064-1.064v-5.775a1.064,1.064,0,0,0-1.064-1.064h-5.775a1.064,1.064,0,0,0-1.064,1.064v5.775a1.064,1.064,0,0,0,1.064,1.064" transform="translate(-281.55 -143.037)"/>
          <path id="Tracé_422" data-name="Tracé 422" d="M524.77,289.984V291.1l3.951,2.585,3.951-2.585v-1.115l-3.951,2.585Z" transform="translate(-281.55 -155.583)" fill="#ffd00d"/>
          <path id="Tracé_423" data-name="Tracé 423" d="M524.77,295.072v1.434l2.257,1.476h3.389l2.257-1.476v-1.434l-3.951,2.585Z" transform="translate(-281.55 -158.312)" fill="#ffd00d"/>
          <path id="Tracé_424" data-name="Tracé 424" d="M532.672,285.693v-.327a1.064,1.064,0,0,0-1.064-1.064h-5.775a1.064,1.064,0,0,0-1.064,1.064v.327l3.951,2.585Z" transform="translate(-281.55 -152.534)" fill="#ffd00d"/>
          <path id="Tracé_425" data-name="Tracé 425" d="M528.721,289.888,524.77,287.3v1.243l3.951,2.585,3.951-2.585V287.3Z" transform="translate(-281.55 -154.144)"/>
          <path id="Tracé_426" data-name="Tracé 426" d="M524.77,292.391v1.243l3.951,2.585,3.951-2.585v-1.243l-3.951,2.585Z" transform="translate(-281.55 -156.873)" fill="#fff"/>
          <path id="Tracé_427" data-name="Tracé 427" d="M524.77,298.578a1.064,1.064,0,0,0,1.064,1.064h1.193l-2.257-1.477Z" transform="translate(-281.55 -159.972)"/>
          <path id="Tracé_428" data-name="Tracé 428" d="M538.143,299.642a1.064,1.064,0,0,0,1.064-1.064v-.413l-2.257,1.477Z" transform="translate(-288.085 -159.972)"/>
          <path id="Tracé_429" data-name="Tracé 429" d="M532.7,249.324a1.061,1.061,0,0,0-.888-.48h-5.775a1.062,1.062,0,0,0-.888.48l3.775,2.47Z" transform="translate(-281.754 -133.51)"/>
          <path id="Tracé_430" data-name="Tracé 430" d="M524.77,252.311v5.231a1.064,1.064,0,0,0,1.064,1.064h5.775a1.064,1.064,0,0,0,1.064-1.064v-5.231l-3.951,2.585Zm7.01,5.667h-6.117V256.9h6.117Zm0-1.593h-6.117v-.642h6.117Z" transform="translate(-281.55 -135.37)" fill="#ffd00d"/>
          <path id="Tracé_431" data-name="Tracé 431" d="M532.5,249.879l-3.775,2.47-3.775-2.47a1.056,1.056,0,0,0-.176.584v.544l3.951,2.585,3.951-2.585v-.544a1.056,1.056,0,0,0-.176-.584" transform="translate(-281.55 -134.065)" fill="#fff"/>
          <rect id="Rectangle_789" data-name="Rectangle 789" width="6.117" height="1.083" transform="translate(244.112 121.525)" fill="#fff"/>
          <rect id="Rectangle_790" data-name="Rectangle 790" width="6.117" height="0.642" transform="translate(244.112 120.373)" fill="#fff"/>
          <path id="Tracé_432" data-name="Tracé 432" d="M529.349,221.7H526.6v-.96a.56.56,0,0,1,.56-.56h1.63a.56.56,0,0,1,.56.56Z" transform="translate(-282.531 -118.129)" fill="#ffd00d"/>
          <path id="Tracé_433" data-name="Tracé 433" d="M539.241,221.7h-4.209v-1.222a.3.3,0,0,1,.3-.3h3.613a.3.3,0,0,1,.3.3Z" transform="translate(-287.056 -118.129)"/>
          <path id="Tracé_434" data-name="Tracé 434" d="M546.183,114.534l9.433-.879,6.687,1.389a1.521,1.521,0,0,1,1.2,1.679c-1.671,13.329.754,23.3.541,32.85,0,0,.294.254-21.68-1.412.31-6.835,1.557-17.169,2.6-25Z" transform="translate(-290.99 -60.978)" fill="#ff6355"/>
          <path id="Tracé_435" data-name="Tracé 435" d="M568.468,103.265s.715,5.062.63,5.242c-2.2,4.681-9.573,3.172-7.641-1.346l.11-4.359Z" transform="translate(-301.062 -55.155)" fill="#ffcaab"/>
          <path id="Tracé_436" data-name="Tracé 436" d="M569.247,107.676s-3.858,2.794-5.1,2.292a4.145,4.145,0,0,1-1.8-2.192c-.1-.243-.5-2.007-.5-2.007s1.952.9,2.159-.308l5.537-4.141a2.925,2.925,0,0,0-.113.4,22.186,22.186,0,0,0-.181,5.959" transform="translate(-301.441 -54.36)" fill="#ffcaab"/>
          <path id="Tracé_437" data-name="Tracé 437" d="M567.949,104.3a6.8,6.8,0,0,1-.937,1.381c-.046.052-.093.1-.14.152a7.2,7.2,0,0,1-1.379,1.1,5.01,5.01,0,0,1-3.189.921c-.119-.013-1.065-.314-1.182-.352a7,7,0,0,1,.326-1.731s1.951.9,2.159-.308l5.537-4.141a2.977,2.977,0,0,0-.114.4c-.053.1-.1.2-.149.3-.1.237-.176.487-.265.729a12.16,12.16,0,0,1-.669,1.554" transform="translate(-301.045 -54.36)" fill="#eda073"/>
          <path id="Tracé_438" data-name="Tracé 438" d="M567.778,89.319a1.044,1.044,0,0,0-.111.282,5.4,5.4,0,0,1-.268.635,9.051,9.051,0,0,1-1.676,2.234c-.285.292-.579.574-.88.85a6.624,6.624,0,0,1-2,1.41,2.6,2.6,0,0,1-1.414.146,1.751,1.751,0,0,1-.844-.406,3.231,3.231,0,0,1-.695-1.068,19.948,19.948,0,0,1-1.077-2.66,10.278,10.278,0,0,1-.41-1.931,4.3,4.3,0,0,1-.037-.982.958.958,0,0,1,.1-.293,1.771,1.771,0,0,0,.077-.2,4.126,4.126,0,0,0,.34-1.136c0-.222-.057-.436-.07-.654a2.873,2.873,0,0,1,.13-.857q.227-.893.457-1.785c.039-.155.061-.309.108-.46a3.665,3.665,0,0,1,.994-1.618,3.682,3.682,0,0,1,.428-.349,4.365,4.365,0,0,1,.833-.44,7.106,7.106,0,0,1,.838-.277,6.984,6.984,0,0,1,3.4-.133,4.3,4.3,0,0,1,2.734,1.922,4.782,4.782,0,0,1,.551,2.687,14.157,14.157,0,0,1-.518,2.729c-.092.354-.184.705-.274,1.06a2.125,2.125,0,0,1-.566,1.161.633.633,0,0,0-.15.129" transform="translate(-299.567 -42.641)" fill="#ffcaab"/>
          <path id="Tracé_439" data-name="Tracé 439" d="M562.529,99.629a4.737,4.737,0,0,0,.309.456,1.041,1.041,0,0,0,.389.309.455.455,0,0,0,.109.032c.056.008.1.022.135.027a.622.622,0,0,0,.234-.032,1.38,1.38,0,0,1,.284-.061.7.7,0,0,1,.287.053,1.146,1.146,0,0,0-.269.048,2.62,2.62,0,0,0-.247.112.662.662,0,0,1-.31.076c-.061,0-.1-.019-.14-.021a.673.673,0,0,1-.16-.04.955.955,0,0,1-.445-.41,1.417,1.417,0,0,1-.176-.547" transform="translate(-301.808 -53.453)" fill="#c88660"/>
          <path id="Tracé_440" data-name="Tracé 440" d="M561.431,95.473a1.751,1.751,0,0,1-.844-.406A3.241,3.241,0,0,1,559.892,94a19.979,19.979,0,0,1-1.077-2.661,10.273,10.273,0,0,1-.41-1.931,4.322,4.322,0,0,1-.037-.982.957.957,0,0,1,.1-.292,1.709,1.709,0,0,0,.077-.2,4.128,4.128,0,0,0,.34-1.136c.005-.222-.057-.436-.07-.654a2.872,2.872,0,0,1,.13-.857q.227-.893.458-1.784c.039-.155.061-.309.108-.461a3.661,3.661,0,0,1,.995-1.618,3.682,3.682,0,0,1,.428-.349,4.364,4.364,0,0,1,.833-.44,16.974,16.974,0,0,1,2.518,0,3.5,3.5,0,0,1,1.869.54.82.82,0,0,1,.333.546.5.5,0,0,1-.243.489,3.5,3.5,0,0,1-1.2.635,6.441,6.441,0,0,1-.755.187,16.15,16.15,0,0,0-2.44.487,2.629,2.629,0,0,0-1.738,1.644c-.1.385-.078.793-.151,1.186a8.138,8.138,0,0,1-.269.888,7.626,7.626,0,0,0,.1,4.364,23.412,23.412,0,0,0,1.646,3.871" transform="translate(-299.568 -43.238)" fill="#ffb68c"/>
          <path id="Tracé_441" data-name="Tracé 441" d="M567.978,90.7a1.1,1.1,0,0,0-.563-.082.38.38,0,0,0-.321.406c.051.237.356.3.6.321a8.678,8.678,0,0,1,2.139.567c.2.074.39.167.59.226a1.318,1.318,0,0,0-.545-.712,7.453,7.453,0,0,0-1.01-.416c-.292-.112-.589-.21-.886-.309" transform="translate(-304.254 -48.611)" fill="#5c3d37"/>
          <path id="Tracé_442" data-name="Tracé 442" d="M560.49,89.924a.474.474,0,0,1,.362.057.413.413,0,0,1,.073.463.355.355,0,0,1-.454.16,3.84,3.84,0,0,0-1.453.022,4.12,4.12,0,0,1-.421.072,1.26,1.26,0,0,1,.539-.544,3.686,3.686,0,0,1,.73-.152c.208-.036.416-.057.624-.079" transform="translate(-299.699 -48.241)" fill="#5c3d37"/>
          <path id="Tracé_443" data-name="Tracé 443" d="M569.182,96.421a.416.416,0,0,0,.311.486c.192.015.364-.178.384-.431a.416.416,0,0,0-.311-.486c-.191-.015-.363.178-.383.431" transform="translate(-305.377 -51.5)" fill="#5c3d37"/>
          <path id="Tracé_444" data-name="Tracé 444" d="M561.154,95.393a.416.416,0,0,0,.311.486c.192.015.364-.178.384-.431a.416.416,0,0,0-.311-.486c-.191-.015-.363.178-.383.431" transform="translate(-301.07 -50.949)" fill="#5c3d37"/>
          <path id="Tracé_445" data-name="Tracé 445" d="M562.95,80.018a7.189,7.189,0,0,0-3.191-.3c-1.4.363-2.221,1.727-2.822,3.01a13.908,13.908,0,0,1-.25-3.451c.029-.543,1.618-.336,1.814-.84.743-1.909.673-1.377,2.319-2.319a3.523,3.523,0,0,1,1.724-.356c.433-.022,1.007-.415,1.427-.3,1.136.318,1.753-.148,2.735.506.83.553,2.158.429,2.092,1.4.211-.29.451-.1.235.257.485-.164.719.4.319.478a4.626,4.626,0,0,1,1.189,4.192,8.762,8.762,0,0,1-1.471,2.847c-.807,1.179-1.76,2.292-2.571,3.468.355-.939.856-1.913.495-2.865l-.352.712-.254-.016a3.07,3.07,0,0,0-.471-3.2,1.538,1.538,0,0,0,.382-1.789c-.1-.325-.233-.641-.33-.966a2.969,2.969,0,0,1-.108-.482c-.02-.154-.037-.305-.217-.209a3.19,3.19,0,0,1-1.7.353,6.408,6.408,0,0,1-1-.131" transform="translate(-298.664 -40.475)" fill="#6f4a42"/>
          <path id="Tracé_446" data-name="Tracé 446" d="M570.921,78.2a5.152,5.152,0,0,1-1.027-.25c-.333-.119-.656-.263-.975-.413-.637-.3-1.249-.643-1.894-.9a5.855,5.855,0,0,0-2.014-.431,5.485,5.485,0,0,0-1.038.057,6.114,6.114,0,0,0-1.022.231,5.139,5.139,0,0,1,2.061-.448,5.373,5.373,0,0,1,2.089.4,18.733,18.733,0,0,1,1.889.948,8.505,8.505,0,0,0,1.929.8" transform="translate(-302.035 -40.803)" fill="#8d6057"/>
          <path id="Tracé_447" data-name="Tracé 447" d="M569.12,81.271c-.254.136-.466.327-.713.484a1.971,1.971,0,0,1-.838.269,6,6,0,0,1-1.732-.159c-.564-.119-1.117-.263-1.676-.365a5.16,5.16,0,0,0-1.694-.064v-.028l.2.042-.2-.013-.089-.006.089-.023a3.951,3.951,0,0,1,.858-.124,6.629,6.629,0,0,1,.869.049c.575.076,1.135.213,1.693.33a7.3,7.3,0,0,0,1.678.205,1.887,1.887,0,0,0,.8-.2,7.412,7.412,0,0,1,.762-.4" transform="translate(-301.724 -43.604)" fill="#8d6057"/>
          <path id="Tracé_448" data-name="Tracé 448" d="M580.193,83.827a1.975,1.975,0,0,0-.208,1.289,10.212,10.212,0,0,0,.36,1.307l-.031-.008.111-.058-.086.091-.016.016-.016-.025a3.3,3.3,0,0,1-.526-1.295,1.781,1.781,0,0,1,.043-.717,1.186,1.186,0,0,1,.368-.6" transform="translate(-311.055 -44.975)" fill="#8d6057"/>
          <path id="Tracé_449" data-name="Tracé 449" d="M582.76,83.56a3.673,3.673,0,0,1,.565,1.31,4,4,0,0,1,.1.712,3.45,3.45,0,0,1-.034.716l-.074-.016c.046-.084.091-.169.142-.251-.019.095-.046.187-.07.279l-.055.208-.019-.224c-.02-.235-.041-.466-.071-.7s-.069-.458-.115-.685a13.157,13.157,0,0,0-.366-1.353" transform="translate(-312.663 -44.832)" fill="#8d6057"/>
          <path id="Tracé_450" data-name="Tracé 450" d="M583.92,82.9a5,5,0,0,1,.538.853,2.56,2.56,0,0,1,.266.991,3.439,3.439,0,0,1-.116,1.014,3.573,3.573,0,0,1-.381.934,8,8,0,0,0,.223-.967,4.664,4.664,0,0,0,.067-.97,5.354,5.354,0,0,0-.6-1.855" transform="translate(-313.285 -44.476)" fill="#8d6057"/>
          <path id="Tracé_451" data-name="Tracé 451" d="M579.835,92.914a.283.283,0,0,1,.254-.04.249.249,0,0,1,.1.127,1.572,1.572,0,0,1-.065,1.1,12.77,12.77,0,0,1-1,2.28c-.224.4-.574.841-1.029.781a.325.325,0,0,1-.179-.074c-.116-.107-.084-.294-.044-.446q.211-.792.42-1.584c.064-.24.081-.485.137-.725a1.164,1.164,0,0,1,.27-.47,3.73,3.73,0,0,1,1.134-.95" transform="translate(-310.021 -49.819)" fill="#ffcaab"/>
          <path id="Tracé_452" data-name="Tracé 452" d="M580.038,94.531c.108-.132.262-.279.424-.223a.121.121,0,0,1,.073.058.169.169,0,0,1,0,.114,13.3,13.3,0,0,1-.837,2.288.213.213,0,0,1-.1.119.326.326,0,0,1-.113.009c-.255,0-.4.285-.489.524a1.6,1.6,0,0,1,.516-.927.227.227,0,0,0,.082-.332,1.42,1.42,0,0,1-.081-.687,2.5,2.5,0,0,1,.07-.323.674.674,0,0,1,.151-.244l.306-.374" transform="translate(-310.642 -50.591)" fill="#eda073"/>
          <path id="Tracé_453" data-name="Tracé 453" d="M565.1,100.988c.737.193,1.778-1.282,2.119-1.962.067.007.158.075.225.083a6.676,6.676,0,0,1-.916,3.054,5.679,5.679,0,0,1-.5.633,16.377,16.377,0,0,1-1.583,1.553,4,4,0,0,1-3.06,1.24,3.507,3.507,0,0,1-2.451-2.387,12.582,12.582,0,0,1-.464-1.63,4.423,4.423,0,0,1-.258-1.939,4.06,4.06,0,0,0,.869.468,22.664,22.664,0,0,1,6.022.887" transform="translate(-299.467 -53.129)" fill="#6f4a42"/>
          <path id="Tracé_454" data-name="Tracé 454" d="M565.39,105.384a2.8,2.8,0,0,1-1.7.59,1.273,1.273,0,0,1-.517-.088,1.225,1.225,0,0,1-.549-.565c-.024-.043-.175-.273-.115-.319.039-.03.286.12.341.142a4.337,4.337,0,0,0,1.622.332,4.279,4.279,0,0,0,.463-.021c.08-.008.159-.018.238-.031a.638.638,0,0,0,.22-.041" transform="translate(-301.789 -56.334)" fill="#fff"/>
          <path id="Tracé_455" data-name="Tracé 455" d="M536.317,129.415a19.429,19.429,0,0,0,5.589,1.206l1.986-13.634-.488-1.529-.194.032a5.741,5.741,0,0,0-4.459,3.67c-.984,2.652-2.424,8.408-2.434,10.256" transform="translate(-287.745 -61.946)" fill="#ff6355"/>
          <path id="Tracé_456" data-name="Tracé 456" d="M585.237,328.123h-8.322A5.919,5.919,0,0,1,579.2,323.4h3.132q2.311,1.146,2.908,4.727" transform="translate(-309.527 -173.509)" fill="#142241"/>
          <path id="Tracé_457" data-name="Tracé 457" d="M553.544,322.141a9.4,9.4,0,0,1,.79,5.309H542.218a.569.569,0,0,1-.407-.966c1.762-1.774,5.336-2.209,6.35-3.761Z" transform="translate(-290.604 -172.835)" fill="#142241"/>
          <path id="Tracé_458" data-name="Tracé 458" d="M541.051,156.52l2.777-23.1,11.925,1.737s-2.26,22.1,6.344,22.421h1.582c.759,22.079,1.1,44.233.829,64.067l-7.151.681a473.318,473.318,0,0,1-5.343-50.67c-.145,14.347,2.022,28.026,1.774,52.247a10.072,10.072,0,0,0-7.35-1.466c-3.461-25.748-7.022-51.771-5.565-64.057.093-.969.094-1.155.179-1.861" transform="translate(-290.01 -71.584)" fill="#687999"/>
          <path id="Tracé_459" data-name="Tracé 459" d="M576.073,115.678a15.725,15.725,0,0,0-5.229,9.659l-2.179-.141a23.782,23.782,0,0,1,5.036-10.081c2.442.559,2.372.563,2.372.563" transform="translate(-305.101 -61.762)" fill="#687999"/>
          <path id="Tracé_460" data-name="Tracé 460" d="M551.8,114.633a19.744,19.744,0,0,0-1.7,9.024l-2.464-.359s.916-6.19,2.5-8.485c.825-.213,1.174-.36,1.662-.18" transform="translate(-293.819 -61.46)" fill="#687999"/>
          <path id="Tracé_461" data-name="Tracé 461" d="M558.268,174.365h0c-.431,0-10.572-.1-12.885-1.339a.13.13,0,0,1,.123-.229c2.257,1.213,12.659,1.307,12.764,1.308a.13.13,0,0,1,0,.259" transform="translate(-292.572 -92.701)" fill="#142241"/>
          <path id="Tracé_462" data-name="Tracé 462" d="M568.488,134.378l1.749.349a.383.383,0,0,0,.45-.3l.42-2.113a.383.383,0,0,0-.3-.451l-1.749-.348a.382.382,0,0,0-.45.3l-.42,2.113a.382.382,0,0,0,.3.45" transform="translate(-304.84 -70.556)" fill="#142241"/>
          <path id="Tracé_463" data-name="Tracé 463" d="M547.977,131.486l1.774.178a.383.383,0,0,0,.419-.343l.215-2.144a.383.383,0,0,0-.343-.419l-1.774-.178a.383.383,0,0,0-.419.343l-.215,2.144a.383.383,0,0,0,.343.419" transform="translate(-293.816 -68.985)" fill="#142241"/>
          <path id="Tracé_464" data-name="Tracé 464" d="M557.8,140.686l-.022,0-10.311-1.766a.13.13,0,0,1-.106-.149l.333-2.009a.129.129,0,0,1,.053-.085.13.13,0,0,1,.1-.022l9.979,1.831a.13.13,0,0,1,.106.127v1.944a.13.13,0,0,1-.129.13m-10.163-2,10.033,1.718v-1.682l-9.743-1.788Z" transform="translate(-293.669 -73.316)" fill="#142241"/>
          <path id="Tracé_465" data-name="Tracé 465" d="M541.26,185.12l23.025,1.861-.12-1.887-22.726-1.835Z" transform="translate(-290.397 -98.322)" fill="#f0d072"/>
          <path id="Tracé_466" data-name="Tracé 466" d="M583.44,189.706h-8.829l1.015,11.826a4.051,4.051,0,0,0,4.222,3.7l1.324-.06a3.485,3.485,0,0,0,3.312-3.791Z" transform="translate(-308.291 -101.781)" fill="#f0d072"/>
          <path id="Tracé_467" data-name="Tracé 467" d="M574.519,190.37a.129.129,0,0,1-.129-.119l-.059-.684a.13.13,0,0,1,.129-.141h7.548a.13.13,0,1,1,0,.26H574.6l.046.543a.13.13,0,0,1-.118.14h-.011" transform="translate(-308.14 -101.631)" fill="#142241"/>
          <path id="Tracé_468" data-name="Tracé 468" d="M584.455,197.9h-7.878a.13.13,0,1,1,0-.259h7.878a.13.13,0,1,1,0,.259" transform="translate(-309.276 -106.036)" fill="#142241"/>
          <path id="Tracé_469" data-name="Tracé 469" d="M578.877,257.751h-8.539a.13.13,0,0,1,0-.259h8.539a.13.13,0,0,1,0,.259" transform="translate(-305.929 -138.15)" fill="#142241"/>
          <path id="Tracé_470" data-name="Tracé 470" d="M554.635,257.751h-8.8a.13.13,0,0,1,0-.259h8.8a.13.13,0,1,1,0,.259" transform="translate(-292.781 -138.15)" fill="#142241"/>
          <path id="Tracé_471" data-name="Tracé 471" d="M580.926,276.664h-8.538a.13.13,0,0,1,0-.259h8.538a.13.13,0,1,1,0,.259" transform="translate(-307.028 -148.297)" fill="#142241"/>
          <path id="Tracé_472" data-name="Tracé 472" d="M556.684,276.664h-8.8a.13.13,0,0,1,0-.259h8.8a.13.13,0,1,1,0,.259" transform="translate(-293.88 -148.297)" fill="#142241"/>
          <path id="Tracé_473" data-name="Tracé 473" d="M574.97,142.122c-4.61,0-9.575-3.034-12.535-8.16-4.036-6.992-2.838-15.267,2.671-18.448a10.4,10.4,0,0,1,9.224-.361,17.557,17.557,0,0,1,10.342,17.911,10.4,10.4,0,0,1-4.924,7.808,9.469,9.469,0,0,1-4.777,1.25M569.9,114.514a9.237,9.237,0,0,0-4.66,1.224c-5.385,3.109-6.541,11.226-2.576,18.094,2.912,5.044,7.789,8.032,12.307,8.033a9.217,9.217,0,0,0,4.651-1.217,10.145,10.145,0,0,0,4.8-7.62,17.3,17.3,0,0,0-10.181-17.634,11.68,11.68,0,0,0-4.337-.879" transform="translate(-300.476 -61.3)" fill="#142241"/>
          <path id="Tracé_474" data-name="Tracé 474" d="M573.487,140.747c-4.61,0-9.575-3.034-12.535-8.161-4.036-6.991-2.838-15.267,2.671-18.447s13.275-.081,17.311,6.91,2.838,15.267-2.67,18.448a9.468,9.468,0,0,1-4.777,1.25m-5.083-27.6a9.219,9.219,0,0,0-4.651,1.217c-5.385,3.109-6.541,11.226-2.576,18.094,2.912,5.043,7.789,8.032,12.307,8.033a9.218,9.218,0,0,0,4.651-1.217c5.385-3.109,6.541-11.226,2.576-18.094-2.911-5.044-7.789-8.033-12.306-8.033" transform="translate(-299.68 -60.567)" fill="#142241"/>
          <path id="Tracé_475" data-name="Tracé 475" d="M575.565,140.747c-4.61,0-9.575-3.034-12.535-8.161-4.036-6.991-2.838-15.267,2.671-18.447s13.275-.081,17.311,6.91,2.838,15.267-2.671,18.448a9.469,9.469,0,0,1-4.777,1.25m-5.083-27.6a9.217,9.217,0,0,0-4.651,1.217c-5.385,3.109-6.541,11.226-2.576,18.094s11.572,9.925,16.958,6.816,6.541-11.226,2.576-18.094c-2.912-5.044-7.789-8.033-12.307-8.033" transform="translate(-300.795 -60.567)" fill="#142241"/>
          <path id="Tracé_476" data-name="Tracé 476" d="M574.879,143.8a12.009,12.009,0,0,1-4.648-.993,18.719,18.719,0,0,1-10.711-18.552,9.718,9.718,0,0,1,14.15-8.169,17.756,17.756,0,0,1,8.272,7.592c4.181,7.242,3.1,15.722-2.408,18.9a9.22,9.22,0,0,1-4.655,1.22m-5.856-28.448a8.967,8.967,0,0,0-4.526,1.184,10.045,10.045,0,0,0-4.72,7.751,18.459,18.459,0,0,0,10.554,18.281,10.043,10.043,0,0,0,9.073-.212c5.386-3.109,6.423-11.43,2.313-18.549a17.5,17.5,0,0,0-8.148-7.483,11.747,11.747,0,0,0-4.547-.972" transform="translate(-300.132 -61.748)" fill="#142241"/>
          <path id="Tracé_477" data-name="Tracé 477" d="M575.768,144.406a12.007,12.007,0,0,1-4.648-.993,17.758,17.758,0,0,1-8.272-7.592c-4.182-7.242-3.1-15.722,2.408-18.9a10.3,10.3,0,0,1,9.3-.226,17.756,17.756,0,0,1,8.272,7.592c4.181,7.242,3.1,15.722-2.408,18.9a9.225,9.225,0,0,1-4.655,1.219m-5.856-28.448a8.963,8.963,0,0,0-4.526,1.185c-5.385,3.109-6.423,11.43-2.313,18.548a17.5,17.5,0,0,0,8.148,7.483,10.042,10.042,0,0,0,9.073-.212c5.385-3.109,6.423-11.43,2.313-18.549a17.5,17.5,0,0,0-8.148-7.482,11.749,11.749,0,0,0-4.547-.973" transform="translate(-300.613 -62.074)" fill="#142241"/>
          <path id="Tracé_478" data-name="Tracé 478" d="M571.039,121.844l3.245.378a55.893,55.893,0,0,1,5.268,17,2.322,2.322,0,0,1-2.552,2.57c-4.345-.463-10.707-6.686-12.862-8.834a4.344,4.344,0,0,0-1.485-.97l-2.982-1.168-1.982.016a.5.5,0,0,1-.486-.371,1.25,1.25,0,0,1-.013-.54,1.352,1.352,0,0,1-.3-1.362,1.612,1.612,0,0,1,.072-1.308c.017-.281.044-.531.074-.741a.936.936,0,0,1,.834-.8l2.012-.2a1.6,1.6,0,0,1,1.177.357l2.979,2.46,8.088,4.812-3.751-7.344Z" transform="translate(-298.723 -65.372)" fill="#ffcaab"/>
          <path id="Tracé_479" data-name="Tracé 479" d="M582.408,129.018a18.464,18.464,0,0,0,7.822-1.1,22.747,22.747,0,0,0-3.155-7.877,7.3,7.3,0,0,0-4.773-3.363l-.318-.065-3.079,5.626Z" transform="translate(-310.595 -62.566)" fill="#ff6355"/>
          <path id="Tracé_480" data-name="Tracé 480" d="M584.549,137.791h0a9.59,9.59,0,0,1-1.161-.064.13.13,0,0,1-.1-.069l-2.513-4.862a.13.13,0,0,1,.23-.12l2.481,4.8c.142.015.512.05,1.061.054a.129.129,0,0,1,0,.259" transform="translate(-311.591 -71.147)" fill="#142241"/>
          <path id="Tracé_481" data-name="Tracé 481" d="M593.677,148.9a.13.13,0,0,1-.111-.063c-.011-.018-.855-1.358-3.881-2.649a.129.129,0,1,1,.1-.238c3.121,1.33,3.967,2.7,4,2.753a.13.13,0,0,1-.111.2" transform="translate(-316.335 -78.299)" fill="#142241"/>
          <path id="Tracé_482" data-name="Tracé 482" d="M533.031,202.533c.2.563.722,2.8.916,3.645a.473.473,0,0,0,.933-.114c-.023-1.227-.079-4.128-.093-4.086s-1.756.555-1.756.555" transform="translate(-285.982 -108.365)" fill="#ffcaab"/>
          <path id="Tracé_483" data-name="Tracé 483" d="M571.316,82.224s-4.576.7-13.179-3.509c1.05-4.56,5.7-4.683,8.626-4.032a6.147,6.147,0,0,1,4.553,7.54" transform="translate(-299.452 -39.916)" fill="#687999"/>
          <path id="Tracé_484" data-name="Tracé 484" d="M562.875,85.32s-6.522-.467-8.5-1.26a2.082,2.082,0,0,1-.273-.135c-.924-.539-2.165-1.353-3.095-1.976a.4.4,0,0,1,.265-.736l3.267.325a22.213,22.213,0,0,0,8.339,3.782" transform="translate(-295.529 -43.571)" fill="#687999"/>
          <path id="Tracé_485" data-name="Tracé 485" d="M565.323,85.733h-.02a17.68,17.68,0,0,1-6.14-2.193.136.136,0,1,1,.15-.227,17.361,17.361,0,0,0,6.029,2.151.136.136,0,0,1-.019.271" transform="translate(-299.97 -44.686)" fill="#142241"/>
          <path id="Tracé_486" data-name="Tracé 486" d="M372.554,321.8l-.66,2.139-2.565.587-1.121-.953.388-2.858Z" transform="translate(-197.552 -172.069)" fill="#343352"/>
          <path id="Tracé_487" data-name="Tracé 487" d="M353.367,328.181l8.221-.074,3.147-.028c-.134,0,.014-3.217-.2-3.459-.326-.374-.648.13-.992.306a2.485,2.485,0,0,1-1.11.278,2.22,2.22,0,0,1-.4-.03,1.993,1.993,0,0,1,.008-1.454c-.636-.222-1.272-.446-1.908-.668a9.222,9.222,0,0,0-.922,1.442,1.153,1.153,0,0,1-.23.34,1.093,1.093,0,0,1-.4.194,14.556,14.556,0,0,0-5.217,3.153" transform="translate(-189.589 -173.324)" fill="#4d4c74"/>
          <path id="Tracé_488" data-name="Tracé 488" d="M369.641,327.575a1.491,1.491,0,0,1,.574,1.3,4.29,4.29,0,0,0,.1.892l3.148-.028c-.134,0,.014-3.217-.2-3.459-.326-.374-.648.13-.992.306a2.486,2.486,0,0,1-1.11.278c-.042.31-.1.672-.268.772a.348.348,0,0,1-.206.026l-1.054-.086" transform="translate(-198.32 -174.983)" fill="#414062"/>
          <path id="Tracé_489" data-name="Tracé 489" d="M409.128,322.634l.181,2.515h3.42l.181-2.515Z" transform="translate(-219.505 -173.099)" fill="#343352"/>
          <path id="Tracé_490" data-name="Tracé 490" d="M406.655,328.572l6.063-.046,1.952-.016a3.12,3.12,0,0,0-1.218-2.056,5.6,5.6,0,0,1-1.31-1.494c-.294-.562-.384-.974-.984-.992a1.275,1.275,0,0,0-.212.006,1.686,1.686,0,0,0-1.148.41,1.986,1.986,0,0,0-.294.49c-.168.354-.268.807-.76.673a1.291,1.291,0,0,1-.436-.248,3.469,3.469,0,0,0-.4-.3c-.07-.04-.162-.072-.224-.022a.212.212,0,0,0-.064.126c-.3,1.158-.674,2.3-.964,3.47" transform="translate(-218.179 -173.815)" fill="#4d4c74"/>
          <path id="Tracé_491" data-name="Tracé 491" d="M415.56,326.069a4.059,4.059,0,0,1,1.312,1.408c.216.346.412.7.624,1.052l1.952-.016a3.121,3.121,0,0,0-1.218-2.056,5.6,5.6,0,0,1-1.31-1.494c-.294-.562-.384-.974-.984-.992a1.454,1.454,0,0,0,.054.326,13.58,13.58,0,0,1,.352,1.46,1.534,1.534,0,0,0-.782.312" transform="translate(-222.957 -173.817)" fill="#414062"/>
          <path id="Tracé_492" data-name="Tracé 492" d="M368.209,251.589l3.359.72,1.362.292s1.181-3.287,3.279-11.552a53.871,53.871,0,0,0,1.312-16.373l3.789-15.214.278,1.844,2.4,15.9c-.22,2.886,2.712,25.284,2.712,25.284l3.493.088,1.1.028,1.274-25.664s.3-16.56.564-20.363a61.135,61.135,0,0,0-1.192-13.924l-8.563-.636-10.986-.818c-1.852,5.479-3.66,30.493-3.66,32.129s.394,6.761.394,6.761c.262,6.559-.918,21.5-.918,21.5" transform="translate(-197.552 -102.581)" fill="#74ccff"/>
          <path id="Tracé_493" data-name="Tracé 493" d="M397.077,234.584c.149,1.332.322,2.661.486,3.991s.343,2.658.518,3.987l.547,3.982.569,3.979,0-.065c0,.275-.008.552-.006.825l.038.8c.023.535.075,1.062.111,1.594q.129,1.589.3,3.171c.107,1.056.229,2.109.347,3.164l.387,3.158q.4,3.156.852,6.3c.146,1.05.311,2.1.47,3.146s.322,2.1.5,3.142c-.1-1.057-.2-2.111-.311-3.166l-.321-3.164-.672-6.323-.664-6.32-.3-3.16c-.038-.526-.093-1.054-.118-1.578l-.043-.787v-.813l0-.016-.633-3.969-.654-3.966c-.227-1.32-.446-2.642-.685-3.961s-.464-2.64-.716-3.957" transform="translate(-213.04 -125.859)" fill="#85e2ff"/>
          <path id="Tracé_494" data-name="Tracé 494" d="M372.391,191.2c-.177.605-.388,1.206-.514,1.827l-.211.926c-.068.31-.12.621-.181.932-.246,1.242-.438,2.493-.637,3.743-.368,2.5-.667,5.017-.96,7.53q-.843,7.544-1.348,15.12l-.057.949c-.019.315-.035.633-.044.96-.011.65.031,1.279.061,1.914q.106,1.9.251,3.79l.075.946c.033.314.029.62.042.936.026.624.023,1.256.029,1.886,0,1.26-.019,2.522-.044,3.785-.057,2.525-.159,5.05-.279,7.575-.1,2.526-.241,5.05-.367,7.576.262-2.516.461-5.037.661-7.558.179-2.523.334-5.048.446-7.577l.074-1.9c.013-.634.03-1.266.035-1.9s.011-1.267-.008-1.907c-.009-.316,0-.643-.032-.958l-.064-.945c-.083-1.26-.169-2.52-.233-3.779-.027-.628-.066-1.262-.053-1.876.009-.305.026-.618.046-.934l.059-.944c.329-5.04.755-10.078,1.206-15.111.236-2.515.485-5.03.793-7.538.154-1.253.3-2.508.5-3.755.05-.311.091-.625.147-.935l.177-.93c.1-.626.277-1.231.426-1.846" transform="translate(-197.551 -102.581)" fill="#85e2ff"/>
          <path id="Tracé_495" data-name="Tracé 495" d="M375.457,264.594l1.362.292S378,261.6,380.1,253.334a53.879,53.879,0,0,0,1.312-16.373l3.789-15.214.278,1.844.022-.192q-.318-2.5-.634-5a11.393,11.393,0,0,0-.345-1.71.555.555,0,0,0-.056-.142.579.579,0,0,0-.161-.15c-.981-.716-1.713-1.773-2.8-2.3a3.132,3.132,0,0,1,.711,1.655.365.365,0,0,1-.014.187.39.39,0,0,1-.267.176l-1.037.318a2.8,2.8,0,0,1,.3,1.423c.033,1.644-.176,3.289-.281,4.929q-.163,2.533-.411,5.06-.087.884-.184,1.767a20.512,20.512,0,0,1-.822,4.347c-.68,2-1.958,3.9-1.809,6.007a76.591,76.591,0,0,1,.26,11.5,60.352,60.352,0,0,1-2.179,11.982c-.11.378-.222.762-.31,1.15" transform="translate(-201.44 -114.866)" fill="#5eb9ed"/>
          <path id="Tracé_496" data-name="Tracé 496" d="M400.939,192.961c1.344,1.7,4.427,3.73,4.907,4.379a12.761,12.761,0,0,1,1.98,4.955c2.066,9.417.379,22.351-.03,33.169-.118,3.085-.1,6.173-.084,9.26q.024,4.4.046,8.795l1.1.028,1.274-25.664s.3-16.56.564-20.363A61.131,61.131,0,0,0,409.5,193.6Z" transform="translate(-215.112 -103.528)" fill="#5eb9ed"/>
          <path id="Tracé_497" data-name="Tracé 497" d="M378.845,261.274l-.394.616c-.133.2-.268.392-.413.58s-.294.369-.451.551l-.49.543a2.282,2.282,0,0,0,.651-.373,2.962,2.962,0,0,0,.528-.538,3.008,3.008,0,0,0,.38-.652,2.311,2.311,0,0,0,.188-.727" transform="translate(-202.321 -140.179)" fill="#3ca0d9"/>
          <path id="Tracé_498" data-name="Tracé 498" d="M416.613,263.981a6.907,6.907,0,0,0-.374.714c-.114.24-.215.485-.317.729s-.194.493-.279.745a6.989,6.989,0,0,0-.225.773,4.513,4.513,0,0,0,.44-.679,7.072,7.072,0,0,0,.6-1.488,4.548,4.548,0,0,0,.155-.794" transform="translate(-222.881 -141.631)" fill="#3ca0d9"/>
          <path id="Tracé_499" data-name="Tracé 499" d="M392.479,222.247a17.746,17.746,0,0,0-.064-2.38,23.413,23.413,0,0,0-.333-2.36c-.042-.2-.074-.386-.134-.6a1.352,1.352,0,0,0-.333-.587c-.155-.157-.3-.274-.456-.406s-.3-.256-.459-.38a18.731,18.731,0,0,0-1.937-1.384c.576.548,1.157,1.081,1.733,1.619l.43.405c.14.135.294.272.411.4a1,1,0,0,1,.236.439c.047.171.079.372.117.563.154.771.287,1.545.418,2.322Z" transform="translate(-208.579 -114.898)" fill="#3ca0d9"/>
          <path id="Tracé_500" data-name="Tracé 500" d="M390.44,219.468a2.421,2.421,0,0,0-2.183-.75,8.312,8.312,0,0,1,1.122.287,8.186,8.186,0,0,1,1.061.463" transform="translate(-208.308 -117.326)" fill="#3ca0d9"/>
          <path id="Tracé_501" data-name="Tracé 501" d="M396.785,218.724a5.724,5.724,0,0,0,1.13.065,5.626,5.626,0,0,0,1.124-.134,5.621,5.621,0,0,0-1.13-.065,5.692,5.692,0,0,0-1.124.134" transform="translate(-212.883 -117.276)" fill="#3ca0d9"/>
          <path id="Tracé_502" data-name="Tracé 502" d="M397.03,220.133a4.215,4.215,0,0,0,1.8.294,3.713,3.713,0,0,0-.885-.245,3.774,3.774,0,0,0-.917-.049" transform="translate(-213.015 -118.1)" fill="#3ca0d9"/>
          <path id="Tracé_503" data-name="Tracé 503" d="M391.357,199.915c-.163,1.205-.26,2.418-.322,3.634l-.018.456a1.009,1.009,0,0,0,.068.489,1.155,1.155,0,0,0,.331.361l.354.287c.471.383.942.768,1.419,1.143l.154.121,0-.195c.01-.976.033-1.951.03-2.927s0-1.952-.016-2.929c-.054.975-.093,1.95-.126,2.926s-.053,1.951-.08,2.927l.156-.073c-.47-.386-.946-.762-1.422-1.14l-.356-.283a.993.993,0,0,1-.287-.3.855.855,0,0,1-.055-.405l.011-.455c.023-1.213.085-2.426.157-3.64" transform="translate(-209.788 -107.258)" fill="#3ca0d9"/>
          <path id="Tracé_504" data-name="Tracé 504" d="M411.634,199.264c.3.548.495,1.129.752,1.7.122.289.268.567.411.846s.307.547.473.814a13.124,13.124,0,0,0,1.115,1.516,10.256,10.256,0,0,0,1.336,1.318c-.366-.509-.736-1-1.09-1.51s-.7-1.014-1.023-1.537-.641-1.049-.944-1.586a7.349,7.349,0,0,0-1.03-1.564" transform="translate(-220.85 -106.909)" fill="#3ca0d9"/>
          <path id="Tracé_505" data-name="Tracé 505" d="M376.695,196.088a7.62,7.62,0,0,0-.625,1.558c-.174.526-.34,1.052-.524,1.572s-.364,1.041-.555,1.56-.393,1.034-.583,1.564a9.231,9.231,0,0,0,.87-1.44,13.154,13.154,0,0,0,.646-1.554,14.032,14.032,0,0,0,.446-1.621c.118-.549.19-1.093.325-1.638" transform="translate(-200.878 -105.205)" fill="#3ca0d9"/>
          <path id="Tracé_506" data-name="Tracé 506" d="M462.935,138.75c.217.354.433.746.655,1.134a9.669,9.669,0,0,0,.692,1.062c.2-.146.414-.292.636-.432a7.531,7.531,0,0,1,1.343-.694,4.745,4.745,0,0,1,.539-.17c-.034,0-.126-.13-.247-.326-.328-.532-.864-1.548-.96-1.686-.068-.1-.15-.252-.248-.386a.633.633,0,0,0-.32-.274c-.136-.036-.305.084-.462.234s-.28.306-.356.382a5.765,5.765,0,0,1-1.23.886.224.224,0,0,0-.086.072c-.034.06,0,.138.042.2" transform="translate(-248.345 -73.488)" fill="#ffcaab"/>
          <path id="Tracé_507" data-name="Tracé 507" d="M466.7,134.167a2.957,2.957,0,0,0,.19.514c.014.034.03.066.046.1a1.749,1.749,0,0,0,.944.91,1.837,1.837,0,0,0,.326.074,8.9,8.9,0,0,0,1.28.024,10.671,10.671,0,0,0,1.68-.118,15.268,15.268,0,0,0,1.774-.24,6.659,6.659,0,0,0,1.706-.63c.367-.216.71-.476,1.07-.7.092-.06.186-.116.28-.168a.427.427,0,0,0-.26-.262l.734-.432a.513.513,0,0,0-.322-.412,2.252,2.252,0,0,1,.362-.192,1.043,1.043,0,0,0-.1-.34.342.342,0,0,0-.286-.182c.078-.03.16-.06.238-.092-.2-.71-1.116-.308-1.56-.156a12.573,12.573,0,0,1-4.255.61,11.96,11.96,0,0,1-1.27-.1c.032-.856.718-1.648.234-2.506a1.349,1.349,0,0,0-.116-.174s0,0,0,0a.76.76,0,0,0-.266-.228.445.445,0,0,0-.53.072.327.327,0,0,0-.052.114c-.01.046-.012.094-.018.144a2.84,2.84,0,0,1-.182.922c-.358.84-1.362,1.264-1.744,2.1a1.083,1.083,0,0,0-.092.338,2.877,2.877,0,0,0,.192,1.012" transform="translate(-250.289 -69.431)" fill="#ffcaab"/>
          <path id="Tracé_508" data-name="Tracé 508" d="M466.124,141.079a3.2,3.2,0,0,0,.488.8,7.473,7.473,0,0,1,1.344-.694,8.972,8.972,0,0,0,1.28.024,10.679,10.679,0,0,0,1.68-.118,15.271,15.271,0,0,0,1.773-.24,6.692,6.692,0,0,0,1.706-.63c.368-.216.71-.476,1.07-.7a6.281,6.281,0,0,0-1.066.516,9.685,9.685,0,0,1-4.263.818,5.161,5.161,0,0,1-1.888-.162l-.032-.01a2.558,2.558,0,0,1-1.266-.994c0,.19-.142.31-.31.418-.232.146-.522.272-.59.524a.7.7,0,0,0,.074.452" transform="translate(-250.038 -74.854)" fill="#ffb68c"/>
          <path id="Tracé_509" data-name="Tracé 509" d="M471.745,133.843a.881.881,0,0,1,.462-.782,2.336,2.336,0,0,1,.916-.254v-.01a11.825,11.825,0,0,1-1.27-.1c.032-.856.718-1.648.234-2.506a1.435,1.435,0,0,0-.116-.174.791.791,0,0,1,.056.238,3.451,3.451,0,0,1-.56,2.218.324.324,0,0,0-.032.348,1.193,1.193,0,0,1,.073.4,1.638,1.638,0,0,1-.2.92c.248-.093.632.174.8.336a1.025,1.025,0,0,1-.366-.64" transform="translate(-252.865 -69.759)" fill="#ffb68c"/>
          <path id="Tracé_510" data-name="Tracé 510" d="M471.554,136.579a1.625,1.625,0,0,1-.374,1.044l-.053.062.08.019a2.6,2.6,0,0,1,.573.209,2.871,2.871,0,0,1,.518.338,1.852,1.852,0,0,0-.48-.407,2.007,2.007,0,0,0-.589-.237l.027.08a1.359,1.359,0,0,0,.3-1.108" transform="translate(-252.769 -73.277)" fill="#eda073"/>
          <path id="Tracé_511" data-name="Tracé 511" d="M482.486,135.231c-.585.14-1.15.347-1.724.514a9.849,9.849,0,0,1-1.748.392,6,6,0,0,0,1.776-.3c.575-.18,1.136-.392,1.695-.61" transform="translate(-257.001 -72.554)" fill="#eda073"/>
          <path id="Tracé_512" data-name="Tracé 512" d="M482.119,137c-.585.14-1.15.347-1.724.514a9.85,9.85,0,0,1-1.748.392,6,6,0,0,0,1.777-.3c.575-.18,1.136-.391,1.7-.61" transform="translate(-256.804 -73.504)" fill="#eda073"/>
          <path id="Tracé_513" data-name="Tracé 513" d="M482.02,138.921a15.243,15.243,0,0,0-1.627.575q-.4.159-.812.277a5.891,5.891,0,0,1-.84.176,3.743,3.743,0,0,0,.86-.1,6.733,6.733,0,0,0,.827-.258c.538-.212,1.058-.451,1.592-.668" transform="translate(-256.854 -74.534)" fill="#eda073"/>
          <path id="Tracé_514" data-name="Tracé 514" d="M360.567,93.914c-.149-.045-.424.418-.615,1.035s-.223,1.154-.074,1.2l.4.129a7.147,7.147,0,0,1,.218-1.164,7.768,7.768,0,0,1,.441-1.066s-.342-.126-.366-.133" transform="translate(-193.032 -50.385)" fill="#5d5c75"/>
          <path id="Tracé_515" data-name="Tracé 515" d="M361.357,94.2c-.149-.045-.424.418-.615,1.035s-.223,1.154-.074,1.2.424-.418.614-1.035.224-1.154.075-1.2" transform="translate(-193.456 -50.539)" fill="#404052"/>
          <path id="Tracé_516" data-name="Tracé 516" d="M360.706,96.1a9.84,9.84,0,0,0,1.21.382c.432.11.868.212,1.268.328.068.02.152.036.2-.014a.22.22,0,0,0,.046-.1,5.681,5.681,0,0,1,.524-1.422c.052-.094.176-.268.272-.446s.172-.386.1-.508a.637.637,0,0,0-.35-.234c-.156-.058-.328-.1-.44-.136a19.183,19.183,0,0,1-2.262-.624,4.5,4.5,0,0,1-.018.566,8.992,8.992,0,0,1-.554,2.209" transform="translate(-193.526 -50.069)" fill="#ffcaab"/>
          <path id="Tracé_517" data-name="Tracé 517" d="M359.855,79.637a15.825,15.825,0,0,0,.244,1.774,10.663,10.663,0,0,0,.338,1.65,8.816,8.816,0,0,0,.366,1.226,1.55,1.55,0,0,0,1.288.96,3.222,3.222,0,0,0,.654.064,2.837,2.837,0,0,0,1.026-.088,1.055,1.055,0,0,0,.3-.178c.706-.594.844-1.674,1.558-2.243a2.833,2.833,0,0,1,.84-.424,1.332,1.332,0,0,0,.134-.056.326.326,0,0,0,.1-.08.447.447,0,0,0-.074-.53.94.94,0,0,0-.492-.26c-.956-.238-1.54.262-2.355.522a11.174,11.174,0,0,1-.982-5.087c.028-.468.168-1.459-.568-1.459-.01.084-.018.17-.026.254a.338.338,0,0,0-.252-.226,1,1,0,0,0-.354-.006,2.14,2.14,0,0,1-.088.4.513.513,0,0,0-.482-.2c-.074.276-.146.55-.22.824a.423.423,0,0,0-.322-.18c-.126.52-.342,1.016-.478,1.534a6.728,6.728,0,0,0-.15,1.812" transform="translate(-193.069 -40.468)" fill="#ffcaab"/>
          <path id="Tracé_518" data-name="Tracé 518" d="M363.316,94.856c.432.11.868.212,1.268.328.068.02.152.036.2-.014a.215.215,0,0,0,.046-.1,5.7,5.7,0,0,1,.524-1.421c.052-.094.176-.268.272-.446a1.076,1.076,0,0,0,.3-.178c.706-.594.844-1.674,1.558-2.244a2.844,2.844,0,0,1,.84-.424,1.331,1.331,0,0,0,.134-.056,1.684,1.684,0,0,0-.9.186c-.5.29-.746.866-1.117,1.282a2.581,2.581,0,0,1-2.538.75,2.692,2.692,0,0,1,.044.708,2.9,2.9,0,0,1-.632,1.632" transform="translate(-194.927 -48.446)" fill="#ffb68c"/>
          <path id="Tracé_519" data-name="Tracé 519" d="M365.29,89.558a1.359,1.359,0,0,0-.988.584l.084,0a2.025,2.025,0,0,0-.386-.5,1.864,1.864,0,0,0-.521-.353,2.9,2.9,0,0,1,.464.408,2.593,2.593,0,0,1,.355.5l.039.071.045-.067a1.624,1.624,0,0,1,.906-.641" transform="translate(-195.015 -47.906)" fill="#eda073"/>
          <path id="Tracé_520" data-name="Tracé 520" d="M364.963,76.7c-.061.6-.114,1.194-.133,1.8a6.006,6.006,0,0,0,.191,1.791,9.829,9.829,0,0,1-.091-1.789c.007-.6.055-1.2.033-1.8" transform="translate(-195.738 -41.151)" fill="#eda073"/>
          <path id="Tracé_521" data-name="Tracé 521" d="M363.355,77.529c-.061.6-.114,1.194-.133,1.8a6.022,6.022,0,0,0,.191,1.791,9.832,9.832,0,0,1-.091-1.789c.007-.6.055-1.2.033-1.8" transform="translate(-194.875 -41.596)" fill="#eda073"/>
          <path id="Tracé_522" data-name="Tracé 522" d="M361.462,78.355c-.066.572-.156,1.137-.217,1.712a6.84,6.84,0,0,0-.026.867,3.753,3.753,0,0,0,.133.856,5.979,5.979,0,0,1-.056-.857,8.555,8.555,0,0,1,.049-.856,15.216,15.216,0,0,0,.117-1.721" transform="translate(-193.798 -42.039)" fill="#eda073"/>
          <path id="Tracé_523" data-name="Tracé 523" d="M360.231,95.4a1.425,1.425,0,0,0-.255.768,10.952,10.952,0,0,1,2.339.636c.128.042.971.394.949.477a3.448,3.448,0,0,0,.249-.7,2.6,2.6,0,0,0-.954-.53,13.89,13.89,0,0,0-2.327-.647" transform="translate(-193.135 -51.179)" fill="#5d5c75"/>
          <path id="Tracé_524" data-name="Tracé 524" d="M348.187,114.486a3.16,3.16,0,0,0,1.614,1.126c.672.272,1.354.526,2.04.758a37.13,37.13,0,0,0,4.741,1.258,13.121,13.121,0,0,1,3.193.742,25.077,25.077,0,0,1,3,1.63c.1.062.2.126.3.19a12.156,12.156,0,0,1,1.84-7.353c.54-.846,1.374-2.494.034-3.084a3.225,3.225,0,0,0-2.1.108,5.856,5.856,0,0,1-1.864.33,6.339,6.339,0,0,1-1.446-.374c-1.891-.634-3.4-1.4-5.327-.888a11.09,11.09,0,0,0,.56-1.728c.818-3,1.393-5.308,2.211-8.308-.174-.034-.376-.08-.59-.132-1.142-.276-2.665-.734-2.665-.734a24.731,24.731,0,0,1-1.761,3.765q-1.455,2.246-2.728,4.617a12.339,12.339,0,0,0-.948,2.1,13.916,13.916,0,0,0-.436,4.057,3.607,3.607,0,0,0,.34,1.922" transform="translate(-186.626 -52.593)" fill="#e2f1ff"/>
          <path id="Tracé_525" data-name="Tracé 525" d="M356.119,135.6c.052.048.106.1.16.144A37.313,37.313,0,0,0,361.02,137a13.122,13.122,0,0,1,3.193.742,25.184,25.184,0,0,1,3,1.63c0-.48.016-.956.03-1.428.016-.638.164-1.276.192-1.92.008-.19-.116-1.85-.05-1.886-.366.2-.536.62-.766.968-.582.869-1.082.224-1.854.288a3.411,3.411,0,0,0-1.047.366c-2.364,1.036-5.088.446-7.6-.162" transform="translate(-191.065 -71.969)" fill="#c9e0f5"/>
          <path id="Tracé_526" data-name="Tracé 526" d="M352.163,114.547c.926-.8,1.62-1.848,2.582-2.6a5.664,5.664,0,0,1,7.549.494,15.635,15.635,0,0,1,2.864-1.728,5.845,5.845,0,0,1-1.864.33,6.343,6.343,0,0,1-1.446-.374c-1.891-.634-3.4-1.4-5.327-.888a11.152,11.152,0,0,0,.56-1.728c.818-3,1.392-5.308,2.21-8.308-.174-.034-.376-.08-.59-.132-.23.692-.189.905-.323,1.315-.691,2.119-1.593,4.157-2.333,6.257a20.087,20.087,0,0,1-1.076,2.4c-.934,1.668-2.366,3.108-2.805,4.967" transform="translate(-188.943 -53.443)" fill="#c9e0f5"/>
          <path id="Tracé_527" data-name="Tracé 527" d="M362.981,101.535l.035-.2a10.785,10.785,0,0,1-2.941-.972l-.089.179a10.99,10.99,0,0,0,3,.99" transform="translate(-193.139 -53.848)" fill="#afc9df"/>
          <path id="Tracé_528" data-name="Tracé 528" d="M365.225,100.761a.292.292,0,1,0,.292-.292.292.292,0,0,0-.292.292" transform="translate(-195.951 -53.904)" fill="#95abbe"/>
          <path id="Tracé_529" data-name="Tracé 529" d="M357.35,122.872a16.422,16.422,0,0,0-1.3,1.463,5.1,5.1,0,0,0-.959,1.707,12.647,12.647,0,0,1,1.117-1.583,17.365,17.365,0,0,0,1.139-1.586" transform="translate(-190.516 -65.923)" fill="#a0bfda"/>
          <path id="Tracé_530" data-name="Tracé 530" d="M355.447,127.177a2.935,2.935,0,0,0-.474.281,2.887,2.887,0,0,0-.425.351,1.04,1.04,0,0,0,.9-.633" transform="translate(-190.222 -68.233)" fill="#a0bfda"/>
          <path id="Tracé_531" data-name="Tracé 531" d="M374.262,133.834a7.116,7.116,0,0,0-.849-.939,7.026,7.026,0,0,0-.986-.793,8.01,8.01,0,0,0,1.835,1.732" transform="translate(-199.815 -70.875)" fill="#a0bfda"/>
          <path id="Tracé_532" data-name="Tracé 532" d="M363.713,132.809c-.665-.26-1.334-.484-2-.717s-1.337-.461-2.022-.661a13.339,13.339,0,0,0,4.025,1.378" transform="translate(-192.98 -70.515)" fill="#a0bfda"/>
          <path id="Tracé_533" data-name="Tracé 533" d="M377.221,152.419c.11.99,4.665,2.564,8.109,2.678.378.012.806.016,1.27.01,3.765-.046,9.873-.642,10.171-1.234.332-.668.14-1.99,0-3.331l.206-2.6.306-3.853.154-2.13.924-7.257,2.075-10.664-4.443-2.8-2.065-1.021-1.26-.194-7.087-1.1-5.833,2.164s-1.859,5.4-1.97,8.854.222,8.471.222,8.471l-.222,11.36a7.337,7.337,0,0,0-.556,2.65" transform="translate(-202.38 -63.804)" fill="#e2f1ff"/>
          <path id="Tracé_534" data-name="Tracé 534" d="M379.863,127.261A24.682,24.682,0,0,0,378.6,137.51c.066-1.73.173-3.447.387-5.155s.519-3.4.876-5.095" transform="translate(-203.072 -68.278)" fill="#a0bfda"/>
          <path id="Tracé_535" data-name="Tracé 535" d="M398.808,133.731a47.525,47.525,0,0,1,1-7.445l-.291-.073a47.681,47.681,0,0,0-1.007,7.493" transform="translate(-213.808 -67.716)" fill="#a0bfda"/>
          <path id="Tracé_536" data-name="Tracé 536" d="M401,130.211a.492.492,0,1,0,.547-.5.524.524,0,0,0-.547.5" transform="translate(-215.141 -69.593)" fill="#7890a5"/>
          <path id="Tracé_537" data-name="Tracé 537" d="M400.124,137.08a.492.492,0,1,0,.547-.5.524.524,0,0,0-.547.5" transform="translate(-214.673 -73.279)" fill="#7890a5"/>
          <path id="Tracé_538" data-name="Tracé 538" d="M407.544,137.075c2.741,2.07,4.112,5.4,6.013,8.283l.154-2.13.924-7.257,2.076-10.664-4.443-2.8-2.066-1.021-1.26-.194a4.9,4.9,0,0,0,.25,1.36,13.912,13.912,0,0,1,1.246,5.507,33.139,33.139,0,0,1-.338,4.67,8.248,8.248,0,0,1-.68,2.519,3.3,3.3,0,0,1-1.876,1.73" transform="translate(-218.656 -65.074)" fill="#c9e0f5"/>
          <path id="Tracé_539" data-name="Tracé 539" d="M396.578,191.814a56.456,56.456,0,0,1-11.347.958c-6.662.022-8.325-2.333-8.325-2.333l-.26,1.283s2.418,2.327,8.585,2.383a57.9,57.9,0,0,0,11.539-1.126Z" transform="translate(-202.078 -102.175)" fill="#4d4c74"/>
          <path id="Tracé_540" data-name="Tracé 540" d="M410.355,196.155l1.189-.11-.165-1.827-1.189.11Z" transform="translate(-220.076 -104.202)" fill="#5eb9ed"/>
          <path id="Tracé_541" data-name="Tracé 541" d="M379.343,193.924l.95.456.482-1.769-.95-.456Z" transform="translate(-203.525 -103.095)" fill="#74ccff"/>
          <path id="Tracé_542" data-name="Tracé 542" d="M391.362,196.8l1.489.07a1.131,1.131,0,0,0,.107-2.259l-1.489-.07a1.131,1.131,0,0,0-.107,2.259" transform="translate(-209.396 -104.374)" fill="#a2a1c9"/>
          <path id="Tracé_543" data-name="Tracé 543" d="M395.269,112.341l3.14,2.264,3.591-1.37.76-.29-.942-2.288-5.315-4a7.653,7.653,0,0,1-.038,1.072v0c-.154,1.658-.688,4.019-1.2,4.609" transform="translate(-212.07 -57.224)" fill="#ffcaab"/>
          <path id="Tracé_544" data-name="Tracé 544" d="M397.849,107.73v0a13.96,13.96,0,0,0,1.308,2.26,9.728,9.728,0,0,0,4.227,3.243l.76-.29-.942-2.288-5.315-4a7.73,7.73,0,0,1-.038,1.072" transform="translate(-213.454 -57.224)" fill="#eda073"/>
          <path id="Tracé_545" data-name="Tracé 545" d="M399.861,120.619c.6-.527,1.417-.749,2.037-1.253a2.848,2.848,0,0,0,.981-1.971,2.156,2.156,0,0,0-1.364-2.041,1.022,1.022,0,0,1-.051.945,2.115,2.115,0,0,1-.712.736,3.915,3.915,0,0,1-4.6.132c-1.081-.892-1.036-2.242-.774-3.5a3.08,3.08,0,0,0-1.423,2.157c-.127.88-.12,2.687.477,3.346.375.414,1.167-.146,1.726-.119a3.521,3.521,0,0,1,1.776.247,16.364,16.364,0,0,1,1.924,1.319" transform="translate(-211.331 -60.986)" fill="#afc9df"/>
          <path id="Tracé_546" data-name="Tracé 546" d="M416.328,89.2a9.922,9.922,0,0,1-.6,1.946,6.789,6.789,0,0,0-.668-2.248,2.969,2.969,0,0,1-.247-.571,2.44,2.44,0,0,1,.033-1.027,1.482,1.482,0,0,1,.323-.818c.467-.47.9-.006,1.064.423a4.105,4.105,0,0,1,.1,2.294" transform="translate(-222.532 -46.292)" fill="#7b5252"/>
          <path id="Tracé_547" data-name="Tracé 547" d="M395.407,92.855a16.23,16.23,0,0,1,.99,2.388,6.8,6.8,0,0,0,.755,2.591,4.49,4.49,0,0,0,1.008,1.186,6.527,6.527,0,0,0,3.573,1.5,2.565,2.565,0,0,0,2.026-.506,2.456,2.456,0,0,0,.376-.472c.016-.026.032-.05.048-.076a9.432,9.432,0,0,0,1.39-3.972,18.248,18.248,0,0,0-.11-3.535c-.03-.548.078-1.092.1-1.64.046-1.39-.564-3.319-2.1-3.713l-.048-.012a2.263,2.263,0,0,0-.234-.04.064.064,0,0,0-.02,0c-.144-.014-.288-.018-.432-.024-.774-.022-1.56-.042-2.334.01a8.142,8.142,0,0,0-2.4.474,2.725,2.725,0,0,0-.682.352,3.436,3.436,0,0,0-.846,1.124,11.4,11.4,0,0,0-.976,2.092,3.949,3.949,0,0,0-.086,2.278" transform="translate(-212.074 -46.411)" fill="#ffcaab"/>
          <path id="Tracé_548" data-name="Tracé 548" d="M404.958,87.194c.122.168.606.194.8.25a5.965,5.965,0,0,1,1.918.868,2.637,2.637,0,0,1,1.16,2.492,3.319,3.319,0,0,0-.152.852,2.093,2.093,0,0,0,.26.726,8.808,8.808,0,0,1,.738,4.258A19.156,19.156,0,0,1,409.3,99.4l.048-.076a9.432,9.432,0,0,0,1.389-3.972,18.249,18.249,0,0,0-.11-3.535c-.03-.548.078-1.092.1-1.64.046-1.39-.564-3.319-2.1-3.713-.094-.02-.188-.036-.282-.052a.081.081,0,0,0-.02,0,11.7,11.7,0,0,0-1.42-.158,3.339,3.339,0,0,0-1.346.144,1.579,1.579,0,0,0-.26.122c-.19.11-.526.424-.342.676" transform="translate(-217.24 -46.271)" fill="#ffb68c"/>
          <path id="Tracé_549" data-name="Tracé 549" d="M394.122,85.894a1.676,1.676,0,0,1-.085-.567,1.59,1.59,0,0,1,.132-.449l.87-2.151a1.022,1.022,0,0,1,.285-.453,1,1,0,0,1,.5-.154,28.464,28.464,0,0,1,5.917-.083,2.085,2.085,0,0,0,.794-.026,1.71,1.71,0,0,0,.5-.272,5.689,5.689,0,0,0,1.1-1.053c1.292-1.621-.75-4.157-2.385-4.573a1.093,1.093,0,0,1,.243,1.016,2.7,2.7,0,0,0-2-1.165.776.776,0,0,1,.193.576,1.65,1.65,0,0,0-1.331-.43.268.268,0,0,1,.041.4.8.8,0,0,1-.4.213,20.473,20.473,0,0,0-3.149,1.3,13,13,0,0,0-2.741,1.581c-.5.437-.484.966-.768,1.51a9.919,9.919,0,0,1-.682.83,2.566,2.566,0,0,0-.248,1.679,10.852,10.852,0,0,0,.959,3.849,8.559,8.559,0,0,0,.86,1.423,4.8,4.8,0,0,0,.509.589c.09.087.622.476.617.586.023-.456-.027-.951.039-1.4a.341.341,0,0,1,.226-.336c.044-.023.451-.139.451-.145a11.112,11.112,0,0,0-.444-2.3" transform="translate(-209.712 -40.756)" fill="#7b5252"/>
          <path id="Tracé_550" data-name="Tracé 550" d="M396.569,89.852a3.718,3.718,0,0,0-.583,2.851,12.731,12.731,0,0,1,.2-1.445,12.509,12.509,0,0,1,.387-1.406" transform="translate(-212.412 -48.207)" fill="#906160"/>
          <path id="Tracé_551" data-name="Tracé 551" d="M394.369,89.107a1.545,1.545,0,0,0-.468.793,4.793,4.793,0,0,0-.141.913A4.37,4.37,0,0,0,394,92.628a10.43,10.43,0,0,1-.042-1.8c.022-.3.042-.6.093-.892a2.021,2.021,0,0,1,.317-.828" transform="translate(-211.254 -47.808)" fill="#906160"/>
          <path id="Tracé_552" data-name="Tracé 552" d="M392.638,88.17a1.878,1.878,0,0,0-.576.715,2.825,2.825,0,0,0-.252.894,3.28,3.28,0,0,0,.293,1.8,6.349,6.349,0,0,1-.117-.891,5.085,5.085,0,0,1,.023-.885,3.134,3.134,0,0,1,.629-1.632" transform="translate(-210.203 -47.305)" fill="#906160"/>
          <path id="Tracé_553" data-name="Tracé 553" d="M396.243,83.223a1.214,1.214,0,0,1,.28-.621,1.678,1.678,0,0,1,.523-.428,5.429,5.429,0,0,1,1.285-.5c.448-.126.905-.207,1.365-.319a4.7,4.7,0,0,0,.679-.218,2.475,2.475,0,0,0,.6-.375,3.7,3.7,0,0,1-1.313.443,13.9,13.9,0,0,0-1.386.276,4.5,4.5,0,0,0-1.313.56,1.8,1.8,0,0,0-.522.5,1.166,1.166,0,0,0-.2.679" transform="translate(-212.592 -43.332)" fill="#906160"/>
          <path id="Tracé_554" data-name="Tracé 554" d="M400.087,83.064a3.428,3.428,0,0,1,1.341-.6,7.5,7.5,0,0,1,1.466-.164,4.635,4.635,0,0,0,1.5-.21,1.771,1.771,0,0,0,.639-.428c.087-.093.167-.189.247-.285a.762.762,0,0,0,.183-.329.853.853,0,0,1-.222.292c-.091.085-.182.171-.276.25a1.651,1.651,0,0,1-.623.355,5.589,5.589,0,0,1-1.458.155,5.857,5.857,0,0,0-1.5.215,3.662,3.662,0,0,0-.7.287,2.546,2.546,0,0,0-.6.46" transform="translate(-214.655 -43.484)" fill="#906160"/>
          <path id="Tracé_555" data-name="Tracé 555" d="M405.715,82.773a5.9,5.9,0,0,1,1.745-.2c.585,0,1.169.1,1.778.074a2.266,2.266,0,0,0,.9-.211,1.564,1.564,0,0,0,.659-.647,1.471,1.471,0,0,0,.184-.892,1.253,1.253,0,0,0-.422-.78,1.312,1.312,0,0,1,.105,1.594,1.476,1.476,0,0,1-.612.556,2.12,2.12,0,0,1-.822.181c-.575.035-1.169-.062-1.769-.027a6.758,6.758,0,0,0-.891.094,3.847,3.847,0,0,0-.852.263" transform="translate(-217.674 -42.982)" fill="#906160"/>
          <path id="Tracé_556" data-name="Tracé 556" d="M394.865,98.681a.257.257,0,0,0-.154.034.314.314,0,0,0-.1.141,2.958,2.958,0,0,0,.2,2.084,11.6,11.6,0,0,0,.526,1.229,1.471,1.471,0,0,0,.293.43.426.426,0,0,0,.436.116.52.52,0,0,0,.258-.449,2.091,2.091,0,0,0-.065-.579c-.23-1.144.006-2.988-1.393-3.006" transform="translate(-211.652 -52.944)" fill="#ffcaab"/>
          <path id="Tracé_557" data-name="Tracé 557" d="M395.381,99.662a.272.272,0,0,0-.187-.011c-.114.044-.145.189-.147.311a3.85,3.85,0,0,0,.333,1.407.839.839,0,0,0,.125.248,1.54,1.54,0,0,0,.191.168.944.944,0,0,1,.321.632.845.845,0,0,0-.108-.765.407.407,0,0,1-.114-.232.645.645,0,0,1,.065-.185.652.652,0,0,0,.007-.3c-.038-.279-.061-.565-.107-.843a.416.416,0,0,0-.11-.249c-.031-.034-.266-.167-.269-.181" transform="translate(-211.95 -53.458)" fill="#eda073"/>
          <path id="Tracé_558" data-name="Tracé 558" d="M402.214,95.512a2.942,2.942,0,0,0-1.026.751,8.537,8.537,0,0,1,3.121-.9c.115-.01-.174-.322-.207-.339a1.021,1.021,0,0,0-.551-.028,4.047,4.047,0,0,0-1.337.514" transform="translate(-215.246 -50.956)" fill="#7b5252"/>
          <path id="Tracé_559" data-name="Tracé 559" d="M414.309,94.7a2,2,0,0,1,.857.522,4.665,4.665,0,0,0-2.373-.234c-.084.014.07-.35.09-.374a.589.589,0,0,1,.387-.141,2.272,2.272,0,0,1,1.039.227" transform="translate(-221.459 -50.685)" fill="#7b5252"/>
          <path id="Tracé_560" data-name="Tracé 560" d="M405.7,99.149a.246.246,0,1,0,.136-.358.274.274,0,0,0-.136.358" transform="translate(-217.658 -52.998)" fill="#301e1d"/>
          <path id="Tracé_561" data-name="Tracé 561" d="M413.92,98.32a.246.246,0,1,0,.136-.358.274.274,0,0,0-.136.358" transform="translate(-222.067 -52.553)" fill="#301e1d"/>
          <path id="Tracé_562" data-name="Tracé 562" d="M410.9,102.66c-.032.106.04.22.035.292s-.047.109-.113.172a3.336,3.336,0,0,1-.425.346,2.651,2.651,0,0,1-1.059.332,1.009,1.009,0,0,0,.609.114,1.508,1.508,0,0,0,.309-.058,1.212,1.212,0,0,0,.3-.133,1.569,1.569,0,0,0,.444-.449.592.592,0,0,0,.083-.159.3.3,0,0,0-.006-.2c-.056-.117-.141-.156-.177-.254" transform="translate(-219.617 -55.079)" fill="#eda073"/>
          <path id="Tracé_563" data-name="Tracé 563" d="M399.614,143.981a18.119,18.119,0,0,1-3.473-.416,5.21,5.21,0,0,1,2.834,2.925,9.6,9.6,0,0,1,.828,3.487c.114,1.448.06,4.456.054,5.909,2.092-.318,2.978-.487,2.978-.487-.154-.3.338.964-.11-2.9.369-3.935.666-8.585.666-8.585-.84-.172-.642-3.923-.642-3.923-1.052-5.871,2.4-14.9,2.4-14.9a42,42,0,0,0-4.389-2.523,26.061,26.061,0,0,1-.787,2.56,7.415,7.415,0,0,1,1.5,4.521,22.179,22.179,0,0,1-.886,5.381,3.612,3.612,0,0,1-.656,1.537,3.345,3.345,0,0,1-2.128.88,23.257,23.257,0,0,1-9.5-.64l5.9,2.344a14.367,14.367,0,0,1,3.392,1.71,4.838,4.838,0,0,1,2.011,3.117" transform="translate(-208.334 -65.761)" fill="#c9e0f5"/>
          <path id="Tracé_564" data-name="Tracé 564" d="M421.837,138.9a2.451,2.451,0,0,0,.082.726,2.622,2.622,0,0,0,.544.858c.32.386.642.774.97,1.156q.447.525.912,1.032a15.546,15.546,0,0,0,3.744,3.123,2.019,2.019,0,0,0,.934.324,2.1,2.1,0,0,0,.628-.114,22.969,22.969,0,0,0,7.7-4c.632-.5,6-5.654,6.134-5.514l-.3-.484-1.208-2.072-7.049,2.883a21.339,21.339,0,0,0-3.613,1.878c-.056.036-.114.072-.17.11a6.83,6.83,0,0,1-.506-1.084,7.773,7.773,0,0,0-.724-1.085,18.759,18.759,0,0,0-1.822-1.924,8.681,8.681,0,0,1-.726-.752,10.361,10.361,0,0,1-.848-1.3c-.212-.348-1.342-2.351-2.151-2.754a.414.414,0,0,0-.594.132c-.046.07-.092.142-.134.216s-.082.144-.12.218-.062.12-.092.18c-.016.032-.03.062-.044.092-.028.06-.056.122-.082.182s-.048.11-.068.164c-.03.07-.058.14-.086.212,0,.012-.008.024-.014.038-.068.178-.13.356-.19.534l-.018.056,0,0c-.184.556-.342,1.12-.482,1.688a21.76,21.76,0,0,0-.608,5.281" transform="translate(-226.324 -69.662)" fill="#e2f1ff"/>
          <path id="Tracé_565" data-name="Tracé 565" d="M426.963,146.448a7.079,7.079,0,0,0,2.475,3.794,15.016,15.016,0,0,1-2.475-3.794" transform="translate(-229.074 -78.572)" fill="#a0bfda"/>
          <path id="Tracé_566" data-name="Tracé 566" d="M423.887,145.129l.046.183a1.759,1.759,0,0,1-.046-.183" transform="translate(-227.424 -77.865)" fill="#c9e0f5"/>
          <path id="Tracé_567" data-name="Tracé 567" d="M421.679,138.907a2.982,2.982,0,0,0,.14.944,8,8,0,0,0,1.857,2.344,5.35,5.35,0,0,0,.692.6A14.437,14.437,0,0,0,428,145.8a2.018,2.018,0,0,0,.933.324,2.125,2.125,0,0,0,.628-.114,22.98,22.98,0,0,0,7.7-4c.632-.5,6-5.654,6.133-5.514l-.3-.484c-3.793,2.554-7.111,5.873-11.276,7.753a4.182,4.182,0,0,1-1.458.434,1.676,1.676,0,0,1-1.382-.514,2.363,2.363,0,0,1,.008-2.41,3.437,3.437,0,0,1,2.224-2.282c.006-.1.01-.194.014-.292-.056.036-.114.072-.17.11a6.8,6.8,0,0,1-.506-1.084,7.741,7.741,0,0,0-.724-1.086,18.816,18.816,0,0,0-1.822-1.924,8.481,8.481,0,0,1-.726-.752,10.356,10.356,0,0,1-.848-1.3c-.212-.348-1.342-2.352-2.151-2.754a.414.414,0,0,0-.594.132c-.046.07-.092.142-.134.216s-.082.144-.12.218-.062.12-.092.18l-.044.092c-.028.06-.056.122-.082.182s-.048.11-.068.164c-.03.07-.058.14-.086.212,0,.012-.008.024-.014.038a1.841,1.841,0,0,1-.21.592c-.184.556-.342,1.12-.482,1.688a21.73,21.73,0,0,0-.543,3.418c-.042.533-.147,1.227-.139,1.865m2.487-5.713c.836-.27,1.7.694,2.284,1.178l1.266,1.044c1.026.848,2.13,1.832,2.264,3.155a1.4,1.4,0,0,1-.124.81,2.666,2.666,0,0,1-.62.632,3.569,3.569,0,0,0-.9,1.758c-.075.217-.1.641-.334.741a.812.812,0,0,1-.481.006,5.789,5.789,0,0,1-3.9-3.49,2.767,2.767,0,0,1-.2-1.764l-.747.048a6.677,6.677,0,0,1-.1-.972c-.04-1.283.3-2.731,1.582-3.147" transform="translate(-226.239 -69.662)" fill="#c9e0f5"/>
          <path id="Tracé_568" data-name="Tracé 568" d="M463.848,142.676l.154-.127a10.783,10.783,0,0,1-1.605-2.65l-.184.078a10.969,10.969,0,0,0,1.635,2.7" transform="translate(-247.987 -75.059)" fill="#afc9df"/>
          <path id="Tracé_569" data-name="Tracé 569" d="M465.89,143.616a.292.292,0,1,0,.412-.032.292.292,0,0,0-.412.032" transform="translate(-249.922 -76.998)" fill="#95abbe"/>
          <path id="Tracé_570" data-name="Tracé 570" d="M423.761,130.121a9.363,9.363,0,0,0-1.094,2.1,12.654,12.654,0,0,0-.614,2.3,17.079,17.079,0,0,0-.114,4.724,35.584,35.584,0,0,1,.409-4.673,15.817,15.817,0,0,1,1.413-4.446" transform="translate(-226.319 -69.813)" fill="#a0bfda"/>
          <path id="Tracé_571" data-name="Tracé 571" d="M438.548,149.233a3.449,3.449,0,0,0-1.273.485,3.881,3.881,0,0,0-1.027.923,3.271,3.271,0,0,0-.6,1.249,2.574,2.574,0,0,0,.041,1.363,3.677,3.677,0,0,1,.184-1.3,3.881,3.881,0,0,1,.615-1.13,4.9,4.9,0,0,1,.921-.913,5.969,5.969,0,0,1,1.141-.678" transform="translate(-233.695 -80.067)" fill="#a0bfda"/>
          <path id="Tracé_572" data-name="Tracé 572" d="M410.257,107.557s-2.781.863-3.347.6c0,0,1.12,1.218,2.124,1.062s1.223-1.666,1.223-1.666" transform="translate(-218.316 -57.707)" fill="#fff"/>
        </g>
      </g>
    </g>
  </g>
</svg>
