<svg xmlns="http://www.w3.org/2000/svg" xmlns:xlink="http://www.w3.org/1999/xlink" width="229.11" height="160.403" viewBox="0 0 229.11 160.403">
  <defs>
    <clipPath id="clip-path">
      <rect id="Rectangle_722" data-name="Rectangle 722" width="219.982" height="155.199" fill="none"/>
    </clipPath>
    <clipPath id="clip-path-3">
      <rect id="Rectangle_719" data-name="Rectangle 719" width="57.11" height="2.111" fill="none"/>
    </clipPath>
    <clipPath id="clip-path-4">
      <rect id="Rectangle_720" data-name="Rectangle 720" width="179.005" height="3.044" fill="none"/>
    </clipPath>
    <clipPath id="clip-path-5">
      <rect id="Rectangle_718" data-name="Rectangle 718" width="226.079" height="155.232" fill="none"/>
    </clipPath>
    <clipPath id="clip-path-7">
      <rect id="Rectangle_706" data-name="Rectangle 706" width="1.91" height="4.632" fill="none"/>
    </clipPath>
    <clipPath id="clip-path-8">
      <rect id="Rectangle_707" data-name="Rectangle 707" width="10.312" height="30.201" fill="none"/>
    </clipPath>
    <clipPath id="clip-path-9">
      <rect id="Rectangle_708" data-name="Rectangle 708" width="2.327" height="4.211" fill="none"/>
    </clipPath>
    <clipPath id="clip-path-10">
      <rect id="Rectangle_709" data-name="Rectangle 709" width="12.243" height="26.273" fill="none"/>
    </clipPath>
    <clipPath id="clip-path-11">
      <rect id="Rectangle_710" data-name="Rectangle 710" width="2.451" height="5.428" fill="none"/>
    </clipPath>
    <clipPath id="clip-path-12">
      <rect id="Rectangle_711" data-name="Rectangle 711" width="6.837" height="39.183" fill="none"/>
    </clipPath>
  </defs>
  <g id="Groupe_1739" data-name="Groupe 1739" transform="translate(0)">
    <g id="Groupe_1738" data-name="Groupe 1738" transform="translate(9.128 5.204)" opacity="0.525" style="mix-blend-mode: luminosity;isolation: isolate">
      <g id="Groupe_1737" data-name="Groupe 1737" clip-path="url(#clip-path)">
        <g id="Groupe_1736" data-name="Groupe 1736">
          <g id="Groupe_1735" data-name="Groupe 1735" clip-path="url(#clip-path)">
            <path id="Tracé_324" data-name="Tracé 324" d="M193.207,148.315c8.227-4.038,16.033-9.453,21.19-17.029s7.317-17.58,4.005-26.125c-4.4-11.346-16.261-14.687-22.544-24.2-5.93-8.981-3.074-20.8-.605-30.429,2.658-10.367,4.788-22.535-2-30.808-3.644-4.44-9.276-6.816-14.908-7.946a30.378,30.378,0,0,0-12.216-.212c-8.3,1.755-14.934,7.932-22.8,11.119-11.073,4.487-23.788,2.691-34.989-1.468C94.411,16.045,81.588,8.243,67.622,2.954,53.329-2.46,40.249-.7,29.21,10.463a32.452,32.452,0,0,0-9.572,21.218c-.335,8.852,3.678,17.407,5.852,25.827,1.19,4.608,2.816,10.194,1.67,15.042-2.091,8.839-10.224,4.431-16.358,7.085-4.352,1.883-7.444,6.15-9.055,10.484-4.7,12.656.6,27.3,9.782,37.2s21.686,15.9,33.9,21.656Z" transform="translate(0 0)" fill="#ffd26b"/>
            <path id="Tracé_325" data-name="Tracé 325" d="M229.666,335.783c0,3.263-46.4,5.908-103.636,5.908s-103.636-2.645-103.636-5.908,46.4-5.908,103.636-5.908,103.636,2.645,103.636,5.908" transform="translate(-12.66 -186.492)" fill="#ffd26b"/>
            <g id="Groupe_1731" data-name="Groupe 1731" transform="translate(112.017 151.302)" style="mix-blend-mode: multiply;isolation: isolate">
              <g id="Groupe_1730" data-name="Groupe 1730">
                <g id="Groupe_1729" data-name="Groupe 1729" clip-path="url(#clip-path-3)">
                  <path id="Tracé_326" data-name="Tracé 326" d="M314.821,349.148c0,.583-12.785,1.055-28.555,1.055s-28.555-.472-28.555-1.055,12.785-1.055,28.555-1.055,28.555.472,28.555,1.055" transform="translate(-257.711 -348.093)" fill="#ffd26b"/>
                </g>
              </g>
            </g>
            <g id="Groupe_1734" data-name="Groupe 1734" transform="translate(24.539 146.247)" style="mix-blend-mode: multiply;isolation: isolate">
              <g id="Groupe_1733" data-name="Groupe 1733">
                <g id="Groupe_1732" data-name="Groupe 1732" clip-path="url(#clip-path-4)">
                  <path id="Tracé_327" data-name="Tracé 327" d="M235.46,337.985c0,.841-40.072,1.522-89.5,1.522s-89.5-.682-89.5-1.522,40.072-1.522,89.5-1.522,89.5.682,89.5,1.522" transform="translate(-56.455 -336.463)" fill="#ffd26b"/>
                </g>
              </g>
            </g>
            <path id="Tracé_328" data-name="Tracé 328" d="M347.72,77.054H332.329a.26.26,0,1,1,0-.52H347.72a.26.26,0,1,1,0,.52" transform="translate(-187.732 -43.268)" fill="#fff"/>
            <path id="Tracé_329" data-name="Tracé 329" d="M352.979,88.28H309.035a.26.26,0,0,1,0-.52h43.944a.26.26,0,1,1,0,.52" transform="translate(-174.563 -49.614)" fill="#fff"/>
          </g>
        </g>
      </g>
    </g>
    <g id="Groupe_1728" data-name="Groupe 1728" transform="translate(0 0)">
      <g id="Groupe_1727" data-name="Groupe 1727" clip-path="url(#clip-path-5)">
        <g id="Groupe_1726" data-name="Groupe 1726">
          <g id="Groupe_1725" data-name="Groupe 1725" clip-path="url(#clip-path-5)">
            <path id="Tracé_142" data-name="Tracé 142" d="M57.606,162.516C50.757,148.987,23.042,122.109,0,125.784c4.727,11.7,20.829,40.216,57.606,36.731" transform="translate(0 -70.918)" fill="#adce38"/>
            <path id="Tracé_143" data-name="Tracé 143" d="M67.771,170.532a.262.262,0,0,1-.114-.027c-15.4-7.562-31.545-16.2-45.235-28.065a.26.26,0,0,1,.341-.393c13.646,11.83,29.751,20.444,45.123,27.991a.26.26,0,0,1-.115.494" transform="translate(-12.625 -80.269)" fill="#8daf00"/>
            <path id="Tracé_144" data-name="Tracé 144" d="M55.686,159.3a21.955,21.955,0,0,1-6.144-.831,10.017,10.017,0,0,1-3.489-1.626.26.26,0,1,1,.324-.407,9.531,9.531,0,0,0,3.308,1.532,23.577,23.577,0,0,0,9.362.613,93.815,93.815,0,0,1-13.2-16.318.26.26,0,1,1,.439-.28A93.252,93.252,0,0,0,59.8,158.59a.26.26,0,0,1-.149.444,31.564,31.564,0,0,1-3.964.266" transform="translate(-25.899 -80.201)" fill="#8daf00"/>
            <path id="Tracé_145" data-name="Tracé 145" d="M90.193,180.712a.26.26,0,0,1-.17-.063,37.608,37.608,0,0,1-8.461-10.378.26.26,0,0,1,.456-.252,37.087,37.087,0,0,0,8.344,10.234.26.26,0,0,1-.17.458" transform="translate(-46.093 -96.043)" fill="#8daf00"/>
            <path id="Tracé_146" data-name="Tracé 146" d="M91.47,196.419h-.006a63.178,63.178,0,0,1-7.249-.584c-.925-.129-1.853-.326-2.75-.518a25.116,25.116,0,0,0-4.094-.642.26.26,0,0,1-.249-.271.265.265,0,0,1,.271-.249,25.507,25.507,0,0,1,4.18.652c.888.19,1.807.386,2.713.512a62.625,62.625,0,0,0,7.189.579.26.26,0,0,1-.006.52" transform="translate(-43.6 -109.764)" fill="#8daf00"/>
            <path id="Tracé_147" data-name="Tracé 147" d="M66.443,86.584c1.141-28.823-14.266-55.69-34.587-75.009C28.18,8.08,24.512,4.834,22.713,0c-.02,8.437-.29,16.92.8,25.3,1.263,9.742,3.5,19.468,7.766,28.364C38.5,68.723,51.261,79.917,66.443,86.584" transform="translate(-12.816)" fill="#c5e45b"/>
            <path id="Tracé_148" data-name="Tracé 148" d="M75.615,113.436a.259.259,0,0,1-.214-.112C62.789,95.131,50.017,75.267,42.041,53.3a.26.26,0,1,1,.489-.178c7.957,21.911,20.706,41.74,33.3,59.9a.26.26,0,0,1-.213.409" transform="translate(-23.758 -29.935)" fill="#abc64e"/>
            <path id="Tracé_149" data-name="Tracé 149" d="M62,95.357a.26.26,0,0,1-.1-.019,31.549,31.549,0,0,1-11.014-6.967,12.843,12.843,0,0,1-2.9-4,.26.26,0,1,1,.481-.2A12.375,12.375,0,0,0,51.256,88,30.623,30.623,0,0,0,61.6,94.651a120.927,120.927,0,0,1-4.671-26.817.26.26,0,0,1,.519-.031,120.416,120.416,0,0,0,4.8,27.219.26.26,0,0,1-.249.335" transform="translate(-27.121 -38.194)" fill="#abc64e"/>
            <path id="Tracé_150" data-name="Tracé 150" d="M94.5,138.99a.26.26,0,0,1-.244-.17,48.449,48.449,0,0,1-3.017-16.985.26.26,0,0,1,.26-.259h0a.26.26,0,0,1,.259.261,47.931,47.931,0,0,0,2.984,16.8.26.26,0,0,1-.153.334.265.265,0,0,1-.09.016" transform="translate(-51.58 -68.732)" fill="#abc64e"/>
            <path id="Tracé_151" data-name="Tracé 151" d="M86.438,157.145a.26.26,0,0,1-.132-.036,72.217,72.217,0,0,1-14.559-11.123.26.26,0,0,1,.368-.368,71.653,71.653,0,0,0,14.455,11.043.26.26,0,0,1-.132.485" transform="translate(-40.519 -82.281)" fill="#abc64e"/>
            <rect id="Rectangle_704" data-name="Rectangle 704" width="7.432" height="39.705" transform="translate(184.681 78.332) rotate(-18.259)" fill="#b16765"/>
            <path id="Tracé_152" data-name="Tracé 152" d="M429.976,168.787c.117.355-1.35,1.22-3.3,1.863s-3.642.821-3.759.466,1.367-1.164,3.316-1.807,3.624-.876,3.741-.521" transform="translate(-239.089 -95.328)" fill="#b16765"/>
            <rect id="Rectangle_705" data-name="Rectangle 705" width="6.537" height="5.702" transform="translate(183.236 72.562) rotate(-18.258)" fill="#d77860"/>
            <path id="Tracé_153" data-name="Tracé 153" d="M431.985,174.982c.331,1-6.726,3.333-7.058,2.328l-2.031-6.156c.339,1.03,7.4-1.3,7.058-2.328Z" transform="translate(-239.08 -95.444)" fill="#f7bab9"/>
            <g id="Groupe_1709" data-name="Groupe 1709" transform="translate(189.998 74.763)" opacity="0.62">
              <g id="Groupe_1708" data-name="Groupe 1708">
                <g id="Groupe_1707" data-name="Groupe 1707" clip-path="url(#clip-path-7)">
                  <path id="Tracé_154" data-name="Tracé 154" d="M438.769,176.635a.26.26,0,0,1-.246-.177l-1.39-4.111a.26.26,0,0,1,.493-.167l1.39,4.111a.26.26,0,0,1-.163.33.257.257,0,0,1-.083.014" transform="translate(-437.118 -172.003)" fill="#fff"/>
                </g>
              </g>
            </g>
            <path id="Tracé_155" data-name="Tracé 155" d="M427.76,161.941c.129.39-1.157,1.164-2.871,1.73s-3.209.708-3.337.318,1.157-1.164,2.871-1.73,3.208-.709,3.337-.319" transform="translate(-238.315 -91.428)" fill="#faa18d"/>
            <g id="Groupe_1712" data-name="Groupe 1712" transform="translate(191.794 82.557)" opacity="0.57">
              <g id="Groupe_1711" data-name="Groupe 1711">
                <g id="Groupe_1710" data-name="Groupe 1710" clip-path="url(#clip-path-8)">
                  <path id="Tracé_156" data-name="Tracé 156" d="M451.3,220.136a.26.26,0,0,1-.247-.179l-9.792-29.68a.26.26,0,1,1,.494-.163l9.792,29.68a.26.26,0,0,1-.166.329.269.269,0,0,1-.082.013" transform="translate(-441.251 -189.935)" fill="#fff"/>
                </g>
              </g>
            </g>
            <path id="Tracé_157" data-name="Tracé 157" d="M472.607,188.453l-8.625,24.029,6.793,2.032,10.179-22.475Z" transform="translate(-262.308 -106.54)" fill="#908cca"/>
            <path id="Tracé_158" data-name="Tracé 158" d="M498.149,179.677l3.21,2.029a2.238,2.238,0,0,1,.748,3l-11.9,20.866s-2.512-1.8-.9-2.935,1.307.562,1.307.562l8.3-16.159a2.238,2.238,0,0,0-1.283-3.145l-1.539-.513Z" transform="translate(-276.322 -101.579)" fill="#cac7f8"/>
            <g id="Groupe_1715" data-name="Groupe 1715" transform="translate(222.758 79.724)" opacity="0.67">
              <g id="Groupe_1714" data-name="Groupe 1714">
                <g id="Groupe_1713" data-name="Groupe 1713" clip-path="url(#clip-path-9)">
                  <path id="Tracé_159" data-name="Tracé 159" d="M514.228,187.628a.127.127,0,0,1-.059-.014.13.13,0,0,1-.057-.175c.57-1.118.594-1.958.074-2.568a5.183,5.183,0,0,0-1.191-.924c-.154-.1-.307-.194-.452-.293a.13.13,0,0,1,.147-.215c.142.1.292.192.443.288a5.359,5.359,0,0,1,1.249.975c.588.689.574,1.65-.04,2.855a.13.13,0,0,1-.116.071" transform="translate(-512.487 -183.417)" fill="#fff"/>
                </g>
              </g>
            </g>
            <path id="Tracé_160" data-name="Tracé 160" d="M487.1,167.169l-3.34,9.251c-.75,1.746,7.6,5.333,8.346,3.587l4.051-8.946Z" transform="translate(-273.464 -94.507)" fill="#cac7f8"/>
            <g id="Groupe_1718" data-name="Groupe 1718" transform="translate(208.289 77.356)" opacity="0.64">
              <g id="Groupe_1717" data-name="Groupe 1717">
                <g id="Groupe_1716" data-name="Groupe 1716" clip-path="url(#clip-path-10)">
                  <path id="Tracé_161" data-name="Tracé 161" d="M479.591,204.243a.39.39,0,0,1-.356-.55L490.7,178.2a.39.39,0,0,1,.712.32l-11.463,25.493a.391.391,0,0,1-.356.23" transform="translate(-479.201 -177.97)" fill="#fff"/>
                </g>
              </g>
            </g>
            <path id="Tracé_162" data-name="Tracé 162" d="M501.088,168.252l-9.153-3.933-.448,1.239c-.462,1.077,8.595,4.969,9.057,3.893Z" transform="translate(-277.848 -92.896)" fill="#a3a1c9"/>
            <path id="Tracé_163" data-name="Tracé 163" d="M501.663,168.036c-.193.449-2.4-.067-4.919-1.151s-4.414-2.328-4.221-2.777,2.4.066,4.919,1.151,4.414,2.328,4.221,2.777" transform="translate(-278.435 -92.685)" fill="#cac7f8"/>
            <path id="Tracé_164" data-name="Tracé 164" d="M502.79,160.958c-.241.561-5.735-1.8-5.494-2.361l1.65-3.838c1.082-2.519,6.576-.158,5.494,2.361Z" transform="translate(-281.137 -86.882)" fill="#a3a1c9"/>
            <g id="Groupe_1721" data-name="Groupe 1721" transform="translate(220.2 67.424)" opacity="0.79">
              <g id="Groupe_1720" data-name="Groupe 1720">
                <g id="Groupe_1719" data-name="Groupe 1719" clip-path="url(#clip-path-11)">
                  <path id="Tracé_165" data-name="Tracé 165" d="M507.89,160.546a.26.26,0,0,1-.236-.37l.135-.287a5.279,5.279,0,0,0,.737-2.594c-.068-.778-.606-1.294-1.743-1.67a.26.26,0,0,1,.163-.494,2.6,2.6,0,0,1,2.1,2.119,5.737,5.737,0,0,1-.785,2.862l-.133.284a.26.26,0,0,1-.236.15" transform="translate(-506.604 -155.118)" fill="#fff"/>
                </g>
              </g>
            </g>
            <path id="Tracé_166" data-name="Tracé 166" d="M452.078,240.186l-1.71,11.3-.541,3.58-.473,3.13-.8,5.282-.206,1.358-1.015,6.71L445.7,282.382a1.976,1.976,0,0,1-1.954,1.681H416.847l-2.937-12.52-1.574-6.71-.317-1.358-1.241-5.282-.734-3.13-.841-3.58-2.648-11.3Z" transform="translate(-229.841 -135.787)" fill="#074193"/>
            <g id="Groupe_1724" data-name="Groupe 1724" transform="translate(213.195 106.742)" opacity="0.5">
              <g id="Groupe_1723" data-name="Groupe 1723">
                <g id="Groupe_1722" data-name="Groupe 1722" clip-path="url(#clip-path-12)">
                  <path id="Tracé_167" data-name="Tracé 167" d="M491.008,284.76a.538.538,0,0,1-.079-.006.52.52,0,0,1-.436-.592l5.8-38.143a.52.52,0,1,1,1.029.156l-5.8,38.142a.52.52,0,0,1-.514.443" transform="translate(-490.487 -245.577)" fill="#fff"/>
                </g>
              </g>
            </g>
            <path id="Tracé_168" data-name="Tracé 168" d="M284.635,331.519h-99.3V325.04h95.387a3.918,3.918,0,0,1,3.918,3.918Z" transform="translate(-104.774 -183.758)" fill="#52a0ef"/>
            <path id="Tracé_169" data-name="Tracé 169" d="M167.227,331.519H131.484a3.274,3.274,0,0,1-3.273-3.273V325.04h33.048a5.968,5.968,0,0,1,5.968,5.968Z" transform="translate(-72.483 -183.758)" fill="#1258ad"/>
            <path id="Tracé_170" data-name="Tracé 170" d="M316.206,327.318H304.775a1.139,1.139,0,1,1,0-2.278h11.431a1.139,1.139,0,0,1,0,2.278" transform="translate(-171.658 -183.758)" fill="#1258ad"/>
            <path id="Tracé_171" data-name="Tracé 171" d="M203,220.091H103.57L84.861,142.3a2.208,2.208,0,0,1,2.2-2.9H180.7a3.91,3.91,0,0,1,3.592,2.9Z" transform="translate(-47.928 -78.81)" fill="#95ccf9"/>
            <path id="Tracé_172" data-name="Tracé 172" d="M90.028,138.846c7.441-.1,14.883-.138,22.324-.209l22.324-.119c7.441-.051,14.883-.042,22.324-.061l22.325-.039,2.791,0,1.4,0h.176l.2.01a3.277,3.277,0,0,1,.392.047c.13.019.255.058.382.087s.248.08.369.126a4.527,4.527,0,0,1,2.264,2,4.071,4.071,0,0,1,.3.717c.081.263.122.472.179.7l.324,1.357,2.591,10.857c1.72,7.24,3.472,14.472,5.161,21.72l5.1,21.733c1.671,7.252,3.37,14.5,5.016,21.754-1.834-7.212-3.615-14.438-5.424-21.656L195.209,176.2c-1.79-7.223-3.519-14.461-5.279-21.692L187.3,143.662l-.329-1.356a4.4,4.4,0,0,0-.407-1.215,3.7,3.7,0,0,0-1.843-1.617c-.1-.036-.194-.067-.292-.1s-.2-.053-.3-.066a2.272,2.272,0,0,0-.3-.034l-.15-.008h-.172l-1.4,0-2.791,0L157,139.235c-7.441-.019-14.883-.01-22.324-.061l-22.324-.119c-7.441-.07-14.883-.112-22.324-.209" transform="translate(-50.896 -78.253)" fill="#d0d5fd"/>
            <path id="Tracé_173" data-name="Tracé 173" d="M204.121,220.857H110.963L93.435,147.971a2.068,2.068,0,0,1,2.06-2.713h87.733a3.664,3.664,0,0,1,3.365,2.713Z" transform="translate(-52.778 -82.12)" fill="#fff"/>
            <path id="Tracé_174" data-name="Tracé 174" d="M206.338,208.493h-83l-13.015-52.808h83Z" transform="translate(-62.37 -88.015)" fill="#d3e4ef"/>
            <path id="Tracé_175" data-name="Tracé 175" d="M227.3,294.6H144.552l-1.832-9.021h82.744Z" transform="translate(-80.685 -161.448)" fill="#074193"/>
            <path id="Tracé_176" data-name="Tracé 176" d="M144.871,215.487a.079.079,0,0,1-.077-.063l-11.086-52.493a.079.079,0,0,1,.155-.033l11.086,52.493a.08.08,0,0,1-.061.094l-.017,0" transform="translate(-75.589 -92.057)" fill="#fff"/>
            <path id="Tracé_177" data-name="Tracé 177" d="M294.085,215a.079.079,0,0,1-.077-.063l-11.165-52.87a.079.079,0,0,1,.155-.033l11.165,52.87a.08.08,0,0,1-.061.094l-.017,0" transform="translate(-159.901 -91.567)" fill="#fff"/>
            <path id="Tracé_178" data-name="Tracé 178" d="M151.7,164.924h-7.755l-.469-2.341h7.755Z" transform="translate(-81.114 -91.915)" fill="#fff"/>
            <path id="Tracé_179" data-name="Tracé 179" d="M189.376,164.924h-7.755l-.469-2.341h7.755Z" transform="translate(-102.412 -91.915)" fill="#fff"/>
            <path id="Tracé_180" data-name="Tracé 180" d="M226.779,164.924h-7.755l-.469-2.341h7.755Z" transform="translate(-123.557 -91.915)" fill="#fff"/>
            <path id="Tracé_181" data-name="Tracé 181" d="M264.182,164.924h-7.755l-.469-2.341h7.755Z" transform="translate(-144.703 -91.915)" fill="#fff"/>
            <path id="Tracé_182" data-name="Tracé 182" d="M182.226,215.75a.079.079,0,0,1-.077-.063l-11.316-53.623a.079.079,0,1,1,.155-.033L182.3,215.655a.079.079,0,0,1-.061.094l-.017,0" transform="translate(-96.578 -91.568)" fill="#fff"/>
            <path id="Tracé_183" data-name="Tracé 183" d="M219.307,215.75a.079.079,0,0,1-.077-.063l-11.316-53.623a.079.079,0,1,1,.155-.033l11.316,53.623a.08.08,0,0,1-.061.094l-.016,0" transform="translate(-117.541 -91.568)" fill="#fff"/>
            <path id="Tracé_184" data-name="Tracé 184" d="M256.388,215.75a.079.079,0,0,1-.077-.063l-11.316-53.623a.079.079,0,0,1,.155-.033l11.316,53.623a.08.08,0,0,1-.061.094l-.017,0" transform="translate(-138.504 -91.568)" fill="#fff"/>
            <path id="Tracé_185" data-name="Tracé 185" d="M207.029,202.09h-64.9a.079.079,0,0,1,0-.159h64.9a.079.079,0,0,1,0,.159" transform="translate(-80.305 -114.16)" fill="#fff"/>
            <path id="Tracé_186" data-name="Tracé 186" d="M200.483,171.2h-64.9a.079.079,0,1,1,0-.159h64.9a.079.079,0,0,1,0,.159" transform="translate(-76.604 -96.698)" fill="#fff"/>
            <path id="Tracé_187" data-name="Tracé 187" d="M212.933,231.514h-64.9a.079.079,0,0,1,0-.159h64.9a.079.079,0,0,1,0,.159" transform="translate(-83.643 -130.794)" fill="#fff"/>
            <path id="Tracé_188" data-name="Tracé 188" d="M218.838,260.939h-64.9a.079.079,0,0,1,0-.159h64.9a.079.079,0,0,1,0,.159" transform="translate(-86.981 -147.429)" fill="#fff"/>
            <path id="Tracé_189" data-name="Tracé 189" d="M154.981,174.207h-3.2l-.193-.965h3.2Z" transform="translate(-85.699 -97.94)" fill="#fff"/>
            <path id="Tracé_190" data-name="Tracé 190" d="M191.848,174.207h-3.2l-.193-.965h3.2Z" transform="translate(-106.542 -97.94)" fill="#fff"/>
            <path id="Tracé_191" data-name="Tracé 191" d="M229.717,174.207h-3.2l-.193-.965h3.2Z" transform="translate(-127.951 -97.94)" fill="#fff"/>
            <path id="Tracé_192" data-name="Tracé 192" d="M267.516,174.207h-3.2l-.193-.965h3.2Z" transform="translate(-149.32 -97.94)" fill="#fff"/>
            <path id="Tracé_193" data-name="Tracé 193" d="M160.884,206.073h-3.2l-.194-.965h3.2Z" transform="translate(-89.037 -115.956)" fill="#fff"/>
            <path id="Tracé_194" data-name="Tracé 194" d="M197.751,206.073h-3.2l-.193-.965h3.2Z" transform="translate(-109.879 -115.956)" fill="#fff"/>
            <path id="Tracé_195" data-name="Tracé 195" d="M235.621,206.073h-3.2l-.193-.965h3.2Z" transform="translate(-131.288 -115.956)" fill="#fff"/>
            <path id="Tracé_196" data-name="Tracé 196" d="M273.42,206.073h-3.2l-.193-.965h3.2Z" transform="translate(-152.658 -115.956)" fill="#fff"/>
            <path id="Tracé_197" data-name="Tracé 197" d="M167.562,235.261h-3.2l-.193-.965h3.2Z" transform="translate(-92.812 -132.457)" fill="#fff"/>
            <path id="Tracé_198" data-name="Tracé 198" d="M204.429,235.261h-3.2l-.193-.965h3.2Z" transform="translate(-113.655 -132.457)" fill="#fff"/>
            <path id="Tracé_199" data-name="Tracé 199" d="M242.3,235.261h-3.2l-.193-.965h3.2Z" transform="translate(-135.064 -132.457)" fill="#fff"/>
            <path id="Tracé_200" data-name="Tracé 200" d="M280.1,235.261h-3.2l-.193-.965h3.2Z" transform="translate(-156.433 -132.457)" fill="#fff"/>
            <path id="Tracé_201" data-name="Tracé 201" d="M173.853,264.831h-3.2l-.193-.965h3.2Z" transform="translate(-96.369 -149.174)" fill="#fff"/>
            <path id="Tracé_202" data-name="Tracé 202" d="M210.72,264.831h-3.2l-.193-.965h3.2Z" transform="translate(-117.211 -149.174)" fill="#fff"/>
            <path id="Tracé_203" data-name="Tracé 203" d="M248.589,264.831h-3.2l-.194-.965h3.2Z" transform="translate(-138.62 -149.174)" fill="#fff"/>
            <path id="Tracé_204" data-name="Tracé 204" d="M286.388,264.831h-3.2l-.193-.965h3.2Z" transform="translate(-159.989 -149.174)" fill="#fff"/>
            <path id="Tracé_205" data-name="Tracé 205" d="M212.317,131.464l-1.059-.2,1.062-6.365,2.428.406Z" transform="translate(-119.433 -70.612)" fill="#022651"/>
            <path id="Tracé_206" data-name="Tracé 206" d="M259.1,131.442l1.046-.258-1.43-6.293-2.4.546Z" transform="translate(-144.905 -70.606)" fill="#022651"/>
            <rect id="Rectangle_712" data-name="Rectangle 712" width="2.292" height="3.597" transform="translate(91.66 13.266) rotate(-24.334)" fill="#022651"/>
            <rect id="Rectangle_713" data-name="Rectangle 713" width="3.597" height="2.292" transform="translate(110.48 15.599) rotate(-65.666)" fill="#022651"/>
            <path id="Tracé_207" data-name="Tracé 207" d="M231.229,51.125A22.529,22.529,0,1,1,208.7,28.6a22.529,22.529,0,0,1,22.529,22.529" transform="translate(-105.249 -16.166)" fill="#074193"/>
            <path id="Tracé_208" data-name="Tracé 208" d="M186.166,50.759a22.419,22.419,0,0,1,3.665-12.6A22.719,22.719,0,1,1,221.3,69.623a22.42,22.42,0,0,1-12.6,3.665,24.773,24.773,0,0,0,3.3-.292,22.358,22.358,0,0,0,6.283-1.979,23.672,23.672,0,0,0,2.847-1.656,22.4,22.4,0,0,0,8.159-10.074,22.866,22.866,0,0,0,1.006-3.118,23.8,23.8,0,0,0,.55-3.228,24.711,24.711,0,0,0,.072-3.273,23.9,23.9,0,0,0-.406-3.247,22.386,22.386,0,0,0-17.472-17.472,23.765,23.765,0,0,0-3.247-.406,24.635,24.635,0,0,0-3.273.073,23.917,23.917,0,0,0-3.228.548,22.894,22.894,0,0,0-3.119,1.007,22.4,22.4,0,0,0-10.075,8.16,23.615,23.615,0,0,0-1.656,2.848,23.05,23.05,0,0,0-1.221,3.065,23.461,23.461,0,0,0-.757,3.217,24.781,24.781,0,0,0-.291,3.3" transform="translate(-105.245 -15.801)" fill="#1258ad"/>
            <path id="Tracé_209" data-name="Tracé 209" d="M232.168,55.191a19.4,19.4,0,1,1-19.4-19.4,19.4,19.4,0,0,1,19.4,19.4" transform="translate(-109.315 -20.232)" fill="#022651"/>
            <path id="Tracé_210" data-name="Tracé 210" d="M212.346,74.5a19.725,19.725,0,1,1,0-39.451.322.322,0,1,1,0,.643,19.082,19.082,0,0,0,0,38.164.322.322,0,1,1,0,.643" transform="translate(-108.896 -19.813)" fill="#1258ad"/>
            <path id="Tracé_211" data-name="Tracé 211" d="M232.524,56.725A18.224,18.224,0,1,1,214.3,38.5a18.224,18.224,0,0,1,18.224,18.224" transform="translate(-110.85 -21.766)" fill="#fff"/>
            <path id="Tracé_212" data-name="Tracé 212" d="M227.71,43.734l3.021,15.95,2.908,3.864V59.194Z" transform="translate(-128.733 -24.724)" fill="#074193"/>
            <path id="Tracé_213" data-name="Tracé 213" d="M212.566,82.567,225.3,78.73l1.84-2.954-3.325-.585Z" transform="translate(-120.172 -42.508)" fill="#074193"/>
            <path id="Tracé_214" data-name="Tracé 214" d="M237.315,77.457a2.285,2.285,0,1,1-2.285-2.285,2.284,2.284,0,0,1,2.285,2.285" transform="translate(-131.581 -42.498)" fill="#b8bee0"/>
            <path id="Tracé_215" data-name="Tracé 215" d="M202.792,78.786a1.262,1.262,0,1,1-1.262-1.262,1.262,1.262,0,0,1,1.262,1.262" transform="translate(-113.22 -43.827)" fill="#022651"/>
            <path id="Tracé_216" data-name="Tracé 216" d="M273.339,78.786a1.262,1.262,0,1,1-1.262-1.262,1.262,1.262,0,0,1,1.262,1.262" transform="translate(-153.103 -43.827)" fill="#022651"/>
            <path id="Tracé_217" data-name="Tracé 217" d="M236.8,44.776a1.262,1.262,0,1,1,1.262-1.262,1.262,1.262,0,0,1-1.262,1.262" transform="translate(-133.161 -23.886)" fill="#022651"/>
            <path id="Tracé_218" data-name="Tracé 218" d="M236.8,115.323a1.262,1.262,0,1,1,1.262-1.262,1.262,1.262,0,0,1-1.262,1.262" transform="translate(-133.161 -63.769)" fill="#022651"/>
            <path id="Tracé_219" data-name="Tracé 219" d="M212.207,21.429l-12.25,5.136a4.954,4.954,0,0,1,2.653-6.483l3.113-1.305a4.954,4.954,0,0,1,6.484,2.653" transform="translate(-112.826 -10.396)" fill="#1258ad"/>
            <path id="Tracé_220" data-name="Tracé 220" d="M201.835,28.075a.107.107,0,0,1-.037-.208,96.274,96.274,0,0,0,10.148-4.324.107.107,0,0,1,.1.192,96.57,96.57,0,0,1-10.171,4.334.107.107,0,0,1-.037.006" transform="translate(-114.045 -13.303)" fill="#ebedff"/>
            <path id="Tracé_221" data-name="Tracé 221" d="M204.774,19.8c.851-.453,1.718-.867,2.591-1.267.435-.2.876-.393,1.314-.59l.661-.285a4.953,4.953,0,0,1,.717-.235,4.128,4.128,0,0,1,2.924.4,3.926,3.926,0,0,1,1.843,2.217,4.444,4.444,0,0,0-2-1.919,4.094,4.094,0,0,0-2.674-.283,4.457,4.457,0,0,0-.652.2l-.666.272c-.447.175-.891.356-1.341.523-.9.342-1.8.671-2.72.96" transform="translate(-115.767 -9.792)" fill="#2279d1"/>
            <path id="Tracé_222" data-name="Tracé 222" d="M246.1,21.429l12.25,5.136a4.954,4.954,0,0,0-2.653-6.483l-3.113-1.305a4.954,4.954,0,0,0-6.484,2.653" transform="translate(-139.127 -10.396)" fill="#1258ad"/>
            <path id="Tracé_223" data-name="Tracé 223" d="M260.059,28.075a.107.107,0,0,1-.036-.006,96.619,96.619,0,0,1-10.171-4.334.107.107,0,0,1,.1-.192A96.291,96.291,0,0,0,260.1,27.866a.107.107,0,0,1-.036.208" transform="translate(-141.217 -13.303)" fill="#ebedff"/>
            <path id="Tracé_224" data-name="Tracé 224" d="M259.1,25.222a4.177,4.177,0,0,0-.767-4.117,4.4,4.4,0,0,0-.8-.707,5.3,5.3,0,0,0-.971-.478l-2.076-.858-2.068-.879a5.356,5.356,0,0,0-1.021-.357,4.4,4.4,0,0,0-1.068-.078,4.177,4.177,0,0,0-3.474,2.338,4.057,4.057,0,0,1,1.32-1.82,4.136,4.136,0,0,1,2.128-.851,4.314,4.314,0,0,1,1.168.043l.286.067a1.808,1.808,0,0,1,.282.082l.278.1.26.105,2.076.858,2.067.879.257.112.263.13a1.761,1.761,0,0,1,.256.143l.248.157a4.3,4.3,0,0,1,.849.8,4.141,4.141,0,0,1,.884,2.114,4.058,4.058,0,0,1-.373,2.217" transform="translate(-139.552 -9.832)" fill="#2279d1"/>
            <path id="Tracé_225" data-name="Tracé 225" d="M250.429,49.164h0a.464.464,0,0,1-.161-.636l1.064-1.786a.464.464,0,1,1,.8.475L251.065,49a.464.464,0,0,1-.636.161" transform="translate(-141.449 -26.297)" fill="#b8bee0"/>
            <path id="Tracé_226" data-name="Tracé 226" d="M266.632,66.732h0a.464.464,0,0,1,.222-.618l1.88-.886a.464.464,0,1,1,.4.839l-1.88.886a.464.464,0,0,1-.618-.222" transform="translate(-150.713 -36.851)" fill="#b8bee0"/>
            <path id="Tracé_227" data-name="Tracé 227" d="M260.468,56.422h0a.464.464,0,0,1,.013-.656l1.5-1.441a.464.464,0,0,1,.643.669l-1.5,1.44a.464.464,0,0,1-.656-.013" transform="translate(-147.18 -30.639)" fill="#b8bee0"/>
            <path id="Tracé_228" data-name="Tracé 228" d="M224.892,49.164h0a.464.464,0,0,0,.161-.636l-1.064-1.786a.464.464,0,0,0-.8.475L224.256,49a.464.464,0,0,0,.636.161" transform="translate(-126.142 -26.297)" fill="#b8bee0"/>
            <path id="Tracé_229" data-name="Tracé 229" d="M207.627,66.732h0a.464.464,0,0,0-.222-.618l-1.88-.886a.464.464,0,1,0-.4.839l1.88.886a.464.464,0,0,0,.618-.222" transform="translate(-115.817 -36.851)" fill="#b8bee0"/>
            <path id="Tracé_230" data-name="Tracé 230" d="M214.289,56.422h0a.464.464,0,0,0-.013-.656l-1.5-1.441a.464.464,0,0,0-.643.669l1.5,1.44a.464.464,0,0,0,.656-.013" transform="translate(-119.848 -30.639)" fill="#b8bee0"/>
            <path id="Tracé_231" data-name="Tracé 231" d="M250.429,108.367h0a.464.464,0,0,0-.161.636l1.064,1.786a.464.464,0,1,0,.8-.475l-1.064-1.786a.464.464,0,0,0-.636-.161" transform="translate(-141.449 -61.227)" fill="#b8bee0"/>
            <path id="Tracé_232" data-name="Tracé 232" d="M266.632,91.968h0a.464.464,0,0,0,.222.618l1.88.886a.464.464,0,1,0,.4-.839l-1.88-.886a.464.464,0,0,0-.618.222" transform="translate(-150.713 -51.843)" fill="#b8bee0"/>
            <path id="Tracé_233" data-name="Tracé 233" d="M260.468,101.557h0a.464.464,0,0,0,.013.656l1.5,1.441a.464.464,0,0,0,.643-.669l-1.5-1.44a.464.464,0,0,0-.656.013" transform="translate(-147.18 -57.334)" fill="#b8bee0"/>
            <path id="Tracé_234" data-name="Tracé 234" d="M224.892,108.367h0a.464.464,0,0,1,.161.636l-1.064,1.786a.464.464,0,0,1-.8-.475l1.064-1.786a.464.464,0,0,1,.636-.161" transform="translate(-126.142 -61.227)" fill="#b8bee0"/>
            <path id="Tracé_235" data-name="Tracé 235" d="M207.627,91.968h0a.464.464,0,0,1-.222.618l-1.88.886a.464.464,0,1,1-.4-.839l1.88-.886a.464.464,0,0,1,.618.222" transform="translate(-115.817 -51.843)" fill="#b8bee0"/>
            <path id="Tracé_236" data-name="Tracé 236" d="M214.289,101.557h0a.464.464,0,0,1-.013.656l-1.5,1.441a.464.464,0,0,1-.643-.669l1.5-1.44a.464.464,0,0,1,.656.013" transform="translate(-119.848 -57.334)" fill="#b8bee0"/>
            <path id="Tracé_237" data-name="Tracé 237" d="M336.08,84.519a.107.107,0,0,1-.026,0,.094.094,0,0,1-.064-.115l.129-.446a.093.093,0,1,1,.179.051l-.128.446a.093.093,0,0,1-.09.067" transform="translate(-189.947 -47.424)" fill="#e8955d"/>
            <path id="Tracé_238" data-name="Tracé 238" d="M300.446,342.708l-.438,3.108-3.095-.889.435-2.808Z" transform="translate(-167.857 -193.413)" fill="#ffcaab"/>
            <path id="Tracé_239" data-name="Tracé 239" d="M289,350.48h7.751l-.734-4s-.409.667-.9.446a1.676,1.676,0,0,1-.438-.366c-.457-.471-1.055-1.2-1.806-1.2-1.02,0-.938.749-1.917,1.565S289,350.48,289,350.48" transform="translate(-163.382 -195.248)" fill="#626e83"/>
            <path id="Tracé_240" data-name="Tracé 240" d="M300.045,350.4c-.047.518-.173,1.024-.253,1.537h3.018l-.734-4s-.409.667-.9.446a1.67,1.67,0,0,1-.438-.366c0,.16,0,.317,0,.475a4.476,4.476,0,0,0,0,.533l-1.016-.319a2.654,2.654,0,0,1,.325,1.691" transform="translate(-169.444 -196.704)" fill="#4c5567"/>
            <path id="Tracé_241" data-name="Tracé 241" d="M339.862,344.767l-.323,1.951-3,.336-.4-2.746Z" transform="translate(-190.033 -194.651)" fill="#ffcaab"/>
            <path id="Tracé_242" data-name="Tracé 242" d="M333.17,350.5h13.488s-.771-2.52-5.459-2.82l-1.786-1.4s.128-.706-.323-.771c-.2-.029-.7.333-1.238.738-.677.514-1.413,1.1-1.664,1.063a19.583,19.583,0,0,1-2.312-.9,11.832,11.832,0,0,0-.706,4.085" transform="translate(-188.347 -195.332)" fill="#626e83"/>
            <path id="Tracé_243" data-name="Tracé 243" d="M344.7,347.091c-.177.3-.356.6-.533.895,1.364-.356,2.74.522,3.758,1.5.342.329.675.679,1.018,1.016h3.828s-.771-2.52-5.459-2.82l-1.786-1.4s.129-.706-.323-.77c-.2-.03-.7.333-1.237.737a1.059,1.059,0,0,1,.434.006.533.533,0,0,1,.432.516.757.757,0,0,1-.13.317" transform="translate(-194.455 -195.332)" fill="#4c5567"/>
            <path id="Tracé_244" data-name="Tracé 244" d="M328.351,233.5c.043.442.113,1.109.2,1.929.473,4.46,1.45,13.348,1.222,13.852-1.473,8.335,1.66,25.723,1.66,25.723h4.354l1.09-25.867s2.182-22.95,1.765-25.114l-6.416-2.3L330.218,221l-1.259-.452s-.043.494-.107,1.3c-.111,1.382-.284,3.674-.407,5.914a49.041,49.041,0,0,0-.093,5.733" transform="translate(-185.6 -124.687)" fill="#074193"/>
            <path id="Tracé_245" data-name="Tracé 245" d="M328.876,254.768c.077,1.158.174,2.314.266,3.47l.281,3.468.277,3.466.119,1.731c.016.288.033.576.042.861,0,.143.009.286.007.425,0,.071,0,.137,0,.2s-.019.138-.008.118l-.02.063-.231,1.62c-.047.542-.08,1.084-.121,1.626-.025.271-.026.542-.033.813l-.02.813c-.02.542-.013,1.084,0,1.625.006,1.083.073,2.163.122,3.243.075,1.078.153,2.156.263,3.231.2,2.151.475,4.294.8,6.427.159,1.067.339,2.131.529,3.193s.385,2.123.614,3.177q-.22-1.6-.422-3.206l-.379-3.21c-.121-1.07-.232-2.141-.343-3.212l-.146-1.607c-.055-.535-.094-1.072-.136-1.608-.1-1.072-.143-2.146-.218-3.218-.043-1.073-.1-2.147-.1-3.22a37.625,37.625,0,0,1,.351-6.4l-.02.064a.993.993,0,0,0,.051-.312c0-.078,0-.157,0-.231,0-.151-.008-.3-.015-.445-.014-.294-.036-.584-.057-.875-.043-.581-.1-1.159-.158-1.737-.119-1.155-.242-2.309-.383-3.461s-.281-2.3-.436-3.453-.3-2.3-.47-3.449" transform="translate(-185.927 -144.031)" fill="#1258ad"/>
            <path id="Tracé_246" data-name="Tracé 246" d="M296.081,272.365l3.456.6.838.146s5.165-17.466,5.3-19.86a34.552,34.552,0,0,1,.642-4.753s2.182-6.692,3.933-14.07l0-.01.086-.36c.229-.977.451-1.963.658-2.946.156-.74.3-1.477.44-2.207.152-.808.276-1.555.376-2.248a25.625,25.625,0,0,0,.309-6.237c-.031-.3-.07-.555-.115-.782a2.928,2.928,0,0,0-.57-1.5l-8.7,1.047a6.57,6.57,0,0,0-.5,1.086,19.089,19.089,0,0,0-.741,2.763c-1.623,8.012-1.586,23.374-1.586,23.374Z" transform="translate(-167.386 -123.326)" fill="#074193"/>
            <path id="Tracé_247" data-name="Tracé 247" d="M301.489,229.409l-.3,1.436c-.092.48-.163.965-.246,1.447s-.143.968-.213,1.452-.134.97-.188,1.456c-.232,1.944-.383,3.9-.521,5.849q-.1,1.464-.177,2.93c-.043.977-.086,1.955-.118,2.933-.07,1.956-.1,3.911-.11,5.871l0-.043-.948,6.489c-.306,2.164-.616,4.328-.909,6.495l-.872,6.5-.411,3.254q-.209,1.626-.4,3.256.289-1.615.558-3.232l.545-3.234,1.039-6.476c.344-2.159.672-4.32,1-6.481l.963-6.486,0-.021v-.022c0-1.949.035-3.9.07-5.855s.105-3.9.186-5.854.2-3.9.361-5.846.36-3.889.68-5.818" transform="translate(-167.386 -129.694)" fill="#1258ad"/>
            <path id="Tracé_248" data-name="Tracé 248" d="M304.032,288.578l.839.146s5.165-17.466,5.3-19.86a34.59,34.59,0,0,1,.642-4.753s2.182-6.692,3.933-14.07l0-.01.086-.36,1.607-2.715-1.792.486-3.159-1.688,1.329,1.959-1.329.732s-2.036,15.8-2.855,16.676c.016,1.241.543,2.551,0,3.007-.44.372-3.476,14.981-4.6,20.449" transform="translate(-171.881 -138.935)" fill="#032d60"/>
            <path id="Tracé_249" data-name="Tracé 249" d="M308.523,225.7a21.424,21.424,0,0,0,8.742,3.361c.525.1,1.051.183,1.578.261.512.078,1.021.146,1.531.208a6.081,6.081,0,0,1,2.785.8,3.946,3.946,0,0,1,1.487,2.45,11.77,11.77,0,0,1,.13,2.925q-.2,5.036-.4,10.075c-.011.278.06.535.035.811-.031.335-.068.672-.1,1.006q-.2,2.014-.362,4.032c-.121,1.452-.233,2.906-.346,4.36-.158,2.045-.315,4.095-.345,6.147-.033,2.219.088,4.437.206,6.654q.2,3.753.407,7.512h.734l1.09-25.867s2.182-22.95,1.765-25.114l-6.416-2.3c-.63.016-1.261.039-1.891.064q-.742.032-1.481.062a37.484,37.484,0,0,1-7.121-.22,2.615,2.615,0,0,0-1.286.01,19.058,19.058,0,0,0-.742,2.764" transform="translate(-174.42 -125.987)" fill="#032d60"/>
            <path id="Tracé_250" data-name="Tracé 250" d="M331.159,234.057c-.063,1.021-.154,2.031-.308,3.031-.04.247-.076.506-.125.742a1.28,1.28,0,0,1-.283.6,3.186,3.186,0,0,1-1.218.733l.261.191q.089-1.228.138-2.459c.018-.41.029-.821.038-1.232s.013-.822.007-1.234c-.069.406-.126.813-.18,1.221s-.1.815-.148,1.224q-.138,1.224-.235,2.451l-.024.3.285-.113a3.267,3.267,0,0,0,1.365-.845,1.507,1.507,0,0,0,.229-.368,1.842,1.842,0,0,0,.115-.406c.043-.265.07-.513.1-.771a14.88,14.88,0,0,0-.011-3.071" transform="translate(-186.043 -132.322)" fill="#210931"/>
            <path id="Tracé_251" data-name="Tracé 251" d="M311.719,228.9c-.381.579-.727,1.175-1.062,1.777s-.653,1.212-.965,1.825-.607,1.235-.888,1.864-.555,1.262-.791,1.913c.382-.579.728-1.174,1.062-1.776s.653-1.212.965-1.826.607-1.235.888-1.864.555-1.261.792-1.913" transform="translate(-174.132 -129.409)" fill="#210931"/>
            <path id="Tracé_252" data-name="Tracé 252" d="M347.711,231.82c0,.636.046,1.267.1,1.9s.128,1.256.208,1.882.179,1.249.293,1.871.237,1.241.4,1.856c0-.636-.045-1.267-.1-1.9s-.128-1.256-.208-1.882-.179-1.249-.293-1.87-.237-1.241-.4-1.856" transform="translate(-196.575 -131.057)" fill="#210931"/>
            <path id="Tracé_253" data-name="Tracé 253" d="M360.21,169c-2.268-.688-7.625-5.551-8.162-7.316-.529-1.74.767-8.033.767-8.033,1.64.633,4.2,5.774,6.622,9.908Z" transform="translate(-198.955 -86.868)" fill="#022651"/>
            <path id="Tracé_254" data-name="Tracé 254" d="M307.247,182.923s7.517,1.677,9.755,1.6l1.493-3.989.689,3.964s3.053.1,5.5-.083a6.313,6.313,0,0,0,2.88-.617s-1.724-11.814-1.535-14.535,2.366-17.507,2.211-18.585-5.282-3.291-5.282-3.291l-2.335-.029-7.539-.091s-4.9,1.541-5.674,2.454c-.625.735.765,10.7,1.654,16.495.216,1.4.4,2.555.522,3.281a7.131,7.131,0,0,1,.084,1.037c.072,4.229-2.417,12.391-2.417,12.391" transform="translate(-173.699 -83.255)" fill="#074193"/>
            <path id="Tracé_255" data-name="Tracé 255" d="M309.664,200.795c-.026.264-.048.527-.066.789s-.067.522-.1.783-.079.52-.116.779-.081.519-.13.777c-.181,1.035-.39,2.066-.616,3.093s-.455,2.055-.69,3.082-.469,2.055-.7,3.088c.376-.989.7-2,.994-3.012.151-.507.279-1.02.415-1.53s.249-1.028.361-1.545.209-1.038.306-1.558c.081-.524.174-1.045.229-1.573a15.842,15.842,0,0,0,.112-3.173" transform="translate(-173.699 -113.517)" fill="#1258ad"/>
            <rect id="Rectangle_714" data-name="Rectangle 714" width="4.073" height="0.389" transform="translate(138.459 73.138)" fill="#210931"/>
            <path id="Tracé_256" data-name="Tracé 256" d="M316.261,212.781c.117-.438.221-.878.329-1.318s.211-.88.311-1.322.2-.883.295-1.325l.282-1.327.04-.188-.2-.025c-.7-.087-1.393-.16-2.089-.24l-1.046-.109-1.046-.105-.166-.017-.032.16q-.273,1.372-.521,2.748c-.081.459-.163.918-.236,1.38s-.153.921-.218,1.383c.128-.449.242-.9.359-1.354s.23-.9.341-1.357c.22-.907.429-1.815.633-2.725l-.2.143,1.044.12,1.045.116c.7.07,1.394.148,2.092.211l-.157-.213-.238,1.336c-.075.446-.155.891-.225,1.339s-.144.893-.209,1.341-.135.9-.191,1.345" transform="translate(-176.366 -116.915)" fill="#210931"/>
            <path id="Tracé_257" data-name="Tracé 257" d="M311.1,166.333c.216,1.4.4,2.555.522,3.281a7.129,7.129,0,0,1,.083,1.037q1.258-.61,2.516-1.214a6.52,6.52,0,0,1,2.569-.821,3.572,3.572,0,0,1,1.939.544,4.363,4.363,0,0,1,.812.632,3.148,3.148,0,0,0,.276.272,1.465,1.465,0,0,1,.436.588,5.452,5.452,0,0,1,.39,1.689,39.127,39.127,0,0,1,.143,7.128c0,.009,1.162.447,1.271.5a8.864,8.864,0,0,1,1.2.7,10.6,10.6,0,0,1,1.977,1.808,19.35,19.35,0,0,1,1.484,2.052,6.315,6.315,0,0,0,2.88-.617s-1.724-11.815-1.536-14.535,2.367-17.507,2.211-18.585-5.282-3.291-5.282-3.291l-2.335-.029a21.2,21.2,0,0,1,.592,3.769,6.651,6.651,0,0,1-2,4.713,4.558,4.558,0,0,1,.609-.07,1.949,1.949,0,0,0,.586-.292,4.092,4.092,0,0,0,.848-.78q1.022-1.255,2.043-2.507a2.153,2.153,0,0,0,.691-1.728,2.572,2.572,0,0,1,1.8.732,2.106,2.106,0,0,1,.733,1.446,15.933,15.933,0,0,1-.114,4.489,1.235,1.235,0,0,1-.206.569c-.3.369-.86.309-1.331.27a5.472,5.472,0,0,0-1.074.023,3.8,3.8,0,0,0-1.013.221c-.092.039-.165.112-.258.15a.843.843,0,0,1-.393.025,3.447,3.447,0,0,1-.836-.219,3.429,3.429,0,0,0-1.667-.362,3.261,3.261,0,0,0-1.029.436,13.007,13.007,0,0,1-5.505,1.578,2.708,2.708,0,0,1-1.111-.108,1.742,1.742,0,0,1-.782-.75c-.2-.272-.327-.585-.5-.873a8.615,8.615,0,0,0-.9-1.257c-.159-.184-.327-.36-.5-.528-.089-.084-.179-.166-.272-.246-.034-.029-.207-.134-.215-.176a36.316,36.316,0,0,1,.243,10.332" transform="translate(-175.739 -83.374)" fill="#032d60"/>
            <path id="Tracé_258" data-name="Tracé 258" d="M330.546,206.45a.649.649,0,1,0,.649-.649.649.649,0,0,0-.649.649" transform="translate(-186.871 -116.348)" fill="#210931"/>
            <path id="Tracé_259" data-name="Tracé 259" d="M330.546,190.753a.649.649,0,1,0,.649-.649.649.649,0,0,0-.649.649" transform="translate(-186.871 -107.473)" fill="#210931"/>
            <path id="Tracé_260" data-name="Tracé 260" d="M333.2,196.865q.262-2.426.449-4.854c.13-1.619.238-3.239.342-4.859s.187-3.242.256-4.865l.05-1.217c.018-.406.039-.813.043-1.221a8.2,8.2,0,0,0-.285-2.424,9.007,9.007,0,0,1,.094,2.416c-.027.4-.067.806-.107,1.21l-.1,1.214c-.13,1.619-.238,3.24-.341,4.861s-.187,3.244-.256,4.867-.123,3.246-.147,4.871" transform="translate(-188.373 -100.305)" fill="#210931"/>
            <path id="Tracé_261" data-name="Tracé 261" d="M341.7,214.769c.015-.421.017-.842.022-1.263s.005-.842,0-1.263c0-.841-.02-1.682-.043-2.523l-.16.187q1.769-.19,3.533-.424l-.206-.173c.057.863.12,1.725.194,2.587.039.431.076.862.123,1.292s.087.861.142,1.291c.01-.434.005-.866,0-1.3s-.008-.865-.014-1.3c-.017-.865-.046-1.729-.081-2.593l-.008-.2-.2.022q-1.768.2-3.532.429l-.169.023.009.165q.067,1.26.156,2.518c.031.419.063.839.1,1.258s.073.838.121,1.257" transform="translate(-192.96 -118.21)" fill="#210931"/>
            <path id="Tracé_262" data-name="Tracé 262" d="M356.175,142.448q.456,1,.961,1.982a5.5,5.5,0,0,1-2.736,1.378,7.372,7.372,0,0,0-1.352-4.193,6.245,6.245,0,0,0,.773.079c.121-.013.242-.027.363-.044.243-.035.485-.078.725-.131s.474-.114.707-.184c.086-.026.286-.236.3-.106a7.48,7.48,0,0,0,.259,1.22" transform="translate(-199.592 -79.818)" fill="#ffc09c"/>
            <path id="Tracé_263" data-name="Tracé 263" d="M358.26,146.165l-.634-1.52-2.59,1.139.488,1.98Z" transform="translate(-200.716 -81.773)" fill="#fff2ea"/>
            <path id="Tracé_264" data-name="Tracé 264" d="M356.26,147.8a.324.324,0,1,0,.324-.324.324.324,0,0,0-.324.324" transform="translate(-201.408 -83.374)" fill="#e3ccbf"/>
            <path id="Tracé_265" data-name="Tracé 265" d="M353.053,134.209a.249.249,0,0,1-.125.079l-.875.31-.007,0a.819.819,0,0,1-.3.061.806.806,0,0,1-.25-.071l-2.959-1.192c-.229-.092-.5-.24-.494-.485a.417.417,0,0,1,.339-.365.884.884,0,0,1,.4.017.335.335,0,0,0,.233,0,2.807,2.807,0,0,0,.26-.191,2.078,2.078,0,0,1,.212-.126.784.784,0,0,1,.087-.046,3.23,3.23,0,0,1,.665-.233,5.483,5.483,0,0,1,.71-.122,4.227,4.227,0,0,1,.713-.06l-1.138-3c-.136-.358-.277-.446-.126-.8a2.731,2.731,0,0,1,1.277.206c.11.034.257-.044.345.032a.981.981,0,0,1,.225.328c.42.835.845,1.351,1.266,2.184a.991.991,0,0,1,.128.368,1.048,1.048,0,0,1-.106.454,7.131,7.131,0,0,0-.457,2.5.235.235,0,0,1-.028.142" transform="translate(-196.764 -72.348)" fill="#ffc09c"/>
            <path id="Tracé_266" data-name="Tracé 266" d="M346.735,130.869l-3.89-6.8a.493.493,0,0,1,.082-.6l2.661-2.615a.492.492,0,0,1,.772.107l3.89,6.8a.493.493,0,0,1-.083.6l-2.661,2.615a.492.492,0,0,1-.772-.107" transform="translate(-193.788 -68.246)" fill="#584c77"/>
            <path id="Tracé_267" data-name="Tracé 267" d="M347.483,131.484l-3.327-5.818a.421.421,0,0,1,.07-.509l2.276-2.237a.421.421,0,0,1,.66.091l3.327,5.818a.421.421,0,0,1-.07.509l-2.276,2.237a.421.421,0,0,1-.661-.091" transform="translate(-194.534 -69.423)" fill="#2a2727"/>
            <path id="Tracé_268" data-name="Tracé 268" d="M352.4,126.956a.643.643,0,0,0,.2.734,1.88,1.88,0,0,0,1.033.4,2.65,2.65,0,0,1,.6.176c.071.029.206.106.276.054a.75.75,0,0,0,.154-.6,1.459,1.459,0,0,0-.888-.565,4.508,4.508,0,0,0-.66-.142l-.719-.053" transform="translate(-199.197 -71.773)" fill="#ffc09c"/>
            <path id="Tracé_269" data-name="Tracé 269" d="M353.72,128.412a.684.684,0,0,0,.217.782,2,2,0,0,0,1.1.424,2.778,2.778,0,0,1,.638.187c.076.031.22.112.295.058a.8.8,0,0,0,.164-.641,1.552,1.552,0,0,0-.945-.6,4.761,4.761,0,0,0-.7-.151l-.765-.057" transform="translate(-199.942 -72.596)" fill="#ffc09c"/>
            <path id="Tracé_270" data-name="Tracé 270" d="M355.463,130.677a.546.546,0,0,0,.173.624,1.6,1.6,0,0,0,.878.338,2.265,2.265,0,0,1,.509.15c.06.025.175.09.235.046a.636.636,0,0,0,.131-.512,1.239,1.239,0,0,0-.755-.481,3.935,3.935,0,0,0-.561-.12l-.611-.045" transform="translate(-200.933 -73.877)" fill="#ffc09c"/>
            <path id="Tracé_271" data-name="Tracé 271" d="M356.658,132.849a.9.9,0,0,0,.246.16c.386.173.921.1,1.252.4a.993.993,0,0,1,.238.309.421.421,0,0,0,.009-.355,1.663,1.663,0,0,0-.306-.609c-.016-.019-.033-.037-.05-.055a1.142,1.142,0,0,0-.662-.283,5.276,5.276,0,0,0-.834-.106.061.061,0,0,0-.039.007.058.058,0,0,0-.02.03.493.493,0,0,0,.166.508" transform="translate(-201.527 -74.797)" fill="#ffc09c"/>
            <path id="Tracé_272" data-name="Tracé 272" d="M332.206,148.651l-.969,4.784-2.957,4.01-2.932-4.464-1.107-4.838Z" transform="translate(-183.306 -83.751)" fill="#fff"/>
            <path id="Tracé_273" data-name="Tracé 273" d="M334.593,152.248c-.052.531-.089,1.061-.123,1.593s-.06,1.062-.08,1.595-.024,1.065-.01,1.6c.008.266.017.533.03.8s.037.532.069.8l.1-3.188c.014-.532.032-1.063.034-1.6s0-1.065-.025-1.6" transform="translate(-189.034 -86.072)" fill="#e3ccbf"/>
            <path id="Tracé_274" data-name="Tracé 274" d="M335.287,154.075c.017.285.2.5.408.477a.49.49,0,0,0,.348-.555c-.017-.285-.2-.5-.409-.476a.49.49,0,0,0-.348.555" transform="translate(-189.551 -86.79)" fill="#e3ccbf"/>
            <path id="Tracé_275" data-name="Tracé 275" d="M334.97,163.584c.017.285.2.5.408.477a.49.49,0,0,0,.348-.555c-.017-.285-.2-.5-.409-.476a.49.49,0,0,0-.348.555" transform="translate(-189.371 -92.166)" fill="#e3ccbf"/>
            <path id="Tracé_276" data-name="Tracé 276" d="M326.236,136.428s2.427,2.292,3.684,2.332a3.887,3.887,0,0,0,2.372-1.2c.181-.169.288-.286.288-.286a3.049,3.049,0,0,1-.835-2.328L328.56,129.3a2.816,2.816,0,0,1-.053.383,31.5,31.5,0,0,1-2.271,6.747" transform="translate(-184.434 -73.097)" fill="#ffcaab"/>
            <path id="Tracé_277" data-name="Tracé 277" d="M331.321,132.308a6.4,6.4,0,0,0,.282,1.54c.02.062.041.123.062.183a6.738,6.738,0,0,0,.769,1.464,4.7,4.7,0,0,0,2.388,2,1.727,1.727,0,0,0,.333.068c.181-.17.288-.286.288-.286a3.048,3.048,0,0,1-.835-2.327l-3.186-5.648a2.821,2.821,0,0,1-.053.383c.008.105.013.21.013.315,0,.243-.033.485-.049.726a11.377,11.377,0,0,0-.013,1.586" transform="translate(-187.296 -73.097)" fill="#eda073"/>
            <path id="Tracé_278" data-name="Tracé 278" d="M335.507,146.4l1.617,1.76a20.388,20.388,0,0,0,1.181-1.715,6.7,6.7,0,0,0,.5-.954,1.326,1.326,0,0,0,.128-.623.5.5,0,0,0-.021-.091c-.2-.66-1.516-1.553-1.987-1.856-.093-.06-.154-.1-.167-.105.01.01.054.053.117.124a1.881,1.881,0,0,1,.352,2.205,3.485,3.485,0,0,1-1.716,1.255" transform="translate(-189.676 -80.741)" fill="#ffebdf"/>
            <path id="Tracé_279" data-name="Tracé 279" d="M339,145.285a2.645,2.645,0,0,1,.442.346,2.814,2.814,0,0,1,.446.559,2.576,2.576,0,0,1,.194.4,6.688,6.688,0,0,0,.5-.954,4.884,4.884,0,0,0,.107-.714c-.2-.66-1.516-1.553-1.987-1.856a.2.2,0,0,0-.05.019,1.881,1.881,0,0,1,.352,2.205" transform="translate(-191.45 -80.878)" fill="#e3ccbf"/>
            <path id="Tracé_280" data-name="Tracé 280" d="M333.533,154.849l.276,1.247s4.665-4.75,4.735-5.967-.5-1.6-.5-1.6a3.6,3.6,0,0,0,.428-.152c.413-.171.975-.486.975-.928a3.177,3.177,0,0,0-2.956-2.781s.8.34.625,2.257a11.824,11.824,0,0,1-.625,2.682c-1.461,4.312-2.958,5.241-2.958,5.241" transform="translate(-188.56 -81.787)" fill="#1258ad"/>
            <path id="Tracé_281" data-name="Tracé 281" d="M340.963,146.926a2.312,2.312,0,0,1,.442.266,3.142,3.142,0,0,1,.915,1.185c.413-.171.975-.486.975-.928a3.178,3.178,0,0,0-2.956-2.781s.8.341.625,2.258" transform="translate(-192.407 -81.787)" fill="#043c7f"/>
            <path id="Tracé_282" data-name="Tracé 282" d="M331.351,118.608a.99.99,0,0,1-.012.284,5.087,5.087,0,0,0-.01.646,8.49,8.49,0,0,0,.593,2.551c.134.358.28.712.434,1.062a6.215,6.215,0,0,0,1.181,1.966,2.436,2.436,0,0,0,1.158.66,1.642,1.642,0,0,0,.878-.029,3.044,3.044,0,0,0,1-.654,18.719,18.719,0,0,0,1.93-1.876,9.648,9.648,0,0,0,1.082-1.5,4.036,4.036,0,0,0,.4-.829.892.892,0,0,0,.027-.288,1.748,1.748,0,0,1,.008-.2,3.889,3.889,0,0,1,.138-1.1c.08-.193.214-.352.307-.535a2.688,2.688,0,0,0,.212-.784q.143-.852.283-1.7c.025-.148.064-.288.082-.436a3.458,3.458,0,0,0-.477-2.226,4.071,4.071,0,0,0-.549-.693,7.23,7.23,0,0,0-3.482-1.954,4.035,4.035,0,0,0-3.073.615,4.479,4.479,0,0,0-1.489,2.1,13.265,13.265,0,0,0-.588,2.538c-.055.339-.109.675-.166,1.014a1.993,1.993,0,0,0,.047,1.211.593.593,0,0,1,.08.167" transform="translate(-187.214 -62.692)" fill="#ffcaab"/>
            <path id="Tracé_283" data-name="Tracé 283" d="M344.5,134.171a4.426,4.426,0,0,1-.437.274.975.975,0,0,1-.451.118.463.463,0,0,1-.105-.014c-.051-.014-.1-.02-.126-.028a.564.564,0,0,1-.188-.116,1.294,1.294,0,0,0-.221-.159.649.649,0,0,0-.266-.063,1.081,1.081,0,0,1,.213.143,2.472,2.472,0,0,1,.169.189.614.614,0,0,0,.237.182c.053.019.1.023.128.035a.6.6,0,0,0,.153.027.894.894,0,0,0,.537-.184,1.329,1.329,0,0,0,.358-.4" transform="translate(-193.743 -75.852)" fill="#c88660"/>
            <path id="Tracé_284" data-name="Tracé 284" d="M339.3,126.794a1.64,1.64,0,0,0,.878-.029,3.036,3.036,0,0,0,1-.654,18.628,18.628,0,0,0,1.93-1.876,9.621,9.621,0,0,0,1.082-1.5,4.039,4.039,0,0,0,.4-.829.891.891,0,0,0,.027-.288,1.555,1.555,0,0,1,.008-.2,3.857,3.857,0,0,1,.138-1.1c.08-.193.214-.352.307-.535a2.691,2.691,0,0,0,.212-.784q.143-.853.282-1.7c.025-.148.064-.288.082-.436a3.433,3.433,0,0,0-.241-1.765,3.413,3.413,0,0,0-.236-.461,4.091,4.091,0,0,0-.549-.693,15.963,15.963,0,0,0-2.16-.954,3.288,3.288,0,0,0-1.808-.243.772.772,0,0,0-.492.343.471.471,0,0,0,.023.512,3.29,3.29,0,0,0,.792,1,6.034,6.034,0,0,0,.578.446,15.141,15.141,0,0,1,1.909,1.34,2.467,2.467,0,0,1,.87,2.069c-.057.369-.233.71-.319,1.074a7.6,7.6,0,0,0-.105.864,7.154,7.154,0,0,1-1.736,3.707,21.967,21.967,0,0,1-2.876,2.7" transform="translate(-191.823 -63.708)" fill="#ffb68c"/>
            <path id="Tracé_285" data-name="Tracé 285" d="M341.029,123.346a1.043,1.043,0,0,1,.514.142.357.357,0,0,1,.122.47c-.133.185-.417.12-.634.05a8.113,8.113,0,0,0-2.05-.323c-.2-.01-.4,0-.592-.029a1.235,1.235,0,0,1,.737-.405,6.9,6.9,0,0,1,1.025.025c.293.014.585.042.877.07" transform="translate(-191.305 -69.671)" fill="#5c3d37"/>
            <path id="Tracé_286" data-name="Tracé 286" d="M349.861,125.113a.446.446,0,0,0-.333-.088.388.388,0,0,0-.237.369c.006.221.185.281.329.309a3.607,3.607,0,0,1,1.239.569,3.838,3.838,0,0,0,.335.221,1.185,1.185,0,0,0-.257-.67,3.457,3.457,0,0,0-.57-.406c-.165-.11-.335-.207-.505-.3" transform="translate(-197.468 -70.677)" fill="#5c3d37"/>
            <path id="Tracé_287" data-name="Tracé 287" d="M340.992,128.32a.339.339,0,1,1-.166-.515.39.39,0,0,1,.166.515" transform="translate(-192.41 -72.246)" fill="#5c3d37"/>
            <path id="Tracé_288" data-name="Tracé 288" d="M348.753,130.616a.339.339,0,1,1-.166-.515.39.39,0,0,1,.166.515" transform="translate(-196.798 -73.544)" fill="#5c3d37"/>
            <path id="Tracé_289" data-name="Tracé 289" d="M335.872,110.356a6.74,6.74,0,0,1,2.852.947c1.062.84,1.253,2.322,1.284,3.65a13.065,13.065,0,0,0,1.52-2.867,4.809,4.809,0,0,0,.356-1.477c.084-1.919-.935-3.017-1.991-4.447a3.871,3.871,0,0,0-1.3-1.231,3.8,3.8,0,0,0-1.175-.324,10.585,10.585,0,0,0-3.306.049c-.922.16-1.94.355-2.25,1.212a2.99,2.99,0,0,1-.046-1,1.737,1.737,0,0,0-.254,1.134,1.742,1.742,0,0,0-1.342-.435,8.425,8.425,0,0,0,.888.725,4.337,4.337,0,0,0-2.6,3.148,8.2,8.2,0,0,0,.185,3c.246,1.317.644,2.633.895,3.948a3.856,3.856,0,0,1,.659-2.646l.033.744.224.083A2.879,2.879,0,0,1,332.105,112a1.443,1.443,0,0,1,.349-1.68c.208-.242.442-.462.648-.7a2.855,2.855,0,0,0,.275-.373c.075-.125.147-.249.265-.1a2.991,2.991,0,0,0,1.321.944,5.985,5.985,0,0,0,.909.266" transform="translate(-185.669 -59.078)" fill="#6f4a42"/>
            <path id="Tracé_290" data-name="Tracé 290" d="M337.033,106.8a1.751,1.751,0,0,0,.839-.079c.27-.084.534-.171.8-.244a10.861,10.861,0,0,1,1.628-.346,6.233,6.233,0,0,1,1.651,0,4.687,4.687,0,0,1,1.577.512,3.65,3.65,0,0,0-.736-.416,4.5,4.5,0,0,0-.816-.244,5.316,5.316,0,0,0-1.7-.049,8.229,8.229,0,0,0-1.649.4c-.266.092-.53.2-.789.3a1.861,1.861,0,0,1-.809.169" transform="translate(-190.538 -59.868)" fill="#8d6057"/>
            <path id="Tracé_291" data-name="Tracé 291" d="M338.349,109.653a4.83,4.83,0,0,0,.975.174c.331.024.662.023.993.014.66-.018,1.315-.08,1.965-.054a5.5,5.5,0,0,1,1.891.392,5.152,5.152,0,0,1,.869.442,5.711,5.711,0,0,1,.789.585,4.815,4.815,0,0,0-1.6-1.164,5.047,5.047,0,0,0-1.943-.449,17.592,17.592,0,0,0-1.979.1,7.976,7.976,0,0,1-1.96-.039" transform="translate(-191.282 -61.955)" fill="#8d6057"/>
            <path id="Tracé_292" data-name="Tracé 292" d="M341.056,111.563c.166.213.276.456.429.685a1.847,1.847,0,0,0,.618.548,5.632,5.632,0,0,0,1.547.519c.529.112,1.058.2,1.576.321a4.846,4.846,0,0,1,1.479.586l.012-.024-.187-.04.179.065.079.029-.067-.053a3.687,3.687,0,0,0-.689-.431,6.161,6.161,0,0,0-.764-.286c-.522-.152-1.054-.246-1.577-.357a6.867,6.867,0,0,1-1.518-.458,1.774,1.774,0,0,1-.612-.475,6.824,6.824,0,0,0-.5-.63" transform="translate(-192.813 -63.071)" fill="#8d6057"/>
            <path id="Tracé_293" data-name="Tracé 293" d="M335.082,112.387a1.852,1.852,0,0,1-.309,1.185,9.631,9.631,0,0,1-.8.986l.03,0-.073-.092.04.111.007.02.023-.015a3.089,3.089,0,0,0,.941-.913,1.664,1.664,0,0,0,.234-.632,1.112,1.112,0,0,0-.089-.655" transform="translate(-188.781 -63.537)" fill="#8d6057"/>
            <path id="Tracé_294" data-name="Tracé 294" d="M332.708,111.308a3.439,3.439,0,0,0-.98.91,3.811,3.811,0,0,0-.353.574,3.282,3.282,0,0,0-.241.627l.07.014c-.008-.09-.014-.179-.027-.269-.019.089-.031.177-.046.266l-.031.2.1-.185c.106-.194.212-.385.325-.571s.232-.367.357-.545a12.407,12.407,0,0,1,.825-1.023" transform="translate(-187.184 -62.927)" fill="#8d6057"/>
            <path id="Tracé_295" data-name="Tracé 295" d="M331.77,110.233a4.691,4.691,0,0,0-.784.529,2.4,2.4,0,0,0-.6.75,3.231,3.231,0,0,0-.284.914,3.352,3.352,0,0,0-.026.946,7.5,7.5,0,0,1,.174-.915,4.391,4.391,0,0,1,.309-.858,5.026,5.026,0,0,1,1.214-1.366" transform="translate(-186.591 -62.319)" fill="#8d6057"/>
            <path id="Tracé_296" data-name="Tracé 296" d="M330.575,120.005c-.052-.066-.119-.136-.2-.131a.233.233,0,0,0-.135.071,1.472,1.472,0,0,0-.36.968,11.942,11.942,0,0,0,0,2.335c.041.428.175.939.588,1.06a.3.3,0,0,0,.181,0c.14-.048.184-.22.206-.366l.238-1.518c.036-.23.114-.447.157-.674a1.1,1.1,0,0,0-.054-.506,3.5,3.5,0,0,0-.614-1.244" transform="translate(-186.459 -67.77)" fill="#ffcaab"/>
            <path id="Tracé_297" data-name="Tracé 297" d="M330.927,121.749c-.043-.154-.12-.338-.279-.352a.115.115,0,0,0-.084.022.158.158,0,0,0-.041.1,12.425,12.425,0,0,0-.147,2.28.2.2,0,0,0,.04.14.3.3,0,0,0,.094.05c.217.1.236.4.221.635a1.5,1.5,0,0,0-.092-.99.3.3,0,0,1-.044-.173.3.3,0,0,1,.1-.143,1.329,1.329,0,0,0,.329-.559,2.187,2.187,0,0,0,.061-.3.623.623,0,0,0-.036-.266l-.121-.437" transform="translate(-186.772 -68.63)" fill="#eda073"/>
            <path id="Tracé_298" data-name="Tracé 298" d="M333.416,129.965c-.7-.113-1.041-1.773-1.077-2.486-.06-.019-.164.005-.224-.014a6.252,6.252,0,0,0-.369,2.968,5.345,5.345,0,0,0,.192.733,15.337,15.337,0,0,0,.772,1.932,3.75,3.75,0,0,0,2.157,2.222,3.29,3.29,0,0,0,3.006-1.121,11.924,11.924,0,0,0,1.015-1.223,4.146,4.146,0,0,0,.954-1.566,3.763,3.763,0,0,1-.923.073,21.26,21.26,0,0,0-5.5-1.516" transform="translate(-187.517 -72.061)" fill="#6f4a42"/>
            <path id="Tracé_299" data-name="Tracé 299" d="M338.646,137.34a2.623,2.623,0,0,0,1.237,1.149,1.192,1.192,0,0,0,.477.121,1.152,1.152,0,0,0,.685-.278c.036-.027.253-.168.22-.23-.022-.04-.291-.006-.346-.007a4.038,4.038,0,0,1-1.906-.522q-.1-.055-.193-.117c-.042-.027-.15-.074-.173-.118" transform="translate(-191.45 -77.644)" fill="#fff"/>
            <path id="Tracé_300" data-name="Tracé 300" d="M325.166,142.174a4.126,4.126,0,0,0-1.982,1.533c-.619,1.061,2.842,4.091,2.842,4.091l2.127-1.759s-3.782-1.574-2.987-3.865" transform="translate(-182.667 -80.377)" fill="#ffebdf"/>
            <path id="Tracé_301" data-name="Tracé 301" d="M321.5,143.828s-.867,2.716,3.737,10.544l.512,2.312s-6.154-7.234-6.26-7.952a1.788,1.788,0,0,1,.578-1.348s-1.209-.652-1.209-1.324a2.708,2.708,0,0,1,2.641-2.232" transform="translate(-180.264 -81.312)" fill="#1258ad"/>
            <path id="Tracé_302" data-name="Tracé 302" d="M305.474,171.4c.728,1.249,2.3-3.27,2.991-5.425.206-.648.333-1.082.333-1.082s-1.763-11.361-3.647-11.984c-.093.088-.181.181-.267.279-3.536,4.071-.333,16.627.59,18.213" transform="translate(-171.445 -86.446)" fill="#1258ad"/>
            <path id="Tracé_303" data-name="Tracé 303" d="M304.884,153.551c-3.536,4.071-.333,16.627.59,18.213.728,1.25,2.3-3.269,2.991-5.425Z" transform="translate(-171.445 -86.809)" fill="#074193"/>
            <path id="Tracé_304" data-name="Tracé 304" d="M304.533,153.551a5.53,5.53,0,0,0-1.219,2.027,11.076,11.076,0,0,0-.539,2.325,21.94,21.94,0,0,0-.014,4.747c.081.787.183,1.57.315,2.348s.29,1.551.482,2.316.4,1.526.645,2.275c.124.374.258.745.4,1.112a6.6,6.6,0,0,0,.518,1.063,8.476,8.476,0,0,1-.364-1.114c-.1-.379-.2-.756-.28-1.138-.178-.761-.331-1.527-.475-2.293-.281-1.534-.518-3.076-.662-4.625-.082-.773-.13-1.549-.151-2.324s-.014-1.55.037-2.322a12.813,12.813,0,0,1,.359-2.284,6.28,6.28,0,0,1,.947-2.112" transform="translate(-171.094 -86.809)" fill="#1258ad"/>
            <path id="Tracé_305" data-name="Tracé 305" d="M307,153.189a.413.413,0,0,1,.029.05,13.9,13.9,0,0,1,.872,2.071,24.041,24.041,0,0,1,.958,4.47c.056.424.105.847.152,1.271a12.1,12.1,0,0,1,.13,1.267,17.573,17.573,0,0,1-.068,5.739q.724-1.059,1.508-2.08c.206-.648.333-1.082.333-1.082s-1.763-11.361-3.647-11.984c-.093.087-.181.181-.266.278" transform="translate(-173.557 -86.447)" fill="#032d60"/>
            <path id="Tracé_306" data-name="Tracé 306" d="M350.773,175.719c0,.153-.046.338-.192.383s-.276-.074-.376-.183l-1.035-1.111a6.8,6.8,0,0,1-.485-.559c-.05-.067-.1-.156-.062-.231a.223.223,0,0,1,.143-.094,1.626,1.626,0,0,1,1.27.157,1.726,1.726,0,0,1,.451.368.984.984,0,0,1,.168.386,3,3,0,0,1,.119.884" transform="translate(-197.083 -98.29)" fill="#eda073"/>
            <path id="Tracé_307" data-name="Tracé 307" d="M353.6,181.942h-4.987v-2.495H353.6Zm-4.471-.024h3.955v-1.825h-3.955Z" transform="translate(-197.083 -101.449)" fill="#a26f64"/>
            <path id="Tracé_308" data-name="Tracé 308" d="M354.638,181.942h-4.987v-2.495h4.987Zm-4.471-.024h3.955v-1.825h-3.955Z" transform="translate(-197.672 -101.449)" fill="#6f4a42"/>
            <path id="Tracé_309" data-name="Tracé 309" d="M339.02,167.772a4.746,4.746,0,0,1,1.388-.088,12.743,12.743,0,0,1,1.629.193,2.652,2.652,0,0,1,1,.343,2.868,2.868,0,0,1,.673.706q.589.785,1.145,1.593a3.543,3.543,0,0,1,.818,2.01,2.366,2.366,0,0,1-.2.858,2.19,2.19,0,0,0-.118.332.407.407,0,0,1-.218.253.945.945,0,0,1-.472.06,5.148,5.148,0,0,1-1.357-.267c-.075-.026-.16-.064-.179-.142a.166.166,0,0,1,.1-.174.487.487,0,0,1,.212-.035l.624-.007a.281.281,0,0,0,.213-.062.256.256,0,0,0,.05-.164,1.081,1.081,0,0,0-.086-.54.743.743,0,0,0-.1-.118,2.7,2.7,0,0,0-.336-.425c-.062-.049-.137-.071-.2-.124a2.3,2.3,0,0,0-.539-.372,2.593,2.593,0,0,0-.383-.126l-.638-.175a3.2,3.2,0,0,1-.611-.213,1.986,1.986,0,0,1-.607-.532c-.09-.1-.2-.046-.308,0-.151.062-.3.139-.44.216l-2.266,1.207a.119.119,0,0,1-.168-.022,4.207,4.207,0,0,1-.412-.409c-.064-.074-.126-.15-.185-.228a2.686,2.686,0,0,1-.14-.234l-.673-1.109-.253-.416c-.059-.1-.119-.22-.062-.319a.325.325,0,0,1,.148-.113l.522-.254,1.214-.592.607-.3c.1-.048.2-.107.3-.145a2.887,2.887,0,0,1,.31-.07" transform="translate(-189.896 -94.791)" fill="#ffb68c"/>
            <path id="Tracé_310" data-name="Tracé 310" d="M337.15,169.379l1.12-.668a2.4,2.4,0,0,1,1.4,1.489,2.055,2.055,0,0,1,0,1.875l-.872.6Z" transform="translate(-190.604 -95.379)" fill="#fff2ea"/>
            <path id="Tracé_311" data-name="Tracé 311" d="M308.059,180.851a2.839,2.839,0,0,0,1.123,1.524,13.668,13.668,0,0,0,2.176-.508c6.525-2.076,11.254-8.491,11.254-8.491.381-1.981-.975-3.479-1.935-3.18l-.432.239c-1.144.634-2.957,1.358-4.072,1.824-1.379.577-6.67,2.9-7.137,3.843s-1.218,3.785-.977,4.748" transform="translate(-174.132 -96.197)" fill="#043c7f"/>
            <path id="Tracé_312" data-name="Tracé 312" d="M310.52,181.646a1.868,1.868,0,0,0-.977.577,4.4,4.4,0,0,0-.606.969,7.258,7.258,0,0,0-.642,2.169,18.467,18.467,0,0,1,.816-2.082,6.058,6.058,0,0,1,.55-.958,2.286,2.286,0,0,1,.86-.675" transform="translate(-174.292 -102.692)" fill="#210931"/>
            <path id="Tracé_313" data-name="Tracé 313" d="M315.709,181.868c6.525-2.076,11.254-8.491,11.254-8.491.381-1.981-.975-3.479-1.935-3.18l-.432.24a2.21,2.21,0,0,1,.633,1.164c.321,1.67-.993,3.262-2.022,4.418a26.094,26.094,0,0,1-4.12,3.824,22.367,22.367,0,0,1-3.116,1.9c-.087.045-.175.088-.263.129" transform="translate(-178.483 -96.198)" fill="#022651"/>
            <path id="Tracé_314" data-name="Tracé 314" d="M344.129,171.689l.868-.275c.468-.379.619-2.194-.158-2.7l-.795.189a2.572,2.572,0,0,1,.085,2.789" transform="translate(-194.502 -95.379)" fill="#30231d"/>
            <path id="Tracé_315" data-name="Tracé 315" d="M340.981,167.793c.051.339.685.526,1.418.416s1.285-.473,1.234-.812c0-.031-.044-.279-.044-.279a3.417,3.417,0,0,0-1.374-.137,3.186,3.186,0,0,0-1.273.559l.039.253" transform="translate(-192.748 -94.387)" fill="#30231d"/>
            <path id="Tracé_316" data-name="Tracé 316" d="M340.937,167.2c.051.339.685.525,1.418.416s1.285-.473,1.235-.812-.686-.526-1.418-.416-1.285.473-1.234.812" transform="translate(-192.743 -94.049)" fill="#4e3c32"/>
            <path id="Tracé_317" data-name="Tracé 317" d="M341.675,167.229c.032.219.5.33,1.051.248s.967-.326.934-.544-.5-.33-1.052-.248-.966.326-.933.545" transform="translate(-193.161 -94.218)" fill="#fff"/>
            <path id="Tracé_318" data-name="Tracé 318" d="M343.6,167.567c.005.035.08.053.167.04s.154-.052.149-.087-.08-.052-.167-.039-.154.052-.149.087" transform="translate(-194.249 -94.681)" fill="#4e3c32"/>
            <path id="Tracé_319" data-name="Tracé 319" d="M344.2,166.708l-.275.419-.095-.018Z" transform="translate(-194.379 -94.247)" fill="#4e3c32"/>
            <path id="Tracé_320" data-name="Tracé 320" d="M343.2,167.565l-.379.018.439.075Z" transform="translate(-193.808 -94.731)" fill="#4e3c32"/>
            <path id="Tracé_321" data-name="Tracé 321" d="M355.552,148.917s1.59,11.56,4.361,15c0,0,.529.354,1.09.716a12.139,12.139,0,0,0,1.259.757c.336.12,2.014-2.479,1.93-4.159s-1.93-6.237-1.93-6.237l-3.626-7.73s-.263.169-.656.407a16.567,16.567,0,0,1-2.429,1.245" transform="translate(-201.008 -83.255)" fill="#074193"/>
            <path id="Tracé_322" data-name="Tracé 322" d="M361.139,147.672a3.368,3.368,0,0,0,.3.884q.806,1.771,1.54,3.575,1,2.479,1.88,5c.175.5.346,1,.516,1.5a5.579,5.579,0,0,1,.24,3.159,8.778,8.778,0,0,1-1.454,2.839s0,0,0,0a12.056,12.056,0,0,0,1.259.757c.337.121,2.014-2.479,1.93-4.159s-1.93-6.237-1.93-6.237l-3.625-7.73s-.263.17-.656.407" transform="translate(-204.166 -83.255)" fill="#032d60"/>
            <path id="Tracé_323" data-name="Tracé 323" d="M355.553,151.067a37.184,37.184,0,0,0,.434,3.922c.2,1.3.468,2.591.782,3.87a30.982,30.982,0,0,0,1.182,3.778,16.2,16.2,0,0,0,.825,1.806,7.663,7.663,0,0,0,1.136,1.624,10.553,10.553,0,0,1-.877-1.747c-.249-.6-.455-1.218-.655-1.836s-.386-1.243-.551-1.874-.342-1.258-.494-1.892-.313-1.267-.461-1.9l-.442-1.911c-.288-1.277-.574-2.555-.88-3.836" transform="translate(-201.008 -85.404)" fill="#1258ad"/>
            <rect id="Rectangle_715" data-name="Rectangle 715" width="16.549" height="12.073" transform="translate(144.557 80.468)" fill="#a26f64"/>
            <rect id="Rectangle_716" data-name="Rectangle 716" width="16.549" height="12.073" transform="translate(146.276 80.468)" fill="#6f4a42"/>
          </g>
        </g>
      </g>
    </g>
  </g>
</svg>
