<svg width="350" height="190" viewBox="0 0 350 190" fill="none" xmlns="http://www.w3.org/2000/svg">
<g clip-path="url(#clip0_5_50)">
<path d="M13.418 0V66.475H17.535V33.335H66.266V30.2H17.535V3.235H74.403V0H13.418Z" fill="white"/>
<path d="M84.5039 0.000976562H80.2859V66.476H84.5039V0.000976562Z" fill="white"/>
<mask id="mask0_5_50" style="mask-type:luminance" maskUnits="userSpaceOnUse" x="0" y="0" width="350" height="190">
<path d="M350 0.000976562H0V189.335H350V0.000976562Z" fill="white"/>
</mask>
<g mask="url(#mask0_5_50)">
<path d="M138.72 66.478H96.949V0H140.388C147.709 0 153.853 1.07933 158.82 3.238C165.687 6.17733 169.12 10.818 169.12 17.16C169.12 24.088 163.564 28.9247 152.453 31.67C165.524 33.6993 172.061 39.255 172.063 48.337C172.063 55.2037 167.945 60.1723 159.708 63.243C154.024 65.397 147.03 66.4753 138.725 66.478M155.978 5.785C150.887 3.95586 145.5 3.0921 140.093 3.238H101.171V30.2H139.996C145.297 30.3168 150.577 29.4861 155.586 27.747C161.795 25.395 164.9 21.7027 164.901 16.67C164.901 11.7013 161.927 8.07367 155.978 5.785ZM157.743 36.184C152.903 34.3567 146.89 33.4417 139.703 33.439H101.171V63.243H140.291C146.162 63.3742 152.008 62.445 157.549 60.5C164.477 57.95 167.944 53.9287 167.949 48.436C167.949 42.818 164.549 38.733 157.749 36.181" fill="white"/>
<path d="M183.037 66.476V0.000976562H248.827V3.23598H187.157V30.201H241.767V33.339H187.157V63.241H249.511V66.476H183.037Z" fill="white"/>
<path d="M312.85 34.12C323.371 36.41 328.632 41.6717 328.635 49.905V66.475H324.32V50.2C324.32 40.7873 315.693 36.0807 298.438 36.08H261.865V66.48H257.647V0H299.612C319.812 0 329.912 5.719 329.912 17.157C329.912 25.7843 324.225 31.4387 312.852 34.12M299.908 3.235H261.865V32.747H297.75C304.678 32.747 310.528 31.832 315.3 30.002C322.229 27.3893 325.694 23.2063 325.694 17.453C325.694 7.97433 317.099 3.235 299.91 3.235" fill="white"/>
<path d="M25.0171 92.017L13.1511 81.017V92.017H12.4041V80.238H13.3041C14.6241 81.5233 16.6044 83.3533 19.2451 85.728C21.9451 88.174 23.9254 90.004 25.1861 91.218V80.238H25.9341V92.017H25.0171Z" fill="white" stroke="white" stroke-width="0.5"/>
<path d="M63.0972 92.018V80.239H74.7542V80.812H63.8262V85.589H73.5032V86.146H63.8262V91.446H74.8752V92.019L63.0972 92.018Z" fill="white" stroke="white" stroke-width="0.5"/>
<path d="M116.623 80.812V92.017H115.876V80.812H109.776V80.239H122.703V80.812H116.623Z" fill="white" stroke="white" stroke-width="0.5"/>
<path d="M173.377 92.018H172.699L168.794 85.277L165.004 92.018H164.326L157.533 80.239H158.315L164.674 91.254L168.357 84.566L165.907 80.24H166.689L173.047 91.254L179.194 80.239H179.976L173.377 92.018Z" fill="white" stroke="white" stroke-width="0.5"/>
<path d="M229.317 90.853C227.613 91.7731 225.693 92.2173 223.758 92.139C221.829 92.216 219.915 91.7718 218.217 90.853C217.377 90.3925 216.682 89.7057 216.212 88.8706C215.743 88.0354 215.516 87.0853 215.559 86.128C215.52 85.1808 215.75 84.2419 216.224 83.4207C216.698 82.5994 217.395 81.9295 218.234 81.489C219.942 80.6214 221.845 80.2081 223.759 80.289C225.673 80.2111 227.574 80.6242 229.283 81.489C230.126 81.9266 230.827 82.5953 231.304 83.4168C231.781 84.2384 232.014 85.1788 231.976 86.128C232.016 87.0849 231.788 88.0339 231.318 88.8686C230.849 89.7032 230.156 90.3904 229.317 90.853ZM228.831 81.976C227.266 81.1703 225.517 80.787 223.758 80.864C222.025 80.7945 220.304 81.1712 218.758 81.958C217.994 82.3451 217.357 82.9441 216.924 83.6834C216.491 84.4227 216.281 85.2711 216.317 86.127C216.282 86.9804 216.484 87.8269 216.901 88.5722C217.319 89.3176 217.934 89.9326 218.68 90.349C220.226 91.2148 221.982 91.6357 223.753 91.565C225.506 91.6358 227.246 91.2337 228.791 90.401C229.558 89.9902 230.193 89.371 230.624 88.6148C231.054 87.8586 231.262 86.9962 231.223 86.127C231.26 85.2782 231.054 84.4366 230.628 83.7011C230.203 82.9655 229.577 82.3667 228.823 81.975" fill="white"/>
<path d="M228.831 81.976C227.266 81.1703 225.517 80.787 223.758 80.864C222.025 80.7945 220.304 81.1712 218.758 81.958C217.994 82.3451 217.357 82.9441 216.924 83.6834C216.491 84.4227 216.281 85.2711 216.317 86.127C216.282 86.9804 216.484 87.8269 216.901 88.5722C217.319 89.3176 217.934 89.9326 218.68 90.349C220.226 91.2148 221.982 91.6357 223.753 91.565C225.506 91.6358 227.246 91.2337 228.791 90.401C229.558 89.9902 230.193 89.371 230.624 88.6148C231.054 87.8586 231.262 86.9962 231.223 86.127C231.26 85.2782 231.054 84.4366 230.628 83.7011C230.203 82.9655 229.577 82.3667 228.823 81.975M229.317 90.853C227.613 91.7731 225.693 92.2173 223.758 92.139C221.829 92.216 219.915 91.7718 218.217 90.853C217.377 90.3925 216.682 89.7057 216.212 88.8706C215.743 88.0354 215.516 87.0853 215.559 86.128C215.52 85.1808 215.75 84.2419 216.224 83.4207C216.698 82.5994 217.395 81.9295 218.234 81.489C219.942 80.6214 221.845 80.2081 223.759 80.289C225.673 80.2111 227.574 80.6242 229.283 81.489C230.126 81.9266 230.827 82.5953 231.304 83.4168C231.781 84.2384 232.014 85.1788 231.976 86.128C232.016 87.0849 231.788 88.0339 231.318 88.8686C230.849 89.7032 230.156 90.3904 229.317 90.853Z" stroke="white" stroke-width="0.5"/>
<path d="M278.359 86.284C280.226 86.6906 281.159 87.624 281.159 89.084V92.02H280.395V89.133C280.395 87.4663 278.866 86.633 275.809 86.633H269.329V92.019H268.579V80.238H276.015C279.594 80.238 281.383 81.2513 281.383 83.278C281.383 84.8066 280.375 85.8083 278.36 86.283M276.067 80.811H269.325V86.045H275.679C276.737 86.0724 277.79 85.9077 278.789 85.559C279.299 85.4438 279.756 85.1631 280.089 84.7608C280.422 84.3584 280.613 83.8571 280.631 83.335C280.631 81.657 279.108 80.8173 276.062 80.816" fill="white"/>
<path d="M278.359 86.284C280.226 86.6906 281.159 87.624 281.159 89.084V92.02H280.395V89.133C280.395 87.4663 278.866 86.633 275.809 86.633H269.329V92.019H268.579V80.238H276.015C279.594 80.238 281.383 81.2513 281.383 83.278C281.383 84.8066 280.375 85.8083 278.36 86.283M276.067 80.811H269.325V86.045H275.679C276.737 86.0724 277.79 85.9077 278.789 85.559C279.299 85.4438 279.756 85.1631 280.089 84.7608C280.422 84.3584 280.613 83.8571 280.631 83.335C280.631 81.657 279.108 80.8173 276.062 80.816" stroke="white" stroke-width="0.5"/>
<path d="M328.165 92.018L322.036 87.136L319.165 88.665V92.018H318.405V80.239H319.165V87.97L327.504 83.453L328.981 83.47L322.657 86.77L329.241 92.017L328.165 92.018Z" fill="white" stroke="white" stroke-width="0.5"/>
</g>
<mask id="mask1_5_50" style="mask-type:luminance" maskUnits="userSpaceOnUse" x="0" y="118" width="344" height="52">
<path d="M343.148 119.087C342.674 120.045 342.143 120.973 341.557 121.867C339.435 125.32 336.911 128.509 334.038 131.367C329.56 135.777 324.57 139.635 319.174 142.857C312.147 146.991 304.862 150.67 297.364 153.871C289.112 156.939 279.411 158.571 269.227 159.071C258.488 159.442 247.737 158.989 237.067 157.716C225.632 156.411 214.272 154.514 203.034 152.032C197.298 150.785 191.495 149.426 185.762 147.932C180.026 146.41 174.324 144.638 168.636 142.79C157.261 139.115 145.9 135.184 134.454 132.102C123.033 129.002 111.668 126.456 100.602 124.375C95.064 123.343 89.616 122.388 84.227 121.654C78.909 121.159 73.5655 120.992 68.227 121.154C58.4443 121.354 48.7616 123.165 39.568 126.515C31.8073 129.388 24.664 133.71 18.519 139.253C13.8023 143.504 9.7478 148.437 6.49 153.888C4.38712 157.371 2.63328 161.053 1.254 164.881C0.748525 166.226 0.32967 167.603 0 169.002C0.365158 167.615 0.819093 166.252 1.359 164.923C2.83082 161.147 4.67421 157.526 6.862 154.115C10.2275 148.811 14.3635 144.037 19.134 139.951C25.3269 134.696 32.4208 130.606 40.072 127.881C49.146 124.732 58.6771 123.1 68.282 123.051C73.508 122.97 78.734 123.207 83.931 123.763C89.24 124.586 94.678 125.525 100.178 126.591C111.178 128.714 122.478 131.306 133.811 134.443C145.145 137.553 156.427 141.517 167.837 145.259C173.553 147.104 179.31 148.852 185.119 150.367C190.942 151.851 196.731 153.174 202.519 154.408C213.848 156.852 225.297 158.704 236.819 159.957C259.164 162.347 280.807 161.833 297.964 155.2C305.47 151.883 312.724 148.023 319.669 143.651C325.022 140.257 329.949 136.234 334.345 131.667C337.157 128.721 339.607 125.45 341.645 121.924C342.209 121.014 342.717 120.071 343.167 119.099C343.48 118.446 343.64 118.105 343.64 118.105C343.64 118.105 343.47 118.439 343.14 119.085" fill="white"/>
</mask>
<g mask="url(#mask1_5_50)">
<path d="M343.645 118.108H0V169.003H343.645V118.108Z" fill="url(#paint0_linear_5_50)"/>
</g>
<mask id="mask2_5_50" style="mask-type:luminance" maskUnits="userSpaceOnUse" x="0" y="107" width="337" height="49">
<path d="M65.9681 107.259C56.4626 107.688 47.0927 109.679 38.2341 113.152C24.9279 118.418 13.7567 127.969 6.48708 140.295C4.46842 143.697 2.78134 147.286 1.44908 151.011C0.959918 152.317 0.554758 153.653 0.236084 155.011C0.590231 153.662 1.02876 152.337 1.54908 151.043C2.97796 147.373 4.75261 143.846 6.84908 140.512C10.0926 135.34 14.0587 130.659 18.6271 126.609C24.5608 121.398 31.3802 117.292 38.7621 114.486C47.5038 111.212 56.7237 109.395 66.0541 109.108C71.1459 108.924 76.2443 109.066 81.3181 109.532C86.4261 109.911 91.7521 111.075 97.0961 111.982C107.805 113.982 118.812 116.382 129.857 119.327C140.93 122.197 151.927 125.887 162.983 129.598C173.982 133.382 185.185 136.543 196.54 139.066C207.752 141.602 218.895 143.68 229.767 145.108C240.217 146.538 250.751 147.271 261.298 147.3C270.787 147.422 280.255 146.379 289.49 144.194C293.573 143.115 297.546 141.659 301.359 139.844C304.831 138.32 308.218 136.609 311.505 134.719C316.865 131.66 321.827 127.952 326.279 123.678C329.121 120.929 331.765 117.982 334.191 114.86C335.824 112.668 336.691 111.497 336.691 111.497L336.642 111.462C336.642 111.462 335.742 112.602 334.042 114.738C331.534 117.771 328.812 120.622 325.898 123.268C321.368 127.356 316.35 130.869 310.958 133.726C307.848 135.39 304.44 136.989 300.805 138.549C297.039 140.27 293.123 141.639 289.105 142.639C280.705 144.672 271.256 145.384 261.305 145.276C250.854 145.08 240.423 144.264 230.068 142.832C219.286 141.362 208.227 139.243 197.084 136.661C185.825 134.077 174.71 130.904 163.784 127.155C152.742 123.503 141.616 119.831 130.467 116.999C119.335 114.099 108.267 111.732 97.4901 109.775C92.0731 108.875 86.8581 107.767 81.4721 107.454C78.5781 107.197 75.7081 107.103 72.8721 107.103C70.5411 107.103 68.2331 107.169 65.9611 107.259" fill="white"/>
</mask>
<g mask="url(#mask2_5_50)">
<path d="M336.692 107.104H0.236084V155.014H336.692V107.104Z" fill="url(#paint1_linear_5_50)"/>
</g>
<mask id="mask3_5_50" style="mask-type:luminance" maskUnits="userSpaceOnUse" x="0" y="112" width="340" height="52">
<path d="M337.547 116.237C335.339 119.539 332.803 122.61 329.979 125.403C325.566 129.704 320.633 133.438 315.296 136.518C312.231 138.339 308.854 140.076 305.255 141.824C301.523 143.724 297.671 145.378 293.723 146.775C284.784 149.766 275.459 151.45 266.038 151.775C261.021 152.022 255.878 151.865 250.545 151.824C245.278 151.807 239.892 151.536 234.427 151.053C223.19 150.021 212.022 148.335 200.981 146.005C189.696 143.681 178.381 140.567 167.181 137.1C155.948 133.733 144.767 129.932 133.44 127.26C122.158 124.494 110.94 122.347 100.04 120.537C94.5711 119.661 89.2621 118.789 83.8941 118.223C78.692 117.767 73.4674 117.623 68.2481 117.789C58.6535 117.992 49.15 119.696 40.0831 122.841C32.427 125.532 25.3307 129.607 19.1481 134.864C14.4003 138.9 10.2866 143.627 6.94508 148.887C4.78535 152.244 2.97586 155.814 1.54508 159.54C1.02107 160.849 0.583792 162.191 0.236084 163.557C0.618545 162.201 1.0899 160.873 1.64708 159.579C3.17117 155.909 5.06776 152.404 7.30708 149.121C10.7488 144.008 14.9396 139.442 19.7391 135.576C25.9647 130.6 33.0143 126.753 40.5681 124.211C49.5147 121.255 58.8699 119.721 68.2921 119.667C73.436 119.58 78.5805 119.8 83.6981 120.327C88.8651 120.97 94.2611 121.859 99.6701 122.752C110.507 124.607 121.67 126.8 132.855 129.6C144.06 132.3 155.155 136.129 166.419 139.575C188.462 146.593 211.2 151.204 234.235 153.327C239.756 153.779 245.204 154.039 250.544 154.018C255.815 153.98 261.065 154.056 266.138 153.733C275.716 153.252 285.174 151.396 294.223 148.222C301.752 145.301 308.988 141.677 315.835 137.397C321.139 134.14 326.013 130.23 330.345 125.761C333.109 122.876 335.572 119.718 337.697 116.335C339.125 113.976 339.82 112.676 339.82 112.676L339.768 112.648C339.768 112.648 339.035 113.927 337.548 116.237" fill="white"/>
</mask>
<g mask="url(#mask3_5_50)">
<path d="M339.819 112.649H0.236084V163.558H339.819V112.649Z" fill="url(#paint2_linear_5_50)"/>
</g>
<mask id="mask4_5_50" style="mask-type:luminance" maskUnits="userSpaceOnUse" x="0" y="0" width="350" height="190">
<path d="M350 0.000976562H0V189.335H350V0.000976562Z" fill="white"/>
</mask>
<g mask="url(#mask4_5_50)">
<path d="M0 120.098V134.051C0 134.051 24.047 114.33 60.377 120.098C60.377 120.098 83.913 121.258 134.569 147.356C185.225 173.454 222.061 188.8 257.877 189.311C293.693 189.822 306.163 182.351 338.877 162.953C338.877 162.953 341.747 160.462 346.09 168.933L350 142.112L320.939 154.2C320.939 154.2 333.451 156.18 330.439 158.008C312.646 168.808 299.766 179.102 261.845 180.162C216.582 182.716 177.421 161.295 147.87 149.016C147.87 149.016 75.079 117.571 63.064 116.016C51.934 113.711 25.965 108.062 0 120.098Z" fill="#074193"/>
</g>
</g>
<defs>
<linearGradient id="paint0_linear_5_50" x1="37.1137" y1="156.737" x2="309.275" y2="142.851" gradientUnits="userSpaceOnUse">
<stop stop-color="#FF8557"/>
<stop offset="0.089" stop-color="#FFA55F"/>
<stop offset="1" stop-color="#FFD26B"/>
</linearGradient>
<linearGradient id="paint1_linear_5_50" x1="36.5733" y1="143.468" x2="302.984" y2="129.33" gradientUnits="userSpaceOnUse">
<stop stop-color="#FF8557"/>
<stop offset="0.089" stop-color="#FFA55F"/>
<stop offset="1" stop-color="#FFD26B"/>
</linearGradient>
<linearGradient id="paint2_linear_5_50" x1="36.9111" y1="151.289" x2="305.872" y2="137.732" gradientUnits="userSpaceOnUse">
<stop stop-color="#FF8557"/>
<stop offset="0.089" stop-color="#FFA55F"/>
<stop offset="1" stop-color="#FFD26B"/>
</linearGradient>
<clipPath id="clip0_5_50">
<rect width="350" height="189.335" fill="white"/>
</clipPath>
</defs>
</svg>
